<svg width="20" height="20" fill="none" xmlns="http://www.w3.org/2000/svg"><path fill-rule="evenodd" clip-rule="evenodd" d="M3.333 4.167A.838.838 0 002.5 5v10c0 .456.377.833.833.833h13.334A.838.838 0 0017.5 15V5a.838.838 0 00-.833-.833H3.333zM.833 5c0-1.377 1.123-2.5 2.5-2.5h13.334c1.377 0 2.5 1.123 2.5 2.5v10c0 1.377-1.123 2.5-2.5 2.5H3.333a2.505 2.505 0 01-2.5-2.5V5z" fill="#000"/><path fill-rule="evenodd" clip-rule="evenodd" d="M.984 4.523a.833.833 0 011.16-.205L10 9.817l7.855-5.5a.833.833 0 01.956 1.366l-8.333 5.833a.833.833 0 01-.956 0L1.19 5.683a.833.833 0 01-.205-1.16z" fill="#000"/></svg>