<svg width="28" height="28" viewBox="0 0 28 28" fill="none" xmlns="http://www.w3.org/2000/svg">
<path fill-rule="evenodd" clip-rule="evenodd" d="M3.5 13.9997C3.5 13.3553 4.02233 12.833 4.66667 12.833H23.3333C23.9777 12.833 24.5 13.3553 24.5 13.9997C24.5 14.644 23.9777 15.1663 23.3333 15.1663H4.66667C4.02233 15.1663 3.5 14.644 3.5 13.9997Z" fill="white"/>
<path fill-rule="evenodd" clip-rule="evenodd" d="M3.5 6.99967C3.5 6.35534 4.02233 5.83301 4.66667 5.83301H23.3333C23.9777 5.83301 24.5 6.35534 24.5 6.99967C24.5 7.64401 23.9777 8.16634 23.3333 8.16634H4.66667C4.02233 8.16634 3.5 7.64401 3.5 6.99967Z" fill="white"/>
<path fill-rule="evenodd" clip-rule="evenodd" d="M3.5 20.9997C3.5 20.3553 4.02233 19.833 4.66667 19.833H23.3333C23.9777 19.833 24.5 20.3553 24.5 20.9997C24.5 21.644 23.9777 22.1663 23.3333 22.1663H4.66667C4.02233 22.1663 3.5 21.644 3.5 20.9997Z" fill="white"/>
</svg>
