<svg width="20" height="20" fill="none" xmlns="http://www.w3.org/2000/svg"><g clip-path="url(#clip0_2919_1603)"><path d="M16.575 19.108c-.075 0-.15 0-.233-.008a17.403 17.403 0 01-7.567-2.692 17.15 17.15 0 01-5.25-5.25A17.39 17.39 0 01.842 3.575a2.476 2.476 0 01.642-1.925c.233-.259.516-.459.833-.6A2.532 2.532 0 013.333.833h2.5c.584 0 1.184.208 1.65.608.459.392.759.942.842 1.542.1.742.283 1.475.542 2.167.166.45.208.933.1 1.4-.1.466-.334.9-.667 1.233l-.6.6a12.592 12.592 0 003.825 3.825l.6-.6a2.422 2.422 0 011.242-.667c.466-.1.95-.066 1.4.1a10.11 10.11 0 002.158.542 2.499 2.499 0 012.158 2.525V16.6c0 .35-.066.683-.208 1.008-.142.317-.35.608-.6.842a2.478 2.478 0 01-.892.525 2.456 2.456 0 01-.808.133zM5.85 2.5H3.333A.778.778 0 003 2.575a.743.743 0 00-.283.191.681.681 0 00-.175.3.94.94 0 00-.042.342 15.817 15.817 0 002.425 6.85 15.56 15.56 0 004.75 4.75 15.761 15.761 0 006.833 2.433c.1.009.217-.008.325-.041a.916.916 0 00.3-.175.678.678 0 00.2-.284.807.807 0 00.067-.341v-2.517a.809.809 0 00-.2-.558.805.805 0 00-.517-.284c-.85-.108-1.7-.325-2.516-.625a.815.815 0 00-.467-.033.82.82 0 00-.417.225l-1.05 1.058a.833.833 0 01-1 .134 14.257 14.257 0 01-5.316-5.31c-.175-.35-.125-.758.141-1.025l1.059-1.058a.81.81 0 00.216-.408.81.81 0 00-.033-.467 11.56 11.56 0 01-.633-2.525.834.834 0 00-.275-.508.851.851 0 00-.542-.2z" fill="#000"/></g><defs><clipPath id="clip0_2919_1603"><path fill="#fff" d="M0 0h20v20H0z"/></clipPath></defs></svg>