<svg width="22" height="22" fill="none" xmlns="http://www.w3.org/2000/svg"><path d="M18.637 3.32A10.633 10.633 0 0011.043.167C5.128.167.308 4.987.308 10.903c0 1.896.498 3.737 1.43 5.362L.22 21.834l5.687-1.495a10.737 10.737 0 005.135 1.31c5.915 0 10.736-4.82 10.736-10.735 0-2.871-1.116-5.569-3.142-7.594zm-7.594 16.51a8.95 8.95 0 01-4.55-1.246l-.325-.195-3.38.888.9-3.293-.217-.336a8.953 8.953 0 01-1.365-4.745c0-4.918 4.008-8.927 8.927-8.927a8.83 8.83 0 016.304 2.622 8.866 8.866 0 012.611 6.316c.022 4.918-3.986 8.916-8.905 8.916zm4.897-6.674c-.27-.13-1.592-.78-1.83-.877-.25-.087-.423-.13-.607.13-.185.27-.694.877-.845 1.05-.152.185-.315.206-.585.066-.271-.13-1.138-.423-2.156-1.333-.802-.715-1.333-1.592-1.495-1.863-.152-.271-.022-.412.119-.553.119-.119.27-.314.4-.466.13-.151.185-.27.272-.444.086-.184.043-.336-.022-.466a89.181 89.181 0 01-.823-1.993c-.217-.52-.445-.455-.607-.466h-.52a.973.973 0 00-.715.336c-.238.27-.932.92-.932 2.243 0 1.321.964 2.6 1.094 2.773.13.184 1.896 2.892 4.583 4.052a13.18 13.18 0 001.527.563c.64.206 1.225.173 1.69.108.52-.076 1.593-.65 1.81-1.278.227-.628.227-1.16.151-1.278-.076-.12-.238-.174-.509-.304z" fill="#fff"/></svg>