<svg width="302" height="131" fill="none" xmlns="http://www.w3.org/2000/svg"><rect x="1" y="1" width="300" height="129" rx="15" fill="#FEF4FF" fill-opacity=".07"/><rect x=".5" y=".5" width="301" height="130" rx="15.5" stroke="#fff" stroke-opacity=".28"/><g clip-path="url(#clip0_2754_700)"><g filter="url(#filter0_bd_2754_700)" shape-rendering="crispEdges"><rect width="170.832" height="314.457" rx="21.742" transform="matrix(.96245 .27144 -.7071 .7071 193.582 -45.63)" fill="url(#paint0_linear_2754_700)" fill-opacity=".06"/><rect x="-.139" y="-.532" width="171.919" height="315.544" rx="22.285" transform="matrix(.96245 .27144 -.7071 .7071 193.2 -45.749)" stroke="#fff" stroke-opacity=".52" stroke-width="1.087"/></g><g filter="url(#filter1_b_2754_700)"><rect width="170.832" height="328.217" rx="21.742" transform="matrix(.96245 .27144 -.7071 .7071 193.582 -92.093)" fill="#80AAFF"/><rect x="-.139" y="-.532" width="171.919" height="329.304" rx="22.285" transform="matrix(.96245 .27144 -.7071 .7071 193.2 -92.21)" stroke="#fff" stroke-opacity=".52" stroke-width="1.087"/></g><path d="M21.26 102.209c.43.121.74.285.934.492.2.205.274.44.221.706-.05.266-.221.547-.517.843a3.34 3.34 0 01-1.026.699 3.528 3.528 0 01-1.22.294 3.86 3.86 0 01-1.282-.144l-1.225-.345 2.89-2.89 1.226.345zm-2.579 2.579a2.73 2.73 0 001.457.034 2.704 2.704 0 001.235-.721c.36-.359.504-.678.435-.956-.065-.277-.35-.487-.854-.629l-.711-.201-2.273 2.273.711.2zm5.597-1.409c-.098-.027-.155-.076-.173-.145-.018-.068.008-.139.08-.211a.602.602 0 01.285-.153.602.602 0 01.323-.005c.094.026.148.074.162.141.018.069-.01.14-.081.212a.61.61 0 01-.284.153.564.564 0 01-.312.008zm-.12.439l-2.273 2.273-.514-.145 2.273-2.273.514.145zm-.105 2.932a1.451 1.451 0 01-.55-.267.524.524 0 01-.198-.374c0-.139.062-.279.189-.42l.53.149c-.098.118-.119.231-.063.339.06.109.195.193.406.252.196.055.382.067.558.035a.75.75 0 00.41-.192c.1-.1.113-.19.04-.271-.071-.084-.21-.185-.414-.303a3.28 3.28 0 01-.432-.292.504.504 0 01-.17-.308c-.01-.12.058-.253.205-.4.116-.116.27-.209.46-.279.191-.07.4-.109.629-.115.231-.009.458.017.68.08.342.096.555.238.639.425.083.186.022.392-.184.618l-.514-.145c.108-.122.137-.236.089-.342-.045-.105-.167-.185-.366-.242a1.214 1.214 0 00-.528-.037.7.7 0 00-.392.182c-.074.075-.105.146-.09.214a.41.41 0 00.132.186c.074.056.181.127.322.213.178.107.314.202.41.286a.43.43 0 01.164.291c.016.114-.043.241-.178.38a1.315 1.315 0 01-.477.296 2.046 2.046 0 01-.637.124 2.19 2.19 0 01-.67-.083zm3.08-.647c.232-.232.499-.417.8-.555.306-.141.618-.228.936-.263.323-.033.622-.011.896.067.271.076.463.186.577.327a.527.527 0 01.123.45l.414-.415.52.146-2.273 2.273-.52-.146.424-.423a2.616 2.616 0 01-.79.202 2.17 2.17 0 01-.827-.069c-.275-.077-.474-.197-.596-.359a.646.646 0 01-.106-.567c.051-.216.192-.438.421-.668zm2.614.743c.172-.171.274-.334.307-.488a.44.44 0 00-.093-.398c-.09-.114-.23-.198-.422-.252-.192-.054-.4-.07-.624-.048a2.093 2.093 0 00-1.258.591c-.174.175-.279.34-.315.496a.461.461 0 00.084.401c.092.111.234.194.426.248.191.054.4.07.624.049.23-.024.457-.086.678-.187.224-.103.422-.24.593-.412zm2.846-.107c.24-.105.505-.172.794-.201.289-.028.563-.006.823.067.278.079.48.198.605.357a.63.63 0 01.115.559c-.046.21-.186.431-.418.664-.23.229-.498.416-.805.559a2.98 2.98 0 01-.95.269c-.321.037-.62.017-.894-.06-.267-.076-.46-.185-.577-.328a.539.539 0 01-.124-.455l-.419.419-.514-.145 3.07-3.069.513.145-1.22 1.219zm1.394 1.298c.172-.172.274-.334.307-.488a.44.44 0 00-.093-.399c-.092-.111-.234-.193-.426-.247a1.69 1.69 0 00-.628-.045 2.152 2.152 0 00-.679.187 1.96 1.96 0 00-.585.404c-.171.171-.275.335-.31.491a.48.48 0 00.089.403.842.842 0 00.425.248c.192.054.4.07.625.048.23-.023.457-.085.678-.186.224-.103.423-.242.597-.416zm3.874-1.375l-3.068 3.069-.514-.145 3.069-3.069.513.145zm2.088 2.955a3.821 3.821 0 01-.245.223l-2.473-.697c-.205.229-.277.434-.216.614.068.179.237.306.508.383.222.062.444.077.665.044a1.74 1.74 0 00.623-.218l.553.156a2.754 2.754 0 01-1.031.395 2.55 2.55 0 01-1.13-.058c-.293-.083-.508-.206-.645-.368a.636.636 0 01-.13-.563c.047-.217.189-.443.424-.678.235-.235.505-.423.81-.564.304-.141.619-.226.942-.255a2.57 2.57 0 01.947.081c.293.083.506.203.638.36a.593.593 0 01.13.537c-.04.198-.163.401-.37.608zm-.452-.229c.144-.143.224-.279.24-.405a.373.373 0 00-.12-.337.875.875 0 00-.408-.221 1.7 1.7 0 00-.849-.006c-.302.071-.574.21-.816.419l1.953.55zm1.094.511c.232-.232.5-.417.802-.555.305-.141.616-.229.935-.263a2.41 2.41 0 01.902.068c.24.068.423.173.547.314.127.139.178.29.155.453l1.202-1.202.52.146-3.069 3.069-.52-.147.428-.427a2.63 2.63 0 01-.788.209 2.21 2.21 0 01-.828-.069c-.275-.078-.475-.198-.602-.361a.645.645 0 01-.106-.567c.052-.216.193-.438.422-.668zm2.615.743c.171-.172.274-.334.307-.488a.44.44 0 00-.094-.398c-.089-.114-.23-.198-.421-.252-.192-.054-.4-.07-.624-.049a2.095 2.095 0 00-1.258.592c-.174.174-.279.34-.315.496a.462.462 0 00.084.401c.092.111.233.194.425.248.192.054.4.07.625.048.23-.023.457-.085.678-.186a2.04 2.04 0 00.593-.412zm2.406-33.697l1.377.389-.307.307-1.89-.533 2.89-2.89.514.144-2.584 2.584zm3.163 1.334c-.29-.082-.505-.205-.645-.368a.648.648 0 01-.143-.567c.048-.217.19-.442.424-.677a2.69 2.69 0 01.817-.557c.32-.14.644-.224.975-.251a2.59 2.59 0 01.941.079c.294.083.51.206.651.37.143.16.194.348.152.564-.037.216-.174.441-.409.676a2.66 2.66 0 01-.836.562 3.1 3.1 0 01-.98.25 2.637 2.637 0 01-.947-.081zm.331-.332c.185.052.39.07.615.051.226-.018.45-.077.676-.176.229-.099.434-.24.617-.422.182-.182.288-.35.317-.506a.427.427 0 00-.102-.39.842.842 0 00-.418-.24 1.711 1.711 0 00-.614-.051 2.06 2.06 0 00-1.26.602c-.186.185-.297.354-.334.506a.433.433 0 00.087.392.855.855 0 00.416.234zm3.155-.2c.232-.232.5-.418.802-.556.305-.14.616-.228.935-.262.323-.033.621-.01.896.067.271.076.463.185.577.327a.526.526 0 01.123.45l.414-.415.52.146-2.273 2.273-.52-.147.424-.423a2.616 2.616 0 01-.79.203c-.284.03-.56.006-.828-.069-.274-.077-.473-.197-.595-.36a.646.646 0 01-.107-.566c.052-.216.193-.439.422-.668zm2.615.743c.172-.172.274-.334.307-.488a.44.44 0 00-.094-.398c-.089-.114-.229-.198-.42-.252a1.71 1.71 0 00-.625-.049 2.097 2.097 0 00-1.258.592c-.174.174-.279.34-.315.496a.462.462 0 00.084.401.83.83 0 00.425.248c.192.054.4.07.625.048.23-.023.457-.085.678-.186.224-.103.422-.24.593-.412zm1.435.399c.232-.232.5-.417.801-.555a2.97 2.97 0 01.936-.263c.322-.033.623-.01.901.068.241.068.424.173.548.314.126.139.178.29.154.453l1.203-1.203.52.147-3.07 3.069-.519-.147.427-.427c-.237.107-.5.176-.787.209-.285.03-.561.006-.828-.07-.275-.077-.476-.197-.602-.36a.646.646 0 01-.106-.567c.052-.216.192-.439.422-.668zm2.615.743c.171-.172.273-.334.306-.488a.44.44 0 00-.093-.398c-.089-.114-.23-.198-.421-.252-.192-.054-.4-.07-.625-.049a2.097 2.097 0 00-1.257.592c-.174.174-.28.34-.315.496a.462.462 0 00.083.401c.092.111.234.194.426.248.192.054.4.07.624.048a2.13 2.13 0 00.678-.186 2.04 2.04 0 00.594-.412zm3.389-.969c-.098-.028-.156-.076-.174-.145-.018-.069.009-.139.08-.21a.61.61 0 01.285-.155.61.61 0 01.323-.004c.094.026.148.073.162.141.018.07-.009.14-.08.211a.61.61 0 01-.285.154.57.57 0 01-.311.008zm-.121.44l-2.273 2.272-.513-.145 2.272-2.273.514.145zm2.659.696c.376.106.597.276.661.51.068.233-.056.506-.371.821l-1.34 1.34-.508-.144 1.286-1.285c.227-.227.322-.422.287-.584-.033-.165-.183-.285-.45-.36a1.53 1.53 0 00-.836.003 1.8 1.8 0 00-.78.476l-1.256 1.257-.514-.145 2.273-2.273.513.145-.323.324a2.18 2.18 0 01.681-.154c.24-.013.466.01.677.069zm3.61 1.023c.267.076.458.184.571.326.118.143.16.294.128.451l.415-.415.52.147-2.323 2.322a2.443 2.443 0 01-.732.5c-.284.13-.584.208-.9.236a2.507 2.507 0 01-.916-.083c-.407-.115-.675-.28-.805-.498-.13-.217-.098-.455.097-.712l.508.144c-.082.154-.076.297.018.43.091.135.26.238.51.308.281.08.576.08.883 0a1.75 1.75 0 00.818-.471l.477-.477a2.642 2.642 0 01-.784.204c-.287.032-.565.01-.832-.064-.275-.078-.475-.198-.602-.362a.646.646 0 01-.106-.566c.052-.216.193-.439.422-.668.233-.233.5-.418.802-.556.305-.14.616-.228.935-.262.323-.033.621-.011.896.066zm-.018 1.495c.172-.172.274-.334.307-.488a.44.44 0 00-.094-.399c-.089-.113-.229-.197-.42-.251a1.689 1.689 0 00-.625-.049 2.097 2.097 0 00-1.258.592c-.174.174-.279.34-.315.496a.462.462 0 00.084.4c.092.112.233.194.425.248.192.055.4.07.625.049.23-.024.457-.086.678-.186.224-.104.422-.241.593-.412zm5.809-31.69l-1.716-.484-.959.553-.542-.153 4.296-2.472.593.167-1.457 3.273-.542-.153.327-.731zm.16-.349l.748-1.66-2.17 1.26 1.422.4zm1.859.28c.234-.235.503-.422.805-.56.305-.14.619-.228.941-.26.327-.033.636-.007.93.075.38.108.625.264.734.468.113.206.088.44-.073.702l-.553-.156c.085-.153.091-.291.017-.415-.07-.122-.218-.215-.444-.28a1.65 1.65 0 00-.935.024 2.094 2.094 0 00-.897.55c-.274.274-.395.51-.364.71.031.201.194.343.487.425.226.064.453.078.68.043a1.64 1.64 0 00.643-.244l.553.156a2.798 2.798 0 01-1.056.42c-.387.068-.767.05-1.14-.055-.293-.083-.506-.205-.638-.367a.625.625 0 01-.12-.56c.048-.213.192-.438.43-.676zm5.303.443l-1.34 1.34c-.11.11-.157.198-.14.263.02.062.109.115.267.16l.378.107-.32.319-.462-.13c-.286-.081-.453-.19-.499-.327-.046-.137.041-.316.263-.537l1.34-1.34-.402-.113.311-.311.401.113.572-.572.514.145-.572.572.807.227-.311.311-.807-.227zm2.61-.136c-.098-.028-.156-.076-.174-.145-.018-.068.01-.139.081-.21a.61.61 0 01.284-.154.61.61 0 01.323-.005c.094.026.148.074.162.141.019.07-.008.14-.08.212a.609.609 0 01-.284.153.571.571 0 01-.312.008zm-.12.44l-2.273 2.272-.514-.145 2.273-2.273.513.145zm.337 2.561l2.884-1.653.547.154-3.486 1.93-.598-.168 1.059-2.615.553.156-.959 2.196zm5.945.555a3.878 3.878 0 01-.245.224l-2.472-.698c-.206.23-.278.434-.217.614.068.179.237.306.508.383.222.063.444.077.665.044.228-.035.436-.108.623-.218l.553.156a2.756 2.756 0 01-1.031.395c-.384.066-.76.046-1.13-.058-.293-.083-.508-.205-.644-.368a.637.637 0 01-.132-.563c.048-.217.19-.443.425-.678a2.853 2.853 0 011.752-.819c.33-.03.646-.004.947.081.293.083.506.203.638.36a.591.591 0 01.13.537c-.04.198-.163.4-.37.608zm-.452-.228c.144-.144.224-.28.24-.406a.373.373 0 00-.12-.337.878.878 0 00-.408-.221 1.701 1.701 0 00-.849-.005 1.9 1.9 0 00-.816.418l1.953.55zm12.998-32.337l-.307.307-1.71-.482-.975.974 1.389.392-.307.307-1.389-.392-1.302 1.302-.513-.145 2.89-2.89 2.224.627zm-.723 3.55c-.29-.082-.505-.205-.645-.368a.648.648 0 01-.143-.567c.048-.217.19-.443.425-.678a2.68 2.68 0 01.816-.556c.319-.14.644-.224.975-.252.334-.03.648-.003.941.08.294.083.511.206.651.37a.63.63 0 01.153.563c-.038.217-.174.442-.409.677a2.662 2.662 0 01-.837.562c-.316.137-.643.22-.981.25a2.634 2.634 0 01-.946-.081zm.331-.332c.185.052.39.069.615.05.226-.017.451-.076.676-.175a1.97 1.97 0 00.617-.422c.182-.182.288-.351.317-.506a.423.423 0 00-.102-.39.837.837 0 00-.418-.24 1.709 1.709 0 00-.614-.051 2.072 2.072 0 00-1.261.602c-.185.184-.296.354-.333.506a.432.432 0 00.087.391.854.854 0 00.416.235zm3.151-.196c.235-.235.504-.422.806-.56.305-.14.618-.228.941-.26.326-.033.636-.007.93.075.38.108.624.263.733.468.113.205.089.44-.073.702l-.553-.156c.086-.153.092-.291.017-.415-.07-.122-.218-.216-.444-.28a1.65 1.65 0 00-.935.024 2.095 2.095 0 00-.897.55c-.274.274-.395.51-.363.71.031.201.193.342.487.425.226.064.452.078.68.043.228-.035.442-.116.643-.244l.553.156a2.795 2.795 0 01-1.057.42c-.386.068-.766.05-1.139-.055-.293-.083-.506-.205-.639-.367a.626.626 0 01-.12-.56c.049-.213.192-.438.43-.676zm7.731.729l-2.272 2.272-.514-.145.336-.336a2.168 2.168 0 01-.686.158 1.997 1.997 0 01-.671-.067c-.241-.068-.421-.165-.541-.29a.509.509 0 01-.126-.462c.038-.177.161-.37.372-.58l1.331-1.332.508.143-1.282 1.282c-.224.224-.319.418-.287.584.036.162.187.28.454.356.275.077.553.076.836-.004.282-.08.542-.238.78-.476l1.248-1.248.514.145zm-.112 2.93a1.448 1.448 0 01-.551-.268c-.127-.113-.193-.238-.197-.374-.001-.139.061-.279.188-.42l.531.15c-.098.117-.12.23-.063.338.059.109.195.193.405.252.196.056.382.067.559.036a.746.746 0 00.409-.193c.1-.1.113-.19.04-.27-.071-.085-.209-.186-.414-.304a3.375 3.375 0 01-.432-.292.505.505 0 01-.169-.308c-.01-.12.058-.253.204-.4.116-.116.27-.209.461-.279.19-.07.4-.108.628-.115.232-.01.458.018.68.08.343.097.556.238.639.425.084.187.022.393-.184.618l-.513-.145c.107-.122.137-.236.088-.342-.045-.105-.167-.185-.366-.241a1.208 1.208 0 00-.527-.037.693.693 0 00-.392.181c-.075.075-.105.146-.091.214a.418.418 0 00.132.186c.074.057.182.128.323.213.177.107.314.203.409.286.098.08.153.178.165.291.016.114-.044.241-.178.38a1.334 1.334 0 01-.477.297 2.029 2.029 0 01-.637.123 2.182 2.182 0 01-.67-.083zM130.656-4.87l-2.891 2.89-.513-.145 1.31-1.31L126.558-4l-1.31 1.31-.514-.145 2.891-2.89.513.145-1.268 1.269 2.003.565 1.269-1.27.514.146zm-.467 3.621c-.289-.081-.504-.204-.645-.368a.648.648 0 01-.142-.566c.048-.217.189-.443.424-.678.232-.232.505-.418.817-.556a3.02 3.02 0 01.975-.252c.334-.03.648-.003.941.08.294.082.511.206.651.37.143.16.194.348.152.563-.037.217-.174.442-.409.677a2.667 2.667 0 01-.836.562c-.316.137-.643.22-.981.25a2.639 2.639 0 01-.947-.082zm.332-.331c.185.052.389.069.615.05.225-.017.45-.076.675-.175a1.96 1.96 0 00.617-.422c.183-.182.289-.351.318-.506a.428.428 0 00-.102-.39.841.841 0 00-.418-.24 1.713 1.713 0 00-.615-.051 2.058 2.058 0 00-1.26.602c-.185.184-.296.353-.333.506a.435.435 0 00.086.391.862.862 0 00.417.235zm3.702.975l2.884-1.654.547.155-3.486 1.93-.598-.169 1.059-2.615.553.156-.959 2.197zm5.945.555a4.055 4.055 0 01-.245.223l-2.472-.697c-.205.229-.277.434-.216.614.067.178.236.306.507.382.222.063.444.078.665.044.228-.035.436-.107.623-.217l.553.156a2.756 2.756 0 01-1.031.394 2.53 2.53 0 01-1.129-.057c-.294-.083-.509-.206-.645-.368a.637.637 0 01-.132-.564c.048-.217.19-.443.425-.678a2.79 2.79 0 01.81-.563 2.86 2.86 0 01.942-.256c.33-.03.646-.004.947.081.294.083.506.203.638.361a.589.589 0 01.129.536c-.038.198-.162.401-.369.609zm-.452-.229c.144-.144.224-.279.239-.406a.372.372 0 00-.119-.336.873.873 0 00-.408-.222 1.699 1.699 0 00-.848-.005c-.303.07-.575.21-.817.418l1.953.551zm2.559-.05c.22-.104.449-.168.686-.194.242-.024.483-.002.724.066l-.39.39-.136-.038c-.575-.163-1.093-.014-1.552.445l-1.236 1.235-.513-.145 2.272-2.272.514.145-.369.369z" fill="#6E7191"/><g opacity=".5"><path d="M86.478 120.896c4.072-4.072 11.865-6.106 17.407-4.543l42.647 12.028c5.542 1.563 6.734 6.131 2.662 10.202-4.072 4.072-11.865 6.106-17.407 4.543l-42.646-12.028c-5.542-1.563-6.734-6.131-2.663-10.202z" fill="#5F2EEA"/><path d="M111.314 127.636c.17.082.26.2.269.354.009.154-.062.307-.215.46a1.475 1.475 0 01-.505.325 1.923 1.923 0 01-.64.131 2.226 2.226 0 01-.705-.085l-1.511-.426 2.573-2.573 1.445.407c.238.067.414.153.528.258.117.105.169.221.155.346-.01.126-.079.253-.207.381-.15.15-.331.26-.542.329a1.759 1.759 0 01-.645.093zm-1.093-.554l.642.181c.168.047.323.056.468.028a.734.734 0 00.375-.202c.103-.103.138-.196.104-.278-.034-.082-.134-.146-.302-.193l-.642-.181-.645.645zm-.383 1.29c.17.048.332.056.484.024a.764.764 0 00.396-.21c.111-.111.147-.211.108-.301-.036-.092-.14-.162-.311-.21l-.692-.195-.693.693.708.199zm6.295-.304l-2.042 2.042-.708-.199.258-.258a2.03 2.03 0 01-.566.11 1.732 1.732 0 01-.545-.06c-.218-.061-.377-.148-.478-.262a.458.458 0 01-.098-.41c.039-.159.15-.33.332-.512l1.198-1.198.702.198-1.124 1.125c-.162.162-.233.303-.211.422.025.117.132.203.323.257.194.054.389.054.585-.001a1.25 1.25 0 00.542-.329l1.124-1.124.708.199zm1.322.917l-.988.988c-.069.068-.097.125-.086.169.017.043.08.079.187.109l.326.092-.435.435-.442-.124c-.592-.167-.676-.462-.254-.885l.984-.984-.331-.093.424-.424.331.093.505-.505.708.2-.505.505.622.175-.424.424-.622-.175zm2.18.615l-.988.988c-.068.068-.097.125-.086.169.018.043.08.079.187.109l.326.092-.435.435-.441-.124c-.592-.167-.677-.462-.254-.885l.984-.984-.331-.093.424-.424.331.093.505-.505.707.2-.505.505.622.175-.424.424-.622-.175zm.946 2.383c-.268-.075-.466-.186-.594-.332a.597.597 0 01-.134-.516c.039-.193.163-.395.372-.603.209-.209.455-.376.739-.501a2.79 2.79 0 01.885-.223c.306-.027.593-.003.86.073.268.075.466.188.595.337a.578.578 0 01.143.513c-.033.196-.153.398-.362.607a2.337 2.337 0 01-.749.498 2.84 2.84 0 01-.894.225 2.403 2.403 0 01-.861-.078zm.449-.449c.127.036.268.047.423.034a1.477 1.477 0 00.909-.434c.194-.194.273-.362.236-.505-.032-.144-.148-.245-.349-.302a1.23 1.23 0 00-.665.016 1.47 1.47 0 00-.647.389c-.194.195-.278.363-.254.505.031.141.147.24.347.297zm5.396-.6c.331.093.521.246.571.458.051.21-.06.453-.336.728l-1.198 1.198-.702-.198 1.128-1.128c.162-.162.231-.302.207-.419-.022-.12-.129-.206-.319-.26a1.084 1.084 0 00-.595.002 1.225 1.225 0 00-.537.326l-1.128 1.128-.703-.198 2.042-2.042.703.198-.255.254c.183-.062.37-.097.563-.106.199-.01.385.01.559.059z" fill="#F7F7FC"/></g><path d="M114.125 93.25c4.071-4.072 11.864-6.106 17.406-4.543l42.647 12.028c5.542 1.563 6.734 6.13 2.662 10.202-4.071 4.071-11.865 6.105-17.407 4.542l-42.646-12.027c-5.542-1.563-6.734-6.131-2.662-10.203z" fill="#5F2EEA"/><path d="M147.402 100.173c-.517-.145-1.134-.175-1.775-.086a5.52 5.52 0 00-1.824.591c-.549.295-.987.666-1.258 1.067-.272.401-.365.813-.268 1.185.097.371.38.685.813.902.432.217.996.328 1.619.317a5.55 5.55 0 001.88-.376c.602-.235 1.127-.563 1.507-.943" stroke="#FCFCFC" stroke-width=".977" stroke-linecap="round" stroke-linejoin="round"/><path d="M140.619 66.755c4.072-4.071 11.865-6.105 17.407-4.542l42.646 12.027c5.542 1.563 6.734 6.131 2.663 10.203-4.072 4.071-11.865 6.105-17.407 4.542l-42.647-12.028c-5.542-1.563-6.734-6.13-2.662-10.202z" fill="#5F2EEA"/><path d="M165.455 73.495c.17.083.26.2.269.355.009.154-.063.306-.215.459a1.474 1.474 0 01-.506.325 1.915 1.915 0 01-.639.132 2.24 2.24 0 01-.706-.086l-1.51-.426 2.573-2.573 1.445.408c.237.067.413.153.527.257.118.106.169.221.156.346-.011.127-.08.254-.208.382-.15.15-.33.26-.541.329a1.78 1.78 0 01-.645.092zm-1.093-.554l.642.181a.994.994 0 00.467.028.732.732 0 00.375-.201c.104-.104.138-.196.105-.278-.034-.082-.135-.147-.302-.194l-.642-.181-.645.645zm-.384 1.29a1 1 0 00.485.024.76.76 0 00.396-.21c.111-.11.147-.21.108-.3-.037-.092-.14-.163-.311-.21l-.692-.196-.693.693.707.2zm6.295-.303l-2.042 2.042-.707-.2.258-.258c-.179.063-.368.1-.566.11a1.722 1.722 0 01-.546-.06c-.217-.06-.376-.148-.477-.262a.456.456 0 01-.098-.41c.039-.16.149-.33.331-.511l1.198-1.198.703.198-1.125 1.124c-.162.162-.232.303-.21.423.024.117.132.202.323.256.194.055.389.055.585 0 .199-.058.379-.167.542-.33l1.124-1.124.707.2zm1.323.916l-.988.988c-.069.069-.098.125-.086.17.017.042.079.079.186.109l.326.092-.435.435-.441-.125c-.592-.167-.677-.462-.254-.884l.984-.984-.331-.094.424-.424.331.094.505-.505.707.2-.505.504.623.176-.424.423-.622-.175zm2.18.615l-.988.988c-.069.069-.097.125-.086.17.017.042.08.078.187.109l.326.092-.435.435-.442-.125c-.592-.167-.676-.462-.254-.884l.984-.984-.331-.094.424-.424.331.094.505-.505.708.2-.505.504.622.176-.424.424-.622-.176zm.945 2.384c-.267-.076-.465-.187-.593-.333a.593.593 0 01-.135-.515c.04-.194.164-.395.373-.604.209-.209.455-.376.738-.5.287-.125.582-.199.886-.224.305-.027.592-.002.86.073.267.075.466.188.595.338a.577.577 0 01.143.513c-.033.195-.154.398-.363.607a2.324 2.324 0 01-.748.497 2.849 2.849 0 01-.894.225 2.427 2.427 0 01-.862-.077zm.45-.45c.127.036.268.047.423.034a1.468 1.468 0 00.909-.433c.194-.194.273-.363.235-.506-.031-.144-.147-.245-.348-.301a1.223 1.223 0 00-.665.015 1.46 1.46 0 00-.647.39c-.194.194-.279.362-.254.505.031.14.146.24.347.296zm5.396-.6c.331.093.521.246.57.459.052.21-.06.452-.335.727l-1.198 1.198-.702-.198 1.127-1.128c.163-.162.232-.302.207-.419-.022-.12-.128-.206-.319-.26a1.08 1.08 0 00-.594.003 1.224 1.224 0 00-.538.325l-1.128 1.128-.702-.198 2.042-2.042.702.198-.254.255c.182-.063.37-.098.563-.106.198-.01.385.009.559.058z" fill="#F7F7FC"/><path opacity=".8" d="M185.441 34.797c-6.235-1.758-15.002.53-19.583 5.11-4.58 4.58-3.239 9.72 2.995 11.478L211.5 63.412c6.235 1.759 15.002-.53 19.583-5.11 4.58-4.58 3.239-9.719-2.995-11.477l-42.647-12.028z" fill="#5F2EEA" stroke="#DED3FF" stroke-width="2.606"/><path d="M167.113 40.26c4.071-4.07 11.865-6.104 17.406-4.541l42.647 12.027c5.542 1.563 6.734 6.131 2.662 10.203-4.071 4.071-11.864 6.105-17.406 4.542l-42.647-12.028c-5.542-1.563-6.734-6.13-2.662-10.202z" fill="#5F2EEA"/><path d="M191.948 47c.17.083.26.2.269.355.01.153-.062.306-.214.459a1.485 1.485 0 01-.506.325 1.923 1.923 0 01-.64.132 2.233 2.233 0 01-.705-.086l-1.51-.426 2.573-2.573 1.445.408c.237.067.413.152.527.257.117.106.169.221.155.346-.01.127-.079.254-.207.381-.15.15-.33.26-.542.33-.207.07-.422.101-.645.092zm-1.093-.554l.643.181a.994.994 0 00.467.028.732.732 0 00.375-.202c.103-.103.138-.195.104-.277-.034-.082-.134-.147-.301-.194l-.642-.181-.646.645zm-.383 1.29c.17.049.332.056.485.024a.76.76 0 00.396-.21c.11-.11.146-.21.107-.3-.036-.093-.14-.163-.31-.21l-.693-.196-.693.693.708.2zm6.295-.303l-2.042 2.042-.708-.2.258-.258c-.178.063-.367.1-.566.11a1.71 1.71 0 01-.545-.06c-.218-.06-.377-.148-.478-.262a.455.455 0 01-.097-.41c.039-.16.149-.33.331-.512l1.198-1.198.702.199-1.124 1.124c-.162.162-.232.303-.21.422.024.118.132.203.322.257.194.055.389.055.586 0 .199-.058.379-.167.541-.33l1.125-1.124.707.2zm1.322.916l-.988.988c-.069.069-.097.125-.086.17.018.042.08.079.187.109l.326.092-.435.435-.441-.125c-.592-.167-.677-.462-.254-.884l.984-.985-.331-.093.423-.424.332.093.505-.505.707.2-.505.505.622.175-.424.424-.622-.175zm2.181.615l-.988.988c-.069.069-.098.125-.086.17.017.042.079.078.186.109l.326.092-.435.435-.441-.125c-.592-.167-.677-.462-.254-.884l.984-.985-.331-.093.424-.424.331.093.505-.505.707.2-.505.505.623.175-.424.424-.622-.175zm.945 2.384c-.268-.076-.466-.187-.594-.333a.596.596 0 01-.134-.515c.039-.194.163-.395.372-.604.209-.21.455-.376.739-.5a2.79 2.79 0 01.885-.224c.306-.027.593-.003.86.073.268.075.466.188.595.338a.574.574 0 01.143.513c-.032.195-.153.398-.362.606a2.333 2.333 0 01-.748.498 2.848 2.848 0 01-.895.225 2.424 2.424 0 01-.861-.077zm.45-.45c.127.036.268.047.422.034a1.464 1.464 0 00.91-.433c.194-.195.272-.363.235-.506-.032-.144-.148-.245-.348-.301a1.227 1.227 0 00-.666.015 1.457 1.457 0 00-.646.39c-.194.194-.279.362-.254.505.03.14.146.24.347.296zm5.395-.6c.332.093.522.246.571.459.052.21-.06.452-.335.727l-1.198 1.198-.703-.198 1.128-1.128c.162-.162.231-.302.207-.419-.022-.12-.128-.206-.319-.26a1.08 1.08 0 00-.594.003 1.219 1.219 0 00-.538.325l-1.128 1.128-.703-.198 2.043-2.042.702.198-.254.254c.182-.062.369-.097.562-.106.199-.01.385.01.559.059z" fill="#F7F7FC"/><g filter="url(#filter2_d_2754_700)"><path d="M194.067 13.306c4.072-4.072 11.865-6.105 17.407-4.542l42.647 12.027c5.542 1.563 6.734 6.13 2.662 10.203-4.071 4.071-11.865 6.105-17.407 4.542L196.73 23.508c-5.542-1.563-6.734-6.13-2.663-10.202z" fill="#007AFE"/><path d="M218.903 20.046c.17.082.26.2.269.354.009.154-.062.307-.215.46a1.471 1.471 0 01-.505.325 1.923 1.923 0 01-.64.132 2.23 2.23 0 01-.705-.086l-1.51-.426 2.573-2.573 1.444.408c.238.067.414.152.528.257.117.106.169.221.155.346-.01.127-.079.254-.207.381-.15.15-.331.26-.542.33a1.76 1.76 0 01-.645.092zm-1.093-.554l.643.18a.994.994 0 00.467.029.732.732 0 00.375-.202c.103-.103.138-.195.104-.277-.034-.082-.134-.147-.301-.194l-.643-.181-.645.645zm-.383 1.29c.17.049.332.056.485.024a.764.764 0 00.396-.21c.11-.11.146-.21.107-.3-.036-.093-.14-.163-.31-.21l-.693-.196-.693.693.708.2zm6.295-.303l-2.042 2.042-.708-.2.258-.258c-.178.063-.367.1-.566.11a1.71 1.71 0 01-.545-.06c-.218-.06-.377-.148-.478-.262-.098-.116-.131-.253-.098-.41.04-.16.15-.33.332-.512l1.198-1.198.702.198-1.124 1.125c-.162.162-.232.303-.21.422.024.118.131.203.322.257.194.055.389.054.586 0 .199-.058.379-.168.541-.33l1.124-1.124.708.2zm1.322.916l-.988.988c-.069.069-.097.125-.086.17.018.042.08.078.187.109l.326.092-.435.434-.442-.124c-.592-.167-.676-.462-.254-.884l.985-.985-.332-.093.424-.424.332.093.505-.505.707.2-.505.505.622.175-.424.424-.622-.175zm2.18.615l-.987.988c-.069.069-.098.125-.086.17.017.042.079.078.186.108l.326.093-.435.434-.441-.124c-.592-.167-.677-.462-.254-.884l.984-.985-.331-.093.424-.424.331.093.505-.505.707.2-.505.505.622.175-.423.424-.623-.175zm.946 2.383c-.268-.075-.466-.186-.594-.332a.596.596 0 01-.134-.515c.039-.194.163-.395.372-.604.209-.21.455-.376.739-.5.287-.125.582-.2.885-.224.306-.027.593-.003.86.073.268.075.466.188.595.338a.574.574 0 01.143.512c-.032.196-.153.398-.362.607a2.327 2.327 0 01-.749.498 2.835 2.835 0 01-.894.225 2.424 2.424 0 01-.861-.078zm.45-.45c.127.037.267.048.422.035a1.487 1.487 0 00.91-.433c.194-.195.272-.363.235-.506-.032-.144-.148-.245-.348-.301a1.227 1.227 0 00-.666.015 1.457 1.457 0 00-.646.39c-.195.194-.279.362-.254.505.03.14.146.24.347.296zm5.395-.6c.331.094.522.247.571.46.052.21-.06.452-.336.727l-1.197 1.198-.703-.198 1.128-1.128c.162-.162.231-.302.207-.419-.022-.12-.128-.206-.319-.26a1.079 1.079 0 00-.594.003 1.219 1.219 0 00-.538.325l-1.128 1.128-.703-.198 2.043-2.042.702.198-.254.254c.182-.062.369-.097.562-.106.199-.01.385.01.559.059z" fill="#F7F7FC"/></g><path d="M220.561-13.187c4.072-4.072 11.865-6.106 17.407-4.543l42.647 12.028c5.542 1.563 6.734 6.13 2.662 10.202-4.071 4.072-11.865 6.106-17.407 4.543L223.224-2.985c-5.542-1.563-6.734-6.13-2.663-10.202z" fill="#fff"/></g><defs><filter id="filter0_bd_2754_700" x="-97.738" y="-119.619" width="524.703" height="416.702" filterUnits="userSpaceOnUse" color-interpolation-filters="sRGB"><feFlood flood-opacity="0" result="BackgroundImageFix"/><feGaussianBlur in="BackgroundImageFix" stdDeviation="39"/><feComposite in2="SourceAlpha" operator="in" result="effect1_backgroundBlur_2754_700"/><feColorMatrix in="SourceAlpha" values="0 0 0 0 0 0 0 0 0 0 0 0 0 0 0 0 0 0 127 0" result="hardAlpha"/><feOffset dy="33.806"/><feGaussianBlur stdDeviation="4.892"/><feComposite in2="hardAlpha" operator="out"/><feColorMatrix values="0 0 0 0 0.122778 0 0 0 0 0.389526 0 0 0 0 0.866667 0 0 0 0.18 0"/><feBlend in2="effect1_backgroundBlur_2754_700" result="effect2_dropShadow_2754_700"/><feBlend in="SourceGraphic" in2="effect2_dropShadow_2754_700" result="shape"/></filter><filter id="filter1_b_2754_700" x="-53.384" y="-111.997" width="426.264" height="318.263" filterUnits="userSpaceOnUse" color-interpolation-filters="sRGB"><feFlood flood-opacity="0" result="BackgroundImageFix"/><feGaussianBlur in="BackgroundImageFix" stdDeviation="11.958"/><feComposite in2="SourceAlpha" operator="in" result="effect1_backgroundBlur_2754_700"/><feBlend in="SourceGraphic" in2="effect1_backgroundBlur_2754_700" result="shape"/></filter><filter id="filter2_d_2754_700" x="162.695" y="-6.066" width="125.46" height="80.433" filterUnits="userSpaceOnUse" color-interpolation-filters="sRGB"><feFlood flood-opacity="0" result="BackgroundImageFix"/><feColorMatrix in="SourceAlpha" values="0 0 0 0 0 0 0 0 0 0 0 0 0 0 0 0 0 0 127 0" result="hardAlpha"/><feOffset dy="12"/><feGaussianBlur stdDeviation="12"/><feColorMatrix values="0 0 0 0 0 0 0 0 0 0 0 0 0 0 0 0 0 0 0.06 0"/><feBlend in2="BackgroundImageFix" result="effect1_dropShadow_2754_700"/><feBlend in="SourceGraphic" in2="effect1_dropShadow_2754_700" result="shape"/></filter><linearGradient id="paint0_linear_2754_700" x1="-85.416" y1="157.229" x2="178.391" y2="300.544" gradientUnits="userSpaceOnUse"><stop stop-color="#fff"/><stop offset="1" stop-color="#FEFEFE"/></linearGradient><clipPath id="clip0_2754_700"><rect x="1" y="1" width="300" height="129" rx="15" fill="#fff"/></clipPath></defs></svg>