<svg width="302" height="131" fill="none" xmlns="http://www.w3.org/2000/svg"><rect x="1" y="1" width="300" height="129" rx="15" fill="#FEF4FF" fill-opacity=".07"/><rect x=".5" y=".5" width="301" height="130" rx="15.5" stroke="#fff" stroke-opacity=".28"/><g clip-path="url(#clip0_2754_1041)"><g filter="url(#filter0_bd_2754_1041)" shape-rendering="crispEdges"><rect width="170.832" height="314.457" rx="21.742" transform="matrix(.96245 .27144 -.7071 .7071 193.582 -45.63)" fill="url(#paint0_linear_2754_1041)" fill-opacity=".06"/><rect x="-.139" y="-.532" width="171.919" height="315.544" rx="22.285" transform="matrix(.96245 .27144 -.7071 .7071 193.2 -45.749)" stroke="#fff" stroke-opacity=".52" stroke-width="1.087"/></g><g filter="url(#filter1_b_2754_1041)"><rect width="170.832" height="328.217" rx="21.742" transform="matrix(.96245 .27144 -.7071 .7071 193.582 -92.093)" fill="url(#paint1_linear_2754_1041)" fill-opacity=".25"/><rect x="-.139" y="-.532" width="171.919" height="329.304" rx="22.285" transform="matrix(.96245 .27144 -.7071 .7071 193.2 -92.21)" stroke="#fff" stroke-opacity=".52" stroke-width="1.087"/></g><path fill-rule="evenodd" clip-rule="evenodd" d="M122.383 7.33c-4.801-1.287-11.543.52-15.057 4.034l-9.023 9.022c-3.514 3.515-2.471 7.407 2.33 8.694l98.683 26.442c4.801 1.286 11.543-.52 15.057-4.035l2.008-2.008 4.74-1.27 1-1-.733-2.736 2.008-2.008c3.514-3.515 2.472-7.407-2.33-8.694L122.383 7.33zm97.746 37.177l-.966-.259 2.301-2.3c2.734-2.734 1.922-5.762-1.812-6.762L120.969 8.744c-3.734-1.001-8.978.404-11.711 3.138l-9.023 9.022c-2.734 2.734-1.922 5.76 1.812 6.762l98.683 26.442c3.735 1 8.978-.405 11.712-3.138l2.3-2.301.966.259-.183-.683 4.047-1.085-.626-2.336 1.183-.317z" fill="#fff"/><path d="M116.552 21.972l5.127-5.127 2.742.735c.602.16.97.408 1.104.742.135.333.01.691-.374 1.075-.267.268-.625.478-1.074.631-.454.155-.872.21-1.253.165l-.029.028c.431.172.675.41.732.714.054.303-.089.625-.43.966a3.285 3.285 0 01-1.685.891c-.674.14-1.384.112-2.128-.088l-2.732-.732zm3.79-2.683l1.398.374c.518.14.986.172 1.405.098a1.897 1.897 0 001.048-.526c.254-.253.334-.48.242-.678-.095-.197-.354-.352-.778-.466l-1.669-.447-1.646 1.645zm-.624 2.815c1.071.287 1.909.129 2.513-.476.597-.596.332-1.046-.794-1.347l-1.645-.441-1.802 1.801 1.728.463zm5.04 2.112c-.735-.197-1.144-.53-1.228-1-.084-.47.171-1.003.766-1.597a4.87 4.87 0 012.077-1.246c.789-.236 1.551-.255 2.286-.059.734.197 1.144.53 1.228 1 .083.47-.172 1.003-.766 1.598a4.87 4.87 0 01-2.077 1.245c-.79.236-1.552.256-2.286.059zm.55-.55c.489.13.992.109 1.51-.065.524-.175 1.005-.482 1.443-.92.441-.44.647-.82.618-1.14-.025-.32-.282-.545-.771-.676a2.57 2.57 0 00-1.51.064c-.524.175-1.005.482-1.443.92-.438.438-.644.819-.618 1.14.029.321.286.546.771.676zm9.647-.97l-2.611-.7-3.318 3.318-.835-.223 3.83-3.83 4.281 1.146-3.83 3.83-.835-.223 3.318-3.319zm5.139.682c.67.18 1.031.504 1.085.971.054.471-.21.998-.793 1.581a5.02 5.02 0 01-2.031 1.249c-.768.248-1.483.283-2.143.106-.767-.205-1.104-.574-1.012-1.105l-.02-.005-1.9 1.901-.845-.226 5.109-5.11.801.215-.622.622.02.005a3.61 3.61 0 011.169-.295c.426-.036.82-.006 1.182.091zm-3.506 3.31c.463.123.96.096 1.492-.083a3.68 3.68 0 001.442-.907c.422-.421.62-.798.594-1.129-.023-.33-.265-.557-.728-.681-.45-.12-.944-.09-1.484.093a3.675 3.675 0 00-1.435.9c-.417.416-.614.792-.59 1.125.02.333.256.56.709.681zm4.992 2.035c-.734-.196-1.143-.53-1.227-1-.084-.47.171-1.002.766-1.597a4.861 4.861 0 012.076-1.245c.79-.236 1.552-.256 2.287-.059.734.197 1.143.53 1.227 1 .084.47-.171 1.003-.766 1.597a4.86 4.86 0 01-2.076 1.246c-.79.236-1.552.255-2.287.058zm.551-.55c.489.13.992.11 1.51-.064.524-.175 1.005-.482 1.443-.92.441-.44.647-.821.618-1.141-.025-.32-.282-.544-.771-.675a2.57 2.57 0 00-1.51.064 3.678 3.678 0 00-1.443.92c-.438.438-.644.818-.618 1.14.029.32.286.546.771.676zm9.011-.303c.122-.216.131-.412.027-.587-.114-.19-.349-.332-.705-.428-.459-.123-.956-.094-1.49.088a3.65 3.65 0 00-1.444.901c-.431.431-.629.812-.594 1.143.029.323.275.547.738.67.715.192 1.376.096 1.981-.288l.84.225a3.72 3.72 0 01-1.582.67 4.008 4.008 0 01-1.795-.057c-.724-.194-1.13-.523-1.215-.988-.085-.473.171-1.008.768-1.605a4.902 4.902 0 012.073-1.242c.792-.238 1.548-.261 2.266-.069.595.16.975.415 1.137.765.15.322.094.665-.166 1.027l-.839-.225zm-99.59 67.102l5.127-5.127 2.742.735c.602.16.97.408 1.104.742.135.333.01.691-.374 1.075-.267.268-.625.478-1.074.631-.454.155-.872.21-1.253.164l-.029.029c.43.172.675.41.732.714.054.303-.09.625-.43.966a3.276 3.276 0 01-1.685.891c-.674.14-1.384.112-2.128-.088l-2.732-.732zm3.79-2.683l1.398.374c.518.14.986.172 1.405.097a1.9 1.9 0 001.048-.525c.254-.253.334-.48.242-.678-.095-.197-.354-.352-.778-.466l-1.67-.447-1.645 1.645zm-.624 2.815c1.071.287 1.909.129 2.513-.475.597-.597.332-1.047-.794-1.348l-1.645-.441-1.802 1.801 1.728.463zm5.04 2.112c-.735-.197-1.144-.53-1.228-1-.084-.47.171-1.003.766-1.597a4.866 4.866 0 012.076-1.246c.79-.236 1.552-.255 2.287-.059.734.197 1.144.53 1.227 1 .084.47-.171 1.003-.765 1.598a4.868 4.868 0 01-2.077 1.245c-.79.236-1.552.256-2.286.059zm.55-.55c.489.13.992.109 1.51-.065a3.678 3.678 0 001.443-.92c.441-.44.647-.82.618-1.14-.025-.32-.282-.545-.77-.676a2.57 2.57 0 00-1.511.064c-.524.175-1.005.482-1.443.92-.438.438-.644.819-.618 1.14.029.321.286.546.771.676zm9.647-.97l-2.61-.7-3.32 3.318-.834-.223 3.83-3.83 4.28 1.146-3.83 3.83-.834-.223 3.318-3.319zm5.14.683c.669.179 1.03.503 1.084.97.054.471-.21.998-.793 1.581a5.03 5.03 0 01-2.03 1.249c-.77.248-1.484.283-2.144.106-.767-.205-1.104-.574-1.012-1.105l-.02-.005-1.9 1.901-.845-.226 5.11-5.11.8.215-.622.622.02.005c.35-.158.74-.257 1.169-.295.426-.036.82-.006 1.182.091zm-3.507 3.308c.463.124.96.097 1.492-.082a3.677 3.677 0 001.442-.907c.421-.421.62-.798.594-1.129-.023-.33-.265-.557-.728-.681-.45-.12-.945-.09-1.484.093a3.676 3.676 0 00-1.435.9c-.417.416-.614.792-.59 1.125.02.333.256.56.71.681zm4.992 2.036c-.734-.196-1.143-.53-1.227-1-.084-.47.171-1.002.766-1.597a4.868 4.868 0 012.076-1.245c.79-.236 1.552-.256 2.287-.059.734.197 1.143.53 1.227 1 .084.47-.171 1.003-.766 1.597a4.864 4.864 0 01-2.076 1.246c-.79.236-1.552.255-2.287.058zm.551-.55c.489.131.992.109 1.51-.064.524-.175 1.005-.482 1.443-.92.44-.44.647-.821.618-1.141-.025-.32-.282-.544-.771-.675a2.57 2.57 0 00-1.51.064 3.678 3.678 0 00-1.443.92c-.438.438-.644.818-.618 1.141.029.32.286.545.771.675zm9.01-.303c.123-.216.132-.412.028-.587-.114-.19-.349-.332-.705-.428-.46-.123-.956-.094-1.49.088a3.65 3.65 0 00-1.444.901c-.43.432-.629.812-.594 1.143.03.323.275.547.738.671.715.192 1.375.095 1.981-.289l.84.225a3.724 3.724 0 01-1.582.671 3.998 3.998 0 01-1.795-.058c-.724-.194-1.13-.523-1.215-.988-.085-.473.171-1.008.768-1.605a4.898 4.898 0 012.073-1.242c.792-.238 1.548-.261 2.266-.069.595.16.974.415 1.137.765.15.322.094.665-.166 1.027l-.84-.225z" fill="#fff"/><path fill-rule="evenodd" clip-rule="evenodd" d="M55.383 79.33c-4.801-1.287-11.543.52-15.057 4.034l-9.023 9.022c-3.514 3.515-2.472 7.407 2.33 8.694l98.683 26.442c4.801 1.286 11.543-.52 15.057-4.035l2.008-2.008 4.74-1.27 1-1-.733-2.736 2.008-2.008c3.514-3.515 2.472-7.407-2.33-8.693L55.383 79.329zm97.746 37.177l-.966-.259 2.301-2.301c2.734-2.733 1.922-5.761-1.812-6.761L53.969 80.744c-3.734-1.001-8.978.404-11.711 3.138l-9.023 9.022c-2.733 2.734-1.922 5.76 1.812 6.761l98.683 26.443c3.735 1 8.978-.405 11.712-3.138l2.3-2.301.966.259-.183-.683 4.047-1.085-.626-2.336 1.183-.317z" fill="#fff"/><path d="M209.794 74.114L111.11 47.672c-4.267-1.143-10.26.462-13.384 3.586l-2.121 2.122-6.901 6.9c-3.125 3.125-2.198 6.585 2.07 7.728l98.684 26.442c4.267 1.144 10.26-.462 13.384-3.586l2.301-2.3 4.42-4.422 2.301-2.3c3.124-3.124 2.197-6.584-2.07-7.728z" fill="#3980FF"/><path d="M113.324 57.554c.66.176 1.046.474 1.158.891.112.417-.075.869-.561 1.355-.485.485-1.092.826-1.821 1.02-.729.196-1.423.205-2.083.028l-1.762-.472-1.83 1.83-.873-.234 5.127-5.127 2.645.709zm-4.5 2.254l1.543.413a2.83 2.83 0 001.448.023 2.553 2.553 0 001.208-.685c.342-.341.47-.642.385-.902-.085-.263-.379-.462-.881-.596l-1.543-.414-2.16 2.16zm7.816.923a2.497 2.497 0 00-1.318.025 2.985 2.985 0 00-1.237.664l2.879.771c.314-.327.442-.624.382-.893-.057-.267-.292-.456-.706-.567zm-.005 2.823c-.401.31-.91.516-1.529.618a4.133 4.133 0 01-1.771-.07c-.734-.196-1.144-.527-1.23-.991-.082-.464.175-.993.769-1.587a4.959 4.959 0 012.074-1.256c.788-.242 1.538-.268 2.25-.077.699.187 1.084.504 1.155.95.069.447-.185.96-.763 1.538l-.242.242-3.757-1.007-.035.036c-.365.364-.516.694-.452.987.064.293.328.502.794.627.327.088.664.11 1.01.068.34-.041.638-.142.892-.302l.835.224zm3.784-2.455l.835.224-3.319 3.318 1.981.531 3.318-3.319.835.224-3.319 3.319 1.981.53 3.318-3.318.835.223-3.83 3.83-6.465-1.732 3.83-3.83zm9.287 3.133c-.411-.11-.85-.102-1.318.025a2.986 2.986 0 00-1.237.664l2.879.771c.314-.327.442-.624.382-.893-.057-.267-.292-.456-.706-.567zm-.005 2.823c-.401.31-.91.516-1.529.618-.62.104-1.211.08-1.771-.07-.734-.196-1.144-.527-1.229-.991-.083-.464.174-.993.768-1.587a4.957 4.957 0 012.074-1.256c.788-.242 1.538-.268 2.25-.077.699.187 1.084.504 1.155.95.069.447-.185.96-.763 1.538l-.242.242-3.757-1.007-.035.036c-.365.365-.515.694-.452.987.064.293.328.502.794.627.327.088.664.11 1.01.068a2.13 2.13 0 00.892-.302l.835.224zm5.182.578l-2.659-.713-1.734 1.734-.835-.224 3.83-3.83.835.224-1.585 1.585 2.66.712 1.585-1.584.835.223-3.831 3.83-.834-.223 1.733-1.734zm.344 2.29l3.83-3.83.835.224-2.875 2.874.039.01 5.569-2.152.834.224-3.83 3.83-.835-.224 2.875-2.874-.039-.01-5.568 2.152-.835-.224zm11.059-1.249c-.411-.11-.85-.101-1.318.026a2.986 2.986 0 00-1.237.664l2.879.771c.314-.327.442-.625.382-.893-.057-.267-.292-.457-.706-.568zm-.005 2.824c-.401.31-.91.516-1.529.617a4.134 4.134 0 01-1.771-.069c-.734-.197-1.144-.527-1.229-.992-.083-.463.174-.992.768-1.587a4.958 4.958 0 012.074-1.255c.788-.242 1.538-.268 2.25-.077.699.187 1.084.503 1.155.949.069.448-.185.96-.763 1.539l-.242.241-3.756-1.006-.036.035c-.365.365-.515.694-.452.988.064.293.329.502.794.627.327.087.664.11 1.01.068a2.13 2.13 0 00.892-.302l.835.224z" fill="#fff"/><path d="M145.794 143.114L47.11 116.672c-4.267-1.143-10.26.462-13.384 3.586l-2.121 2.122-6.901 6.901c-3.125 3.124-2.198 6.584 2.07 7.727l98.684 26.442c4.267 1.144 10.26-.462 13.384-3.586l2.301-2.301 4.42-4.421 2.301-2.3c3.124-3.125 2.197-6.584-2.07-7.728z" fill="#3980FF"/><path d="M49.324 126.554c.66.176 1.046.474 1.158.891.112.417-.075.869-.56 1.355-.486.485-1.093.826-1.822 1.021-.729.195-1.423.204-2.083.027l-1.762-.472-1.83 1.83-.873-.234 5.127-5.127 2.645.709zm-4.5 2.254l1.543.413c.498.134.981.141 1.448.023a2.554 2.554 0 001.208-.685c.341-.341.47-.642.385-.902-.086-.263-.379-.462-.88-.596l-1.544-.414-2.16 2.161zm7.816.923c-.411-.11-.85-.102-1.318.025a2.99 2.99 0 00-1.237.664l2.879.771c.314-.327.442-.624.382-.893-.057-.267-.292-.456-.706-.567zm-.005 2.823c-.4.31-.91.516-1.529.618a4.133 4.133 0 01-1.77-.069c-.735-.197-1.145-.528-1.23-.992-.083-.464.173-.993.768-1.587a4.958 4.958 0 012.074-1.256c.788-.242 1.538-.268 2.25-.077.699.187 1.084.504 1.155.949.07.448-.185.961-.763 1.539l-.242.242-3.757-1.007-.035.036c-.365.364-.515.694-.452.987.064.293.328.502.794.627.327.088.664.11 1.01.068.34-.041.637-.142.892-.302l.835.224zm3.784-2.455l.835.224-3.319 3.318 1.98.531 3.32-3.319.834.224-3.319 3.319 1.98.53 3.32-3.318.834.223-3.83 3.831-6.465-1.733 3.83-3.83zm9.287 3.133c-.411-.11-.85-.102-1.318.025a2.99 2.99 0 00-1.237.664l2.878.772c.315-.328.443-.625.383-.894-.057-.267-.292-.456-.706-.567zm-.005 2.823c-.4.31-.91.516-1.529.618a4.133 4.133 0 01-1.77-.069c-.735-.197-1.145-.528-1.23-.992-.083-.464.174-.993.768-1.587a4.958 4.958 0 012.074-1.256c.788-.242 1.538-.268 2.25-.077.699.187 1.084.504 1.155.949.07.448-.185.961-.763 1.539l-.242.242-3.757-1.007-.035.036c-.365.365-.516.694-.452.987.064.293.328.502.794.627.327.088.664.11 1.01.068.34-.041.638-.141.892-.302l.835.224zm5.182.578l-2.66-.713-1.733 1.734-.835-.224 3.83-3.83.835.224-1.585 1.585 2.66.712 1.585-1.584.835.223-3.83 3.83-.835-.223 1.733-1.734zm.344 2.29l3.83-3.83.835.224-2.874 2.874.038.011 5.569-2.153.834.224-3.83 3.83-.835-.224 2.875-2.874-.039-.011-5.568 2.153-.835-.224zm11.059-1.249c-.411-.11-.85-.101-1.318.026-.47.126-.883.347-1.237.664l2.879.771c.314-.327.442-.625.382-.893-.057-.268-.292-.457-.706-.568zm-.005 2.824c-.4.31-.91.516-1.529.617a4.133 4.133 0 01-1.77-.069c-.735-.197-1.145-.527-1.23-.992-.083-.463.174-.992.768-1.587a4.956 4.956 0 012.074-1.255c.788-.242 1.538-.268 2.25-.077.699.187 1.084.503 1.155.949.07.448-.185.961-.763 1.539l-.242.241-3.757-1.006-.035.035c-.365.365-.515.694-.452.988.064.293.329.502.794.627.327.087.664.11 1.01.068.34-.041.638-.142.892-.302l.835.224z" fill="#fff"/></g><defs><linearGradient id="paint0_linear_2754_1041" x1="-85.416" y1="157.229" x2="178.391" y2="300.544" gradientUnits="userSpaceOnUse"><stop stop-color="#fff"/><stop offset="1" stop-color="#FEFEFE"/></linearGradient><linearGradient id="paint1_linear_2754_1041" x1="-85.416" y1="164.108" x2="183.419" y2="304.034" gradientUnits="userSpaceOnUse"><stop stop-color="#fff"/><stop offset="1" stop-color="#FEFEFE"/></linearGradient><filter id="filter0_bd_2754_1041" x="-97.738" y="-119.619" width="524.703" height="416.702" filterUnits="userSpaceOnUse" color-interpolation-filters="sRGB"><feFlood flood-opacity="0" result="BackgroundImageFix"/><feGaussianBlur in="BackgroundImageFix" stdDeviation="39"/><feComposite in2="SourceAlpha" operator="in" result="effect1_backgroundBlur_2754_1041"/><feColorMatrix in="SourceAlpha" values="0 0 0 0 0 0 0 0 0 0 0 0 0 0 0 0 0 0 127 0" result="hardAlpha"/><feOffset dy="33.806"/><feGaussianBlur stdDeviation="4.892"/><feComposite in2="hardAlpha" operator="out"/><feColorMatrix values="0 0 0 0 0.122778 0 0 0 0 0.389526 0 0 0 0 0.866667 0 0 0 0.18 0"/><feBlend in2="effect1_backgroundBlur_2754_1041" result="effect2_dropShadow_2754_1041"/><feBlend in="SourceGraphic" in2="effect2_dropShadow_2754_1041" result="shape"/></filter><filter id="filter1_b_2754_1041" x="-53.384" y="-111.997" width="426.264" height="318.263" filterUnits="userSpaceOnUse" color-interpolation-filters="sRGB"><feFlood flood-opacity="0" result="BackgroundImageFix"/><feGaussianBlur in="BackgroundImageFix" stdDeviation="11.958"/><feComposite in2="SourceAlpha" operator="in" result="effect1_backgroundBlur_2754_1041"/><feBlend in="SourceGraphic" in2="effect1_backgroundBlur_2754_1041" result="shape"/></filter><clipPath id="clip0_2754_1041"><rect x="1" y="1" width="300" height="129" rx="15" fill="#fff"/></clipPath></defs></svg>