<svg width="302" height="131" fill="none" xmlns="http://www.w3.org/2000/svg"><rect x="1" y="1" width="300" height="129" rx="15" fill="#FEF4FF" fill-opacity=".07"/><rect x=".5" y=".5" width="301" height="130" rx="15.5" stroke="#fff" stroke-opacity=".28"/><g clip-path="url(#clip0_2754_676)"><g filter="url(#filter0_bd_2754_676)" shape-rendering="crispEdges"><rect width="41.431" height="41.428" rx="20.714" transform="matrix(.96245 .27144 -.7071 .7071 116.294 8)" fill="url(#paint0_linear_2754_676)" fill-opacity=".25"/><rect x="-.139" y="-.532" width="42.518" height="42.515" rx="21.258" transform="matrix(.96245 .27144 -.7071 .7071 115.913 7.882)" stroke="#fff" stroke-opacity=".52" stroke-width="1.087"/></g><path d="M123.37 21.806l.42-.42c1.39-1.39 4.051-2.084 5.944-1.55 1.892.533 2.299 2.093.909 3.483l-.42.42m-11.255-.604l-6.762 5.624c-.573.476-.478 1.06.203 1.252l11.154 3.145c.681.192 1.645-.093 2.067-.611l4.985-6.125c.361-.443.194-.902-.388-1.067l-9.377-2.644c-.582-.164-1.393.02-1.882.426z" stroke="#fff" stroke-width="2"/><g filter="url(#filter1_bd_2754_676)" shape-rendering="crispEdges"><rect width="77.242" height="48.397" rx="8" transform="matrix(.96245 .27144 -.7071 .7071 213 7)" fill="url(#paint1_linear_2754_676)" fill-opacity=".25"/><rect x="-.139" y="-.532" width="78.329" height="49.484" rx="8.544" transform="matrix(.96245 .27144 -.7071 .7071 212.619 6.882)" stroke="#fff" stroke-opacity=".52" stroke-width="1.087"/></g><path d="M235.224 26.596c.89.238 1.084.96.432 1.611-.652.652-1.901.987-2.792.748-.89-.238-1.083-.96-.431-1.611.651-.652 1.901-.987 2.791-.748z" stroke="#fff" stroke-width="2"/><path d="M250.478 27.69l-12.894-3.454c-2.67-.716-6.42.29-8.375 2.244-1.955 1.955-1.375 4.12 1.296 4.835l12.893 3.455c2.671.715 6.42-.29 8.375-2.244 1.955-1.955 1.375-4.12-1.295-4.835zm-14.159 14.16c-.89-.24-1.083-.961-.432-1.613.652-.651 1.902-.986 2.792-.748.89.239 1.084.96.432 1.612-.652.652-1.902.987-2.792.748z" stroke="#fff" stroke-width="2"/><path d="M221.066 40.754l12.894 3.455c2.67.715 6.419-.29 8.374-2.244 1.955-1.955 1.375-4.12-1.295-4.835l-12.894-3.455c-2.67-.716-6.42.289-8.375 2.244-1.954 1.955-1.374 4.12 1.296 4.835z" stroke="#fff" stroke-width="2"/><path d="M181 72.5L199 54m44 40.5l10-12" stroke="#fff" stroke-linecap="round" stroke-dasharray="2 3"/><g filter="url(#filter2_bd_2754_676)" shape-rendering="crispEdges"><rect width="218.89" height="48.397" rx="8" transform="matrix(.96245 .27144 -.7071 .7071 141.222 70)" fill="url(#paint2_linear_2754_676)" fill-opacity=".25"/><rect x="-.139" y="-.532" width="219.977" height="49.484" rx="8.544" transform="matrix(.96245 .27144 -.7071 .7071 140.841 69.882)" stroke="#fff" stroke-opacity=".52" stroke-width="1.087"/></g><path d="M154.012 102.095l2.834.76 2.075-2.075m3.391-6.985l2.834.76-2.075 2.075m-13.987-6.38l-2.835-.759-2.075 2.075m-4.15 4.15l-2.075 2.075 2.835.76m7.997.389c-2.087-.56-2.541-2.252-1.013-3.78s4.459-2.313 6.546-1.754c2.088.56 2.541 2.252 1.013 3.78s-4.459 2.313-6.546 1.754zm-1.655-12.722l22.677 6.076c1.043.28 1.27 1.126.506 1.89l-11.067 11.067c-.764.764-2.229 1.156-3.273.877l-22.676-6.076c-1.044-.28-1.27-1.126-.506-1.89l11.066-11.067c.764-.764 2.23-1.156 3.273-.877zm45.886 26.877l2.834.76 2.075-2.075m3.391-6.985l2.834.76-2.075 2.075m-13.987-6.379l-2.835-.76-2.075 2.075m-4.15 4.15l-2.075 2.075 2.835.76m7.997.389c-2.087-.56-2.541-2.252-1.013-3.78s4.459-2.313 6.546-1.754c2.088.56 2.541 2.252 1.013 3.78s-4.459 2.313-6.546 1.754zm-1.655-12.722l22.677 6.076c1.043.28 1.27 1.126.506 1.89l-11.067 11.067c-.764.764-2.229 1.156-3.273.877l-22.676-6.076c-1.044-.28-1.27-1.126-.506-1.89l11.066-11.067c.764-.764 2.23-1.156 3.273-.877zm48.886 27.877l2.834.76 2.075-2.075m3.391-6.985l2.834.76-2.075 2.075m-13.987-6.379l-2.835-.76-2.075 2.075m-4.15 4.15l-2.075 2.075 2.835.76m7.997.389c-2.087-.56-2.541-2.252-1.013-3.78s4.459-2.313 6.546-1.754c2.088.56 2.541 2.252 1.013 3.78s-4.459 2.313-6.546 1.754zm-1.655-12.722l22.677 6.076c1.043.28 1.27 1.126.506 1.89l-11.067 11.067c-.764.764-2.229 1.156-3.273.877l-22.676-6.076c-1.044-.28-1.27-1.126-.506-1.89l11.066-11.067c.764-.764 2.23-1.156 3.273-.877zm48.886 27.877l2.834.76 2.075-2.075m3.391-6.985l2.834.76-2.075 2.075m-13.987-6.379l-2.835-.76-2.075 2.075m-4.15 4.15l-2.075 2.075 2.835.76m7.997.389c-2.087-.56-2.541-2.252-1.013-3.78s4.459-2.313 6.546-1.754c2.088.56 2.541 2.252 1.013 3.78s-4.459 2.313-6.546 1.754zm-1.655-12.722l22.677 6.076c1.043.28 1.27 1.126.506 1.89l-11.067 11.067c-.764.764-2.229 1.156-3.273.877l-22.676-6.076c-1.044-.28-1.27-1.126-.506-1.89l11.066-11.067c.764-.764 2.23-1.156 3.273-.877z" stroke="#fff" stroke-width="2"/><g filter="url(#filter3_bd_2754_676)" shape-rendering="crispEdges"><rect width="65.704" height="48.397" rx="8" transform="matrix(.96245 .27144 -.7071 .7071 15.222 55.001)" fill="url(#paint3_linear_2754_676)" fill-opacity=".25"/><rect x="-.139" y="-.532" width="66.791" height="49.484" rx="8.544" transform="matrix(.96245 .27144 -.7071 .7071 14.84 54.883)" stroke="#fff" stroke-opacity=".52" stroke-width="1.087"/></g><path d="M35.356 84.485l-5.291-1.493-3.888 3.888m12.203-1.543l1.512.427m-11.2 5.385l-6.048-1.706m7.868-2.053l5.291 1.493-3.887 3.887m-4.613-17.676l1.512.426m10.583 2.984l1.512.427m-22.493 5.048l1.512.427m8.439-13.284l6.047 1.705c.835.236 1.015.924.401 1.537l-4.443 4.443c-.613.614-1.787.92-2.622.685l-6.048-1.706c-.835-.235-1.014-.924-.4-1.537l4.442-4.443c.613-.613 1.788-.92 2.623-.684zm12.094 3.41l6.048 1.706c.835.236 1.014.924.4 1.537l-4.442 4.443c-.614.614-1.788.92-2.623.685l-6.047-1.706c-.835-.235-1.015-.924-.401-1.537l4.443-4.443c.613-.613 1.787-.92 2.622-.684zm-20.98 5.476l6.047 1.705c.835.236 1.015.924.401 1.537l-4.443 4.443c-.613.614-1.787.92-2.622.684l-6.048-1.705c-.835-.236-1.014-.924-.4-1.537l4.442-4.443c.614-.613 1.788-.92 2.623-.684z" stroke="#fff" stroke-width="2"/><path d="M40 54l29.067-30.597a19 19 0 0120.944-4.51l1.489.607m105 45l52 16.5" stroke="#fff" stroke-linecap="round" stroke-dasharray="2 3"/></g><defs><linearGradient id="paint0_linear_2754_676" x1="-20.715" y1="20.714" x2="20.713" y2="62.145" gradientUnits="userSpaceOnUse"><stop stop-color="#fff"/><stop offset="1" stop-color="#FEFEFE"/></linearGradient><linearGradient id="paint1_linear_2754_676" x1="-38.621" y1="24.198" x2="4.93" y2="93.705" gradientUnits="userSpaceOnUse"><stop stop-color="#fff"/><stop offset="1" stop-color="#FEFEFE"/></linearGradient><linearGradient id="paint2_linear_2754_676" x1="-109.445" y1="24.198" x2="-89.041" y2="116.481" gradientUnits="userSpaceOnUse"><stop stop-color="#fff"/><stop offset="1" stop-color="#FEFEFE"/></linearGradient><linearGradient id="paint3_linear_2754_676" x1="-32.852" y1="24.198" x2="13.368" y2="86.947" gradientUnits="userSpaceOnUse"><stop stop-color="#fff"/><stop offset="1" stop-color="#FEFEFE"/></linearGradient><filter id="filter0_bd_2754_676" x="71.63" y="-12.163" width="99.91" height="100.539" filterUnits="userSpaceOnUse" color-interpolation-filters="sRGB"><feFlood flood-opacity="0" result="BackgroundImageFix"/><feGaussianBlur in="BackgroundImageFix" stdDeviation="11.958"/><feComposite in2="SourceAlpha" operator="in" result="effect1_backgroundBlur_2754_676"/><feColorMatrix in="SourceAlpha" values="0 0 0 0 0 0 0 0 0 0 0 0 0 0 0 0 0 0 127 0" result="hardAlpha"/><feOffset dy="33.806"/><feGaussianBlur stdDeviation="4.892"/><feComposite in2="hardAlpha" operator="out"/><feColorMatrix values="0 0 0 0 0.122778 0 0 0 0 0.389526 0 0 0 0 0.866667 0 0 0 0.18 0"/><feBlend in2="effect1_backgroundBlur_2754_676" result="effect2_dropShadow_2754_676"/><feBlend in="SourceGraphic" in2="effect2_dropShadow_2754_676" result="shape"/></filter><filter id="filter1_bd_2754_676" x="157.366" y="-15.96" width="151.387" height="120.782" filterUnits="userSpaceOnUse" color-interpolation-filters="sRGB"><feFlood flood-opacity="0" result="BackgroundImageFix"/><feGaussianBlur in="BackgroundImageFix" stdDeviation="11.958"/><feComposite in2="SourceAlpha" operator="in" result="effect1_backgroundBlur_2754_676"/><feColorMatrix in="SourceAlpha" values="0 0 0 0 0 0 0 0 0 0 0 0 0 0 0 0 0 0 127 0" result="hardAlpha"/><feOffset dy="33.806"/><feGaussianBlur stdDeviation="4.892"/><feComposite in2="hardAlpha" operator="out"/><feColorMatrix values="0 0 0 0 0.122778 0 0 0 0 0.389526 0 0 0 0 0.866667 0 0 0 0.18 0"/><feBlend in2="effect1_backgroundBlur_2754_676" result="effect2_dropShadow_2754_676"/><feBlend in="SourceGraphic" in2="effect2_dropShadow_2754_676" result="shape"/></filter><filter id="filter2_bd_2754_676" x="85.588" y="47.04" width="287.717" height="159.231" filterUnits="userSpaceOnUse" color-interpolation-filters="sRGB"><feFlood flood-opacity="0" result="BackgroundImageFix"/><feGaussianBlur in="BackgroundImageFix" stdDeviation="11.958"/><feComposite in2="SourceAlpha" operator="in" result="effect1_backgroundBlur_2754_676"/><feColorMatrix in="SourceAlpha" values="0 0 0 0 0 0 0 0 0 0 0 0 0 0 0 0 0 0 127 0" result="hardAlpha"/><feOffset dy="33.806"/><feGaussianBlur stdDeviation="4.892"/><feComposite in2="hardAlpha" operator="out"/><feColorMatrix values="0 0 0 0 0.122778 0 0 0 0 0.389526 0 0 0 0 0.866667 0 0 0 0.18 0"/><feBlend in2="effect1_backgroundBlur_2754_676" result="effect2_dropShadow_2754_676"/><feBlend in="SourceGraphic" in2="effect2_dropShadow_2754_676" result="shape"/></filter><filter id="filter3_bd_2754_676" x="-40.412" y="32.041" width="140.283" height="117.65" filterUnits="userSpaceOnUse" color-interpolation-filters="sRGB"><feFlood flood-opacity="0" result="BackgroundImageFix"/><feGaussianBlur in="BackgroundImageFix" stdDeviation="11.958"/><feComposite in2="SourceAlpha" operator="in" result="effect1_backgroundBlur_2754_676"/><feColorMatrix in="SourceAlpha" values="0 0 0 0 0 0 0 0 0 0 0 0 0 0 0 0 0 0 127 0" result="hardAlpha"/><feOffset dy="33.806"/><feGaussianBlur stdDeviation="4.892"/><feComposite in2="hardAlpha" operator="out"/><feColorMatrix values="0 0 0 0 0.122778 0 0 0 0 0.389526 0 0 0 0 0.866667 0 0 0 0.18 0"/><feBlend in2="effect1_backgroundBlur_2754_676" result="effect2_dropShadow_2754_676"/><feBlend in="SourceGraphic" in2="effect2_dropShadow_2754_676" result="shape"/></filter><clipPath id="clip0_2754_676"><rect x="1" y="1" width="300" height="129" rx="15" fill="#fff"/></clipPath></defs></svg>