<svg width="37" height="43" fill="none" xmlns="http://www.w3.org/2000/svg"><path d="M18.413 5.392a5.456 5.456 0 00-5.45 5.45 5.456 5.456 0 005.45 5.449 5.456 5.456 0 005.449-5.45 5.456 5.456 0 00-5.45-5.449zm0 9.085a3.64 3.64 0 01-3.636-3.636 3.64 3.64 0 013.636-3.635 3.64 3.64 0 013.635 3.635 3.64 3.64 0 01-3.635 3.636z" fill="#fff" stroke="#fff" stroke-width=".3"/><path d="M35.068.85H1.758a.907.907 0 00-.908.907c0 4.596.739 8.431 2.066 11.197 1.304 2.716 3.185 4.42 5.505 4.773v2.2c0 5.203 4 9.481 9.084 9.94v5.844c-2.174.155-3.682.868-4.652 1.86-.99 1.015-1.404 2.307-1.404 3.554 0 .501.406.907.907.907h12.113a.906.906 0 00.907-.907c0-1.247-.414-2.54-1.404-3.553-.97-.993-2.478-1.706-4.652-1.86v-5.844c5.084-.46 9.084-4.739 9.084-9.941v-2.2c2.32-.352 4.201-2.056 5.505-4.772 1.327-2.767 2.066-6.602 2.066-11.198 0-.5-.405-.907-.907-.907zM4.39 11.911C3.368 9.626 2.758 6.47 2.674 2.664h5.747v13.228c-1.648-.365-3.03-1.743-4.031-3.981zm17.546 26.346c.796.462 1.311 1.123 1.52 1.96H13.37c.209-.837.724-1.498 1.52-1.96.855-.497 2.04-.768 3.523-.768 1.482 0 2.668.27 3.523.768zm4.655-18.33c0 4.509-3.67 8.177-8.178 8.177-4.509 0-8.178-3.668-8.178-8.177V2.664h16.356v17.263zm5.845-8.016c-1 2.238-2.384 3.616-4.031 3.981V2.664h5.746c-.083 3.806-.694 6.962-1.715 9.247z" fill="#fff" stroke="#fff" stroke-width=".3"/></svg>