<svg width="1527" height="797" fill="none" xmlns="http://www.w3.org/2000/svg"><mask id="a" maskUnits="userSpaceOnUse" x=".477" y="-429.893" width="3635.66" height="2128.55" fill="#000"><path fill="#fff" d="M.477-429.893h3635.66v2128.55H.477z"/><path d="M1629.65-92.305l107.38 30.284-78.82 78.826-107.38-30.284 78.82-78.826zM984.14 553.21l107.38 30.284-78.83 78.826-107.377-30.284 78.827-78.826zm1524.85-397.516l107.38 30.284-78.83 78.826-107.37-30.284 78.82-78.826zm-645.51 645.514l107.38 30.284-78.83 78.827-107.38-30.284 78.83-78.827zM1467.79 69.554l107.38 30.284-78.82 78.827-107.38-30.284 78.82-78.826zM822.28 715.07l107.379 30.284-78.826 78.826-107.379-30.284 78.826-78.826zm1524.85-397.516l107.38 30.284-78.83 78.826-107.37-30.284 78.82-78.826zm-645.51 645.515L1809 993.352l-78.83 78.828-107.38-30.29 78.83-78.822zm-152.9-974.441L1656.1 18.91l-78.82 78.826-107.38-30.284 78.82-78.826zM903.207 634.142l107.383 30.284-78.83 78.826-107.379-30.284 78.826-78.826zM2428.06 236.626l107.38 30.284-78.83 78.826-107.38-30.284 78.83-78.826zm-645.52 645.515l107.38 30.284-78.82 78.826-107.38-30.284 78.82-78.826zm-395.68-731.654l107.38 30.284-78.82 78.826-107.38-30.284 78.82-78.826zM741.348 796.001l107.379 30.284-78.826 78.826-107.379-30.284 78.826-78.826zM2266.2 398.485l107.38 30.284-78.83 78.826-107.38-30.284 78.83-78.826zM1620.69 1044l107.37 30.28-78.82 78.83-107.38-30.28 78.83-78.83zM2070.63 32.064l107.38 30.284-78.82 78.826-107.38-30.284 78.82-78.826zm-645.51 645.515l107.38 30.284-78.83 78.826-107.38-30.284 78.83-78.826zm1524.85-397.516l107.38 30.284-78.83 78.826-107.38-30.284 78.83-78.826zm-645.51 645.514l107.37 30.284-78.82 78.829-107.38-30.29 78.83-78.823zm-395.69-731.654l107.38 30.284-78.82 78.826-107.38-30.284 78.82-78.826zm-645.51 645.515l107.38 30.284-78.83 78.826-107.38-30.284 78.83-78.826zm1524.85-397.516l107.38 30.284-78.83 78.826-107.38-30.284 78.83-78.826zM2142.6 1087.44l107.37 30.28-78.82 78.83-107.38-30.29 78.83-78.82zm-152.9-974.444l107.38 30.284-78.83 78.826-107.37-30.284 78.82-78.826zm-645.51 645.515l107.38 30.284-78.83 78.826-107.38-30.284 78.83-78.826zm1524.85-397.516l107.38 30.284-78.83 78.826-107.38-30.284 78.83-78.826zm-645.52 645.515l107.38 30.28-78.82 78.83-107.38-30.28 78.82-78.83zm-395.68-731.655l107.38 30.284-78.83 78.826-107.37-30.284 78.82-78.826zM1182.33 920.37l107.38 30.284-78.83 78.826-107.38-30.284 78.83-78.826zm1524.85-397.516l107.38 30.284-78.83 78.826-107.38-30.284 78.83-78.826zm-645.52 645.516l107.38 30.28-78.82 78.83-107.38-30.29 78.82-78.82zM1850.14-30.122L1957.52.162l-78.83 78.826-107.38-30.284 78.83-78.826zm-645.52 645.515L1312 645.677l-78.82 78.826-107.38-30.284 78.82-78.826zm1524.86-397.515l107.38 30.284-78.83 78.826-107.38-30.284 78.83-78.826zm-645.51 645.515l107.37 30.284-78.82 78.826-107.38-30.284 78.83-78.826zm-395.69-731.656l107.38 30.284-78.83 78.826-107.38-30.284 78.83-78.826zm-645.52 645.515l107.38 30.284-78.82 78.826-107.383-30.284 78.823-78.826zm1524.86-397.514L2675 410.022l-78.83 78.826-107.37-30.284 78.82-78.826zm-645.51 645.512l107.38 30.29-78.83 78.82-107.38-30.28 78.83-78.83zm-152.9-974.44l107.37 30.284-78.82 78.826-107.38-30.284 78.83-78.826zm-645.52 645.515l107.38 30.284-78.83 78.826-107.38-30.284 78.83-78.826zM2648.55 298.81l107.38 30.284-78.83 78.826-107.38-30.284 78.83-78.826zm-645.52 645.515l107.38 30.284-78.82 78.821-107.38-30.28 78.82-78.825zm-395.68-731.656l107.38 30.284-78.83 78.826-107.38-30.284 78.83-78.826zM961.831 858.184l107.379 30.284-78.826 78.826-107.379-30.284 78.826-78.826zM2486.69 460.67l107.38 30.284-78.83 78.826-107.38-30.284 78.83-78.826zm-645.52 645.51l107.38 30.29-78.82 78.82-107.38-30.28 78.82-78.83zM2291.12 94.247l107.38 30.284-78.83 78.826-107.38-30.284 78.83-78.826zM1645.6 739.76l107.38 30.284-78.83 78.827-107.37-30.284 78.82-78.827zm1524.85-397.516l107.38 30.284-78.82 78.826-107.38-30.284 78.82-78.826zM2524.94 987.76l107.38 30.28-78.83 78.83-107.38-30.28 78.83-78.83zm-395.68-731.654l107.38 30.284-78.83 78.826-107.38-30.284 78.83-78.826zm-645.52 645.515l107.38 30.284-78.83 78.825-107.37-30.283 78.82-78.826zm1524.85-397.516l107.38 30.284-78.82 78.826-107.38-30.284 78.82-78.826zm-645.51 645.515l107.38 30.28-78.83 78.83-107.38-30.28 78.83-78.83zm-152.9-974.441l107.38 30.284-78.82 78.826-107.38-30.284 78.82-78.826zm-645.51 645.514l107.38 30.284-78.83 78.826-107.38-30.284 78.83-78.826zm1524.85-397.516l107.38 30.284-78.83 78.826-107.37-30.284 78.82-78.826zm-645.51 645.513l107.38 30.29-78.83 78.82-107.38-30.28 78.83-78.83zm-395.69-731.652l107.38 30.284-78.82 78.826-107.38-30.284 78.82-78.826zm-645.51 645.515l107.38 30.287-78.83 78.82-107.38-30.28 78.83-78.827zm1524.85-397.516l107.38 30.284-78.83 78.826-107.37-30.284 78.82-78.826zm-645.51 645.513l107.38 30.29-78.83 78.82-107.38-30.28 78.83-78.83zM1739.9-61.212l107.38 30.284-78.83 78.826-107.37-30.284 78.82-78.826zm-645.51 645.515l107.38 30.284-78.83 78.826-107.38-30.284 78.83-78.826zm1524.85-397.516l107.38 30.284-78.83 78.826-107.38-30.284 78.83-78.826zm-645.52 645.515l107.38 30.284-78.82 78.826-107.38-30.284 78.82-78.826zm-395.68-731.654l107.38 30.284-78.82 78.826-107.38-30.284 78.82-78.826zM932.528 746.163l107.382 30.283-78.83 78.826-107.378-30.283 78.826-78.826zM2457.38 348.646l107.38 30.284-78.83 78.826-107.38-30.284 78.83-78.826zm-645.52 645.515l107.38 30.289-78.82 78.82-107.38-30.28 78.82-78.829zM1658.97 19.72l107.38 30.284-78.83 78.826-107.38-30.284 78.83-78.826zm-645.51 645.515l107.37 30.284-78.82 78.826-107.381-30.284 78.831-78.826zm1524.85-397.516l107.38 30.284-78.83 78.826-107.38-30.284 78.83-78.826zm-645.52 645.515l107.38 30.284-78.82 78.822-107.38-30.28 78.82-78.826zM1497.11 181.58l107.38 30.284-78.83 78.826-107.38-30.284 78.83-78.826zM851.596 827.094l107.378 30.284-78.826 78.826L772.77 905.92l78.826-78.826zM2376.45 429.578l107.38 30.284-78.83 78.826-107.38-30.284 78.83-78.826zm-645.52 645.512l107.38 30.29-78.82 78.82-107.38-30.28 78.82-78.83zM2180.87 63.155l107.38 30.284-78.82 78.826-107.38-30.284 78.82-78.826zM1535.36 708.67l107.38 30.284-78.83 78.826-107.38-30.284 78.83-78.826zm1524.86-397.514l107.38 30.284-78.83 78.826-107.38-30.284 78.83-78.826zM2414.7 956.67l107.38 30.284-78.82 78.826-107.38-30.28 78.82-78.83zm-395.68-731.655l107.37 30.284-78.82 78.826-107.38-30.284 78.83-78.826zM1373.5 870.53l107.38 30.284-78.83 78.826-107.38-30.284 78.83-78.826zm1524.86-397.515l107.38 30.284-78.83 78.826-107.38-30.284 78.83-78.826zm-645.52 645.515l107.38 30.28-78.82 78.83-107.38-30.28 78.82-78.83zm-152.9-974.443l107.38 30.284-78.82 78.826-107.38-30.284 78.82-78.826zm-645.51 645.515l107.38 30.284-78.83 78.826-107.38-30.284 78.83-78.826zm1524.86-397.514l107.37 30.284-78.82 78.826-107.38-30.284 78.83-78.826zM2333.77 1037.6l107.38 30.29-78.83 78.82-107.38-30.28 78.83-78.83zm-395.69-731.653l107.38 30.284-78.82 78.826-107.38-30.284 78.82-78.826zm-645.51 645.515l107.38 30.284-78.83 78.824-107.38-30.28 78.83-78.828zm1524.86-397.515l107.38 30.284-78.83 78.826-107.38-30.284 78.83-78.826zm-645.52 645.513l107.38 30.29-78.83 78.82-107.37-30.28 78.82-78.83zM1960.39.97l107.37 30.285-78.82 78.826-107.38-30.284L1960.39.97zm-645.52 645.516l107.38 30.284-78.83 78.826-107.38-30.284 78.83-78.826zm1524.85-397.517l107.38 30.284-78.82 78.827-107.38-30.284 78.82-78.827zm-645.51 645.515l107.38 30.284-78.83 78.822-107.38-30.28 78.83-78.826zM1798.53 162.83l107.37 30.284-78.82 78.826-107.38-30.284 78.83-78.826zm-645.52 645.515l107.38 30.284-78.83 78.826-107.38-30.284 78.83-78.826zm1524.85-397.516l107.38 30.284-78.82 78.826-107.38-30.284 78.82-78.826zm-645.51 645.511l107.38 30.29-78.83 78.82-107.38-30.28 78.83-78.83zm-152.9-974.437l107.38 30.284-78.82 78.826-107.38-30.284 78.82-78.826zm-645.51 645.515l107.38 30.284-78.83 78.826-107.38-30.284 78.83-78.826zm1524.85-397.517l107.38 30.284-78.83 78.826-107.38-30.283 78.83-78.827zm-645.51 645.515l107.37 30.284-78.82 78.83-107.38-30.29 78.83-78.824zm-395.69-731.654l107.38 30.284-78.82 78.826-107.38-30.284 78.82-78.826zm-645.51 645.515l107.38 30.284-78.83 78.826-107.377-30.284 78.827-78.826zm1524.85-397.516l107.38 30.284-78.83 78.826-107.38-30.284 78.83-78.826zm-645.51 645.519l107.38 30.28-78.83 78.83-107.38-30.29 78.83-78.82zm449.95-1011.939l107.38 30.284-78.83 78.826-107.38-30.284 78.83-78.826zm-645.51 645.515l107.37 30.284-78.82 78.826-107.38-30.284 78.83-78.826zM3280.71 373.34l107.38 30.284-78.83 78.826-107.38-30.284 78.83-78.826zm-645.52 645.51l107.38 30.29-78.82 78.83-107.38-30.29 78.82-78.83zm-395.68-731.649l107.38 30.284-78.83 78.826-107.38-30.284 78.83-78.826zM1594 932.716L1701.37 963l-78.82 78.83-107.38-30.29 78.83-78.824zM3118.85 535.2l107.38 30.284-78.83 78.826-107.38-30.284 78.83-78.826zm-645.52 645.51l107.38 30.29-78.82 78.82-107.38-30.28 78.82-78.83zm-152.89-974.437l107.38 30.284-78.83 78.826-107.38-30.284 78.83-78.826zm-645.52 645.515l107.38 30.284-78.82 78.826-107.38-30.284 78.82-78.826zm1524.86-397.516l107.37 30.284-78.82 78.826-107.38-30.284 78.83-78.826zm-645.52 645.518l107.38 30.28-78.83 78.83-107.38-30.29 78.83-78.82zm-395.68-731.657l107.38 30.284-78.83 78.826-107.38-30.284 78.83-78.826zm-645.52 645.517l107.38 30.28-78.82 78.83-107.38-30.29 78.82-78.82zm1524.86-397.518l107.37 30.284-78.82 78.826-107.38-30.284 78.83-78.826zM2392.4 1261.65l107.38 30.28-78.83 78.83-107.38-30.29 78.83-78.82zM1306.89 230.455l107.38 30.284-78.82 78.826-107.38-30.284 78.82-78.826zM661.38 875.969l107.379 30.284-78.826 78.826-107.379-30.284 78.826-78.826zm1524.85-397.516l107.38 30.284-78.83 78.826-107.37-30.284 78.82-78.826zm-645.51 645.517l107.38 30.28-78.83 78.83-107.38-30.29 78.83-78.82zm-395.68-731.656l107.37 30.284-78.82 78.826-107.38-30.284 78.83-78.826zM499.52 1037.83l107.379 30.28-78.826 78.83-107.379-30.28 78.826-78.83zm1524.85-397.517l107.38 30.284-78.82 78.826-107.38-30.284 78.82-78.826zm-645.51 645.517l107.38 30.28-78.83 78.83-107.38-30.29 78.83-78.82zm-152.89-974.448l107.38 30.284-78.83 78.826-107.38-30.284 78.83-78.826zM580.452 956.897l107.379 30.284-78.826 78.829-107.379-30.29 78.826-78.823zM2105.3 559.381l107.38 30.284-78.82 78.826-107.38-30.284 78.82-78.826zM1459.79 1204.9l107.38 30.28-78.83 78.83-107.38-30.29 78.83-78.82zm-395.68-731.658l107.38 30.284-78.83 78.826-107.379-30.284 78.829-78.826zM418.593 1118.76l107.379 30.28-78.827 78.83-107.378-30.29 78.826-78.82zM1709.62-172.273L1817-141.989l-78.82 78.826-107.38-30.284 78.82-78.826zm233.82 893.514l107.38 30.283L1972 830.35l-107.38-30.283 78.82-78.826zm-645.51 645.519l107.38 30.28-78.83 78.83-107.38-30.29 78.83-78.82zM2588.96 75.726l107.38 30.284-78.83 78.826-107.38-30.284 78.83-78.826zm-841.09 279.097l107.38 30.284-78.82 78.826-107.38-30.284 78.82-78.826zm-645.51 645.517l107.38 30.28-78.83 78.83-107.38-30.29 78.83-78.82zm1524.85-397.518l107.38 30.284-78.83 78.826-107.38-30.284 78.83-78.826zM1981.7 1248.34l107.37 30.28-78.82 78.83-107.38-30.29 78.83-78.82zm-395.69-731.657l107.38 30.284-78.82 78.826-107.38-30.284 78.82-78.826zM940.499 1162.2l107.381 30.28-78.828 78.83-107.379-30.29 78.826-78.82zM2465.35 764.682l107.38 30.284-78.83 78.826-107.38-30.284 78.83-78.826zM1819.84 1410.2l107.37 30.28-78.82 78.83-107.38-30.29 78.83-78.82zm-152.89-974.449l107.37 30.284-78.82 78.826-107.38-30.284 78.83-78.826zm-645.52 645.519l107.38 30.28-78.83 78.83-107.375-30.29 78.825-78.82zm1524.85-397.52l107.38 30.284-78.82 78.826-107.38-30.284 78.82-78.826zm-645.51 645.51l107.38 30.29-78.83 78.82-107.38-30.28 78.83-78.83zm-395.68-731.649l107.38 30.284-78.83 78.826-107.38-30.284 78.83-78.826zM859.571 1243.13l107.379 30.28-78.826 78.83-107.379-30.29 78.826-78.82zM2150.6-47.904l107.38 30.284-78.83 78.826-107.37-30.284 78.82-78.826zm233.82 893.513l107.38 30.284-78.82 78.826-107.38-30.284 78.82-78.826zm-645.51 645.511l107.38 30.29-78.83 78.82-107.38-30.28 78.83-78.83zM3029.94 200.094l107.38 30.284-78.83 78.827-107.38-30.284 78.83-78.827zm-1502.56 92.543l107.38 30.284-78.83 78.826-107.38-30.284 78.83-78.826zM881.863 938.152l107.379 30.284-78.826 78.824-107.379-30.28 78.826-78.828zM2406.72 540.638l107.38 30.284-78.83 78.826-107.37-30.284 78.82-78.826zm-645.51 645.512l107.38 30.29-78.83 78.82-107.38-30.28 78.83-78.83zm-395.69-731.653l107.38 30.284-78.83 78.826-107.38-30.284 78.83-78.826zM720.004 1100.01l107.379 30.29-78.826 78.82-107.379-30.28 78.826-78.83zM2244.86 702.497l107.38 30.284-78.83 78.826-107.37-30.284 78.82-78.826zm-645.51 645.513l107.38 30.29-78.83 78.82-107.38-30.28 78.83-78.83zm-152.9-974.445l107.38 30.284-78.83 78.826-107.38-30.284 78.83-78.826zM800.936 1019.08l107.379 30.28-78.826 78.83-107.379-30.28 78.826-78.83zM2325.79 621.565l107.38 30.284-78.82 78.826-107.38-30.284 78.82-78.826zm-645.51 645.515l107.38 30.28-78.83 78.83-107.38-30.28 78.83-78.83zm-395.69-731.655l107.38 30.284-78.83 78.826-107.38-30.284 78.83-78.826zM639.076 1180.94l107.379 30.28-78.826 78.83-107.379-30.28 78.826-78.83zM1930.11-110.09l107.37 30.284L1958.66-.98l-107.38-30.284 78.83-78.826zm233.82 893.515l107.38 30.284-78.82 78.826-107.38-30.284 78.82-78.826zm-645.51 645.515l107.38 30.28-78.83 78.83-107.38-30.28 78.83-78.83zM2809.45 137.91l107.38 30.284L2838 247.02l-107.38-30.284 78.83-78.826zm-841.09 279.096l107.38 30.284-78.83 78.826-107.38-30.284 78.83-78.826zm-645.52 645.514l107.38 30.28-78.83 78.83-107.37-30.28 78.82-78.83zm1524.85-397.515l107.38 30.284-78.82 78.826-107.38-30.284 78.82-78.826zm-645.51 645.515l107.38 30.28-78.83 78.83-107.38-30.28 78.83-78.83zM1806.5 578.866l107.38 30.284-78.83 78.826-107.38-30.284 78.83-78.826zm-645.52 645.514l107.38 30.28-78.82 78.83-107.38-30.28 78.82-78.83zm1524.85-397.515l107.38 30.284-78.82 78.826-107.38-30.284 78.82-78.826zm-645.51 645.515l107.38 30.28-78.83 78.83-107.38-30.28 78.83-78.83zm-152.89-974.446l107.38 30.284-78.83 78.826-107.38-30.284 78.83-78.826zm-645.52 645.516l107.38 30.28-78.82 78.83-107.38-30.29 78.82-78.82zm1524.86-397.517l107.38 30.284-78.83 78.826-107.38-30.284 78.83-78.826zm-645.52 645.517l107.38 30.28-78.83 78.83-107.37-30.29 78.82-78.82zm-395.68-731.657l107.38 30.284-78.83 78.826-107.38-30.284 78.83-78.826zm-645.52 645.517l107.38 30.28-78.82 78.83-107.38-30.29 78.82-78.82zM2371.08 14.278l107.38 30.285-78.82 78.826-107.38-30.284 78.82-78.827zm233.83 893.514l107.38 30.284-78.83 78.824-107.38-30.282 78.83-78.826zm-645.52 645.518l107.38 30.28-78.83 78.83-107.37-30.29 78.82-78.82zM3250.42 262.277l107.38 30.284-78.83 78.826-107.37-30.284 78.82-78.826zm-1833.28-.729l107.38 30.284-78.82 78.826-107.38-30.284 78.82-78.826zM771.628 907.062l107.378 30.284-78.826 78.824-107.379-30.281 78.827-78.827zM2296.48 509.546l107.38 30.284-78.83 78.826-107.38-30.284 78.83-78.826zm-645.52 645.514l107.38 30.29-78.82 78.82-107.38-30.28 78.82-78.83zm-395.68-731.653l107.38 30.284-78.82 78.826-107.38-30.284 78.82-78.826zM609.768 1068.92l107.379 30.29-78.826 78.82-107.379-30.28 78.826-78.83zM2134.62 671.406L2242 701.69l-78.83 78.826-107.38-30.284 78.83-78.826zm-645.51 645.514l107.37 30.28-78.82 78.83-107.38-30.28 78.83-78.83zm-152.9-974.445l107.38 30.284-78.82 78.826-107.38-30.284 78.82-78.826zM690.7 987.99l107.379 30.28-78.826 78.83-107.379-30.28 78.826-78.83zm1524.85-397.516l107.38 30.284-78.83 78.826-107.37-30.284 78.82-78.826zm-645.51 645.516l107.38 30.28-78.83 78.83-107.38-30.29 78.83-78.82zm-395.68-731.655l107.37 30.284-78.82 78.826-107.38-30.284 78.83-78.826zM528.84 1149.85l107.379 30.28-78.826 78.83-107.379-30.28 78.826-78.83zM1819.87-141.18l107.38 30.284-78.83 78.826-107.38-30.284 78.83-78.826zm233.82 893.514l107.38 30.284-78.82 78.826-107.38-30.284 78.82-78.826zm-645.51 645.516l107.38 30.28-78.83 78.83-107.38-30.29 78.83-78.82zM2699.21 106.819l107.38 30.284-78.83 78.826-107.38-30.284 78.83-78.826zm-841.09 279.096l107.37 30.284-78.82 78.826-107.38-30.284 78.83-78.826zM1212.6 1031.43l107.38 30.28-78.83 78.83-107.38-30.28 78.83-78.83zm1524.86-397.515l107.38 30.284-78.83 78.826-107.38-30.284 78.83-78.826zm-645.52 645.515l107.38 30.28-78.82 78.83-107.38-30.28 78.82-78.83zm-395.68-731.656l107.37 30.284-78.82 78.826-107.38-30.284 78.83-78.826zm-645.52 645.516l107.38 30.28-78.83 78.83-107.375-30.28 78.825-78.83zM2575.6 795.775l107.38 30.284-78.83 78.826-107.38-30.284 78.83-78.826zm-645.52 645.515l107.38 30.28-78.82 78.83-107.38-30.28 78.82-78.83zm-152.89-974.448l107.38 30.284-78.83 78.826-107.38-30.284 78.83-78.826zm-645.52 645.518l107.38 30.28-78.82 78.83-107.38-30.29 78.82-78.82zm1524.86-397.517l107.38 30.284-78.83 78.826-107.38-30.284 78.83-78.826zm-645.51 645.517l107.37 30.28-78.82 78.83-107.38-30.29 78.83-78.82zm-395.69-731.658l107.38 30.284-78.83 78.826-107.38-30.284 78.83-78.826zM969.813 1274.22l107.377 30.28-78.824 78.83-107.379-30.29 78.826-78.82zM2260.84-16.813l107.38 30.284-78.82 78.826-107.38-30.284 78.82-78.826zm233.83 893.515l107.38 30.284-78.83 78.826-107.38-30.284 78.83-78.826zm-645.51 645.518l107.37 30.28-78.82 78.83-107.38-30.29 78.83-78.82zM3140.19 231.188l107.37 30.284-78.82 78.826-107.38-30.284 78.83-78.826zM1637.63 323.73L1745 354.014l-78.82 78.826-107.38-30.284 78.83-78.826zM992.111 969.245l107.379 30.284-78.83 78.831-107.375-30.29 78.826-78.825zM2516.96 571.729l107.38 30.284-78.82 78.826-107.38-30.284 78.82-78.826zm-645.51 645.511l107.38 30.29-78.83 78.82-107.38-30.28 78.83-78.83zm-395.68-731.65l107.38 30.284-78.83 78.826-107.38-30.284 78.83-78.826zM830.251 1131.1l107.379 30.29-78.826 78.82-107.379-30.28 78.826-78.83zM2355.1 733.589l107.38 30.284-78.82 78.826-107.38-30.284 78.82-78.826zM1709.59 1379.1l107.38 30.29-78.83 78.82-107.38-30.28 78.83-78.83zM1556.7 404.658l107.38 30.284-78.83 78.826-107.38-30.284 78.83-78.826zM911.183 1050.17l107.377 30.29-78.824 78.82L832.357 1129l78.826-78.83zM2436.04 652.657l107.37 30.284-78.82 78.826-107.38-30.284 78.83-78.826zm-645.52 645.513l107.38 30.29-78.83 78.82-107.38-30.28 78.83-78.83zm-395.68-731.652l107.38 30.284-78.83 78.826-107.38-30.284 78.83-78.826zM749.324 1212.03l107.379 30.29-78.826 78.82-107.379-30.28 78.826-78.83zM2040.35-78.997l107.38 30.284-78.82 78.826L1961.53-.171l78.82-78.826zm233.83 893.513l107.37 30.284-78.82 78.826-107.38-30.284 78.83-78.826zm-645.52 645.514l107.38 30.29-78.83 78.82-107.38-30.28 78.83-78.83zM2919.69 169.001l107.38 30.284-78.83 78.826-107.38-30.283 78.83-78.827zm-841.08 279.1l107.38 30.284-78.83 78.826-107.38-30.284 78.83-78.826zM1433.1 1093.62l107.37 30.28-78.82 78.83-107.38-30.29 78.83-78.82zM2957.95 696.1l107.38 30.284-78.83 78.826-107.38-30.284 78.83-78.826zm-645.52 645.51l107.38 30.29-78.82 78.82-107.38-30.28 78.82-78.83zm-395.68-731.649l107.38 30.283-78.83 78.827-107.38-30.284 78.83-78.826zm-645.51 645.519l107.37 30.28-78.82 78.83-107.38-30.29 78.83-78.82zm1524.85-397.521l107.38 30.284-78.83 78.826-107.38-30.284 78.83-78.826zm-645.52 645.511l107.38 30.29-78.82 78.82-107.38-30.28 78.82-78.83zm-152.89-974.441l107.38 30.283-78.82 78.827-107.38-30.284 78.82-78.826zm-645.51 645.511l107.38 30.29-78.83 78.82-107.38-30.28 78.83-78.83zm1524.85-397.513l107.38 30.284-78.83 78.826-107.38-30.284 78.83-78.826zm-645.51 645.513l107.37 30.29-78.82 78.82-107.38-30.28 78.83-78.83zm-395.69-731.652l107.38 30.284-78.82 78.826L1757 769.714l78.82-78.826zM1190.31 1336.4l107.38 30.29-78.83 78.82-107.38-30.28 78.83-78.83zM2481.34 45.373l107.38 30.284-78.83 78.826-107.38-30.284 78.83-78.826zm233.82 893.514l107.38 30.284-78.83 78.829-107.38-30.29 78.83-78.823zM2069.65 1584.4l107.37 30.29-78.82 78.82-107.38-30.28 78.83-78.83zM3360.68 293.372l107.37 30.284-78.82 78.826-107.38-30.284 78.83-78.826zM1409.13-154.5l107.38 30.284-78.83 78.827-107.38-30.284 78.83-78.827zM763.615 491.015l107.379 30.284-78.827 78.826-107.378-30.284 78.826-78.826zM1247.27 7.36l107.38 30.284-78.83 78.826-107.38-30.284 78.83-78.826zM601.755 652.875l107.379 30.284-78.826 78.826-107.379-30.284 78.826-78.826zM1328.2-73.567l107.38 30.283-78.83 78.826L1249.37 5.26l78.83-78.826zM682.683 571.947l107.379 30.284-78.826 78.826-107.379-30.284 78.826-78.826zM1166.34 88.292l107.38 30.284-78.83 78.826-107.38-30.284 78.83-78.826zM520.823 733.807l107.379 30.284-78.826 78.826-107.379-30.284 78.826-78.826zm778.067-919.398l107.38 30.284-78.83 78.826-107.38-30.284 78.83-78.826zM653.373 459.924l107.379 30.284-78.826 78.826-107.379-30.284 78.826-78.826zM1137.03-23.731l107.38 30.284-78.83 78.826-107.38-30.284 78.83-78.826zM491.513 621.784l107.379 30.284-78.826 78.826-107.379-30.284 78.826-78.826zm726.447-726.443l107.37 30.284-78.82 78.826-107.38-30.284 78.83-78.826zM572.441 540.856L679.82 571.14l-78.826 78.826-107.379-30.284 78.826-78.826zM1056.1 57.201l107.38 30.284-78.83 78.826-107.38-30.284 78.83-78.826zM410.581 702.716L517.96 733l-78.826 78.826-107.379-30.284 78.826-78.826zM1519.38-123.406l107.38 30.284-78.83 78.826-107.38-30.284 78.83-78.826zM873.862 522.108l107.379 30.284-78.826 78.827-107.379-30.284 78.826-78.827zM1357.52 38.453l107.38 30.284-78.83 78.826-107.38-30.284 78.83-78.826zM712.003 683.968l107.379 30.284-78.826 78.826-107.379-30.284 78.826-78.826zM1438.45-42.474l107.37 30.283L1467 66.635l-107.38-30.283 78.83-78.826zM792.93 603.04l107.379 30.284-78.826 78.826-107.379-30.284 78.826-78.826zm483.66-483.655l107.37 30.284-78.82 78.826-107.38-30.284 78.83-78.826zM631.071 764.9l107.379 30.284-78.826 78.826-107.379-30.284 78.826-78.826zm455.299-596.64l107.38 30.284-78.83 78.826-107.38-30.284 78.83-78.826zM440.855 813.775l107.379 30.284-78.826 78.826-107.379-30.284 78.826-78.826zM924.51 330.12l107.38 30.284-78.827 78.826-107.379-30.284 78.826-78.826zM278.995 975.635l107.379 30.285-78.826 78.82-107.379-30.28 78.826-78.825zm726.445-726.447l107.38 30.284-78.82 78.826-107.384-30.284 78.824-78.826zM359.927 894.703l107.379 30.284-78.826 78.823-107.379-30.281 78.826-78.826zm483.656-483.656l107.379 30.284-78.826 78.826-107.379-30.284 78.826-78.826zM198.068 1056.56l107.379 30.29-78.826 78.82-107.379-30.28 78.826-78.83zM1489.1-234.468l107.38 30.284-78.83 78.826-107.38-30.283 78.83-78.827zM976.128 137.169l107.382 30.284-78.83 78.826-107.378-30.284 78.826-78.826zM330.613 782.684l107.379 30.284-78.826 78.826-107.379-30.284 78.826-78.826zm483.656-483.656l107.378 30.284-78.826 78.826-107.379-30.284 78.827-78.826zM168.754 944.543l107.379 30.284-78.826 78.823-107.38-30.28 78.827-78.827zm726.447-726.447l107.379 30.284-78.827 78.826-107.378-30.284 78.826-78.826zM249.686 863.611l107.379 30.284-78.826 78.826-107.379-30.284 78.826-78.826zm483.655-483.655L840.72 410.24l-78.826 78.826-107.379-30.284 78.826-78.826zM87.826 1025.47l107.379 30.28-78.826 78.83L9 1104.3l78.826-78.83zM1378.86-265.559l107.37 30.284-78.82 78.826-107.38-30.284 78.83-78.826zm-182.24 464.912L1304 229.637l-78.83 78.826-107.38-30.284 78.83-78.826zM551.103 844.868l107.379 30.284-78.826 78.826-107.379-30.284 78.826-78.826zm483.657-483.655l107.38 30.284-78.83 78.826-107.378-30.284 78.828-78.826zM389.243 1006.73l107.379 30.28-78.826 78.83-107.379-30.29 78.826-78.82zm726.447-726.449l107.38 30.284-78.83 78.826-107.38-30.284 78.83-78.826zM470.175 925.796l107.379 30.284-78.826 78.83-107.379-30.29 78.826-78.824zM953.83 442.14l107.38 30.284-78.827 78.826-107.379-30.284 78.826-78.826zm-645.515 645.52l107.379 30.28-78.826 78.83-107.379-30.29 78.826-78.82zM1599.35-203.375l107.37 30.284-78.82 78.827-107.38-30.284 78.83-78.827zm189.75-48.371l107.37 30.284-78.82 78.826-107.38-30.284 78.83-78.826zM2668.43-3.747l107.38 30.284-78.82 78.826-107.38-30.284 78.82-78.826zm-438.36-123.63l107.38 30.284-78.82 78.826-107.38-30.284 78.82-78.826zm879.34 247.998l107.38 30.284-78.83 78.827-107.37-30.284 78.82-78.827zM2009.58-189.563l107.38 30.284-78.83 78.826-107.38-30.284 78.83-78.826zm879.34 248l107.38 30.284-78.83 78.826-107.37-30.284 78.82-78.826zM2450.56-65.195l107.38 30.284-78.83 78.826-107.38-30.283 78.83-78.826zm879.33 247.999l107.38 30.284-78.82 78.826-107.38-30.284 78.82-78.826zM1899.34-220.653l107.38 30.284-78.82 78.826-107.38-30.284 78.82-78.826zm879.34 247.999l107.38 30.284-78.83 78.826-107.38-30.284 78.83-78.826zM2340.32-96.286l107.37 30.284-78.82 78.826-107.38-30.284 78.83-78.826zm879.34 248.001l107.38 30.283-78.83 78.827-107.38-30.284 78.83-78.826zM2119.83-158.47l107.38 30.284-78.83 78.826L2041-79.644l78.83-78.826zm879.33 247.998l107.38 30.284-78.82 78.826-107.38-30.284 78.82-78.826zM2560.81-34.1l107.38 30.284-78.83 78.826-107.37-30.284 78.82-78.826zm879.34 248l107.38 30.284-78.83 78.826-107.38-30.284 78.83-78.826zM1869.06-331.714l107.38 30.284-78.82 78.826-107.38-30.284 78.82-78.826zM2748.4-83.715l107.38 30.284-78.83 78.826L2669.57-4.89l78.83-78.826zm-438.36-123.63l107.38 30.284-78.83 78.826-107.37-30.284 78.82-78.826zm879.34 247.998l107.38 30.284-78.83 78.826-107.38-30.284 78.83-78.826zM2089.55-269.53l107.38 30.284-78.83 78.826-107.38-30.284 78.83-78.826zm879.34 248l107.38 30.284-78.83 78.826-107.38-30.284 78.83-78.826zm-438.36-123.632l107.37 30.284-78.82 78.827-107.38-30.285 78.83-78.826zm879.33 247.999l107.38 30.284-78.82 78.826-107.38-30.284 78.82-78.826zM1979.31-300.621l107.38 30.284-78.83 78.826-107.37-30.284 78.82-78.826zm879.34 247.999l107.38 30.284-78.83 78.826-107.38-30.284 78.83-78.826zm-438.37-123.632l107.38 30.284-78.82 78.826-107.38-30.284 78.82-78.826zm879.35 248l107.38 30.284-78.83 78.827-107.38-30.284 78.83-78.827zM2199.79-238.438l107.38 30.284-78.82 78.826-107.38-30.284 78.82-78.826zM3079.13 9.56l107.38 30.284-78.83 78.826-107.37-30.284 78.82-78.826zm-438.35-123.628l107.38 30.284-78.83 78.826-107.38-30.284 78.83-78.826zm879.34 247.999l107.38 30.284-78.83 78.826-107.38-30.284 78.83-78.826zM1568.57-313.941l107.38 30.284-78.83 78.826-107.38-30.284 78.83-78.826zm-110.24-31.091l107.38 30.284-78.83 78.826-107.38-30.284 78.83-78.826zm220.49 62.184l107.38 30.284-78.83 78.827-107.38-30.284 78.83-78.827zm-30.28-111.061l107.38 30.284-78.83 78.826-107.38-30.284 78.83-78.826zm-110.24-31.089l107.38 30.284-78.82 78.826-107.38-30.284 78.82-78.826zm220.49 62.182l107.38 30.284-78.83 78.826-107.38-30.284 78.83-78.826z"/></mask><path d="M1629.65-92.305l107.38 30.284-78.82 78.826-107.38-30.284 78.82-78.826zM984.14 553.21l107.38 30.284-78.83 78.826-107.377-30.284 78.827-78.826zm1524.85-397.516l107.38 30.284-78.83 78.826-107.37-30.284 78.82-78.826zm-645.51 645.514l107.38 30.284-78.83 78.827-107.38-30.284 78.83-78.827zM1467.79 69.554l107.38 30.284-78.82 78.827-107.38-30.284 78.82-78.826zM822.28 715.07l107.379 30.284-78.826 78.826-107.379-30.284 78.826-78.826zm1524.85-397.516l107.38 30.284-78.83 78.826-107.37-30.284 78.82-78.826zm-645.51 645.515L1809 993.352l-78.83 78.828-107.38-30.29 78.83-78.822zm-152.9-974.441L1656.1 18.91l-78.82 78.826-107.38-30.284 78.82-78.826zM903.207 634.142l107.383 30.284-78.83 78.826-107.379-30.284 78.826-78.826zM2428.06 236.626l107.38 30.284-78.83 78.826-107.38-30.284 78.83-78.826zm-645.52 645.515l107.38 30.284-78.82 78.826-107.38-30.284 78.82-78.826zm-395.68-731.654l107.38 30.284-78.82 78.826-107.38-30.284 78.82-78.826zM741.348 796.001l107.379 30.284-78.826 78.826-107.379-30.284 78.826-78.826zM2266.2 398.485l107.38 30.284-78.83 78.826-107.38-30.284 78.83-78.826zM1620.69 1044l107.37 30.28-78.82 78.83-107.38-30.28 78.83-78.83zM2070.63 32.064l107.38 30.284-78.82 78.826-107.38-30.284 78.82-78.826zm-645.51 645.515l107.38 30.284-78.83 78.826-107.38-30.284 78.83-78.826zm1524.85-397.516l107.38 30.284-78.83 78.826-107.38-30.284 78.83-78.826zm-645.51 645.514l107.37 30.284-78.82 78.829-107.38-30.29 78.83-78.823zm-395.69-731.654l107.38 30.284-78.82 78.826-107.38-30.284 78.82-78.826zm-645.51 645.515l107.38 30.284-78.83 78.826-107.38-30.284 78.83-78.826zm1524.85-397.516l107.38 30.284-78.83 78.826-107.38-30.284 78.83-78.826zM2142.6 1087.44l107.37 30.28-78.82 78.83-107.38-30.29 78.83-78.82zm-152.9-974.444l107.38 30.284-78.83 78.826-107.37-30.284 78.82-78.826zm-645.51 645.515l107.38 30.284-78.83 78.826-107.38-30.284 78.83-78.826zm1524.85-397.516l107.38 30.284-78.83 78.826-107.38-30.284 78.83-78.826zm-645.52 645.515l107.38 30.28-78.82 78.83-107.38-30.28 78.82-78.83zm-395.68-731.655l107.38 30.284-78.83 78.826-107.37-30.284 78.82-78.826zM1182.33 920.37l107.38 30.284-78.83 78.826-107.38-30.284 78.83-78.826zm1524.85-397.516l107.38 30.284-78.83 78.826-107.38-30.284 78.83-78.826zm-645.52 645.516l107.38 30.28-78.82 78.83-107.38-30.29 78.82-78.82zM1850.14-30.122L1957.52.162l-78.83 78.826-107.38-30.284 78.83-78.826zm-645.52 645.515L1312 645.677l-78.82 78.826-107.38-30.284 78.82-78.826zm1524.86-397.515l107.38 30.284-78.83 78.826-107.38-30.284 78.83-78.826zm-645.51 645.515l107.37 30.284-78.82 78.826-107.38-30.284 78.83-78.826zm-395.69-731.656l107.38 30.284-78.83 78.826-107.38-30.284 78.83-78.826zm-645.52 645.515l107.38 30.284-78.82 78.826-107.383-30.284 78.823-78.826zm1524.86-397.514L2675 410.022l-78.83 78.826-107.37-30.284 78.82-78.826zm-645.51 645.512l107.38 30.29-78.83 78.82-107.38-30.28 78.83-78.83zm-152.9-974.44l107.37 30.284-78.82 78.826-107.38-30.284 78.83-78.826zm-645.52 645.515l107.38 30.284-78.83 78.826-107.38-30.284 78.83-78.826zM2648.55 298.81l107.38 30.284-78.83 78.826-107.38-30.284 78.83-78.826zm-645.52 645.515l107.38 30.284-78.82 78.821-107.38-30.28 78.82-78.825zm-395.68-731.656l107.38 30.284-78.83 78.826-107.38-30.284 78.83-78.826zM961.831 858.184l107.379 30.284-78.826 78.826-107.379-30.284 78.826-78.826zM2486.69 460.67l107.38 30.284-78.83 78.826-107.38-30.284 78.83-78.826zm-645.52 645.51l107.38 30.29-78.82 78.82-107.38-30.28 78.82-78.83zM2291.12 94.247l107.38 30.284-78.83 78.826-107.38-30.284 78.83-78.826zM1645.6 739.76l107.38 30.284-78.83 78.827-107.37-30.284 78.82-78.827zm1524.85-397.516l107.38 30.284-78.82 78.826-107.38-30.284 78.82-78.826zM2524.94 987.76l107.38 30.28-78.83 78.83-107.38-30.28 78.83-78.83zm-395.68-731.654l107.38 30.284-78.83 78.826-107.38-30.284 78.83-78.826zm-645.52 645.515l107.38 30.284-78.83 78.825-107.37-30.283 78.82-78.826zm1524.85-397.516l107.38 30.284-78.82 78.826-107.38-30.284 78.82-78.826zm-645.51 645.515l107.38 30.28-78.83 78.83-107.38-30.28 78.83-78.83zm-152.9-974.441l107.38 30.284-78.82 78.826-107.38-30.284 78.82-78.826zm-645.51 645.514l107.38 30.284-78.83 78.826-107.38-30.284 78.83-78.826zm1524.85-397.516l107.38 30.284-78.83 78.826-107.37-30.284 78.82-78.826zm-645.51 645.513l107.38 30.29-78.83 78.82-107.38-30.28 78.83-78.83zm-395.69-731.652l107.38 30.284-78.82 78.826-107.38-30.284 78.82-78.826zm-645.51 645.515l107.38 30.287-78.83 78.82-107.38-30.28 78.83-78.827zm1524.85-397.516l107.38 30.284-78.83 78.826-107.37-30.284 78.82-78.826zm-645.51 645.513l107.38 30.29-78.83 78.82-107.38-30.28 78.83-78.83zM1739.9-61.212l107.38 30.284-78.83 78.826-107.37-30.284 78.82-78.826zm-645.51 645.515l107.38 30.284-78.83 78.826-107.38-30.284 78.83-78.826zm1524.85-397.516l107.38 30.284-78.83 78.826-107.38-30.284 78.83-78.826zm-645.52 645.515l107.38 30.284-78.82 78.826-107.38-30.284 78.82-78.826zm-395.68-731.654l107.38 30.284-78.82 78.826-107.38-30.284 78.82-78.826zM932.528 746.163l107.382 30.283-78.83 78.826-107.378-30.283 78.826-78.826zM2457.38 348.646l107.38 30.284-78.83 78.826-107.38-30.284 78.83-78.826zm-645.52 645.515l107.38 30.289-78.82 78.82-107.38-30.28 78.82-78.829zM1658.97 19.72l107.38 30.284-78.83 78.826-107.38-30.284 78.83-78.826zm-645.51 645.515l107.37 30.284-78.82 78.826-107.381-30.284 78.831-78.826zm1524.85-397.516l107.38 30.284-78.83 78.826-107.38-30.284 78.83-78.826zm-645.52 645.515l107.38 30.284-78.82 78.822-107.38-30.28 78.82-78.826zM1497.11 181.58l107.38 30.284-78.83 78.826-107.38-30.284 78.83-78.826zM851.596 827.094l107.378 30.284-78.826 78.826L772.77 905.92l78.826-78.826zM2376.45 429.578l107.38 30.284-78.83 78.826-107.38-30.284 78.83-78.826zm-645.52 645.512l107.38 30.29-78.82 78.82-107.38-30.28 78.82-78.83zM2180.87 63.155l107.38 30.284-78.82 78.826-107.38-30.284 78.82-78.826zM1535.36 708.67l107.38 30.284-78.83 78.826-107.38-30.284 78.83-78.826zm1524.86-397.514l107.38 30.284-78.83 78.826-107.38-30.284 78.83-78.826zM2414.7 956.67l107.38 30.284-78.82 78.826-107.38-30.28 78.82-78.83zm-395.68-731.655l107.37 30.284-78.82 78.826-107.38-30.284 78.83-78.826zM1373.5 870.53l107.38 30.284-78.83 78.826-107.38-30.284 78.83-78.826zm1524.86-397.515l107.38 30.284-78.83 78.826-107.38-30.284 78.83-78.826zm-645.52 645.515l107.38 30.28-78.82 78.83-107.38-30.28 78.82-78.83zm-152.9-974.443l107.38 30.284-78.82 78.826-107.38-30.284 78.82-78.826zm-645.51 645.515l107.38 30.284-78.83 78.826-107.38-30.284 78.83-78.826zm1524.86-397.514l107.37 30.284-78.82 78.826-107.38-30.284 78.83-78.826zM2333.77 1037.6l107.38 30.29-78.83 78.82-107.38-30.28 78.83-78.83zm-395.69-731.653l107.38 30.284-78.82 78.826-107.38-30.284 78.82-78.826zm-645.51 645.515l107.38 30.284-78.83 78.824-107.38-30.28 78.83-78.828zm1524.86-397.515l107.38 30.284-78.83 78.826-107.38-30.284 78.83-78.826zm-645.52 645.513l107.38 30.29-78.83 78.82-107.37-30.28 78.82-78.83zM1960.39.97l107.37 30.285-78.82 78.826-107.38-30.284L1960.39.97zm-645.52 645.516l107.38 30.284-78.83 78.826-107.38-30.284 78.83-78.826zm1524.85-397.517l107.38 30.284-78.82 78.827-107.38-30.284 78.82-78.827zm-645.51 645.515l107.38 30.284-78.83 78.822-107.38-30.28 78.83-78.826zM1798.53 162.83l107.37 30.284-78.82 78.826-107.38-30.284 78.83-78.826zm-645.52 645.515l107.38 30.284-78.83 78.826-107.38-30.284 78.83-78.826zm1524.85-397.516l107.38 30.284-78.82 78.826-107.38-30.284 78.82-78.826zm-645.51 645.511l107.38 30.29-78.83 78.82-107.38-30.28 78.83-78.83zm-152.9-974.437l107.38 30.284-78.82 78.826-107.38-30.284 78.82-78.826zm-645.51 645.515l107.38 30.284-78.83 78.826-107.38-30.284 78.83-78.826zm1524.85-397.517l107.38 30.284-78.83 78.826-107.38-30.283 78.83-78.827zm-645.51 645.515l107.37 30.284-78.82 78.83-107.38-30.29 78.83-78.824zm-395.69-731.654l107.38 30.284-78.82 78.826-107.38-30.284 78.82-78.826zm-645.51 645.515l107.38 30.284-78.83 78.826-107.377-30.284 78.827-78.826zm1524.85-397.516l107.38 30.284-78.83 78.826-107.38-30.284 78.83-78.826zm-645.51 645.519l107.38 30.28-78.83 78.83-107.38-30.29 78.83-78.82zm449.95-1011.939l107.38 30.284-78.83 78.826-107.38-30.284 78.83-78.826zm-645.51 645.515l107.37 30.284-78.82 78.826-107.38-30.284 78.83-78.826zM3280.71 373.34l107.38 30.284-78.83 78.826-107.38-30.284 78.83-78.826zm-645.52 645.51l107.38 30.29-78.82 78.83-107.38-30.29 78.82-78.83zm-395.68-731.649l107.38 30.284-78.83 78.826-107.38-30.284 78.83-78.826zM1594 932.716L1701.37 963l-78.82 78.83-107.38-30.29 78.83-78.824zM3118.85 535.2l107.38 30.284-78.83 78.826-107.38-30.284 78.83-78.826zm-645.52 645.51l107.38 30.29-78.82 78.82-107.38-30.28 78.82-78.83zm-152.89-974.437l107.38 30.284-78.83 78.826-107.38-30.284 78.83-78.826zm-645.52 645.515l107.38 30.284-78.82 78.826-107.38-30.284 78.82-78.826zm1524.86-397.516l107.37 30.284-78.82 78.826-107.38-30.284 78.83-78.826zm-645.52 645.518l107.38 30.28-78.83 78.83-107.38-30.29 78.83-78.82zm-395.68-731.657l107.38 30.284-78.83 78.826-107.38-30.284 78.83-78.826zm-645.52 645.517l107.38 30.28-78.82 78.83-107.38-30.29 78.82-78.82zm1524.86-397.518l107.37 30.284-78.82 78.826-107.38-30.284 78.83-78.826zM2392.4 1261.65l107.38 30.28-78.83 78.83-107.38-30.29 78.83-78.82zM1306.89 230.455l107.38 30.284-78.82 78.826-107.38-30.284 78.82-78.826zM661.38 875.969l107.379 30.284-78.826 78.826-107.379-30.284 78.826-78.826zm1524.85-397.516l107.38 30.284-78.83 78.826-107.37-30.284 78.82-78.826zm-645.51 645.517l107.38 30.28-78.83 78.83-107.38-30.29 78.83-78.82zm-395.68-731.656l107.37 30.284-78.82 78.826-107.38-30.284 78.83-78.826zM499.52 1037.83l107.379 30.28-78.826 78.83-107.379-30.28 78.826-78.83zm1524.85-397.517l107.38 30.284-78.82 78.826-107.38-30.284 78.82-78.826zm-645.51 645.517l107.38 30.28-78.83 78.83-107.38-30.29 78.83-78.82zm-152.89-974.448l107.38 30.284-78.83 78.826-107.38-30.284 78.83-78.826zM580.452 956.897l107.379 30.284-78.826 78.829-107.379-30.29 78.826-78.823zM2105.3 559.381l107.38 30.284-78.82 78.826-107.38-30.284 78.82-78.826zM1459.79 1204.9l107.38 30.28-78.83 78.83-107.38-30.29 78.83-78.82zm-395.68-731.658l107.38 30.284-78.83 78.826-107.379-30.284 78.829-78.826zM418.593 1118.76l107.379 30.28-78.827 78.83-107.378-30.29 78.826-78.82zM1709.62-172.273L1817-141.989l-78.82 78.826-107.38-30.284 78.82-78.826zm233.82 893.514l107.38 30.283L1972 830.35l-107.38-30.283 78.82-78.826zm-645.51 645.519l107.38 30.28-78.83 78.83-107.38-30.29 78.83-78.82zM2588.96 75.726l107.38 30.284-78.83 78.826-107.38-30.284 78.83-78.826zm-841.09 279.097l107.38 30.284-78.82 78.826-107.38-30.284 78.82-78.826zm-645.51 645.517l107.38 30.28-78.83 78.83-107.38-30.29 78.83-78.82zm1524.85-397.518l107.38 30.284-78.83 78.826-107.38-30.284 78.83-78.826zM1981.7 1248.34l107.37 30.28-78.82 78.83-107.38-30.29 78.83-78.82zm-395.69-731.657l107.38 30.284-78.82 78.826-107.38-30.284 78.82-78.826zM940.499 1162.2l107.381 30.28-78.828 78.83-107.379-30.29 78.826-78.82zM2465.35 764.682l107.38 30.284-78.83 78.826-107.38-30.284 78.83-78.826zM1819.84 1410.2l107.37 30.28-78.82 78.83-107.38-30.29 78.83-78.82zm-152.89-974.449l107.37 30.284-78.82 78.826-107.38-30.284 78.83-78.826zm-645.52 645.519l107.38 30.28-78.83 78.83-107.375-30.29 78.825-78.82zm1524.85-397.52l107.38 30.284-78.82 78.826-107.38-30.284 78.82-78.826zm-645.51 645.51l107.38 30.29-78.83 78.82-107.38-30.28 78.83-78.83zm-395.68-731.649l107.38 30.284-78.83 78.826-107.38-30.284 78.83-78.826zM859.571 1243.13l107.379 30.28-78.826 78.83-107.379-30.29 78.826-78.82zM2150.6-47.904l107.38 30.284-78.83 78.826-107.37-30.284 78.82-78.826zm233.82 893.513l107.38 30.284-78.82 78.826-107.38-30.284 78.82-78.826zm-645.51 645.511l107.38 30.29-78.83 78.82-107.38-30.28 78.83-78.83zM3029.94 200.094l107.38 30.284-78.83 78.827-107.38-30.284 78.83-78.827zm-1502.56 92.543l107.38 30.284-78.83 78.826-107.38-30.284 78.83-78.826zM881.863 938.152l107.379 30.284-78.826 78.824-107.379-30.28 78.826-78.828zM2406.72 540.638l107.38 30.284-78.83 78.826-107.37-30.284 78.82-78.826zm-645.51 645.512l107.38 30.29-78.83 78.82-107.38-30.28 78.83-78.83zm-395.69-731.653l107.38 30.284-78.83 78.826-107.38-30.284 78.83-78.826zM720.004 1100.01l107.379 30.29-78.826 78.82-107.379-30.28 78.826-78.83zM2244.86 702.497l107.38 30.284-78.83 78.826-107.37-30.284 78.82-78.826zm-645.51 645.513l107.38 30.29-78.83 78.82-107.38-30.28 78.83-78.83zm-152.9-974.445l107.38 30.284-78.83 78.826-107.38-30.284 78.83-78.826zM800.936 1019.08l107.379 30.28-78.826 78.83-107.379-30.28 78.826-78.83zM2325.79 621.565l107.38 30.284-78.82 78.826-107.38-30.284 78.82-78.826zm-645.51 645.515l107.38 30.28-78.83 78.83-107.38-30.28 78.83-78.83zm-395.69-731.655l107.38 30.284-78.83 78.826-107.38-30.284 78.83-78.826zM639.076 1180.94l107.379 30.28-78.826 78.83-107.379-30.28 78.826-78.83zM1930.11-110.09l107.37 30.284L1958.66-.98l-107.38-30.284 78.83-78.826zm233.82 893.515l107.38 30.284-78.82 78.826-107.38-30.284 78.82-78.826zm-645.51 645.515l107.38 30.28-78.83 78.83-107.38-30.28 78.83-78.83zM2809.45 137.91l107.38 30.284L2838 247.02l-107.38-30.284 78.83-78.826zm-841.09 279.096l107.38 30.284-78.83 78.826-107.38-30.284 78.83-78.826zm-645.52 645.514l107.38 30.28-78.83 78.83-107.37-30.28 78.82-78.83zm1524.85-397.515l107.38 30.284-78.82 78.826-107.38-30.284 78.82-78.826zm-645.51 645.515l107.38 30.28-78.83 78.83-107.38-30.28 78.83-78.83zM1806.5 578.866l107.38 30.284-78.83 78.826-107.38-30.284 78.83-78.826zm-645.52 645.514l107.38 30.28-78.82 78.83-107.38-30.28 78.82-78.83zm1524.85-397.515l107.38 30.284-78.82 78.826-107.38-30.284 78.82-78.826zm-645.51 645.515l107.38 30.28-78.83 78.83-107.38-30.28 78.83-78.83zm-152.89-974.446l107.38 30.284-78.83 78.826-107.38-30.284 78.83-78.826zm-645.52 645.516l107.38 30.28-78.82 78.83-107.38-30.29 78.82-78.82zm1524.86-397.517l107.38 30.284-78.83 78.826-107.38-30.284 78.83-78.826zm-645.52 645.517l107.38 30.28-78.83 78.83-107.37-30.29 78.82-78.82zm-395.68-731.657l107.38 30.284-78.83 78.826-107.38-30.284 78.83-78.826zm-645.52 645.517l107.38 30.28-78.82 78.83-107.38-30.29 78.82-78.82zM2371.08 14.278l107.38 30.285-78.82 78.826-107.38-30.284 78.82-78.827zm233.83 893.514l107.38 30.284-78.83 78.824-107.38-30.282 78.83-78.826zm-645.52 645.518l107.38 30.28-78.83 78.83-107.37-30.29 78.82-78.82zM3250.42 262.277l107.38 30.284-78.83 78.826-107.37-30.284 78.82-78.826zm-1833.28-.729l107.38 30.284-78.82 78.826-107.38-30.284 78.82-78.826zM771.628 907.062l107.378 30.284-78.826 78.824-107.379-30.281 78.827-78.827zM2296.48 509.546l107.38 30.284-78.83 78.826-107.38-30.284 78.83-78.826zm-645.52 645.514l107.38 30.29-78.82 78.82-107.38-30.28 78.82-78.83zm-395.68-731.653l107.38 30.284-78.82 78.826-107.38-30.284 78.82-78.826zM609.768 1068.92l107.379 30.29-78.826 78.82-107.379-30.28 78.826-78.83zM2134.62 671.406L2242 701.69l-78.83 78.826-107.38-30.284 78.83-78.826zm-645.51 645.514l107.37 30.28-78.82 78.83-107.38-30.28 78.83-78.83zm-152.9-974.445l107.38 30.284-78.82 78.826-107.38-30.284 78.82-78.826zM690.7 987.99l107.379 30.28-78.826 78.83-107.379-30.28 78.826-78.83zm1524.85-397.516l107.38 30.284-78.83 78.826-107.37-30.284 78.82-78.826zm-645.51 645.516l107.38 30.28-78.83 78.83-107.38-30.29 78.83-78.82zm-395.68-731.655l107.37 30.284-78.82 78.826-107.38-30.284 78.83-78.826zM528.84 1149.85l107.379 30.28-78.826 78.83-107.379-30.28 78.826-78.83zM1819.87-141.18l107.38 30.284-78.83 78.826-107.38-30.284 78.83-78.826zm233.82 893.514l107.38 30.284-78.82 78.826-107.38-30.284 78.82-78.826zm-645.51 645.516l107.38 30.28-78.83 78.83-107.38-30.29 78.83-78.82zM2699.21 106.819l107.38 30.284-78.83 78.826-107.38-30.284 78.83-78.826zm-841.09 279.096l107.37 30.284-78.82 78.826-107.38-30.284 78.83-78.826zM1212.6 1031.43l107.38 30.28-78.83 78.83-107.38-30.28 78.83-78.83zm1524.86-397.515l107.38 30.284-78.83 78.826-107.38-30.284 78.83-78.826zm-645.52 645.515l107.38 30.28-78.82 78.83-107.38-30.28 78.82-78.83zm-395.68-731.656l107.37 30.284-78.82 78.826-107.38-30.284 78.83-78.826zm-645.52 645.516l107.38 30.28-78.83 78.83-107.375-30.28 78.825-78.83zM2575.6 795.775l107.38 30.284-78.83 78.826-107.38-30.284 78.83-78.826zm-645.52 645.515l107.38 30.28-78.82 78.83-107.38-30.28 78.82-78.83zm-152.89-974.448l107.38 30.284-78.83 78.826-107.38-30.284 78.83-78.826zm-645.52 645.518l107.38 30.28-78.82 78.83-107.38-30.29 78.82-78.82zm1524.86-397.517l107.38 30.284-78.83 78.826-107.38-30.284 78.83-78.826zm-645.51 645.517l107.37 30.28-78.82 78.83-107.38-30.29 78.83-78.82zm-395.69-731.658l107.38 30.284-78.83 78.826-107.38-30.284 78.83-78.826zM969.813 1274.22l107.377 30.28-78.824 78.83-107.379-30.29 78.826-78.82zM2260.84-16.813l107.38 30.284-78.82 78.826-107.38-30.284 78.82-78.826zm233.83 893.515l107.38 30.284-78.83 78.826-107.38-30.284 78.83-78.826zm-645.51 645.518l107.37 30.28-78.82 78.83-107.38-30.29 78.83-78.82zM3140.19 231.188l107.37 30.284-78.82 78.826-107.38-30.284 78.83-78.826zM1637.63 323.73L1745 354.014l-78.82 78.826-107.38-30.284 78.83-78.826zM992.111 969.245l107.379 30.284-78.83 78.831-107.375-30.29 78.826-78.825zM2516.96 571.729l107.38 30.284-78.82 78.826-107.38-30.284 78.82-78.826zm-645.51 645.511l107.38 30.29-78.83 78.82-107.38-30.28 78.83-78.83zm-395.68-731.65l107.38 30.284-78.83 78.826-107.38-30.284 78.83-78.826zM830.251 1131.1l107.379 30.29-78.826 78.82-107.379-30.28 78.826-78.83zM2355.1 733.589l107.38 30.284-78.82 78.826-107.38-30.284 78.82-78.826zM1709.59 1379.1l107.38 30.29-78.83 78.82-107.38-30.28 78.83-78.83zM1556.7 404.658l107.38 30.284-78.83 78.826-107.38-30.284 78.83-78.826zM911.183 1050.17l107.377 30.29-78.824 78.82L832.357 1129l78.826-78.83zM2436.04 652.657l107.37 30.284-78.82 78.826-107.38-30.284 78.83-78.826zm-645.52 645.513l107.38 30.29-78.83 78.82-107.38-30.28 78.83-78.83zm-395.68-731.652l107.38 30.284-78.83 78.826-107.38-30.284 78.83-78.826zM749.324 1212.03l107.379 30.29-78.826 78.82-107.379-30.28 78.826-78.83zM2040.35-78.997l107.38 30.284-78.82 78.826L1961.53-.171l78.82-78.826zm233.83 893.513l107.37 30.284-78.82 78.826-107.38-30.284 78.83-78.826zm-645.52 645.514l107.38 30.29-78.83 78.82-107.38-30.28 78.83-78.83zM2919.69 169.001l107.38 30.284-78.83 78.826-107.38-30.283 78.83-78.827zm-841.08 279.1l107.38 30.284-78.83 78.826-107.38-30.284 78.83-78.826zM1433.1 1093.62l107.37 30.28-78.82 78.83-107.38-30.29 78.83-78.82zM2957.95 696.1l107.38 30.284-78.83 78.826-107.38-30.284 78.83-78.826zm-645.52 645.51l107.38 30.29-78.82 78.82-107.38-30.28 78.82-78.83zm-395.68-731.649l107.38 30.283-78.83 78.827-107.38-30.284 78.83-78.826zm-645.51 645.519l107.37 30.28-78.82 78.83-107.38-30.29 78.83-78.82zm1524.85-397.521l107.38 30.284-78.83 78.826-107.38-30.284 78.83-78.826zm-645.52 645.511l107.38 30.29-78.82 78.82-107.38-30.28 78.82-78.83zm-152.89-974.441l107.38 30.283-78.82 78.827-107.38-30.284 78.82-78.826zm-645.51 645.511l107.38 30.29-78.83 78.82-107.38-30.28 78.83-78.83zm1524.85-397.513l107.38 30.284-78.83 78.826-107.38-30.284 78.83-78.826zm-645.51 645.513l107.37 30.29-78.82 78.82-107.38-30.28 78.83-78.83zm-395.69-731.652l107.38 30.284-78.82 78.826L1757 769.714l78.82-78.826zM1190.31 1336.4l107.38 30.29-78.83 78.82-107.38-30.28 78.83-78.83zM2481.34 45.373l107.38 30.284-78.83 78.826-107.38-30.284 78.83-78.826zm233.82 893.514l107.38 30.284-78.83 78.829-107.38-30.29 78.83-78.823zM2069.65 1584.4l107.37 30.29-78.82 78.82-107.38-30.28 78.83-78.83zM3360.68 293.372l107.37 30.284-78.82 78.826-107.38-30.284 78.83-78.826zM1409.13-154.5l107.38 30.284-78.83 78.827-107.38-30.284 78.83-78.827zM763.615 491.015l107.379 30.284-78.827 78.826-107.378-30.284 78.826-78.826zM1247.27 7.36l107.38 30.284-78.83 78.826-107.38-30.284 78.83-78.826zM601.755 652.875l107.379 30.284-78.826 78.826-107.379-30.284 78.826-78.826zM1328.2-73.567l107.38 30.283-78.83 78.826L1249.37 5.26l78.83-78.826zM682.683 571.947l107.379 30.284-78.826 78.826-107.379-30.284 78.826-78.826zM1166.34 88.292l107.38 30.284-78.83 78.826-107.38-30.284 78.83-78.826zM520.823 733.807l107.379 30.284-78.826 78.826-107.379-30.284 78.826-78.826zm778.067-919.398l107.38 30.284-78.83 78.826-107.38-30.284 78.83-78.826zM653.373 459.924l107.379 30.284-78.826 78.826-107.379-30.284 78.826-78.826zM1137.03-23.731l107.38 30.284-78.83 78.826-107.38-30.284 78.83-78.826zM491.513 621.784l107.379 30.284-78.826 78.826-107.379-30.284 78.826-78.826zm726.447-726.443l107.37 30.284-78.82 78.826-107.38-30.284 78.83-78.826zM572.441 540.856L679.82 571.14l-78.826 78.826-107.379-30.284 78.826-78.826zM1056.1 57.201l107.38 30.284-78.83 78.826-107.38-30.284 78.83-78.826zM410.581 702.716L517.96 733l-78.826 78.826-107.379-30.284 78.826-78.826zM1519.38-123.406l107.38 30.284-78.83 78.826-107.38-30.284 78.83-78.826zM873.862 522.108l107.379 30.284-78.826 78.827-107.379-30.284 78.826-78.827zM1357.52 38.453l107.38 30.284-78.83 78.826-107.38-30.284 78.83-78.826zM712.003 683.968l107.379 30.284-78.826 78.826-107.379-30.284 78.826-78.826zM1438.45-42.474l107.37 30.283L1467 66.635l-107.38-30.283 78.83-78.826zM792.93 603.04l107.379 30.284-78.826 78.826-107.379-30.284 78.826-78.826zm483.66-483.655l107.37 30.284-78.82 78.826-107.38-30.284 78.83-78.826zM631.071 764.9l107.379 30.284-78.826 78.826-107.379-30.284 78.826-78.826zm455.299-596.64l107.38 30.284-78.83 78.826-107.38-30.284 78.83-78.826zM440.855 813.775l107.379 30.284-78.826 78.826-107.379-30.284 78.826-78.826zM924.51 330.12l107.38 30.284-78.827 78.826-107.379-30.284 78.826-78.826zM278.995 975.635l107.379 30.285-78.826 78.82-107.379-30.28 78.826-78.825zm726.445-726.447l107.38 30.284-78.82 78.826-107.384-30.284 78.824-78.826zM359.927 894.703l107.379 30.284-78.826 78.823-107.379-30.281 78.826-78.826zm483.656-483.656l107.379 30.284-78.826 78.826-107.379-30.284 78.826-78.826zM198.068 1056.56l107.379 30.29-78.826 78.82-107.379-30.28 78.826-78.83zM1489.1-234.468l107.38 30.284-78.83 78.826-107.38-30.283 78.83-78.827zM976.128 137.169l107.382 30.284-78.83 78.826-107.378-30.284 78.826-78.826zM330.613 782.684l107.379 30.284-78.826 78.826-107.379-30.284 78.826-78.826zm483.656-483.656l107.378 30.284-78.826 78.826-107.379-30.284 78.827-78.826zM168.754 944.543l107.379 30.284-78.826 78.823-107.38-30.28 78.827-78.827zm726.447-726.447l107.379 30.284-78.827 78.826-107.378-30.284 78.826-78.826zM249.686 863.611l107.379 30.284-78.826 78.826-107.379-30.284 78.826-78.826zm483.655-483.655L840.72 410.24l-78.826 78.826-107.379-30.284 78.826-78.826zM87.826 1025.47l107.379 30.28-78.826 78.83L9 1104.3l78.826-78.83zM1378.86-265.559l107.37 30.284-78.82 78.826-107.38-30.284 78.83-78.826zm-182.24 464.912L1304 229.637l-78.83 78.826-107.38-30.284 78.83-78.826zM551.103 844.868l107.379 30.284-78.826 78.826-107.379-30.284 78.826-78.826zm483.657-483.655l107.38 30.284-78.83 78.826-107.378-30.284 78.828-78.826zM389.243 1006.73l107.379 30.28-78.826 78.83-107.379-30.29 78.826-78.82zm726.447-726.449l107.38 30.284-78.83 78.826-107.38-30.284 78.83-78.826zM470.175 925.796l107.379 30.284-78.826 78.83-107.379-30.29 78.826-78.824zM953.83 442.14l107.38 30.284-78.827 78.826-107.379-30.284 78.826-78.826zm-645.515 645.52l107.379 30.28-78.826 78.83-107.379-30.29 78.826-78.82zM1599.35-203.375l107.37 30.284-78.82 78.827-107.38-30.284 78.83-78.827zm189.75-48.371l107.37 30.284-78.82 78.826-107.38-30.284 78.83-78.826zM2668.43-3.747l107.38 30.284-78.82 78.826-107.38-30.284 78.82-78.826zm-438.36-123.63l107.38 30.284-78.82 78.826-107.38-30.284 78.82-78.826zm879.34 247.998l107.38 30.284-78.83 78.827-107.37-30.284 78.82-78.827zM2009.58-189.563l107.38 30.284-78.83 78.826-107.38-30.284 78.83-78.826zm879.34 248l107.38 30.284-78.83 78.826-107.37-30.284 78.82-78.826zM2450.56-65.195l107.38 30.284-78.83 78.826-107.38-30.283 78.83-78.826zm879.33 247.999l107.38 30.284-78.82 78.826-107.38-30.284 78.82-78.826zM1899.34-220.653l107.38 30.284-78.82 78.826-107.38-30.284 78.82-78.826zm879.34 247.999l107.38 30.284-78.83 78.826-107.38-30.284 78.83-78.826zM2340.32-96.286l107.37 30.284-78.82 78.826-107.38-30.284 78.83-78.826zm879.34 248.001l107.38 30.283-78.83 78.827-107.38-30.284 78.83-78.826zM2119.83-158.47l107.38 30.284-78.83 78.826L2041-79.644l78.83-78.826zm879.33 247.998l107.38 30.284-78.82 78.826-107.38-30.284 78.82-78.826zM2560.81-34.1l107.38 30.284-78.83 78.826-107.37-30.284 78.82-78.826zm879.34 248l107.38 30.284-78.83 78.826-107.38-30.284 78.83-78.826zM1869.06-331.714l107.38 30.284-78.82 78.826-107.38-30.284 78.82-78.826zM2748.4-83.715l107.38 30.284-78.83 78.826L2669.57-4.89l78.83-78.826zm-438.36-123.63l107.38 30.284-78.83 78.826-107.37-30.284 78.82-78.826zm879.34 247.998l107.38 30.284-78.83 78.826-107.38-30.284 78.83-78.826zM2089.55-269.53l107.38 30.284-78.83 78.826-107.38-30.284 78.83-78.826zm879.34 248l107.38 30.284-78.83 78.826-107.38-30.284 78.83-78.826zm-438.36-123.632l107.37 30.284-78.82 78.827-107.38-30.285 78.83-78.826zm879.33 247.999l107.38 30.284-78.82 78.826-107.38-30.284 78.82-78.826zM1979.31-300.621l107.38 30.284-78.83 78.826-107.37-30.284 78.82-78.826zm879.34 247.999l107.38 30.284-78.83 78.826-107.38-30.284 78.83-78.826zm-438.37-123.632l107.38 30.284-78.82 78.826-107.38-30.284 78.82-78.826zm879.35 248l107.38 30.284-78.83 78.827-107.38-30.284 78.83-78.827zM2199.79-238.438l107.38 30.284-78.82 78.826-107.38-30.284 78.82-78.826zM3079.13 9.56l107.38 30.284-78.83 78.826-107.37-30.284 78.82-78.826zm-438.35-123.628l107.38 30.284-78.83 78.826-107.38-30.284 78.83-78.826zm879.34 247.999l107.38 30.284-78.83 78.826-107.38-30.284 78.83-78.826zM1568.57-313.941l107.38 30.284-78.83 78.826-107.38-30.284 78.83-78.826zm-110.24-31.091l107.38 30.284-78.83 78.826-107.38-30.284 78.83-78.826zm220.49 62.184l107.38 30.284-78.83 78.827-107.38-30.284 78.83-78.827zm-30.28-111.061l107.38 30.284-78.83 78.826-107.38-30.284 78.83-78.826zm-110.24-31.089l107.38 30.284-78.82 78.826-107.38-30.284 78.82-78.826zm220.49 62.182l107.38 30.284-78.83 78.826-107.38-30.284 78.83-78.826z" stroke="#fff" stroke-opacity=".11" stroke-width="10" mask="url(#a)"/></svg>