<svg width="40" height="40" fill="none" xmlns="http://www.w3.org/2000/svg"><path d="M37.445.004c-3.492.204-9.779.803-12.65 2.528-3.69 2.216-7.33 6.378-10.268 10.373l-5.86.766A3.276 3.276 0 006.1 15.607l-1.374 3.17a.89.89 0 00.664 1.235l3.994.706c-.297.502-.55.94-.75 1.291a2.42 2.42 0 00.395 2.896l.223.223-.947.947a2.451 2.451 0 000 3.461l2.16 2.16a2.43 2.43 0 001.73.717 2.43 2.43 0 001.73-.717l.947-.947.223.223a2.41 2.41 0 002.896.394c.351-.198.789-.451 1.291-.748l.706 3.993a.892.892 0 001.235.664l3.17-1.373a3.275 3.275 0 001.937-2.569l.766-5.859c3.995-2.938 8.157-6.578 10.373-10.268 1.726-2.87 2.325-9.157 2.528-12.65A2.41 2.41 0 0037.445.005zM6.815 18.451l.924-2.133a1.48 1.48 0 011.16-.875l4.21-.55a97.32 97.32 0 00-2.735 4.187l-3.56-.63zm5.848 11.982a.677.677 0 01-.934 0l-2.16-2.16a.661.661 0 010-.934l.947-.947 3.094 3.095-.947.946zm11.896.67a1.48 1.48 0 01-.875 1.16l-2.133.924-.629-3.56a97.358 97.358 0 004.187-2.734l-.55 4.21zm11.38-16.816c-4.092 6.81-15.447 13.605-18.83 15.527a.635.635 0 01-.75-.104l-.854-.854-4.359-4.359-.854-.854a.627.627 0 01-.104-.75c1.92-3.383 8.717-14.738 15.527-18.829 2.638-1.585 9.155-2.12 11.872-2.276a.624.624 0 01.626.666c-.155 2.68-.69 9.195-2.275 11.833z" fill="#fff"/><path d="M28.838 6.512a4.627 4.627 0 00-3.291 1.362 4.655 4.655 0 000 6.578 4.624 4.624 0 003.29 1.362 4.624 4.624 0 003.29-1.362 4.655 4.655 0 000-6.578 4.619 4.619 0 00-3.29-1.362zm2.017 6.666a2.834 2.834 0 01-2.017.835 2.833 2.833 0 01-2.017-.835 2.853 2.853 0 010-4.031 2.834 2.834 0 012.017-.835 2.853 2.853 0 012.017 4.866zM5.279 29.768a4.92 4.92 0 00-3.503 1.45C.014 32.982-.012 38.107.002 39.116A.896.896 0 00.886 40h.124c1.803 0 6.168-.173 7.77-1.775a4.922 4.922 0 001.452-3.503 4.923 4.923 0 00-1.451-3.503 4.922 4.922 0 00-3.503-1.451zm2.236 7.19c-.771.772-3.36 1.166-5.713 1.238.067-2.152.45-4.92 1.241-5.711a3.14 3.14 0 012.236-.926 3.14 3.14 0 012.236.926c.598.597.927 1.391.927 2.236 0 .845-.33 1.64-.927 2.237z" fill="#fff"/></svg>