<svg width="1527" height="797" viewBox="0 0 1527 797" fill="none" xmlns="http://www.w3.org/2000/svg">
<mask id="path-1-outside-1_2754_322" maskUnits="userSpaceOnUse" x="0.477123" y="-429.893" width="3635.66" height="2128.55" fill="black">
<rect fill="white" x="0.477123" y="-429.893" width="3635.66" height="2128.55"/>
<path d="M1629.65 -92.3051L1737.03 -62.0211L1658.21 16.805L1550.83 -13.479L1629.65 -92.3051ZM984.14 553.21L1091.52 583.494L1012.69 662.32L905.313 632.036L984.14 553.21ZM2508.99 155.694L2616.37 185.978L2537.54 264.804L2430.17 234.52L2508.99 155.694ZM1863.48 801.208L1970.86 831.492L1892.03 910.319L1784.65 880.035L1863.48 801.208ZM1467.79 69.5545L1575.17 99.8385L1496.35 178.665L1388.97 148.381L1467.79 69.5545ZM822.28 715.069L929.659 745.353L850.833 824.179L743.454 793.895L822.28 715.069ZM2347.13 317.553L2454.51 347.837L2375.68 426.663L2268.31 396.379L2347.13 317.553ZM1701.62 963.068L1809 993.352L1730.17 1072.18L1622.79 1041.89L1701.62 963.068ZM1548.72 -11.3731L1656.1 18.9109L1577.28 97.7369L1469.9 67.453L1548.72 -11.3731ZM903.207 634.142L1010.59 664.426L931.76 743.252L824.381 712.968L903.207 634.142ZM2428.06 236.626L2535.44 266.91L2456.61 345.736L2349.23 315.452L2428.06 236.626ZM1782.54 882.141L1889.92 912.425L1811.1 991.251L1703.72 960.967L1782.54 882.141ZM1386.86 150.487L1494.24 180.771L1415.42 259.597L1308.04 229.313L1386.86 150.487ZM741.348 796.001L848.727 826.285L769.901 905.111L662.522 874.827L741.348 796.001ZM2266.2 398.485L2373.58 428.769L2294.75 507.595L2187.37 477.311L2266.2 398.485ZM1620.69 1044L1728.06 1074.28L1649.24 1153.11L1541.86 1122.83L1620.69 1044ZM2070.63 32.0638L2178.01 62.3478L2099.19 141.174L1991.81 110.89L2070.63 32.0638ZM1425.12 677.579L1532.5 707.863L1453.67 786.689L1346.29 756.405L1425.12 677.579ZM2949.97 280.063L3057.35 310.347L2978.52 389.173L2871.14 358.889L2949.97 280.063ZM2304.46 925.577L2411.83 955.861L2333.01 1034.69L2225.63 1004.4L2304.46 925.577ZM1908.77 193.923L2016.15 224.207L1937.33 303.033L1829.95 272.749L1908.77 193.923ZM1263.26 839.438L1370.64 869.722L1291.81 948.548L1184.43 918.264L1263.26 839.438ZM2788.11 441.922L2895.49 472.206L2816.66 551.032L2709.28 520.748L2788.11 441.922ZM2142.6 1087.44L2249.97 1117.72L2171.15 1196.55L2063.77 1166.26L2142.6 1087.44ZM1989.7 112.996L2097.08 143.28L2018.25 222.106L1910.88 191.822L1989.7 112.996ZM1344.19 758.511L1451.57 788.795L1372.74 867.621L1265.36 837.337L1344.19 758.511ZM2869.04 360.995L2976.42 391.279L2897.59 470.105L2790.21 439.821L2869.04 360.995ZM2223.52 1006.51L2330.9 1036.79L2252.08 1115.62L2144.7 1085.34L2223.52 1006.51ZM1827.84 274.855L1935.22 305.139L1856.39 383.965L1749.02 353.681L1827.84 274.855ZM1182.33 920.37L1289.71 950.654L1210.88 1029.48L1103.5 999.196L1182.33 920.37ZM2707.18 522.854L2814.56 553.138L2735.73 631.964L2628.35 601.68L2707.18 522.854ZM2061.66 1168.37L2169.04 1198.65L2090.22 1277.48L1982.84 1247.19L2061.66 1168.37ZM1850.14 -30.1223L1957.52 0.161689L1878.69 78.9878L1771.31 48.7038L1850.14 -30.1223ZM1204.62 615.393L1312 645.677L1233.18 724.503L1125.8 694.219L1204.62 615.393ZM2729.48 217.878L2836.86 248.162L2758.03 326.988L2650.65 296.704L2729.48 217.878ZM2083.97 863.393L2191.34 893.677L2112.52 972.503L2005.14 942.219L2083.97 863.393ZM1688.28 131.737L1795.66 162.021L1716.83 240.847L1609.45 210.563L1688.28 131.737ZM1042.76 777.252L1150.14 807.536L1071.32 886.362L963.937 856.078L1042.76 777.252ZM2567.62 379.738L2675 410.022L2596.17 488.848L2488.8 458.564L2567.62 379.738ZM1922.11 1025.25L2029.49 1055.54L1950.66 1134.36L1843.28 1104.08L1922.11 1025.25ZM1769.21 50.8097L1876.58 81.0937L1797.76 159.92L1690.38 129.636L1769.21 50.8097ZM1123.69 696.325L1231.07 726.609L1152.24 805.435L1044.86 775.151L1123.69 696.325ZM2648.55 298.81L2755.93 329.094L2677.1 407.92L2569.72 377.636L2648.55 298.81ZM2003.03 944.325L2110.41 974.609L2031.59 1053.43L1924.21 1023.15L2003.03 944.325ZM1607.35 212.669L1714.73 242.953L1635.9 321.779L1528.52 291.495L1607.35 212.669ZM961.831 858.184L1069.21 888.468L990.384 967.294L883.005 937.01L961.831 858.184ZM2486.69 460.67L2594.07 490.954L2515.24 569.78L2407.86 539.496L2486.69 460.67ZM1841.17 1106.18L1948.55 1136.47L1869.73 1215.29L1762.35 1185.01L1841.17 1106.18ZM2291.12 94.2466L2398.5 124.531L2319.67 203.357L2212.29 173.073L2291.12 94.2466ZM1645.6 739.761L1752.98 770.045L1674.15 848.872L1566.78 818.588L1645.6 739.761ZM3170.45 342.245L3277.83 372.529L3199.01 451.355L3091.63 421.071L3170.45 342.245ZM2524.94 987.76L2632.32 1018.04L2553.49 1096.87L2446.11 1066.59L2524.94 987.76ZM2129.26 256.106L2236.64 286.39L2157.81 365.216L2050.43 334.932L2129.26 256.106ZM1483.74 901.621L1591.12 931.905L1512.29 1010.73L1404.92 980.447L1483.74 901.621ZM3008.59 504.105L3115.97 534.389L3037.15 613.215L2929.77 582.931L3008.59 504.105ZM2363.08 1149.62L2470.46 1179.9L2391.63 1258.73L2284.25 1228.45L2363.08 1149.62ZM2210.18 175.179L2317.56 205.463L2238.74 284.289L2131.36 254.005L2210.18 175.179ZM1564.67 820.693L1672.05 850.977L1593.22 929.803L1485.84 899.519L1564.67 820.693ZM3089.52 423.177L3196.9 453.461L3118.07 532.287L3010.7 502.003L3089.52 423.177ZM2444.01 1068.69L2551.39 1098.98L2472.56 1177.8L2365.18 1147.52L2444.01 1068.69ZM2048.32 337.038L2155.7 367.322L2076.88 446.148L1969.5 415.864L2048.32 337.038ZM1402.81 982.553L1510.19 1012.84L1431.36 1091.66L1323.98 1061.38L1402.81 982.553ZM2927.66 585.037L3035.04 615.321L2956.21 694.147L2848.84 663.863L2927.66 585.037ZM2282.15 1230.55L2389.53 1260.84L2310.7 1339.66L2203.32 1309.38L2282.15 1230.55ZM1739.9 -61.212L1847.28 -30.928L1768.45 47.8981L1661.08 17.6141L1739.9 -61.212ZM1094.39 584.303L1201.77 614.587L1122.94 693.413L1015.56 663.129L1094.39 584.303ZM2619.24 186.787L2726.62 217.071L2647.79 295.897L2540.41 265.613L2619.24 186.787ZM1973.72 832.302L2081.1 862.586L2002.28 941.412L1894.9 911.128L1973.72 832.302ZM1578.04 100.648L1685.42 130.932L1606.6 209.758L1499.22 179.474L1578.04 100.648ZM932.528 746.163L1039.91 776.446L961.08 855.272L853.702 824.989L932.528 746.163ZM2457.38 348.646L2564.76 378.93L2485.93 457.756L2378.55 427.472L2457.38 348.646ZM1811.86 994.161L1919.24 1024.45L1840.42 1103.27L1733.04 1072.99L1811.86 994.161ZM1658.97 19.72L1766.35 50.004L1687.52 128.83L1580.14 98.546L1658.97 19.72ZM1013.46 665.235L1120.83 695.519L1042.01 774.345L934.629 744.061L1013.46 665.235ZM2538.31 267.719L2645.69 298.003L2566.86 376.829L2459.48 346.545L2538.31 267.719ZM1892.79 913.234L2000.17 943.518L1921.35 1022.34L1813.97 992.06L1892.79 913.234ZM1497.11 181.58L1604.49 211.864L1525.66 290.69L1418.28 260.406L1497.11 181.58ZM851.596 827.094L958.974 857.378L880.148 936.204L772.77 905.92L851.596 827.094ZM2376.45 429.578L2483.83 459.862L2405 538.688L2297.62 508.404L2376.45 429.578ZM1730.93 1075.09L1838.31 1105.38L1759.49 1184.2L1652.11 1153.92L1730.93 1075.09ZM2180.87 63.1552L2288.25 93.4392L2209.43 172.265L2102.05 141.981L2180.87 63.1552ZM1535.36 708.67L1642.74 738.954L1563.91 817.78L1456.53 787.496L1535.36 708.67ZM3060.22 311.156L3167.6 341.44L3088.77 420.266L2981.39 389.982L3060.22 311.156ZM2414.7 956.67L2522.08 986.954L2443.26 1065.78L2335.88 1035.5L2414.7 956.67ZM2019.02 225.015L2126.39 255.299L2047.57 334.125L1940.19 303.841L2019.02 225.015ZM1373.5 870.53L1480.88 900.814L1402.05 979.64L1294.67 949.356L1373.5 870.53ZM2898.36 473.015L3005.74 503.299L2926.91 582.125L2819.53 551.841L2898.36 473.015ZM2252.84 1118.53L2360.22 1148.81L2281.4 1227.64L2174.02 1197.36L2252.84 1118.53ZM2099.94 144.087L2207.32 174.371L2128.5 253.197L2021.12 222.913L2099.94 144.087ZM1454.43 789.602L1561.81 819.886L1482.98 898.712L1375.6 868.428L1454.43 789.602ZM2979.29 392.088L3086.66 422.372L3007.84 501.198L2900.46 470.914L2979.29 392.088ZM2333.77 1037.6L2441.15 1067.89L2362.32 1146.71L2254.94 1116.43L2333.77 1037.6ZM1938.08 305.947L2045.46 336.231L1966.64 415.057L1859.26 384.773L1938.08 305.947ZM1292.57 951.462L1399.95 981.746L1321.12 1060.57L1213.74 1030.29L1292.57 951.462ZM2817.43 553.947L2924.81 584.231L2845.98 663.057L2738.6 632.773L2817.43 553.947ZM2171.91 1199.46L2279.29 1229.75L2200.46 1308.57L2093.09 1278.29L2171.91 1199.46ZM1960.39 0.970742L2067.76 31.2547L1988.94 110.081L1881.56 79.7968L1960.39 0.970742ZM1314.87 646.486L1422.25 676.77L1343.42 755.596L1236.04 725.312L1314.87 646.486ZM2839.72 248.969L2947.1 279.253L2868.28 358.08L2760.9 327.796L2839.72 248.969ZM2194.21 894.484L2301.59 924.768L2222.76 1003.59L2115.38 973.31L2194.21 894.484ZM1798.53 162.83L1905.9 193.114L1827.08 271.94L1719.7 241.656L1798.53 162.83ZM1153.01 808.345L1260.39 838.629L1181.56 917.455L1074.18 887.171L1153.01 808.345ZM2677.86 410.829L2785.24 441.113L2706.42 519.939L2599.04 489.655L2677.86 410.829ZM2032.35 1056.34L2139.73 1086.63L2060.9 1165.45L1953.52 1135.17L2032.35 1056.34ZM1879.45 81.9027L1986.83 112.187L1908.01 191.013L1800.63 160.729L1879.45 81.9027ZM1233.94 727.418L1341.32 757.702L1262.49 836.528L1155.11 806.244L1233.94 727.418ZM2758.79 329.901L2866.17 360.185L2787.34 439.011L2679.96 408.728L2758.79 329.901ZM2113.28 975.416L2220.65 1005.7L2141.83 1084.53L2034.45 1054.24L2113.28 975.416ZM1717.59 243.762L1824.97 274.046L1746.15 352.872L1638.77 322.588L1717.59 243.762ZM1072.08 889.277L1179.46 919.561L1100.63 998.387L993.253 968.103L1072.08 889.277ZM2596.93 491.761L2704.31 522.045L2625.48 600.871L2518.1 570.587L2596.93 491.761ZM1951.42 1137.28L2058.8 1167.56L1979.97 1246.39L1872.59 1216.1L1951.42 1137.28ZM2401.37 125.341L2508.75 155.625L2429.92 234.451L2322.54 204.167L2401.37 125.341ZM1755.86 770.856L1863.23 801.14L1784.41 879.966L1677.03 849.682L1755.86 770.856ZM3280.71 373.34L3388.09 403.624L3309.26 482.45L3201.88 452.166L3280.71 373.34ZM2635.19 1018.85L2742.57 1049.14L2663.75 1127.97L2556.37 1097.68L2635.19 1018.85ZM2239.51 287.201L2346.89 317.485L2268.06 396.311L2160.68 366.027L2239.51 287.201ZM1594 932.716L1701.37 963L1622.55 1041.83L1515.17 1011.54L1594 932.716ZM3118.85 535.2L3226.23 565.484L3147.4 644.31L3040.02 614.026L3118.85 535.2ZM2473.33 1180.71L2580.71 1211L2501.89 1289.82L2394.51 1259.54L2473.33 1180.71ZM2320.44 206.273L2427.82 236.557L2348.99 315.383L2241.61 285.099L2320.44 206.273ZM1674.92 851.788L1782.3 882.072L1703.48 960.898L1596.1 930.614L1674.92 851.788ZM3199.78 454.272L3307.15 484.556L3228.33 563.382L3120.95 533.098L3199.78 454.272ZM2554.26 1099.79L2661.64 1130.07L2582.81 1208.9L2475.43 1178.61L2554.26 1099.79ZM2158.58 368.133L2265.96 398.417L2187.13 477.243L2079.75 446.959L2158.58 368.133ZM1513.06 1013.65L1620.44 1043.93L1541.62 1122.76L1434.24 1092.47L1513.06 1013.65ZM3037.92 616.132L3145.29 646.416L3066.47 725.242L2959.09 694.958L3037.92 616.132ZM2392.4 1261.65L2499.78 1291.93L2420.95 1370.76L2313.57 1340.47L2392.4 1261.65ZM1306.89 230.455L1414.27 260.739L1335.45 339.565L1228.07 309.281L1306.89 230.455ZM661.38 875.969L768.759 906.253L689.933 985.079L582.554 954.795L661.38 875.969ZM2186.23 478.453L2293.61 508.737L2214.78 587.563L2107.41 557.279L2186.23 478.453ZM1540.72 1123.97L1648.1 1154.25L1569.27 1233.08L1461.89 1202.79L1540.72 1123.97ZM1145.04 392.314L1252.41 422.598L1173.59 501.424L1066.21 471.14L1145.04 392.314ZM499.52 1037.83L606.899 1068.11L528.073 1146.94L420.694 1116.66L499.52 1037.83ZM2024.37 640.313L2131.75 670.597L2052.93 749.423L1945.55 719.139L2024.37 640.313ZM1378.86 1285.83L1486.24 1316.11L1407.41 1394.94L1300.03 1364.65L1378.86 1285.83ZM1225.97 311.382L1333.35 341.666L1254.52 420.492L1147.14 390.208L1225.97 311.382ZM580.452 956.897L687.831 987.181L609.005 1066.01L501.626 1035.72L580.452 956.897ZM2105.3 559.381L2212.68 589.665L2133.86 668.491L2026.48 638.207L2105.3 559.381ZM1459.79 1204.9L1567.17 1235.18L1488.34 1314.01L1380.96 1283.72L1459.79 1204.9ZM1064.11 473.242L1171.49 503.526L1092.66 582.352L985.281 552.068L1064.11 473.242ZM418.593 1118.76L525.972 1149.04L447.145 1227.87L339.767 1197.58L418.593 1118.76ZM1709.62 -172.273L1817 -141.989L1738.18 -63.1631L1630.8 -93.447L1709.62 -172.273ZM1943.44 721.241L2050.82 751.524L1972 830.35L1864.62 800.067L1943.44 721.241ZM1297.93 1366.76L1405.31 1397.04L1326.48 1475.87L1219.1 1445.58L1297.93 1366.76ZM2588.96 75.7256L2696.34 106.01L2617.51 184.836L2510.13 154.552L2588.96 75.7256ZM1747.87 354.823L1855.25 385.107L1776.43 463.933L1669.05 433.649L1747.87 354.823ZM1102.36 1000.34L1209.74 1030.62L1130.91 1109.45L1023.53 1079.16L1102.36 1000.34ZM2627.21 602.822L2734.59 633.106L2655.76 711.932L2548.38 681.648L2627.21 602.822ZM1981.7 1248.34L2089.07 1278.62L2010.25 1357.45L1902.87 1327.16L1981.7 1248.34ZM1586.01 516.683L1693.39 546.967L1614.57 625.793L1507.19 595.509L1586.01 516.683ZM940.499 1162.2L1047.88 1192.48L969.052 1271.31L861.673 1241.02L940.499 1162.2ZM2465.35 764.682L2572.73 794.966L2493.9 873.792L2386.52 843.508L2465.35 764.682ZM1819.84 1410.2L1927.21 1440.48L1848.39 1519.31L1741.01 1489.02L1819.84 1410.2ZM1666.95 435.751L1774.32 466.035L1695.5 544.861L1588.12 514.577L1666.95 435.751ZM1021.43 1081.27L1128.81 1111.55L1049.98 1190.38L942.605 1160.09L1021.43 1081.27ZM2546.28 683.75L2653.66 714.034L2574.84 792.86L2467.46 762.576L2546.28 683.75ZM1900.77 1329.26L2008.15 1359.55L1929.32 1438.37L1821.94 1408.09L1900.77 1329.26ZM1505.09 597.611L1612.47 627.895L1533.64 706.721L1426.26 676.437L1505.09 597.611ZM859.571 1243.13L966.95 1273.41L888.124 1352.24L780.745 1321.95L859.571 1243.13ZM2150.6 -47.9042L2257.98 -17.6203L2179.15 61.2058L2071.78 30.9218L2150.6 -47.9042ZM2384.42 845.609L2491.8 875.893L2412.98 954.719L2305.6 924.435L2384.42 845.609ZM1738.91 1491.12L1846.29 1521.41L1767.46 1600.23L1660.08 1569.95L1738.91 1491.12ZM3029.94 200.094L3137.32 230.378L3058.49 309.205L2951.11 278.921L3029.94 200.094ZM1527.38 292.637L1634.76 322.921L1555.93 401.747L1448.55 371.463L1527.38 292.637ZM881.863 938.152L989.242 968.436L910.416 1047.26L803.037 1016.98L881.863 938.152ZM2406.72 540.638L2514.1 570.922L2435.27 649.748L2327.9 619.464L2406.72 540.638ZM1761.21 1186.15L1868.59 1216.44L1789.76 1295.26L1682.38 1264.98L1761.21 1186.15ZM1365.52 454.497L1472.9 484.781L1394.07 563.607L1286.69 533.323L1365.52 454.497ZM720.004 1100.01L827.383 1130.3L748.557 1209.12L641.178 1178.84L720.004 1100.01ZM2244.86 702.497L2352.24 732.781L2273.41 811.607L2166.04 781.323L2244.86 702.497ZM1599.35 1348.01L1706.73 1378.3L1627.9 1457.12L1520.52 1426.84L1599.35 1348.01ZM1446.45 373.565L1553.83 403.849L1475 482.675L1367.62 452.391L1446.45 373.565ZM800.936 1019.08L908.315 1049.36L829.489 1128.19L722.11 1097.91L800.936 1019.08ZM2325.79 621.565L2433.17 651.849L2354.35 730.675L2246.97 700.391L2325.79 621.565ZM1680.28 1267.08L1787.66 1297.36L1708.83 1376.19L1601.45 1345.91L1680.28 1267.08ZM1284.59 535.425L1391.97 565.709L1313.14 644.535L1205.76 614.251L1284.59 535.425ZM639.076 1180.94L746.455 1211.22L667.629 1290.05L560.25 1259.77L639.076 1180.94ZM1930.11 -110.09L2037.48 -79.8063L1958.66 -0.980282L1851.28 -31.2643L1930.11 -110.09ZM2163.93 783.425L2271.31 813.709L2192.49 892.535L2085.11 862.251L2163.93 783.425ZM1518.42 1428.94L1625.8 1459.22L1546.97 1538.05L1439.59 1507.77L1518.42 1428.94ZM2809.45 137.91L2916.83 168.194L2838 247.02L2730.62 216.736L2809.45 137.91ZM1968.36 417.006L2075.74 447.29L1996.91 526.116L1889.53 495.832L1968.36 417.006ZM1322.84 1062.52L1430.22 1092.8L1351.39 1171.63L1244.02 1141.35L1322.84 1062.52ZM2847.69 665.005L2955.07 695.289L2876.25 774.115L2768.87 743.831L2847.69 665.005ZM2202.18 1310.52L2309.56 1340.8L2230.73 1419.63L2123.35 1389.35L2202.18 1310.52ZM1806.5 578.866L1913.88 609.15L1835.05 687.976L1727.67 657.692L1806.5 578.866ZM1160.98 1224.38L1268.36 1254.66L1189.54 1333.49L1082.16 1303.21L1160.98 1224.38ZM2685.83 826.865L2793.21 857.149L2714.39 935.975L2607.01 905.691L2685.83 826.865ZM2040.32 1472.38L2147.7 1502.66L2068.87 1581.49L1961.49 1551.21L2040.32 1472.38ZM1887.43 497.934L1994.81 528.218L1915.98 607.044L1808.6 576.76L1887.43 497.934ZM1241.91 1143.45L1349.29 1173.73L1270.47 1252.56L1163.09 1222.27L1241.91 1143.45ZM2766.77 745.933L2874.15 776.217L2795.32 855.043L2687.94 824.759L2766.77 745.933ZM2121.25 1391.45L2228.63 1421.73L2149.8 1500.56L2042.43 1470.27L2121.25 1391.45ZM1725.57 659.793L1832.95 690.077L1754.12 768.903L1646.74 738.619L1725.57 659.793ZM1080.05 1305.31L1187.43 1335.59L1108.61 1414.42L1001.23 1384.13L1080.05 1305.31ZM2371.08 14.2785L2478.46 44.5625L2399.64 123.389L2292.26 93.1046L2371.08 14.2785ZM2604.91 907.792L2712.29 938.076L2633.46 1016.9L2526.08 986.618L2604.91 907.792ZM1959.39 1553.31L2066.77 1583.59L1987.94 1662.42L1880.57 1632.13L1959.39 1553.31ZM3250.42 262.277L3357.8 292.561L3278.97 371.387L3171.6 341.103L3250.42 262.277ZM1417.14 261.548L1524.52 291.832L1445.7 370.658L1338.32 340.374L1417.14 261.548ZM771.628 907.062L879.006 937.346L800.18 1016.17L692.801 985.889L771.628 907.062ZM2296.48 509.546L2403.86 539.83L2325.03 618.656L2217.65 588.372L2296.48 509.546ZM1650.96 1155.06L1758.34 1185.35L1679.52 1264.17L1572.14 1233.89L1650.96 1155.06ZM1255.28 423.407L1362.66 453.691L1283.84 532.517L1176.46 502.233L1255.28 423.407ZM609.768 1068.92L717.147 1099.21L638.321 1178.03L530.942 1147.75L609.768 1068.92ZM2134.62 671.406L2242 701.69L2163.17 780.516L2055.79 750.232L2134.62 671.406ZM1489.11 1316.92L1596.48 1347.2L1517.66 1426.03L1410.28 1395.75L1489.11 1316.92ZM1336.21 342.475L1443.59 372.759L1364.77 451.585L1257.39 421.301L1336.21 342.475ZM690.7 987.99L798.079 1018.27L719.253 1097.1L611.874 1066.82L690.7 987.99ZM2215.55 590.474L2322.93 620.758L2244.1 699.584L2136.73 669.3L2215.55 590.474ZM1570.04 1235.99L1677.42 1266.27L1598.59 1345.1L1491.21 1314.81L1570.04 1235.99ZM1174.36 504.335L1281.73 534.619L1202.91 613.445L1095.53 583.161L1174.36 504.335ZM528.84 1149.85L636.219 1180.13L557.393 1258.96L450.014 1228.68L528.84 1149.85ZM1819.87 -141.18L1927.25 -110.896L1848.42 -32.07L1741.04 -62.354L1819.87 -141.18ZM2053.69 752.334L2161.07 782.618L2082.25 861.444L1974.87 831.16L2053.69 752.334ZM1408.18 1397.85L1515.56 1428.13L1436.73 1506.96L1329.35 1476.67L1408.18 1397.85ZM2699.21 106.819L2806.59 137.103L2727.76 215.929L2620.38 185.645L2699.21 106.819ZM1858.12 385.915L1965.49 416.199L1886.67 495.025L1779.29 464.741L1858.12 385.915ZM1212.6 1031.43L1319.98 1061.71L1241.15 1140.54L1133.77 1110.26L1212.6 1031.43ZM2737.46 633.915L2844.84 664.199L2766.01 743.025L2658.63 712.741L2737.46 633.915ZM2091.94 1279.43L2199.32 1309.71L2120.5 1388.54L2013.12 1358.26L2091.94 1279.43ZM1696.26 547.774L1803.63 578.058L1724.81 656.884L1617.43 626.6L1696.26 547.774ZM1050.74 1193.29L1158.12 1223.57L1079.29 1302.4L971.915 1272.12L1050.74 1193.29ZM2575.6 795.775L2682.98 826.059L2604.15 904.885L2496.77 874.601L2575.6 795.775ZM1930.08 1441.29L2037.46 1471.57L1958.64 1550.4L1851.26 1520.12L1930.08 1441.29ZM1777.19 466.842L1884.57 497.126L1805.74 575.952L1698.36 545.668L1777.19 466.842ZM1131.67 1112.36L1239.05 1142.64L1160.23 1221.47L1052.85 1191.18L1131.67 1112.36ZM2656.53 714.843L2763.91 745.127L2685.08 823.953L2577.7 793.669L2656.53 714.843ZM2011.02 1360.36L2118.39 1390.64L2039.57 1469.47L1932.19 1439.18L2011.02 1360.36ZM1615.33 628.702L1722.71 658.986L1643.88 737.812L1536.5 707.528L1615.33 628.702ZM969.813 1274.22L1077.19 1304.5L998.366 1383.33L890.987 1353.04L969.813 1274.22ZM2260.84 -16.8128L2368.22 13.4711L2289.4 92.2972L2182.02 62.0132L2260.84 -16.8128ZM2494.67 876.702L2602.05 906.986L2523.22 985.812L2415.84 955.528L2494.67 876.702ZM1849.16 1522.22L1956.53 1552.5L1877.71 1631.33L1770.33 1601.04L1849.16 1522.22ZM3140.19 231.188L3247.56 261.472L3168.74 340.298L3061.36 310.014L3140.19 231.188ZM1637.63 323.73L1745 354.014L1666.18 432.84L1558.8 402.556L1637.63 323.73ZM992.111 969.245L1099.49 999.529L1020.66 1078.36L913.285 1048.07L992.111 969.245ZM2516.96 571.729L2624.34 602.013L2545.52 680.839L2438.14 650.555L2516.96 571.729ZM1871.45 1217.24L1978.83 1247.53L1900 1326.35L1792.62 1296.07L1871.45 1217.24ZM1475.77 485.59L1583.15 515.874L1504.32 594.7L1396.94 564.416L1475.77 485.59ZM830.251 1131.1L937.63 1161.39L858.804 1240.21L751.425 1209.93L830.251 1131.1ZM2355.1 733.589L2462.48 763.873L2383.66 842.699L2276.28 812.415L2355.1 733.589ZM1709.59 1379.1L1816.97 1409.39L1738.14 1488.21L1630.76 1457.93L1709.59 1379.1ZM1556.7 404.658L1664.08 434.942L1585.25 513.768L1477.87 483.484L1556.7 404.658ZM911.183 1050.17L1018.56 1080.46L939.736 1159.28L832.357 1129L911.183 1050.17ZM2436.04 652.657L2543.41 682.941L2464.59 761.767L2357.21 731.483L2436.04 652.657ZM1790.52 1298.17L1897.9 1328.46L1819.07 1407.28L1711.69 1377L1790.52 1298.17ZM1394.84 566.518L1502.22 596.802L1423.39 675.628L1316.01 645.344L1394.84 566.518ZM749.324 1212.03L856.703 1242.32L777.877 1321.14L670.498 1290.86L749.324 1212.03ZM2040.35 -78.9973L2147.73 -48.7133L2068.91 30.1127L1961.53 -0.171229L2040.35 -78.9973ZM2274.18 814.516L2381.55 844.8L2302.73 923.626L2195.35 893.342L2274.18 814.516ZM1628.66 1460.03L1736.04 1490.32L1657.21 1569.14L1549.83 1538.86L1628.66 1460.03ZM2919.69 169.001L3027.07 199.285L2948.24 278.111L2840.86 247.828L2919.69 169.001ZM2078.61 448.101L2185.99 478.385L2107.16 557.211L1999.78 526.927L2078.61 448.101ZM1433.1 1093.62L1540.47 1123.9L1461.65 1202.73L1354.27 1172.44L1433.1 1093.62ZM2957.95 696.1L3065.33 726.384L2986.5 805.21L2879.12 774.926L2957.95 696.1ZM2312.43 1341.61L2419.81 1371.9L2340.99 1450.72L2233.61 1420.44L2312.43 1341.61ZM1916.75 609.961L2024.13 640.244L1945.3 719.071L1837.92 688.787L1916.75 609.961ZM1271.24 1255.48L1378.61 1285.76L1299.79 1364.59L1192.41 1334.3L1271.24 1255.48ZM2796.09 857.959L2903.47 888.243L2824.64 967.069L2717.26 936.785L2796.09 857.959ZM2150.57 1503.47L2257.95 1533.76L2179.13 1612.58L2071.75 1582.3L2150.57 1503.47ZM1997.68 529.029L2105.06 559.312L2026.24 638.139L1918.86 607.855L1997.68 529.029ZM1352.17 1174.54L1459.55 1204.83L1380.72 1283.65L1273.34 1253.37L1352.17 1174.54ZM2877.02 777.027L2984.4 807.311L2905.57 886.137L2798.19 855.853L2877.02 777.027ZM2231.51 1422.54L2338.88 1452.83L2260.06 1531.65L2152.68 1501.37L2231.51 1422.54ZM1835.82 690.888L1943.2 721.172L1864.38 799.998L1757 769.714L1835.82 690.888ZM1190.31 1336.4L1297.69 1366.69L1218.86 1445.51L1111.48 1415.23L1190.31 1336.4ZM2481.34 45.3732L2588.72 75.6572L2509.89 154.483L2402.51 124.199L2481.34 45.3732ZM2715.16 938.887L2822.54 969.171L2743.71 1048L2636.33 1017.71L2715.16 938.887ZM2069.65 1584.4L2177.02 1614.69L2098.2 1693.51L1990.82 1663.23L2069.65 1584.4ZM3360.68 293.372L3468.05 323.656L3389.23 402.482L3281.85 372.198L3360.68 293.372ZM1409.13 -154.5L1516.51 -124.216L1437.68 -45.3894L1330.3 -75.6734L1409.13 -154.5ZM763.615 491.015L870.994 521.299L792.167 600.125L684.789 569.841L763.615 491.015ZM1247.27 7.3601L1354.65 37.6441L1275.82 116.47L1168.44 86.1862L1247.27 7.3601ZM601.755 652.875L709.134 683.159L630.308 761.985L522.929 731.701L601.755 652.875ZM1328.2 -73.5675L1435.58 -43.2835L1356.75 35.5425L1249.37 5.25851L1328.2 -73.5675ZM682.683 571.947L790.062 602.231L711.236 681.057L603.857 650.773L682.683 571.947ZM1166.34 88.2921L1273.72 118.576L1194.89 197.402L1087.51 167.118L1166.34 88.2921ZM520.823 733.807L628.202 764.091L549.376 842.917L441.997 812.633L520.823 733.807ZM1298.89 -185.591L1406.27 -155.307L1327.44 -76.4808L1220.06 -106.765L1298.89 -185.591ZM653.373 459.924L760.752 490.208L681.926 569.034L574.547 538.75L653.373 459.924ZM1137.03 -23.7313L1244.41 6.55271L1165.58 85.3788L1058.2 55.0948L1137.03 -23.7313ZM491.513 621.784L598.892 652.068L520.066 730.894L412.687 700.61L491.513 621.784ZM1217.96 -104.659L1325.33 -74.3749L1246.51 4.45111L1139.13 -25.8329L1217.96 -104.659ZM572.441 540.856L679.82 571.14L600.994 649.966L493.615 619.682L572.441 540.856ZM1056.1 57.2007L1163.48 87.4847L1084.65 166.311L977.27 136.027L1056.1 57.2007ZM410.581 702.716L517.96 733L439.134 811.826L331.755 781.542L410.581 702.716ZM1519.38 -123.406L1626.76 -93.1225L1547.93 -14.2964L1440.55 -44.5804L1519.38 -123.406ZM873.862 522.108L981.241 552.392L902.415 631.219L795.036 600.935L873.862 522.108ZM1357.52 38.4532L1464.9 68.7371L1386.07 147.563L1278.69 117.279L1357.52 38.4532ZM712.003 683.968L819.382 714.252L740.556 793.078L633.177 762.794L712.003 683.968ZM1438.45 -42.4745L1545.82 -12.1905L1467 66.6355L1359.62 36.3516L1438.45 -42.4745ZM792.93 603.04L900.309 633.324L821.483 712.15L714.104 681.866L792.93 603.04ZM1276.59 119.385L1383.96 149.669L1305.14 228.495L1197.76 198.211L1276.59 119.385ZM631.071 764.9L738.45 795.184L659.624 874.01L552.245 843.726L631.071 764.9ZM1086.37 168.26L1193.75 198.544L1114.92 277.37L1007.54 247.086L1086.37 168.26ZM440.855 813.775L548.234 844.059L469.408 922.885L362.029 892.601L440.855 813.775ZM924.51 330.12L1031.89 360.404L953.063 439.23L845.684 408.946L924.51 330.12ZM278.995 975.635L386.374 1005.92L307.548 1084.74L200.169 1054.46L278.995 975.635ZM1005.44 249.188L1112.82 279.472L1034 358.298L926.616 328.014L1005.44 249.188ZM359.927 894.703L467.306 924.987L388.48 1003.81L281.101 973.529L359.927 894.703ZM843.583 411.047L950.962 441.331L872.136 520.157L764.757 489.873L843.583 411.047ZM198.068 1056.56L305.447 1086.85L226.621 1165.67L119.242 1135.39L198.068 1056.56ZM1489.1 -234.468L1596.48 -204.184L1517.65 -125.358L1410.27 -155.641L1489.1 -234.468ZM976.128 137.169L1083.51 167.453L1004.68 246.279L897.302 215.995L976.128 137.169ZM330.613 782.684L437.992 812.968L359.166 891.794L251.787 861.51L330.613 782.684ZM814.269 299.028L921.647 329.312L842.821 408.138L735.442 377.854L814.269 299.028ZM168.754 944.543L276.133 974.827L197.307 1053.65L89.9276 1023.37L168.754 944.543ZM895.201 218.096L1002.58 248.38L923.753 327.206L816.375 296.922L895.201 218.096ZM249.686 863.611L357.065 893.895L278.239 972.721L170.86 942.437L249.686 863.611ZM733.341 379.956L840.72 410.24L761.894 489.066L654.515 458.782L733.341 379.956ZM87.826 1025.47L195.205 1055.75L116.379 1134.58L8.99998 1104.3L87.826 1025.47ZM1378.86 -265.559L1486.23 -235.275L1407.41 -156.449L1300.03 -186.733L1378.86 -265.559ZM1196.62 199.353L1304 229.637L1225.17 308.463L1117.79 278.179L1196.62 199.353ZM551.103 844.868L658.482 875.152L579.656 953.978L472.277 923.694L551.103 844.868ZM1034.76 361.213L1142.14 391.497L1063.31 470.323L955.932 440.039L1034.76 361.213ZM389.243 1006.73L496.622 1037.01L417.796 1115.84L310.417 1085.55L389.243 1006.73ZM1115.69 280.281L1223.07 310.565L1144.24 389.391L1036.86 359.107L1115.69 280.281ZM470.175 925.796L577.554 956.08L498.728 1034.91L391.349 1004.62L470.175 925.796ZM953.83 442.14L1061.21 472.424L982.383 551.25L875.004 520.966L953.83 442.14ZM308.315 1087.66L415.694 1117.94L336.868 1196.77L229.489 1166.48L308.315 1087.66ZM1599.35 -203.375L1706.72 -173.091L1627.9 -94.2645L1520.52 -124.548L1599.35 -203.375ZM1789.1 -251.746L1896.47 -221.462L1817.65 -142.636L1710.27 -172.92L1789.1 -251.746ZM2668.43 -3.7474L2775.81 26.5366L2696.99 105.363L2589.61 75.0787L2668.43 -3.7474ZM2230.07 -127.377L2337.45 -97.0933L2258.63 -18.2672L2151.25 -48.5512L2230.07 -127.377ZM3109.41 120.621L3216.79 150.905L3137.96 229.732L3030.59 199.448L3109.41 120.621ZM2009.58 -189.563L2116.96 -159.279L2038.13 -80.4533L1930.75 -110.737L2009.58 -189.563ZM2888.92 58.4371L2996.3 88.721L2917.47 167.547L2810.1 137.263L2888.92 58.4371ZM2450.56 -65.1945L2557.94 -34.9105L2479.11 43.9155L2371.73 13.6316L2450.56 -65.1945ZM3329.89 182.804L3437.27 213.088L3358.45 291.914L3251.07 261.63L3329.89 182.804ZM1899.34 -220.653L2006.72 -190.369L1927.9 -111.543L1820.52 -141.827L1899.34 -220.653ZM2778.68 27.3457L2886.06 57.6296L2807.23 136.456L2699.85 106.172L2778.68 27.3457ZM2340.32 -96.2859L2447.69 -66.0019L2368.87 12.8242L2261.49 -17.4598L2340.32 -96.2859ZM3219.66 151.715L3327.04 181.998L3248.21 260.825L3140.83 230.541L3219.66 151.715ZM2119.83 -158.47L2227.21 -128.186L2148.38 -49.3603L2041 -79.6443L2119.83 -158.47ZM2999.16 89.5284L3106.54 119.812L3027.72 198.638L2920.34 168.354L2999.16 89.5284ZM2560.81 -34.0998L2668.19 -3.81582L2589.36 75.0102L2481.99 44.7263L2560.81 -34.0998ZM3440.15 213.899L3547.53 244.183L3468.7 323.009L3361.32 292.725L3440.15 213.899ZM1869.06 -331.714L1976.44 -301.43L1897.62 -222.604L1790.24 -252.888L1869.06 -331.714ZM2748.4 -83.7154L2855.78 -53.4315L2776.95 25.3946L2669.57 -4.88937L2748.4 -83.7154ZM2310.04 -207.345L2417.42 -177.061L2338.59 -98.2353L2231.22 -128.519L2310.04 -207.345ZM3189.38 40.6534L3296.76 70.9374L3217.93 149.763L3110.55 119.479L3189.38 40.6534ZM2089.55 -269.531L2196.93 -239.247L2118.1 -160.421L2010.72 -190.705L2089.55 -269.531ZM2968.89 -21.531L3076.27 8.753L2997.44 87.5791L2890.06 57.2951L2968.89 -21.531ZM2530.53 -145.163L2637.9 -114.879L2559.08 -36.0525L2451.7 -66.3365L2530.53 -145.163ZM3409.86 102.836L3517.24 133.12L3438.42 211.946L3331.04 181.662L3409.86 102.836ZM1979.31 -300.621L2086.69 -270.337L2007.86 -191.511L1900.49 -221.795L1979.31 -300.621ZM2858.65 -52.6224L2966.03 -22.3384L2887.2 56.4877L2779.82 26.2037L2858.65 -52.6224ZM2420.28 -176.254L2527.66 -145.97L2448.84 -67.1439L2341.46 -97.4279L2420.28 -176.254ZM3299.63 71.7465L3407.01 102.03L3328.18 180.857L3220.8 150.573L3299.63 71.7465ZM2199.79 -238.438L2307.17 -208.154L2228.35 -129.328L2120.97 -159.612L2199.79 -238.438ZM3079.13 9.5604L3186.51 39.8444L3107.68 118.67L3000.31 88.3865L3079.13 9.5604ZM2640.78 -114.068L2748.16 -83.7838L2669.33 -4.95779L2561.95 -35.2418L2640.78 -114.068ZM3520.12 133.931L3627.5 164.215L3548.67 243.041L3441.29 212.757L3520.12 133.931ZM1568.57 -313.941L1675.95 -283.657L1597.12 -204.831L1489.74 -235.115L1568.57 -313.941ZM1458.33 -345.032L1565.71 -314.748L1486.88 -235.922L1379.5 -266.206L1458.33 -345.032ZM1678.82 -282.848L1786.2 -252.564L1707.37 -173.737L1599.99 -204.021L1678.82 -282.848ZM1648.54 -393.909L1755.92 -363.625L1677.09 -284.799L1569.71 -315.083L1648.54 -393.909ZM1538.3 -424.998L1645.68 -394.714L1566.86 -315.888L1459.48 -346.172L1538.3 -424.998ZM1758.79 -362.816L1866.17 -332.532L1787.34 -253.706L1679.96 -283.99L1758.79 -362.816Z"/>
</mask>
<path d="M1629.65 -92.3051L1737.03 -62.0211L1658.21 16.805L1550.83 -13.479L1629.65 -92.3051ZM984.14 553.21L1091.52 583.494L1012.69 662.32L905.313 632.036L984.14 553.21ZM2508.99 155.694L2616.37 185.978L2537.54 264.804L2430.17 234.52L2508.99 155.694ZM1863.48 801.208L1970.86 831.492L1892.03 910.319L1784.65 880.035L1863.48 801.208ZM1467.79 69.5545L1575.17 99.8385L1496.35 178.665L1388.97 148.381L1467.79 69.5545ZM822.28 715.069L929.659 745.353L850.833 824.179L743.454 793.895L822.28 715.069ZM2347.13 317.553L2454.51 347.837L2375.68 426.663L2268.31 396.379L2347.13 317.553ZM1701.62 963.068L1809 993.352L1730.17 1072.18L1622.79 1041.89L1701.62 963.068ZM1548.72 -11.3731L1656.1 18.9109L1577.28 97.7369L1469.9 67.453L1548.72 -11.3731ZM903.207 634.142L1010.59 664.426L931.76 743.252L824.381 712.968L903.207 634.142ZM2428.06 236.626L2535.44 266.91L2456.61 345.736L2349.23 315.452L2428.06 236.626ZM1782.54 882.141L1889.92 912.425L1811.1 991.251L1703.72 960.967L1782.54 882.141ZM1386.86 150.487L1494.24 180.771L1415.42 259.597L1308.04 229.313L1386.86 150.487ZM741.348 796.001L848.727 826.285L769.901 905.111L662.522 874.827L741.348 796.001ZM2266.2 398.485L2373.58 428.769L2294.75 507.595L2187.37 477.311L2266.2 398.485ZM1620.69 1044L1728.06 1074.28L1649.24 1153.11L1541.86 1122.83L1620.69 1044ZM2070.63 32.0638L2178.01 62.3478L2099.19 141.174L1991.81 110.89L2070.63 32.0638ZM1425.12 677.579L1532.5 707.863L1453.67 786.689L1346.29 756.405L1425.12 677.579ZM2949.97 280.063L3057.35 310.347L2978.52 389.173L2871.14 358.889L2949.97 280.063ZM2304.46 925.577L2411.83 955.861L2333.01 1034.69L2225.63 1004.4L2304.46 925.577ZM1908.77 193.923L2016.15 224.207L1937.33 303.033L1829.95 272.749L1908.77 193.923ZM1263.26 839.438L1370.64 869.722L1291.81 948.548L1184.43 918.264L1263.26 839.438ZM2788.11 441.922L2895.49 472.206L2816.66 551.032L2709.28 520.748L2788.11 441.922ZM2142.6 1087.44L2249.97 1117.72L2171.15 1196.55L2063.77 1166.26L2142.6 1087.44ZM1989.7 112.996L2097.08 143.28L2018.25 222.106L1910.88 191.822L1989.7 112.996ZM1344.19 758.511L1451.57 788.795L1372.74 867.621L1265.36 837.337L1344.19 758.511ZM2869.04 360.995L2976.42 391.279L2897.59 470.105L2790.21 439.821L2869.04 360.995ZM2223.52 1006.51L2330.9 1036.79L2252.08 1115.62L2144.7 1085.34L2223.52 1006.51ZM1827.84 274.855L1935.22 305.139L1856.39 383.965L1749.02 353.681L1827.84 274.855ZM1182.33 920.37L1289.71 950.654L1210.88 1029.48L1103.5 999.196L1182.33 920.37ZM2707.18 522.854L2814.56 553.138L2735.73 631.964L2628.35 601.68L2707.18 522.854ZM2061.66 1168.37L2169.04 1198.65L2090.22 1277.48L1982.84 1247.19L2061.66 1168.37ZM1850.14 -30.1223L1957.52 0.161689L1878.69 78.9878L1771.31 48.7038L1850.14 -30.1223ZM1204.62 615.393L1312 645.677L1233.18 724.503L1125.8 694.219L1204.62 615.393ZM2729.48 217.878L2836.86 248.162L2758.03 326.988L2650.65 296.704L2729.48 217.878ZM2083.97 863.393L2191.34 893.677L2112.52 972.503L2005.14 942.219L2083.97 863.393ZM1688.28 131.737L1795.66 162.021L1716.83 240.847L1609.45 210.563L1688.28 131.737ZM1042.76 777.252L1150.14 807.536L1071.32 886.362L963.937 856.078L1042.76 777.252ZM2567.62 379.738L2675 410.022L2596.17 488.848L2488.8 458.564L2567.62 379.738ZM1922.11 1025.25L2029.49 1055.54L1950.66 1134.36L1843.28 1104.08L1922.11 1025.25ZM1769.21 50.8097L1876.58 81.0937L1797.76 159.92L1690.38 129.636L1769.21 50.8097ZM1123.69 696.325L1231.07 726.609L1152.24 805.435L1044.86 775.151L1123.69 696.325ZM2648.55 298.81L2755.93 329.094L2677.1 407.92L2569.72 377.636L2648.55 298.81ZM2003.03 944.325L2110.41 974.609L2031.59 1053.43L1924.21 1023.15L2003.03 944.325ZM1607.35 212.669L1714.73 242.953L1635.9 321.779L1528.52 291.495L1607.35 212.669ZM961.831 858.184L1069.21 888.468L990.384 967.294L883.005 937.01L961.831 858.184ZM2486.69 460.67L2594.07 490.954L2515.24 569.78L2407.86 539.496L2486.69 460.67ZM1841.17 1106.18L1948.55 1136.47L1869.73 1215.29L1762.35 1185.01L1841.17 1106.18ZM2291.12 94.2466L2398.5 124.531L2319.67 203.357L2212.29 173.073L2291.12 94.2466ZM1645.6 739.761L1752.98 770.045L1674.15 848.872L1566.78 818.588L1645.6 739.761ZM3170.45 342.245L3277.83 372.529L3199.01 451.355L3091.63 421.071L3170.45 342.245ZM2524.94 987.76L2632.32 1018.04L2553.49 1096.87L2446.11 1066.59L2524.94 987.76ZM2129.26 256.106L2236.64 286.39L2157.81 365.216L2050.43 334.932L2129.26 256.106ZM1483.74 901.621L1591.12 931.905L1512.29 1010.73L1404.92 980.447L1483.74 901.621ZM3008.59 504.105L3115.97 534.389L3037.15 613.215L2929.77 582.931L3008.59 504.105ZM2363.08 1149.62L2470.46 1179.9L2391.63 1258.73L2284.25 1228.45L2363.08 1149.62ZM2210.18 175.179L2317.56 205.463L2238.74 284.289L2131.36 254.005L2210.18 175.179ZM1564.67 820.693L1672.05 850.977L1593.22 929.803L1485.84 899.519L1564.67 820.693ZM3089.52 423.177L3196.9 453.461L3118.07 532.287L3010.7 502.003L3089.52 423.177ZM2444.01 1068.69L2551.39 1098.98L2472.56 1177.8L2365.18 1147.52L2444.01 1068.69ZM2048.32 337.038L2155.7 367.322L2076.88 446.148L1969.5 415.864L2048.32 337.038ZM1402.81 982.553L1510.19 1012.84L1431.36 1091.66L1323.98 1061.38L1402.81 982.553ZM2927.66 585.037L3035.04 615.321L2956.21 694.147L2848.84 663.863L2927.66 585.037ZM2282.15 1230.55L2389.53 1260.84L2310.7 1339.66L2203.32 1309.38L2282.15 1230.55ZM1739.9 -61.212L1847.28 -30.928L1768.45 47.8981L1661.08 17.6141L1739.9 -61.212ZM1094.39 584.303L1201.77 614.587L1122.94 693.413L1015.56 663.129L1094.39 584.303ZM2619.24 186.787L2726.62 217.071L2647.79 295.897L2540.41 265.613L2619.24 186.787ZM1973.72 832.302L2081.1 862.586L2002.28 941.412L1894.9 911.128L1973.72 832.302ZM1578.04 100.648L1685.42 130.932L1606.6 209.758L1499.22 179.474L1578.04 100.648ZM932.528 746.163L1039.91 776.446L961.08 855.272L853.702 824.989L932.528 746.163ZM2457.38 348.646L2564.76 378.93L2485.93 457.756L2378.55 427.472L2457.38 348.646ZM1811.86 994.161L1919.24 1024.45L1840.42 1103.27L1733.04 1072.99L1811.86 994.161ZM1658.97 19.72L1766.35 50.004L1687.52 128.83L1580.14 98.546L1658.97 19.72ZM1013.46 665.235L1120.83 695.519L1042.01 774.345L934.629 744.061L1013.46 665.235ZM2538.31 267.719L2645.69 298.003L2566.86 376.829L2459.48 346.545L2538.31 267.719ZM1892.79 913.234L2000.17 943.518L1921.35 1022.34L1813.97 992.06L1892.79 913.234ZM1497.11 181.58L1604.49 211.864L1525.66 290.69L1418.28 260.406L1497.11 181.58ZM851.596 827.094L958.974 857.378L880.148 936.204L772.77 905.92L851.596 827.094ZM2376.45 429.578L2483.83 459.862L2405 538.688L2297.62 508.404L2376.45 429.578ZM1730.93 1075.09L1838.31 1105.38L1759.49 1184.2L1652.11 1153.92L1730.93 1075.09ZM2180.87 63.1552L2288.25 93.4392L2209.43 172.265L2102.05 141.981L2180.87 63.1552ZM1535.36 708.67L1642.74 738.954L1563.91 817.78L1456.53 787.496L1535.36 708.67ZM3060.22 311.156L3167.6 341.44L3088.77 420.266L2981.39 389.982L3060.22 311.156ZM2414.7 956.67L2522.08 986.954L2443.26 1065.78L2335.88 1035.5L2414.7 956.67ZM2019.02 225.015L2126.39 255.299L2047.57 334.125L1940.19 303.841L2019.02 225.015ZM1373.5 870.53L1480.88 900.814L1402.05 979.64L1294.67 949.356L1373.5 870.53ZM2898.36 473.015L3005.74 503.299L2926.91 582.125L2819.53 551.841L2898.36 473.015ZM2252.84 1118.53L2360.22 1148.81L2281.4 1227.64L2174.02 1197.36L2252.84 1118.53ZM2099.94 144.087L2207.32 174.371L2128.5 253.197L2021.12 222.913L2099.94 144.087ZM1454.43 789.602L1561.81 819.886L1482.98 898.712L1375.6 868.428L1454.43 789.602ZM2979.29 392.088L3086.66 422.372L3007.84 501.198L2900.46 470.914L2979.29 392.088ZM2333.77 1037.6L2441.15 1067.89L2362.32 1146.71L2254.94 1116.43L2333.77 1037.6ZM1938.08 305.947L2045.46 336.231L1966.64 415.057L1859.26 384.773L1938.08 305.947ZM1292.57 951.462L1399.95 981.746L1321.12 1060.57L1213.74 1030.29L1292.57 951.462ZM2817.43 553.947L2924.81 584.231L2845.98 663.057L2738.6 632.773L2817.43 553.947ZM2171.91 1199.46L2279.29 1229.75L2200.46 1308.57L2093.09 1278.29L2171.91 1199.46ZM1960.39 0.970742L2067.76 31.2547L1988.94 110.081L1881.56 79.7968L1960.39 0.970742ZM1314.87 646.486L1422.25 676.77L1343.42 755.596L1236.04 725.312L1314.87 646.486ZM2839.72 248.969L2947.1 279.253L2868.28 358.08L2760.9 327.796L2839.72 248.969ZM2194.21 894.484L2301.59 924.768L2222.76 1003.59L2115.38 973.31L2194.21 894.484ZM1798.53 162.83L1905.9 193.114L1827.08 271.94L1719.7 241.656L1798.53 162.83ZM1153.01 808.345L1260.39 838.629L1181.56 917.455L1074.18 887.171L1153.01 808.345ZM2677.86 410.829L2785.24 441.113L2706.42 519.939L2599.04 489.655L2677.86 410.829ZM2032.35 1056.34L2139.73 1086.63L2060.9 1165.45L1953.52 1135.17L2032.35 1056.34ZM1879.45 81.9027L1986.83 112.187L1908.01 191.013L1800.63 160.729L1879.45 81.9027ZM1233.94 727.418L1341.32 757.702L1262.49 836.528L1155.11 806.244L1233.94 727.418ZM2758.79 329.901L2866.17 360.185L2787.34 439.011L2679.96 408.728L2758.79 329.901ZM2113.28 975.416L2220.65 1005.7L2141.83 1084.53L2034.45 1054.24L2113.28 975.416ZM1717.59 243.762L1824.97 274.046L1746.15 352.872L1638.77 322.588L1717.59 243.762ZM1072.08 889.277L1179.46 919.561L1100.63 998.387L993.253 968.103L1072.08 889.277ZM2596.93 491.761L2704.31 522.045L2625.48 600.871L2518.1 570.587L2596.93 491.761ZM1951.42 1137.28L2058.8 1167.56L1979.97 1246.39L1872.59 1216.1L1951.42 1137.28ZM2401.37 125.341L2508.75 155.625L2429.92 234.451L2322.54 204.167L2401.37 125.341ZM1755.86 770.856L1863.23 801.14L1784.41 879.966L1677.03 849.682L1755.86 770.856ZM3280.71 373.34L3388.09 403.624L3309.26 482.45L3201.88 452.166L3280.71 373.34ZM2635.19 1018.85L2742.57 1049.14L2663.75 1127.97L2556.37 1097.68L2635.19 1018.85ZM2239.51 287.201L2346.89 317.485L2268.06 396.311L2160.68 366.027L2239.51 287.201ZM1594 932.716L1701.37 963L1622.55 1041.83L1515.17 1011.54L1594 932.716ZM3118.85 535.2L3226.23 565.484L3147.4 644.31L3040.02 614.026L3118.85 535.2ZM2473.33 1180.71L2580.71 1211L2501.89 1289.82L2394.51 1259.54L2473.33 1180.71ZM2320.44 206.273L2427.82 236.557L2348.99 315.383L2241.61 285.099L2320.44 206.273ZM1674.92 851.788L1782.3 882.072L1703.48 960.898L1596.1 930.614L1674.92 851.788ZM3199.78 454.272L3307.15 484.556L3228.33 563.382L3120.95 533.098L3199.78 454.272ZM2554.26 1099.79L2661.64 1130.07L2582.81 1208.9L2475.43 1178.61L2554.26 1099.79ZM2158.58 368.133L2265.96 398.417L2187.13 477.243L2079.75 446.959L2158.58 368.133ZM1513.06 1013.65L1620.44 1043.93L1541.62 1122.76L1434.24 1092.47L1513.06 1013.65ZM3037.92 616.132L3145.29 646.416L3066.47 725.242L2959.09 694.958L3037.92 616.132ZM2392.4 1261.65L2499.78 1291.93L2420.95 1370.76L2313.57 1340.47L2392.4 1261.65ZM1306.89 230.455L1414.27 260.739L1335.45 339.565L1228.07 309.281L1306.89 230.455ZM661.38 875.969L768.759 906.253L689.933 985.079L582.554 954.795L661.38 875.969ZM2186.23 478.453L2293.61 508.737L2214.78 587.563L2107.41 557.279L2186.23 478.453ZM1540.72 1123.97L1648.1 1154.25L1569.27 1233.08L1461.89 1202.79L1540.72 1123.97ZM1145.04 392.314L1252.41 422.598L1173.59 501.424L1066.21 471.14L1145.04 392.314ZM499.52 1037.83L606.899 1068.11L528.073 1146.94L420.694 1116.66L499.52 1037.83ZM2024.37 640.313L2131.75 670.597L2052.93 749.423L1945.55 719.139L2024.37 640.313ZM1378.86 1285.83L1486.24 1316.11L1407.41 1394.94L1300.03 1364.65L1378.86 1285.83ZM1225.97 311.382L1333.35 341.666L1254.52 420.492L1147.14 390.208L1225.97 311.382ZM580.452 956.897L687.831 987.181L609.005 1066.01L501.626 1035.72L580.452 956.897ZM2105.3 559.381L2212.68 589.665L2133.86 668.491L2026.48 638.207L2105.3 559.381ZM1459.79 1204.9L1567.17 1235.18L1488.34 1314.01L1380.96 1283.72L1459.79 1204.9ZM1064.11 473.242L1171.49 503.526L1092.66 582.352L985.281 552.068L1064.11 473.242ZM418.593 1118.76L525.972 1149.04L447.145 1227.87L339.767 1197.58L418.593 1118.76ZM1709.62 -172.273L1817 -141.989L1738.18 -63.1631L1630.8 -93.447L1709.62 -172.273ZM1943.44 721.241L2050.82 751.524L1972 830.35L1864.62 800.067L1943.44 721.241ZM1297.93 1366.76L1405.31 1397.04L1326.48 1475.87L1219.1 1445.58L1297.93 1366.76ZM2588.96 75.7256L2696.34 106.01L2617.51 184.836L2510.13 154.552L2588.96 75.7256ZM1747.87 354.823L1855.25 385.107L1776.43 463.933L1669.05 433.649L1747.87 354.823ZM1102.36 1000.34L1209.74 1030.62L1130.91 1109.45L1023.53 1079.16L1102.36 1000.34ZM2627.21 602.822L2734.59 633.106L2655.76 711.932L2548.38 681.648L2627.21 602.822ZM1981.7 1248.34L2089.07 1278.62L2010.25 1357.45L1902.87 1327.16L1981.7 1248.34ZM1586.01 516.683L1693.39 546.967L1614.57 625.793L1507.19 595.509L1586.01 516.683ZM940.499 1162.2L1047.88 1192.48L969.052 1271.31L861.673 1241.02L940.499 1162.2ZM2465.35 764.682L2572.73 794.966L2493.9 873.792L2386.52 843.508L2465.35 764.682ZM1819.84 1410.2L1927.21 1440.48L1848.39 1519.31L1741.01 1489.02L1819.84 1410.2ZM1666.95 435.751L1774.32 466.035L1695.5 544.861L1588.12 514.577L1666.95 435.751ZM1021.43 1081.27L1128.81 1111.55L1049.98 1190.38L942.605 1160.09L1021.43 1081.27ZM2546.28 683.75L2653.66 714.034L2574.84 792.86L2467.46 762.576L2546.28 683.75ZM1900.77 1329.26L2008.15 1359.55L1929.32 1438.37L1821.94 1408.09L1900.77 1329.26ZM1505.09 597.611L1612.47 627.895L1533.64 706.721L1426.26 676.437L1505.09 597.611ZM859.571 1243.13L966.95 1273.41L888.124 1352.24L780.745 1321.95L859.571 1243.13ZM2150.6 -47.9042L2257.98 -17.6203L2179.15 61.2058L2071.78 30.9218L2150.6 -47.9042ZM2384.42 845.609L2491.8 875.893L2412.98 954.719L2305.6 924.435L2384.42 845.609ZM1738.91 1491.12L1846.29 1521.41L1767.46 1600.23L1660.08 1569.95L1738.91 1491.12ZM3029.94 200.094L3137.32 230.378L3058.49 309.205L2951.11 278.921L3029.94 200.094ZM1527.38 292.637L1634.76 322.921L1555.93 401.747L1448.55 371.463L1527.38 292.637ZM881.863 938.152L989.242 968.436L910.416 1047.26L803.037 1016.98L881.863 938.152ZM2406.72 540.638L2514.1 570.922L2435.27 649.748L2327.9 619.464L2406.72 540.638ZM1761.21 1186.15L1868.59 1216.44L1789.76 1295.26L1682.38 1264.98L1761.21 1186.15ZM1365.52 454.497L1472.9 484.781L1394.07 563.607L1286.69 533.323L1365.52 454.497ZM720.004 1100.01L827.383 1130.3L748.557 1209.12L641.178 1178.84L720.004 1100.01ZM2244.86 702.497L2352.24 732.781L2273.41 811.607L2166.04 781.323L2244.86 702.497ZM1599.35 1348.01L1706.73 1378.3L1627.9 1457.12L1520.52 1426.84L1599.35 1348.01ZM1446.45 373.565L1553.83 403.849L1475 482.675L1367.62 452.391L1446.45 373.565ZM800.936 1019.08L908.315 1049.36L829.489 1128.19L722.11 1097.91L800.936 1019.08ZM2325.79 621.565L2433.17 651.849L2354.35 730.675L2246.97 700.391L2325.79 621.565ZM1680.28 1267.08L1787.66 1297.36L1708.83 1376.19L1601.45 1345.91L1680.28 1267.08ZM1284.59 535.425L1391.97 565.709L1313.14 644.535L1205.76 614.251L1284.59 535.425ZM639.076 1180.94L746.455 1211.22L667.629 1290.05L560.25 1259.77L639.076 1180.94ZM1930.11 -110.09L2037.48 -79.8063L1958.66 -0.980282L1851.28 -31.2643L1930.11 -110.09ZM2163.93 783.425L2271.31 813.709L2192.49 892.535L2085.11 862.251L2163.93 783.425ZM1518.42 1428.94L1625.8 1459.22L1546.97 1538.05L1439.59 1507.77L1518.42 1428.94ZM2809.45 137.91L2916.83 168.194L2838 247.02L2730.62 216.736L2809.45 137.91ZM1968.36 417.006L2075.74 447.29L1996.91 526.116L1889.53 495.832L1968.36 417.006ZM1322.84 1062.52L1430.22 1092.8L1351.39 1171.63L1244.02 1141.35L1322.84 1062.52ZM2847.69 665.005L2955.07 695.289L2876.25 774.115L2768.87 743.831L2847.69 665.005ZM2202.18 1310.52L2309.56 1340.8L2230.73 1419.63L2123.35 1389.35L2202.18 1310.52ZM1806.5 578.866L1913.88 609.15L1835.05 687.976L1727.67 657.692L1806.5 578.866ZM1160.98 1224.38L1268.36 1254.66L1189.54 1333.49L1082.16 1303.21L1160.98 1224.38ZM2685.83 826.865L2793.21 857.149L2714.39 935.975L2607.01 905.691L2685.83 826.865ZM2040.32 1472.38L2147.7 1502.66L2068.87 1581.49L1961.49 1551.21L2040.32 1472.38ZM1887.43 497.934L1994.81 528.218L1915.98 607.044L1808.6 576.76L1887.43 497.934ZM1241.91 1143.45L1349.29 1173.73L1270.47 1252.56L1163.09 1222.27L1241.91 1143.45ZM2766.77 745.933L2874.15 776.217L2795.32 855.043L2687.94 824.759L2766.77 745.933ZM2121.25 1391.45L2228.63 1421.73L2149.8 1500.56L2042.43 1470.27L2121.25 1391.45ZM1725.57 659.793L1832.95 690.077L1754.12 768.903L1646.74 738.619L1725.57 659.793ZM1080.05 1305.31L1187.43 1335.59L1108.61 1414.42L1001.23 1384.13L1080.05 1305.31ZM2371.08 14.2785L2478.46 44.5625L2399.64 123.389L2292.26 93.1046L2371.08 14.2785ZM2604.91 907.792L2712.29 938.076L2633.46 1016.9L2526.08 986.618L2604.91 907.792ZM1959.39 1553.31L2066.77 1583.59L1987.94 1662.42L1880.57 1632.13L1959.39 1553.31ZM3250.42 262.277L3357.8 292.561L3278.97 371.387L3171.6 341.103L3250.42 262.277ZM1417.14 261.548L1524.52 291.832L1445.7 370.658L1338.32 340.374L1417.14 261.548ZM771.628 907.062L879.006 937.346L800.18 1016.17L692.801 985.889L771.628 907.062ZM2296.48 509.546L2403.86 539.83L2325.03 618.656L2217.65 588.372L2296.48 509.546ZM1650.96 1155.06L1758.34 1185.35L1679.52 1264.17L1572.14 1233.89L1650.96 1155.06ZM1255.28 423.407L1362.66 453.691L1283.84 532.517L1176.46 502.233L1255.28 423.407ZM609.768 1068.92L717.147 1099.21L638.321 1178.03L530.942 1147.75L609.768 1068.92ZM2134.62 671.406L2242 701.69L2163.17 780.516L2055.79 750.232L2134.62 671.406ZM1489.11 1316.92L1596.48 1347.2L1517.66 1426.03L1410.28 1395.75L1489.11 1316.92ZM1336.21 342.475L1443.59 372.759L1364.77 451.585L1257.39 421.301L1336.21 342.475ZM690.7 987.99L798.079 1018.27L719.253 1097.1L611.874 1066.82L690.7 987.99ZM2215.55 590.474L2322.93 620.758L2244.1 699.584L2136.73 669.3L2215.55 590.474ZM1570.04 1235.99L1677.42 1266.27L1598.59 1345.1L1491.21 1314.81L1570.04 1235.99ZM1174.36 504.335L1281.73 534.619L1202.91 613.445L1095.53 583.161L1174.36 504.335ZM528.84 1149.85L636.219 1180.13L557.393 1258.96L450.014 1228.68L528.84 1149.85ZM1819.87 -141.18L1927.25 -110.896L1848.42 -32.07L1741.04 -62.354L1819.87 -141.18ZM2053.69 752.334L2161.07 782.618L2082.25 861.444L1974.87 831.16L2053.69 752.334ZM1408.18 1397.85L1515.56 1428.13L1436.73 1506.96L1329.35 1476.67L1408.18 1397.85ZM2699.21 106.819L2806.59 137.103L2727.76 215.929L2620.38 185.645L2699.21 106.819ZM1858.12 385.915L1965.49 416.199L1886.67 495.025L1779.29 464.741L1858.12 385.915ZM1212.6 1031.43L1319.98 1061.71L1241.15 1140.54L1133.77 1110.26L1212.6 1031.43ZM2737.46 633.915L2844.84 664.199L2766.01 743.025L2658.63 712.741L2737.46 633.915ZM2091.94 1279.43L2199.32 1309.71L2120.5 1388.54L2013.12 1358.26L2091.94 1279.43ZM1696.26 547.774L1803.63 578.058L1724.81 656.884L1617.43 626.6L1696.26 547.774ZM1050.74 1193.29L1158.12 1223.57L1079.29 1302.4L971.915 1272.12L1050.74 1193.29ZM2575.6 795.775L2682.98 826.059L2604.15 904.885L2496.77 874.601L2575.6 795.775ZM1930.08 1441.29L2037.46 1471.57L1958.64 1550.4L1851.26 1520.12L1930.08 1441.29ZM1777.19 466.842L1884.57 497.126L1805.74 575.952L1698.36 545.668L1777.19 466.842ZM1131.67 1112.36L1239.05 1142.64L1160.23 1221.47L1052.85 1191.18L1131.67 1112.36ZM2656.53 714.843L2763.91 745.127L2685.08 823.953L2577.7 793.669L2656.53 714.843ZM2011.02 1360.36L2118.39 1390.64L2039.57 1469.47L1932.19 1439.18L2011.02 1360.36ZM1615.33 628.702L1722.71 658.986L1643.88 737.812L1536.5 707.528L1615.33 628.702ZM969.813 1274.22L1077.19 1304.5L998.366 1383.33L890.987 1353.04L969.813 1274.22ZM2260.84 -16.8128L2368.22 13.4711L2289.4 92.2972L2182.02 62.0132L2260.84 -16.8128ZM2494.67 876.702L2602.05 906.986L2523.22 985.812L2415.84 955.528L2494.67 876.702ZM1849.16 1522.22L1956.53 1552.5L1877.71 1631.33L1770.33 1601.04L1849.16 1522.22ZM3140.19 231.188L3247.56 261.472L3168.74 340.298L3061.36 310.014L3140.19 231.188ZM1637.63 323.73L1745 354.014L1666.18 432.84L1558.8 402.556L1637.63 323.73ZM992.111 969.245L1099.49 999.529L1020.66 1078.36L913.285 1048.07L992.111 969.245ZM2516.96 571.729L2624.34 602.013L2545.52 680.839L2438.14 650.555L2516.96 571.729ZM1871.45 1217.24L1978.83 1247.53L1900 1326.35L1792.62 1296.07L1871.45 1217.24ZM1475.77 485.59L1583.15 515.874L1504.32 594.7L1396.94 564.416L1475.77 485.59ZM830.251 1131.1L937.63 1161.39L858.804 1240.21L751.425 1209.93L830.251 1131.1ZM2355.1 733.589L2462.48 763.873L2383.66 842.699L2276.28 812.415L2355.1 733.589ZM1709.59 1379.1L1816.97 1409.39L1738.14 1488.21L1630.76 1457.93L1709.59 1379.1ZM1556.7 404.658L1664.08 434.942L1585.25 513.768L1477.87 483.484L1556.7 404.658ZM911.183 1050.17L1018.56 1080.46L939.736 1159.28L832.357 1129L911.183 1050.17ZM2436.04 652.657L2543.41 682.941L2464.59 761.767L2357.21 731.483L2436.04 652.657ZM1790.52 1298.17L1897.9 1328.46L1819.07 1407.28L1711.69 1377L1790.52 1298.17ZM1394.84 566.518L1502.22 596.802L1423.39 675.628L1316.01 645.344L1394.84 566.518ZM749.324 1212.03L856.703 1242.32L777.877 1321.14L670.498 1290.86L749.324 1212.03ZM2040.35 -78.9973L2147.73 -48.7133L2068.91 30.1127L1961.53 -0.171229L2040.35 -78.9973ZM2274.18 814.516L2381.55 844.8L2302.73 923.626L2195.35 893.342L2274.18 814.516ZM1628.66 1460.03L1736.04 1490.32L1657.21 1569.14L1549.83 1538.86L1628.66 1460.03ZM2919.69 169.001L3027.07 199.285L2948.24 278.111L2840.86 247.828L2919.69 169.001ZM2078.61 448.101L2185.99 478.385L2107.16 557.211L1999.78 526.927L2078.61 448.101ZM1433.1 1093.62L1540.47 1123.9L1461.65 1202.73L1354.27 1172.44L1433.1 1093.62ZM2957.95 696.1L3065.33 726.384L2986.5 805.21L2879.12 774.926L2957.95 696.1ZM2312.43 1341.61L2419.81 1371.9L2340.99 1450.72L2233.61 1420.44L2312.43 1341.61ZM1916.75 609.961L2024.13 640.244L1945.3 719.071L1837.92 688.787L1916.75 609.961ZM1271.24 1255.48L1378.61 1285.76L1299.79 1364.59L1192.41 1334.3L1271.24 1255.48ZM2796.09 857.959L2903.47 888.243L2824.64 967.069L2717.26 936.785L2796.09 857.959ZM2150.57 1503.47L2257.95 1533.76L2179.13 1612.58L2071.75 1582.3L2150.57 1503.47ZM1997.68 529.029L2105.06 559.312L2026.24 638.139L1918.86 607.855L1997.68 529.029ZM1352.17 1174.54L1459.55 1204.83L1380.72 1283.65L1273.34 1253.37L1352.17 1174.54ZM2877.02 777.027L2984.4 807.311L2905.57 886.137L2798.19 855.853L2877.02 777.027ZM2231.51 1422.54L2338.88 1452.83L2260.06 1531.65L2152.68 1501.37L2231.51 1422.54ZM1835.82 690.888L1943.2 721.172L1864.38 799.998L1757 769.714L1835.82 690.888ZM1190.31 1336.4L1297.69 1366.69L1218.86 1445.51L1111.48 1415.23L1190.31 1336.4ZM2481.34 45.3732L2588.72 75.6572L2509.89 154.483L2402.51 124.199L2481.34 45.3732ZM2715.16 938.887L2822.54 969.171L2743.71 1048L2636.33 1017.71L2715.16 938.887ZM2069.65 1584.4L2177.02 1614.69L2098.2 1693.51L1990.82 1663.23L2069.65 1584.4ZM3360.68 293.372L3468.05 323.656L3389.23 402.482L3281.85 372.198L3360.68 293.372ZM1409.13 -154.5L1516.51 -124.216L1437.68 -45.3894L1330.3 -75.6734L1409.13 -154.5ZM763.615 491.015L870.994 521.299L792.167 600.125L684.789 569.841L763.615 491.015ZM1247.27 7.3601L1354.65 37.6441L1275.82 116.47L1168.44 86.1862L1247.27 7.3601ZM601.755 652.875L709.134 683.159L630.308 761.985L522.929 731.701L601.755 652.875ZM1328.2 -73.5675L1435.58 -43.2835L1356.75 35.5425L1249.37 5.25851L1328.2 -73.5675ZM682.683 571.947L790.062 602.231L711.236 681.057L603.857 650.773L682.683 571.947ZM1166.34 88.2921L1273.72 118.576L1194.89 197.402L1087.51 167.118L1166.34 88.2921ZM520.823 733.807L628.202 764.091L549.376 842.917L441.997 812.633L520.823 733.807ZM1298.89 -185.591L1406.27 -155.307L1327.44 -76.4808L1220.06 -106.765L1298.89 -185.591ZM653.373 459.924L760.752 490.208L681.926 569.034L574.547 538.75L653.373 459.924ZM1137.03 -23.7313L1244.41 6.55271L1165.58 85.3788L1058.2 55.0948L1137.03 -23.7313ZM491.513 621.784L598.892 652.068L520.066 730.894L412.687 700.61L491.513 621.784ZM1217.96 -104.659L1325.33 -74.3749L1246.51 4.45111L1139.13 -25.8329L1217.96 -104.659ZM572.441 540.856L679.82 571.14L600.994 649.966L493.615 619.682L572.441 540.856ZM1056.1 57.2007L1163.48 87.4847L1084.65 166.311L977.27 136.027L1056.1 57.2007ZM410.581 702.716L517.96 733L439.134 811.826L331.755 781.542L410.581 702.716ZM1519.38 -123.406L1626.76 -93.1225L1547.93 -14.2964L1440.55 -44.5804L1519.38 -123.406ZM873.862 522.108L981.241 552.392L902.415 631.219L795.036 600.935L873.862 522.108ZM1357.52 38.4532L1464.9 68.7371L1386.07 147.563L1278.69 117.279L1357.52 38.4532ZM712.003 683.968L819.382 714.252L740.556 793.078L633.177 762.794L712.003 683.968ZM1438.45 -42.4745L1545.82 -12.1905L1467 66.6355L1359.62 36.3516L1438.45 -42.4745ZM792.93 603.04L900.309 633.324L821.483 712.15L714.104 681.866L792.93 603.04ZM1276.59 119.385L1383.96 149.669L1305.14 228.495L1197.76 198.211L1276.59 119.385ZM631.071 764.9L738.45 795.184L659.624 874.01L552.245 843.726L631.071 764.9ZM1086.37 168.26L1193.75 198.544L1114.92 277.37L1007.54 247.086L1086.37 168.26ZM440.855 813.775L548.234 844.059L469.408 922.885L362.029 892.601L440.855 813.775ZM924.51 330.12L1031.89 360.404L953.063 439.23L845.684 408.946L924.51 330.12ZM278.995 975.635L386.374 1005.92L307.548 1084.74L200.169 1054.46L278.995 975.635ZM1005.44 249.188L1112.82 279.472L1034 358.298L926.616 328.014L1005.44 249.188ZM359.927 894.703L467.306 924.987L388.48 1003.81L281.101 973.529L359.927 894.703ZM843.583 411.047L950.962 441.331L872.136 520.157L764.757 489.873L843.583 411.047ZM198.068 1056.56L305.447 1086.85L226.621 1165.67L119.242 1135.39L198.068 1056.56ZM1489.1 -234.468L1596.48 -204.184L1517.65 -125.358L1410.27 -155.641L1489.1 -234.468ZM976.128 137.169L1083.51 167.453L1004.68 246.279L897.302 215.995L976.128 137.169ZM330.613 782.684L437.992 812.968L359.166 891.794L251.787 861.51L330.613 782.684ZM814.269 299.028L921.647 329.312L842.821 408.138L735.442 377.854L814.269 299.028ZM168.754 944.543L276.133 974.827L197.307 1053.65L89.9276 1023.37L168.754 944.543ZM895.201 218.096L1002.58 248.38L923.753 327.206L816.375 296.922L895.201 218.096ZM249.686 863.611L357.065 893.895L278.239 972.721L170.86 942.437L249.686 863.611ZM733.341 379.956L840.72 410.24L761.894 489.066L654.515 458.782L733.341 379.956ZM87.826 1025.47L195.205 1055.75L116.379 1134.58L8.99998 1104.3L87.826 1025.47ZM1378.86 -265.559L1486.23 -235.275L1407.41 -156.449L1300.03 -186.733L1378.86 -265.559ZM1196.62 199.353L1304 229.637L1225.17 308.463L1117.79 278.179L1196.62 199.353ZM551.103 844.868L658.482 875.152L579.656 953.978L472.277 923.694L551.103 844.868ZM1034.76 361.213L1142.14 391.497L1063.31 470.323L955.932 440.039L1034.76 361.213ZM389.243 1006.73L496.622 1037.01L417.796 1115.84L310.417 1085.55L389.243 1006.73ZM1115.69 280.281L1223.07 310.565L1144.24 389.391L1036.86 359.107L1115.69 280.281ZM470.175 925.796L577.554 956.08L498.728 1034.91L391.349 1004.62L470.175 925.796ZM953.83 442.14L1061.21 472.424L982.383 551.25L875.004 520.966L953.83 442.14ZM308.315 1087.66L415.694 1117.94L336.868 1196.77L229.489 1166.48L308.315 1087.66ZM1599.35 -203.375L1706.72 -173.091L1627.9 -94.2645L1520.52 -124.548L1599.35 -203.375ZM1789.1 -251.746L1896.47 -221.462L1817.65 -142.636L1710.27 -172.92L1789.1 -251.746ZM2668.43 -3.7474L2775.81 26.5366L2696.99 105.363L2589.61 75.0787L2668.43 -3.7474ZM2230.07 -127.377L2337.45 -97.0933L2258.63 -18.2672L2151.25 -48.5512L2230.07 -127.377ZM3109.41 120.621L3216.79 150.905L3137.96 229.732L3030.59 199.448L3109.41 120.621ZM2009.58 -189.563L2116.96 -159.279L2038.13 -80.4533L1930.75 -110.737L2009.58 -189.563ZM2888.92 58.4371L2996.3 88.721L2917.47 167.547L2810.1 137.263L2888.92 58.4371ZM2450.56 -65.1945L2557.94 -34.9105L2479.11 43.9155L2371.73 13.6316L2450.56 -65.1945ZM3329.89 182.804L3437.27 213.088L3358.45 291.914L3251.07 261.63L3329.89 182.804ZM1899.34 -220.653L2006.72 -190.369L1927.9 -111.543L1820.52 -141.827L1899.34 -220.653ZM2778.68 27.3457L2886.06 57.6296L2807.23 136.456L2699.85 106.172L2778.68 27.3457ZM2340.32 -96.2859L2447.69 -66.0019L2368.87 12.8242L2261.49 -17.4598L2340.32 -96.2859ZM3219.66 151.715L3327.04 181.998L3248.21 260.825L3140.83 230.541L3219.66 151.715ZM2119.83 -158.47L2227.21 -128.186L2148.38 -49.3603L2041 -79.6443L2119.83 -158.47ZM2999.16 89.5284L3106.54 119.812L3027.72 198.638L2920.34 168.354L2999.16 89.5284ZM2560.81 -34.0998L2668.19 -3.81582L2589.36 75.0102L2481.99 44.7263L2560.81 -34.0998ZM3440.15 213.899L3547.53 244.183L3468.7 323.009L3361.32 292.725L3440.15 213.899ZM1869.06 -331.714L1976.44 -301.43L1897.62 -222.604L1790.24 -252.888L1869.06 -331.714ZM2748.4 -83.7154L2855.78 -53.4315L2776.95 25.3946L2669.57 -4.88937L2748.4 -83.7154ZM2310.04 -207.345L2417.42 -177.061L2338.59 -98.2353L2231.22 -128.519L2310.04 -207.345ZM3189.38 40.6534L3296.76 70.9374L3217.93 149.763L3110.55 119.479L3189.38 40.6534ZM2089.55 -269.531L2196.93 -239.247L2118.1 -160.421L2010.72 -190.705L2089.55 -269.531ZM2968.89 -21.531L3076.27 8.753L2997.44 87.5791L2890.06 57.2951L2968.89 -21.531ZM2530.53 -145.163L2637.9 -114.879L2559.08 -36.0525L2451.7 -66.3365L2530.53 -145.163ZM3409.86 102.836L3517.24 133.12L3438.42 211.946L3331.04 181.662L3409.86 102.836ZM1979.31 -300.621L2086.69 -270.337L2007.86 -191.511L1900.49 -221.795L1979.31 -300.621ZM2858.65 -52.6224L2966.03 -22.3384L2887.2 56.4877L2779.82 26.2037L2858.65 -52.6224ZM2420.28 -176.254L2527.66 -145.97L2448.84 -67.1439L2341.46 -97.4279L2420.28 -176.254ZM3299.63 71.7465L3407.01 102.03L3328.18 180.857L3220.8 150.573L3299.63 71.7465ZM2199.79 -238.438L2307.17 -208.154L2228.35 -129.328L2120.97 -159.612L2199.79 -238.438ZM3079.13 9.5604L3186.51 39.8444L3107.68 118.67L3000.31 88.3865L3079.13 9.5604ZM2640.78 -114.068L2748.16 -83.7838L2669.33 -4.95779L2561.95 -35.2418L2640.78 -114.068ZM3520.12 133.931L3627.5 164.215L3548.67 243.041L3441.29 212.757L3520.12 133.931ZM1568.57 -313.941L1675.95 -283.657L1597.12 -204.831L1489.74 -235.115L1568.57 -313.941ZM1458.33 -345.032L1565.71 -314.748L1486.88 -235.922L1379.5 -266.206L1458.33 -345.032ZM1678.82 -282.848L1786.2 -252.564L1707.37 -173.737L1599.99 -204.021L1678.82 -282.848ZM1648.54 -393.909L1755.92 -363.625L1677.09 -284.799L1569.71 -315.083L1648.54 -393.909ZM1538.3 -424.998L1645.68 -394.714L1566.86 -315.888L1459.48 -346.172L1538.3 -424.998ZM1758.79 -362.816L1866.17 -332.532L1787.34 -253.706L1679.96 -283.99L1758.79 -362.816Z" stroke="white" stroke-opacity="0.11" stroke-width="10" mask="url(#path-1-outside-1_2754_322)"/>
</svg>
