<svg width="30" height="52" fill="none" xmlns="http://www.w3.org/2000/svg"><path d="M24.864 1.133H5.136A4.136 4.136 0 001 5.269v42a4.136 4.136 0 004.136 4.137h19.728A4.136 4.136 0 0029 47.269v-42a4.136 4.136 0 00-4.136-4.136z" stroke="#14161D"/><path fill-rule="evenodd" clip-rule="evenodd" d="M8.836 22.929c0-.292.25-.529.56-.529h16.79c.31 0 .56.237.56.529 0 .292-.25.529-.56.529H9.396c-.31 0-.56-.237-.56-.529zm1.12 2.114c0-.292.25-.528.559-.528h8.955c.309 0 .56.236.56.528 0 .292-.251.529-.56.529h-8.955c-.31 0-.56-.237-.56-.529zm-.56 1.586c-.31 0-.56.237-.56.529 0 .292.25.528.56.528h15.67c.31 0 .56-.236.56-.528 0-.292-.25-.529-.56-.529H9.397zm.56 2.643c0-.292.25-.528.559-.528h6.716c.31 0 .56.236.56.528 0 .292-.25.529-.56.529h-6.716c-.31 0-.56-.237-.56-.529zm.559 1.586c-.31 0-.56.237-.56.529 0 .291.25.528.56.528h6.716c.31 0 .56-.236.56-.528 0-.292-.25-.53-.56-.53h-6.716z" fill="#E4E8F4"/><path d="M4.287 27.117a.33.33 0 00-.339.32c0 .177.151.32.339.32.394 0 .704.12.949.367.715.72.619 2.234.617 2.271v4.078c0 1.027.302 1.82.897 2.353.714.64 1.616.686 1.855.686l.06-.001a.327.327 0 00.32-.336.333.333 0 00-.356-.303c-.009.004-.808.033-1.413-.51-.456-.408-.686-1.044-.686-1.889v-4.056c.005-.073.117-1.805-.798-2.729a1.88 1.88 0 00-.305-.25c.108-.072.21-.155.305-.251.915-.925.803-2.656.798-2.708v-4.077c0-.842.229-1.475.68-1.885.6-.541 1.409-.516 1.42-.514a.33.33 0 00.355-.303.328.328 0 00-.32-.336c-.048 0-1.101-.045-1.914.685-.596.534-.897 1.326-.897 2.353V24.5c.03.42-.021 1.647-.616 2.249-.246.247-.557.367-.951.367z" fill="#3980FF"/><path d="M7.386 1.133h15.228a2.228 2.228 0 01-2.205 1.909H9.591c-1.122 0-2.05-.83-2.205-1.91z" fill="#14161D" stroke="#14161D"/></svg>