<svg width="285" height="72" viewBox="0 0 285 72" fill="none" xmlns="http://www.w3.org/2000/svg">
<path d="M37.2782 16.3887L25.4838 26.5634V32.0003L37.2782 44.078V16.3887Z" fill="url(#paint0_linear_2754_397)"/>
<path d="M105.647 21.8249C104.913 22.4074 103.83 22.7181 102.438 22.7181C100.968 22.7181 99.808 22.4074 98.88 21.7472C97.9905 21.087 97.3718 20.2326 97.0238 19.0676L96.7531 18.1355L93.5435 19.9996L93.7368 20.5821C94.3555 22.3686 95.3996 23.8054 96.9464 24.8152C98.4546 25.8249 100.272 26.3297 102.36 26.3297C104.681 26.3297 106.614 25.7084 108.045 24.5045C109.553 23.2618 110.288 21.5919 110.288 19.5724C110.288 18.9511 110.21 18.3297 110.017 17.786C109.862 17.2423 109.669 16.8152 109.437 16.4268C109.205 15.9996 108.818 15.6113 108.316 15.1841C107.851 14.8346 107.465 14.5627 107.155 14.3686C106.807 14.1355 106.305 13.9025 105.609 13.6307C104.951 13.3588 104.448 13.1647 104.1 13.0482C103.752 12.9317 103.211 12.7375 102.438 12.4656C100.852 11.9608 99.692 11.4171 99.0346 10.9511C98.4933 10.5627 98.2612 10.019 98.2612 9.2035C98.2612 8.27147 98.5706 7.57244 99.1893 7.06758C99.8467 6.52389 100.775 6.25205 101.896 6.25205C104.1 6.25205 105.57 7.26176 106.421 9.32001L106.73 10.0967L109.862 8.3103L109.592 7.68894C108.934 6.21321 107.967 5.00933 106.614 4.03846C105.261 3.06758 103.675 2.60156 101.858 2.60156C99.8467 2.60156 98.1066 3.18409 96.7144 4.34914C95.2836 5.55302 94.5489 7.18409 94.5489 9.24234C94.5489 11.3783 95.477 13.0093 97.3331 14.1355C98.1066 14.6404 99.576 15.2229 101.896 15.9996C103.675 16.5821 104.951 17.1647 105.725 17.6695C106.343 18.0967 106.614 18.7181 106.614 19.5724C106.691 20.5433 106.343 21.2423 105.647 21.8249Z" fill="url(#paint1_linear_2754_397)"/>
<path d="M121.27 26.2907C123.706 26.2907 125.794 25.4363 127.496 23.7664C129.197 22.0965 130.048 19.9994 130.048 17.514C130.048 15.0674 129.197 12.9315 127.496 11.2616C125.794 9.59167 123.706 8.7373 121.27 8.7373C118.834 8.7373 116.746 9.59167 115.044 11.2616C113.343 12.9315 112.492 15.0286 112.492 17.514C112.492 19.9606 113.343 22.0965 115.044 23.7664C116.746 25.4752 118.834 26.2907 121.27 26.2907ZM121.27 12.2325C122.739 12.2325 123.977 12.7373 124.982 13.747C125.988 14.7956 126.49 15.9994 126.49 17.514C126.49 19.0286 125.988 20.2325 124.982 21.281C123.977 22.3295 122.739 22.7956 121.27 22.7956C119.801 22.7956 118.563 22.2907 117.558 21.281C116.552 20.2325 116.049 19.0286 116.049 17.514C116.049 15.9994 116.552 14.7956 117.558 13.747C118.563 12.7373 119.762 12.2325 121.27 12.2325Z" fill="url(#paint2_linear_2754_397)"/>
<path d="M133.374 25.9409H136.893V12.6205H141.263V9.12538H136.893C136.932 7.96033 137.202 7.1448 137.705 6.71762C138.246 6.21276 139.174 6.01859 140.451 6.13509L141.263 6.21276V2.71762L140.567 2.67878C138.324 2.52344 136.506 3.02829 135.269 4.19334C134.031 5.35839 133.413 6.98946 133.374 9.12538H130.783V12.6205H133.374V25.9409Z" fill="url(#paint3_linear_2754_397)"/>
<path d="M147.063 25.3587C147.875 25.8636 148.958 26.0966 150.234 26.0966C150.891 26.0966 151.588 26.0189 152.361 25.9024L153.018 25.7859V22.5626L152.206 22.6015C151.24 22.6403 150.427 22.6403 149.809 22.6403C149.383 22.6403 149.074 22.5238 148.881 22.3296C148.765 22.2131 148.61 21.9024 148.61 21.0481V12.6209H152.98V9.12572H148.61V4.58203L145.091 5.66941V9.12572H140.373V12.6209H145.091V21.1257C145.091 23.184 145.787 24.582 147.063 25.3587Z" fill="url(#paint4_linear_2754_397)"/>
<path d="M170.149 22.446L167.056 20.6208C166.708 21.281 166.166 21.7858 165.432 22.213C164.697 22.6402 163.807 22.8344 162.802 22.8344C161.332 22.8344 160.172 22.446 159.206 21.6305C158.471 21.0092 157.968 20.2713 157.697 19.3004H170.845L170.923 18.6014C170.961 18.1742 171 17.8247 171 17.5917C171 15.2227 170.227 13.1645 168.718 11.4169C167.172 9.66934 165.161 8.7373 162.686 8.7373C160.134 8.7373 158.045 9.59167 156.421 11.2616C154.797 12.9315 153.985 15.0286 153.985 17.514C153.985 20.0383 154.836 22.1742 156.46 23.8053C158.084 25.4752 160.25 26.2907 162.841 26.2907C164.426 26.2907 165.896 25.9412 167.172 25.2422C168.409 24.582 169.415 23.6111 170.149 22.446ZM162.647 12.2325C163.846 12.2325 164.89 12.6208 165.78 13.3975C166.476 14.0189 166.978 14.7956 167.21 15.8053H157.697C157.968 14.8732 158.432 14.0965 159.167 13.4752C160.095 12.6596 161.255 12.2325 162.647 12.2325Z" fill="url(#paint5_linear_2754_397)"/>
<path d="M177.071 16.6601C177.071 15.1455 177.458 14.0193 178.193 13.3591C178.966 12.6601 179.933 12.3106 181.132 12.3106H181.905V8.81543H181.132C179.469 8.81543 178.115 9.24261 177.071 10.1358V9.04844H173.552V25.864H177.071V16.6601Z" fill="url(#paint6_linear_2754_397)"/>
<path d="M187.551 9.12598H184.032V25.9415H187.551V9.12598Z" fill="url(#paint7_linear_2754_397)"/>
<path d="M185.811 7.41708C186.429 7.41708 186.971 7.18407 187.396 6.75688C187.822 6.3297 188.054 5.78601 188.054 5.16465C188.054 4.54329 187.822 3.9996 187.396 3.57242C186.545 2.71805 185.115 2.71805 184.264 3.57242C183.838 3.9996 183.606 4.54329 183.606 5.16465C183.606 5.78601 183.838 6.3297 184.264 6.75688C184.651 7.18407 185.192 7.41708 185.811 7.41708Z" fill="url(#paint8_linear_2754_397)"/>
<path d="M205.301 11.2616C203.599 9.59167 201.511 8.7373 199.075 8.7373C196.638 8.7373 194.55 9.59167 192.849 11.2616C191.147 12.9315 190.297 15.0286 190.297 17.514C190.297 19.9606 191.147 22.0965 192.849 23.7664C194.55 25.4363 196.638 26.2907 199.075 26.2907C201.511 26.2907 203.599 25.4363 205.301 23.7664C207.002 22.0965 207.853 19.9994 207.853 17.514C207.853 15.0674 207.002 12.9703 205.301 11.2616ZM199.075 22.8344C197.605 22.8344 196.368 22.3295 195.362 21.3198C194.357 20.2713 193.854 19.0674 193.854 17.5528C193.854 16.0383 194.357 14.8344 195.362 13.7858C196.368 12.7373 197.605 12.2713 199.075 12.2713C200.544 12.2713 201.782 12.7761 202.787 13.7858C203.792 14.8344 204.295 16.0383 204.295 17.5528C204.295 19.0674 203.792 20.2713 202.787 21.3198C201.782 22.3295 200.583 22.8344 199.075 22.8344Z" fill="url(#paint9_linear_2754_397)"/>
<path d="M109.862 29.0098H93.118V32.5437H99.6533V51.9612H103.327V32.5437H109.862V29.0098Z" fill="black"/>
<path d="M117.055 34.7568C114.503 34.7568 112.415 35.6112 110.79 37.2811C109.166 38.951 108.354 41.0481 108.354 43.5335C108.354 46.0578 109.205 48.1937 110.829 49.8248C112.453 51.4947 114.619 52.3102 117.21 52.3102C118.795 52.3102 120.265 51.9607 121.541 51.2617C122.817 50.5627 123.822 49.6306 124.557 48.4267L121.463 46.6015C121.115 47.2617 120.574 47.7665 119.839 48.1937C119.104 48.6209 118.215 48.8151 117.21 48.8151C115.74 48.8151 114.58 48.4267 113.613 47.6112C112.879 46.9898 112.376 46.252 112.105 45.2811H125.253L125.33 44.5821C125.369 44.1549 125.408 43.8054 125.408 43.5724C125.408 41.2034 124.634 39.1452 123.126 37.3976C121.579 35.65 119.53 34.7568 117.055 34.7568ZM117.055 38.252C118.254 38.252 119.298 38.6403 120.187 39.417C120.883 40.0384 121.386 40.8151 121.618 41.8248H112.105C112.376 40.8928 112.84 40.1161 113.575 39.4947C114.503 38.6403 115.663 38.252 117.055 38.252Z" fill="black"/>
<path d="M140.296 46.2131C139.832 47.0287 139.252 47.65 138.478 48.1161C137.705 48.5821 136.815 48.8151 135.81 48.8151C134.341 48.8151 133.103 48.3102 132.098 47.3005C131.092 46.252 130.59 45.0481 130.59 43.5335C130.59 42.019 131.092 40.8151 132.098 39.7665C133.103 38.718 134.341 38.252 135.81 38.252C136.815 38.252 137.705 38.485 138.478 38.951C139.252 39.417 139.793 39.9996 140.141 40.7763L140.489 41.553L143.467 39.8442L143.196 39.2229C142.577 37.8636 141.611 36.7763 140.257 35.9607C138.942 35.184 137.434 34.7568 135.81 34.7568C133.335 34.7568 131.208 35.6112 129.545 37.2811C127.883 38.951 127.032 41.0481 127.032 43.5335C127.032 45.9801 127.883 48.0772 129.545 49.786C131.208 51.4559 133.335 52.3102 135.81 52.3102C137.434 52.3102 138.904 51.9219 140.257 51.1452C141.611 50.3685 142.616 49.2811 143.312 47.9219L143.66 47.2617L140.682 45.5141L140.296 46.2131Z" fill="black"/>
<path d="M153.56 34.7573C151.819 34.7573 150.35 35.2622 149.19 36.2331V29.0098H145.671V51.9612H149.19V43.1845C149.19 41.4758 149.577 40.1942 150.35 39.4175C151.123 38.6408 152.129 38.2525 153.366 38.2525C154.488 38.2525 155.3 38.5632 155.88 39.1457C156.46 39.7671 156.731 40.6214 156.731 41.7865V51.9224H160.25V41.7865C160.25 39.6894 159.631 37.9806 158.432 36.6991C157.272 35.4175 155.648 34.7573 153.56 34.7573Z" fill="black"/>
<path d="M171.503 34.7568C169.763 34.7568 168.293 35.2617 167.133 36.2326V35.1452H163.614V51.9607H167.133V43.184C167.133 41.4753 167.52 40.1937 168.293 39.417C169.067 38.6403 170.072 38.252 171.309 38.252C172.431 38.252 173.243 38.5627 173.823 39.1452C174.403 39.7665 174.674 40.6209 174.674 41.786V51.9219H178.193V41.786C178.193 39.6889 177.574 37.9801 176.375 36.6986C175.215 35.417 173.552 34.7568 171.503 34.7568Z" fill="black"/>
<path d="M189.368 34.7568C186.932 34.7568 184.844 35.6112 183.142 37.2811C181.441 38.951 180.59 41.0481 180.59 43.5335C180.59 45.9801 181.441 48.1161 183.142 49.786C184.844 51.4559 186.932 52.3102 189.368 52.3102C191.805 52.3102 193.893 51.4559 195.594 49.786C197.296 48.1161 198.147 46.019 198.147 43.5335C198.147 41.0869 197.296 38.951 195.594 37.2811C193.893 35.6112 191.805 34.7568 189.368 34.7568ZM189.368 48.8151C187.899 48.8151 186.661 48.3102 185.656 47.3005C184.651 46.252 184.148 45.0481 184.148 43.5335C184.148 42.019 184.651 40.8151 185.656 39.7665C186.661 38.718 187.899 38.252 189.368 38.252C190.838 38.252 192.075 38.7568 193.081 39.7665C194.086 40.8151 194.589 42.019 194.589 43.5335C194.589 45.0481 194.086 46.252 193.081 47.3005C192.075 48.3102 190.838 48.8151 189.368 48.8151Z" fill="black"/>
<path d="M204.411 28.0771H200.892V51.9218H204.411V28.0771Z" fill="black"/>
<path d="M215.935 34.7568C213.499 34.7568 211.41 35.6112 209.709 37.2811C208.007 38.951 207.157 41.0481 207.157 43.5335C207.157 45.9801 208.007 48.1161 209.709 49.786C211.41 51.4559 213.499 52.3102 215.935 52.3102C218.371 52.3102 220.459 51.4559 222.161 49.786C223.862 48.1161 224.713 46.019 224.713 43.5335C224.713 41.0869 223.862 38.951 222.161 37.2811C220.459 35.6112 218.371 34.7568 215.935 34.7568ZM215.935 48.8151C214.465 48.8151 213.228 48.3102 212.223 47.3005C211.217 46.252 210.714 45.0481 210.714 43.5335C210.714 42.019 211.217 40.8151 212.223 39.7665C213.228 38.718 214.465 38.252 215.935 38.252C217.404 38.252 218.642 38.7568 219.647 39.7665C220.653 40.8151 221.155 42.019 221.155 43.5335C221.155 45.0481 220.653 46.252 219.647 47.3005C218.642 48.3102 217.404 48.8151 215.935 48.8151Z" fill="black"/>
<path d="M251.241 35.1064H247.722V51.922H251.241V35.1064Z" fill="black"/>
<path d="M247.915 29.5919C247.49 30.0191 247.258 30.5628 247.258 31.1842C247.258 31.8055 247.49 32.3492 247.915 32.7764C248.341 33.2036 248.882 33.4366 249.501 33.4366C250.119 33.4366 250.661 33.2036 251.086 32.7764C251.512 32.3492 251.744 31.8055 251.744 31.1842C251.744 30.5628 251.512 30.0191 251.086 29.5919C250.197 28.7376 248.766 28.7376 247.915 29.5919Z" fill="black"/>
<path d="M262.726 34.7568C260.174 34.7568 258.086 35.6112 256.461 37.2811C254.837 38.951 254.025 41.0481 254.025 43.5335C254.025 46.0578 254.876 48.1937 256.5 49.8248C258.124 51.4947 260.29 52.3102 262.881 52.3102C264.466 52.3102 265.936 51.9607 267.212 51.2617C268.488 50.5627 269.493 49.6306 270.228 48.4267L267.134 46.6015C266.786 47.2617 266.245 47.7665 265.51 48.1937C264.775 48.6209 263.886 48.8151 262.881 48.8151C261.411 48.8151 260.251 48.4267 259.284 47.6112C258.55 46.9898 258.047 46.252 257.776 45.2811H270.924L271.001 44.5821C271.04 44.1549 271.079 43.8054 271.079 43.5724C271.079 41.2034 270.305 39.1452 268.797 37.3976C267.212 35.65 265.162 34.7568 262.726 34.7568ZM262.726 38.252C263.925 38.252 264.969 38.6403 265.858 39.417C266.554 40.0384 267.057 40.8151 267.289 41.8248H257.776C258.047 40.8928 258.511 40.1161 259.246 39.4947C260.174 38.6403 261.295 38.252 262.726 38.252Z" fill="black"/>
<path d="M283.879 44.077C283.182 43.3391 282.332 42.7954 281.326 42.4848C280.437 42.2129 279.547 41.9411 278.658 41.7081C277.885 41.5139 277.189 41.2032 276.686 40.8537C276.299 40.5818 276.106 40.2712 276.106 39.844C276.106 39.3391 276.299 38.9508 276.725 38.6789C277.227 38.3294 277.846 38.1741 278.542 38.1741C280.089 38.1741 281.017 38.7178 281.481 39.844L281.829 40.6595L284.845 38.8731L284.536 38.2518C284.033 37.1644 283.221 36.2712 282.177 35.6498C281.133 35.0285 279.896 34.7178 278.542 34.7178C276.879 34.7178 275.448 35.1838 274.327 36.1547C273.167 37.1255 272.587 38.3683 272.587 39.844C272.587 41.0867 272.974 42.0964 273.708 42.9119C274.404 43.6498 275.255 44.1935 276.261 44.5042C277.15 44.776 278.039 45.0479 278.929 45.2809C279.702 45.4751 280.398 45.7857 280.901 46.1353C281.288 46.4071 281.481 46.7178 281.481 47.145C281.481 47.7275 281.288 48.077 280.862 48.3488C280.321 48.6595 279.586 48.8537 278.735 48.8537C277.885 48.8537 277.111 48.6595 276.493 48.2712C275.912 47.9217 275.487 47.4168 275.255 46.7954L274.946 45.9411L271.891 47.7663L272.123 48.3877C272.587 49.5916 273.399 50.5624 274.559 51.3003C275.719 52.0382 277.111 52.3877 278.697 52.3877C280.476 52.3877 281.984 51.9217 283.144 50.9896C284.343 50.0187 284.961 48.7372 284.961 47.2226C285 45.9022 284.613 44.8925 283.879 44.077Z" fill="black"/>
<path d="M240.529 35.1064V36.7374C239.098 35.417 237.32 34.7568 235.154 34.7568C232.795 34.7568 230.746 35.6112 229.044 37.3199C227.381 39.0287 226.531 41.0869 226.531 43.5335C226.531 45.9801 227.381 48.0772 229.044 49.7471C230.707 51.4559 232.756 52.3102 235.154 52.3102C237.32 52.3102 239.137 51.65 240.529 50.3297V50.5627C240.529 51.9219 240.104 52.9704 239.253 53.7471C238.402 54.5238 237.165 54.951 235.657 54.951C233.53 54.951 232.06 54.3297 231.21 53.1258L227.923 54.5627C229.353 57.1258 231.944 58.4462 235.657 58.4462C237.938 58.4462 239.91 57.7471 241.535 56.3879C243.197 54.9898 244.048 53.0481 244.048 50.6015V35.1064H240.529ZM239.021 47.3005C238.016 48.3491 236.778 48.8151 235.309 48.8151C233.839 48.8151 232.602 48.3102 231.596 47.3005C230.591 46.252 230.088 45.0481 230.088 43.5335C230.088 42.019 230.591 40.8151 231.596 39.7665C232.602 38.718 233.839 38.252 235.309 38.252C236.778 38.252 238.016 38.7568 239.021 39.7665C240.026 40.8151 240.529 42.019 240.529 43.5335C240.529 45.0093 240.026 46.252 239.021 47.3005Z" fill="black"/>
<path d="M37.2782 72L0 36H19.3351L37.2782 54.4078V72Z" fill="url(#paint10_linear_2754_397)"/>
<path d="M37.2782 0L0 36L9.86092 45.7087L37.2782 17.5922V0Z" fill="#3980FF"/>
<path d="M47.5645 55.6112L59.3589 45.4364V39.9995L47.5645 27.9219V55.6112Z" fill="url(#paint11_linear_2754_397)"/>
<path d="M47.5645 0L84.8426 36H65.5461L47.5645 17.5922V0Z" fill="url(#paint12_linear_2754_397)"/>
<path d="M47.5645 71.9998L84.8426 35.9998L75.0204 26.291L47.5645 54.4075V71.9998Z" fill="#3980FF"/>
<path d="M98.5705 68.3497V64.3886L96.5983 67.6507H96.0956L94.1234 64.4274V68.3497H93.0793V62.3691H94.0074L96.3663 66.3303L98.6865 62.3691H99.576V68.3497H98.5705Z" fill="black"/>
<path d="M106.691 66.2915C106.691 67.6507 105.802 68.3497 104.294 68.3497H101.741V62.3691H102.824V64.3886H104.487C105.879 64.3886 106.691 65.0099 106.691 66.2915ZM105.57 66.3303C105.57 65.5924 105.067 65.2429 104.216 65.2429H102.786V67.4954H104.216C105.067 67.4954 105.57 67.0682 105.57 66.3303ZM107.542 62.3691H108.625V68.3497H107.542V62.3691Z" fill="black"/>
<path d="M118.756 62.3691V68.3497H117.674V63.3012H114.58V68.3497H113.497V62.3691H118.756Z" fill="black"/>
<path d="M120.883 62.3691H121.966V66.6021L125.176 62.3691H126.22V68.3497H125.137V64.1167L121.927 68.3497H120.883V62.3691Z" fill="black"/>
<path d="M135.926 62.3691V68.3497H128.269V62.3691H129.352V67.4177H131.556V62.3691H132.639V67.4177H134.843V62.3691H135.926Z" fill="black"/>
<path d="M142.5 67.4177V68.3497H138.053V62.3691H142.384V63.3012H139.136V64.8546H141.997V65.7866H139.136V67.4177H142.5Z" fill="black"/>
<path d="M149.615 68.3497V64.3886L147.643 67.6507H147.14L145.168 64.4274V68.3497H144.124V62.3691H145.052L147.411 66.3303L149.731 62.3691H150.621V68.3497H149.615Z" fill="black"/>
<path d="M157.736 65.8254H156.615V68.3497H155.532V62.3691H156.615V64.8546H157.736L159.438 62.3691H160.598L158.548 65.2818L160.675 68.3497H159.438L157.736 65.8254Z" fill="black"/>
<path d="M161.448 65.36C161.448 63.5735 162.802 62.292 164.658 62.292C166.514 62.292 167.868 63.5735 167.868 65.36C167.868 67.1464 166.514 68.4279 164.658 68.4279C162.802 68.4279 161.448 67.1075 161.448 65.36ZM166.746 65.36C166.746 64.1561 165.857 63.2629 164.658 63.2629C163.459 63.2629 162.57 64.1561 162.57 65.36C162.57 66.5638 163.459 67.457 164.658 67.457C165.818 67.457 166.746 66.5638 166.746 65.36Z" fill="black"/>
<path d="M175.215 67.4177V69.6313H174.21V68.3497H169.647V69.6313H168.602V67.4177H168.873C169.685 67.3788 169.879 66.0196 169.917 64.2721L169.995 62.3691H174.364V67.4177H175.215ZM170.265 67.4177H173.282V63.3012H170.961L170.923 64.3497C170.845 65.7089 170.729 66.9128 170.265 67.4177Z" fill="black"/>
<path d="M177.651 67.6893C177.651 67.8834 177.613 68.0388 177.458 68.4271L177.033 69.631H176.337L176.685 68.3106C176.453 68.1941 176.298 67.9999 176.298 67.6893C176.298 67.2621 176.607 66.9902 176.994 66.9902C177.381 66.9902 177.651 67.2621 177.651 67.6893Z" fill="black"/>
<path d="M184.225 65.8254H183.104V68.3497H182.021V62.3691H183.104V64.8546H184.225L185.927 62.3691H187.087L185.037 65.2818L187.164 68.3497H185.927L184.225 65.8254Z" fill="black"/>
<path d="M187.938 65.36C187.938 63.5735 189.291 62.292 191.147 62.292C193.003 62.292 194.357 63.5735 194.357 65.36C194.357 67.1464 193.003 68.4279 191.147 68.4279C189.291 68.4279 187.938 67.1075 187.938 65.36ZM193.235 65.36C193.235 64.1561 192.346 63.2629 191.147 63.2629C189.948 63.2629 189.059 64.1561 189.059 65.36C189.059 66.5638 189.948 67.457 191.147 67.457C192.307 67.457 193.235 66.5638 193.235 65.36Z" fill="black"/>
<path d="M200.196 63.3012H198.224V68.3497H197.141V63.3012H195.169V62.3691H200.196V63.3012Z" fill="black"/>
<path d="M201.047 65.36C201.047 63.5735 202.4 62.292 204.256 62.292C206.113 62.292 207.466 63.5735 207.466 65.36C207.466 67.1464 206.113 68.4279 204.256 68.4279C202.4 68.4279 201.047 67.1075 201.047 65.36ZM206.345 65.36C206.345 64.1561 205.455 63.2629 204.256 63.2629C203.058 63.2629 202.168 64.1561 202.168 65.36C202.168 66.5638 203.058 67.457 204.256 67.457C205.455 67.457 206.345 66.5638 206.345 65.36Z" fill="black"/>
<path d="M214.079 64.5051C214.079 65.8255 213.112 66.641 211.526 66.641H210.173V68.3497H209.052V62.3691H211.488C213.112 62.3691 214.079 63.1847 214.079 64.5051ZM212.996 64.5051C212.996 63.7672 212.493 63.3012 211.526 63.3012H210.25V65.6701H211.526C212.493 65.6701 212.996 65.2429 212.996 64.5051Z" fill="black"/>
<path d="M220.537 66.2915C220.537 67.6507 219.647 68.3497 218.139 68.3497H215.587V62.3691H216.67V64.3886H218.332C219.725 64.3886 220.537 65.0099 220.537 66.2915ZM219.415 66.3303C219.415 65.5924 218.912 65.2429 218.062 65.2429H216.631V67.4954H218.062C218.912 67.4954 219.415 67.0682 219.415 66.3303ZM221.387 62.3691H222.47V68.3497H221.387V62.3691Z" fill="black"/>
<path d="M224.597 62.3694H225.68V66.6024L228.889 62.3694H229.933V68.3499H228.851V64.1169L225.641 68.3499H224.597V62.3694ZM225.68 60.7383H226.453C226.453 61.1655 226.724 61.3985 227.226 61.3985C227.729 61.3985 228 61.1655 228 60.7383H228.773C228.773 61.515 228.232 61.981 227.226 61.981C226.182 61.981 225.68 61.515 225.68 60.7383Z" fill="black"/>
<path d="M239.756 64.5051C239.756 65.8255 238.789 66.641 237.204 66.641H235.85V68.3497H234.729V62.3691H237.165C238.75 62.3691 239.756 63.1847 239.756 64.5051ZM238.634 64.5051C238.634 63.7672 238.132 63.3012 237.165 63.3012H235.889V65.6701H237.165C238.132 65.6701 238.634 65.2429 238.634 64.5051Z" fill="black"/>
<path d="M244.86 66.9517H241.883L241.303 68.3497H240.142L242.811 62.3691H243.893L246.562 68.3497H245.402L244.86 66.9517ZM244.474 66.0973L243.352 63.4954L242.231 66.0973H244.474Z" fill="black"/>
<path d="M247.954 62.3691H252.594V63.3012H249.037V64.7769H250.815C252.246 64.7769 253.02 65.3983 253.02 66.5245C253.02 67.7284 252.169 68.3886 250.661 68.3886H247.993V62.3691H247.954ZM250.583 67.4954C251.434 67.4954 251.898 67.1458 251.898 66.5245C251.898 65.9031 251.473 65.5924 250.583 65.5924H249.037V67.4954H250.583Z" fill="black"/>
<path d="M254.18 65.36C254.18 63.5735 255.533 62.292 257.389 62.292C259.245 62.292 260.599 63.5735 260.599 65.36C260.599 67.1464 259.245 68.4279 257.389 68.4279C255.533 68.4279 254.18 67.1075 254.18 65.36ZM259.478 65.36C259.478 64.1561 258.588 63.2629 257.389 63.2629C256.191 63.2629 255.301 64.1561 255.301 65.36C255.301 66.5638 256.191 67.457 257.389 67.457C258.549 67.457 259.478 66.5638 259.478 65.36Z" fill="black"/>
<path d="M266.438 63.3012H264.466V68.3497H263.383V63.3012H261.411V62.3691H266.438V63.3012Z" fill="black"/>
<path d="M271.465 66.9517H268.488L267.908 68.3497H266.786L269.454 62.3691H270.537L273.206 68.3497H272.045L271.465 66.9517ZM271.117 66.0973L269.996 63.4954L268.874 66.0973H271.117Z" fill="black"/>
<path d="M279.045 67.4177V68.3497H274.559V62.3691H278.89V63.3012H275.642V64.8546H278.503V65.7866H275.642V67.4177H279.045Z" fill="black"/>
<path d="M285 63.3012H283.028V68.3497H281.945V63.3012H279.973V62.3691H285V63.3012Z" fill="black"/>
<defs>
<linearGradient id="paint0_linear_2754_397" x1="37.3201" y1="30.2749" x2="31.1626" y2="24.8792" gradientUnits="userSpaceOnUse">
<stop stop-color="#3980FF"/>
<stop offset="1" stop-color="#0029BC"/>
</linearGradient>
<linearGradient id="paint1_linear_2754_397" x1="101.96" y1="26.7862" x2="101.96" y2="7.94584" gradientUnits="userSpaceOnUse">
<stop stop-color="#0029BC"/>
<stop offset="1" stop-color="#3980FF"/>
</linearGradient>
<linearGradient id="paint2_linear_2754_397" x1="121.258" y1="26.786" x2="121.258" y2="7.94565" gradientUnits="userSpaceOnUse">
<stop stop-color="#0029BC"/>
<stop offset="1" stop-color="#3980FF"/>
</linearGradient>
<linearGradient id="paint3_linear_2754_397" x1="136.046" y1="26.7858" x2="136.046" y2="7.94538" gradientUnits="userSpaceOnUse">
<stop stop-color="#0029BC"/>
<stop offset="1" stop-color="#3980FF"/>
</linearGradient>
<linearGradient id="paint4_linear_2754_397" x1="146.706" y1="26.7861" x2="146.706" y2="7.94572" gradientUnits="userSpaceOnUse">
<stop stop-color="#0029BC"/>
<stop offset="1" stop-color="#3980FF"/>
</linearGradient>
<linearGradient id="paint5_linear_2754_397" x1="162.453" y1="26.786" x2="162.453" y2="7.94565" gradientUnits="userSpaceOnUse">
<stop stop-color="#0029BC"/>
<stop offset="1" stop-color="#3980FF"/>
</linearGradient>
<linearGradient id="paint6_linear_2754_397" x1="177.728" y1="26.7865" x2="177.728" y2="7.94611" gradientUnits="userSpaceOnUse">
<stop stop-color="#0029BC"/>
<stop offset="1" stop-color="#3980FF"/>
</linearGradient>
<linearGradient id="paint7_linear_2754_397" x1="185.8" y1="26.7864" x2="185.8" y2="7.94598" gradientUnits="userSpaceOnUse">
<stop stop-color="#0029BC"/>
<stop offset="1" stop-color="#3980FF"/>
</linearGradient>
<linearGradient id="paint8_linear_2754_397" x1="185.8" y1="26.7862" x2="185.8" y2="7.94581" gradientUnits="userSpaceOnUse">
<stop stop-color="#0029BC"/>
<stop offset="1" stop-color="#3980FF"/>
</linearGradient>
<linearGradient id="paint9_linear_2754_397" x1="199.08" y1="26.786" x2="199.08" y2="7.94565" gradientUnits="userSpaceOnUse">
<stop stop-color="#0029BC"/>
<stop offset="1" stop-color="#3980FF"/>
</linearGradient>
<linearGradient id="paint10_linear_2754_397" x1="13.0853" y1="41.6573" x2="26.6149" y2="52.5387" gradientUnits="userSpaceOnUse">
<stop stop-color="#0029BC"/>
<stop offset="1" stop-color="#3980FF"/>
</linearGradient>
<linearGradient id="paint11_linear_2754_397" x1="47.5412" y1="41.7293" x2="53.6987" y2="47.125" gradientUnits="userSpaceOnUse">
<stop stop-color="#3980FF"/>
<stop offset="1" stop-color="#0029BC"/>
</linearGradient>
<linearGradient id="paint12_linear_2754_397" x1="71.776" y1="30.3471" x2="58.2464" y2="19.4657" gradientUnits="userSpaceOnUse">
<stop stop-color="#0029BC"/>
<stop offset="1" stop-color="#3980FF"/>
</linearGradient>
</defs>
</svg>
