<svg width="302" height="131" viewBox="0 0 302 131" fill="none" xmlns="http://www.w3.org/2000/svg">
<rect x="1" y="1" width="300" height="129" rx="15" fill="#FEF4FF" fill-opacity="0.07"/>
<rect x="0.5" y="0.5" width="301" height="130" rx="15.5" stroke="white" stroke-opacity="0.28"/>
<g clip-path="url(#clip0_2754_1041)">
<g filter="url(#filter0_bd_2754_1041)">
<rect width="170.832" height="314.457" rx="21.7416" transform="matrix(0.962455 0.27144 -0.707107 0.707107 193.582 -45.6309)" fill="url(#paint0_linear_2754_1041)" fill-opacity="0.06" shape-rendering="crispEdges"/>
<rect x="-0.138792" y="-0.531879" width="171.919" height="315.544" rx="22.2851" transform="matrix(0.962455 0.27144 -0.707107 0.707107 193.2 -45.749)" stroke="white" stroke-opacity="0.52" stroke-width="1.08708" shape-rendering="crispEdges"/>
</g>
<g filter="url(#filter1_b_2754_1041)">
<rect width="170.832" height="328.217" rx="21.7416" transform="matrix(0.962455 0.27144 -0.707107 0.707107 193.582 -92.0928)" fill="url(#paint1_linear_2754_1041)" fill-opacity="0.25"/>
<rect x="-0.138792" y="-0.531879" width="171.919" height="329.304" rx="22.2851" transform="matrix(0.962455 0.27144 -0.707107 0.707107 193.2 -92.2109)" stroke="white" stroke-opacity="0.52" stroke-width="1.08708"/>
</g>
<path fill-rule="evenodd" clip-rule="evenodd" d="M122.383 7.32937C117.582 6.0429 110.84 7.84924 107.326 11.364L98.3033 20.3864C94.7886 23.9011 95.8315 27.7932 100.633 29.0797L199.316 55.5218C204.117 56.8083 210.859 55.002 214.373 51.4872L216.381 49.4792L221.121 48.2092L222.121 47.2092L221.388 44.4727L223.396 42.4648C226.91 38.9501 225.868 35.058 221.066 33.7715L122.383 7.32937ZM220.129 44.5067L219.163 44.248L221.464 41.9472C224.198 39.2135 223.386 36.1863 219.652 35.1857L120.969 8.74358C117.235 7.74299 111.991 9.14793 109.258 11.8816L100.235 20.904C97.5015 23.6377 98.3126 26.6649 102.047 27.6655L200.73 54.1076C204.465 55.1082 209.708 53.7033 212.442 50.9696L214.742 48.6689L215.708 48.9277L215.525 48.2445L219.572 47.1602L218.946 44.8236L220.129 44.5067Z" fill="white"/>
<path d="M116.552 21.972L121.679 16.8448L124.421 17.5796C125.023 17.7409 125.391 17.9882 125.525 18.3215C125.66 18.6549 125.535 19.0134 125.151 19.3971C124.884 19.6648 124.526 19.8752 124.077 20.0283C123.623 20.183 123.205 20.2377 122.824 20.1925L122.795 20.221C123.226 20.3934 123.47 20.6315 123.527 20.9352C123.581 21.238 123.438 21.56 123.097 21.9011C122.644 22.3535 122.083 22.6506 121.412 22.7922C120.738 22.9329 120.028 22.9036 119.284 22.7042L116.552 21.972ZM120.342 19.2889L121.74 19.6635C122.258 19.8022 122.726 19.8346 123.145 19.7605C123.567 19.6874 123.916 19.5122 124.193 19.2351C124.447 18.9816 124.527 18.7554 124.435 18.5565C124.34 18.3599 124.081 18.2048 123.657 18.0912L121.988 17.6438L120.342 19.2889ZM119.718 22.1041C120.789 22.3911 121.627 22.2326 122.231 21.6285C122.828 21.0316 122.563 20.5823 121.437 20.2806L119.792 19.8397L117.99 21.6411L119.718 22.1041ZM124.758 24.2158C124.023 24.019 123.614 23.6856 123.53 23.2156C123.446 22.7456 123.701 22.2133 124.296 21.6188C124.891 21.0242 125.583 20.609 126.373 20.3731C127.162 20.1372 127.924 20.1176 128.659 20.3145C129.393 20.5113 129.803 20.8447 129.887 21.3147C129.97 21.7847 129.715 22.3169 129.121 22.9115C128.526 23.506 127.834 23.9213 127.044 24.1572C126.254 24.3931 125.492 24.4126 124.758 24.2158ZM125.308 23.6651C125.797 23.796 126.3 23.7747 126.818 23.6012C127.342 23.4261 127.823 23.1195 128.261 22.6813C128.702 22.2407 128.908 21.8604 128.879 21.5403C128.854 21.2212 128.597 20.9961 128.108 20.8652C127.62 20.7343 127.116 20.7556 126.598 20.9291C126.074 21.1041 125.593 21.4107 125.155 21.849C124.717 22.2872 124.511 22.6675 124.537 22.9899C124.566 23.31 124.823 23.535 125.308 23.6651ZM134.955 22.6954L132.344 21.9957L129.026 25.3143L128.191 25.0906L132.021 21.2604L136.302 22.4074L132.472 26.2377L131.637 26.014L134.955 22.6954ZM140.094 23.3785C140.764 23.558 141.125 23.8816 141.179 24.3494C141.233 24.8204 140.969 25.3473 140.386 25.93C139.803 26.5127 139.126 26.9291 138.355 27.179C137.587 27.4266 136.872 27.4619 136.212 27.285C135.445 27.0796 135.108 26.7113 135.2 26.1803L135.18 26.1751L133.28 28.0761L132.435 27.8498L137.544 22.7404L138.345 22.955L137.723 23.5768L137.743 23.582C138.094 23.4237 138.484 23.3254 138.912 23.287C139.338 23.2509 139.732 23.2814 140.094 23.3785ZM136.588 26.6875C137.051 26.8115 137.548 26.784 138.08 26.6051C138.617 26.4247 139.098 26.1225 139.522 25.6985C139.944 25.2769 140.142 24.9004 140.116 24.5692C140.093 24.2388 139.851 24.0116 139.388 23.8876C138.938 23.7671 138.444 23.7982 137.904 23.981C137.364 24.1638 136.886 24.4636 136.469 24.8805C136.052 25.2974 135.855 25.6727 135.879 26.0063C135.899 26.339 136.135 26.5661 136.588 26.6875ZM141.58 28.7234C140.846 28.5266 140.437 28.1932 140.353 27.7232C140.269 27.2532 140.524 26.721 141.119 26.1264C141.713 25.5319 142.405 25.1166 143.195 24.8807C143.985 24.6448 144.747 24.6253 145.482 24.8221C146.216 25.0189 146.625 25.3523 146.709 25.8223C146.793 26.2923 146.538 26.8246 145.943 27.4191C145.349 28.0137 144.657 28.4289 143.867 28.6648C143.077 28.9007 142.315 28.9202 141.58 28.7234ZM142.131 28.1727C142.62 28.3036 143.123 28.2823 143.641 28.1088C144.165 27.9338 144.646 27.6272 145.084 27.1889C145.525 26.7484 145.731 26.368 145.702 26.048C145.677 25.7288 145.42 25.5038 144.931 25.3728C144.442 25.2419 143.939 25.2632 143.421 25.4367C142.897 25.6118 142.416 25.9184 141.978 26.3566C141.54 26.7948 141.334 27.1751 141.36 27.4976C141.389 27.8176 141.646 28.0426 142.131 28.1727ZM151.142 27.8704C151.264 27.6539 151.273 27.4581 151.169 27.2831C151.055 27.0934 150.82 26.9508 150.464 26.8554C150.005 26.7323 149.508 26.7614 148.974 26.9427C148.433 27.1222 147.952 27.4228 147.53 27.8444C147.099 28.2755 146.901 28.6564 146.936 28.987C146.965 29.3103 147.211 29.5339 147.674 29.6579C148.389 29.8495 149.05 29.7532 149.655 29.3689L150.495 29.5939C150.05 29.9281 149.523 30.1518 148.913 30.2648C148.293 30.3808 147.694 30.3617 147.118 30.2073C146.394 30.0131 145.988 29.6838 145.903 29.2194C145.818 28.7462 146.074 28.2111 146.671 27.6142C147.259 27.0268 147.95 26.6127 148.744 26.3721C149.536 26.1338 150.292 26.1109 151.01 26.3034C151.605 26.4629 151.985 26.7177 152.147 27.0677C152.297 27.3901 152.241 27.7326 151.981 28.0954L151.142 27.8704Z" fill="white"/>
<path d="M51.5516 94.972L56.6787 89.8448L59.4211 90.5796C60.0229 90.7409 60.391 90.9882 60.5254 91.3215C60.6598 91.6549 60.5351 92.0134 60.1513 92.3971C59.8837 92.6648 59.5256 92.8752 59.077 93.0283C58.6229 93.183 58.2051 93.2377 57.8235 93.1925L57.7951 93.221C58.2258 93.3934 58.4698 93.6315 58.5271 93.9352C58.5812 94.238 58.4377 94.56 58.0966 94.9011C57.6442 95.3535 57.0826 95.6506 56.4117 95.7922C55.7376 95.9329 55.0284 95.9036 54.2842 95.7042L51.5516 94.972ZM55.3424 92.2889L56.7402 92.6635C57.2579 92.8022 57.7261 92.8346 58.1448 92.7605C58.5667 92.6874 58.9162 92.5122 59.1934 92.2351C59.4468 91.9816 59.5274 91.7554 59.435 91.5565C59.3403 91.3599 59.081 91.2048 58.6571 91.0912L56.9875 90.6438L55.3424 92.2889ZM54.7181 95.1041C55.7891 95.3911 56.6267 95.2326 57.2307 94.6285C57.8276 94.0316 57.5631 93.5823 56.437 93.2806L54.7916 92.8397L52.9902 94.6411L54.7181 95.1041ZM59.7576 97.2158C59.023 97.019 58.6138 96.6856 58.5299 96.2156C58.4461 95.7456 58.7014 95.2133 59.296 94.6188C59.8905 94.0242 60.5827 93.609 61.3724 93.3731C62.1622 93.1372 62.9244 93.1176 63.6589 93.3145C64.3934 93.5113 64.8026 93.8447 64.8865 94.3147C64.9704 94.7847 64.715 95.3169 64.1205 95.9115C63.5259 96.506 62.8338 96.9213 62.044 97.1572C61.2542 97.3931 60.4921 97.4126 59.7576 97.2158ZM60.3083 96.6651C60.7969 96.796 61.3003 96.7747 61.8184 96.6012C62.3422 96.4261 62.8232 96.1195 63.2614 95.6813C63.702 95.2407 63.9079 94.8604 63.8792 94.5403C63.8538 94.2212 63.5967 93.9961 63.1081 93.8652C62.6195 93.7343 62.1162 93.7556 61.598 93.9291C61.0743 94.1041 60.5933 94.4107 60.1551 94.849C59.7168 95.2872 59.5109 95.6675 59.5372 95.9899C59.5659 96.31 59.8229 96.535 60.3083 96.6651ZM69.9554 95.6954L67.3441 94.9957L64.0255 98.3143L63.1906 98.0906L67.0209 94.2604L71.3018 95.4074L67.4716 99.2377L66.6367 99.014L69.9554 95.6954ZM75.0941 96.3785C75.7639 96.558 76.1254 96.8816 76.1787 97.3494C76.2328 97.8204 75.9685 98.3473 75.3858 98.93C74.8031 99.5127 74.1262 99.9291 73.3553 100.179C72.5866 100.427 71.8723 100.462 71.2122 100.285C70.4453 100.08 70.1079 99.7113 70.1998 99.1803L70.1804 99.1751L68.2795 101.076L67.435 100.85L72.5444 95.7404L73.3452 95.955L72.7234 96.5768L72.7428 96.582C73.0939 96.4237 73.4835 96.3254 73.9117 96.287C74.3376 96.2509 74.7317 96.2814 75.0941 96.3785ZM71.5882 99.6875C72.0509 99.8115 72.5481 99.784 73.0798 99.6051C73.6172 99.4247 74.0979 99.1225 74.5219 98.6985C74.9435 98.2769 75.1415 97.9004 75.1158 97.5692C75.0933 97.2388 74.8508 97.0116 74.388 96.8876C73.9383 96.7671 73.4435 96.7982 72.9038 96.981C72.3641 97.1638 71.8858 97.4636 71.4689 97.8805C71.052 98.2974 70.8552 98.6727 70.8785 99.0063C70.8986 99.339 71.1352 99.5661 71.5882 99.6875ZM76.5803 101.723C75.8458 101.527 75.4366 101.193 75.3527 100.723C75.2688 100.253 75.5242 99.721 76.1187 99.1264C76.7133 98.5319 77.4054 98.1166 78.1952 97.8807C78.985 97.6448 79.7471 97.6253 80.4816 97.8221C81.2162 98.0189 81.6254 98.3523 81.7092 98.8223C81.7931 99.2923 81.5378 99.8246 80.9432 100.419C80.3487 101.014 79.6565 101.429 78.8668 101.665C78.077 101.901 77.3148 101.92 76.5803 101.723ZM77.131 101.173C77.6197 101.304 78.123 101.282 78.6412 101.109C79.1649 100.934 79.6459 100.627 80.0841 100.189C80.5247 99.7484 80.7307 99.368 80.702 99.048C80.6765 98.7288 80.4195 98.5038 79.9309 98.3728C79.4423 98.2419 78.9389 98.2632 78.4208 98.4367C77.897 98.6118 77.416 98.9184 76.9778 99.3566C76.5396 99.7948 76.3336 100.175 76.36 100.498C76.3887 100.818 76.6457 101.043 77.131 101.173ZM86.1415 100.87C86.2637 100.654 86.2728 100.458 86.1688 100.283C86.0549 100.093 85.82 99.9508 85.4641 99.8554C85.0046 99.7323 84.5078 99.7614 83.9737 99.9427C83.4331 100.122 82.952 100.423 82.5304 100.844C82.0993 101.276 81.901 101.656 81.9355 101.987C81.9651 102.31 82.2112 102.534 82.6739 102.658C83.389 102.85 84.0495 102.753 84.6553 102.369L85.495 102.594C85.05 102.928 84.5227 103.152 83.9133 103.265C83.2926 103.381 82.6943 103.362 82.1183 103.207C81.3935 103.013 80.9884 102.684 80.903 102.219C80.8183 101.746 81.0744 101.211 81.6713 100.614C82.2587 100.027 82.9497 99.6127 83.7442 99.3721C84.5364 99.1338 85.2916 99.1109 86.01 99.3034C86.6053 99.4629 86.9845 99.7177 87.1473 100.068C87.2968 100.39 87.2414 100.733 86.9812 101.095L86.1415 100.87Z" fill="white"/>
<path fill-rule="evenodd" clip-rule="evenodd" d="M55.383 79.3294C50.5818 78.0429 43.8405 79.8492 40.3257 83.364L31.3033 92.3864C27.7886 95.9011 28.8315 99.7932 33.6327 101.08L132.316 127.522C137.117 128.808 143.859 127.002 147.373 123.487L149.381 121.479L154.121 120.209L155.121 119.209L154.388 116.473L156.396 114.465C159.91 110.95 158.868 107.058 154.066 105.772L55.383 79.3294ZM153.129 116.507L152.163 116.248L154.464 113.947C157.198 111.214 156.386 108.186 152.652 107.186L53.9688 80.7436C50.2346 79.743 44.9913 81.1479 42.2576 83.8816L33.2352 92.904C30.5015 95.6377 31.3126 98.6649 35.0469 99.6655L133.73 126.108C137.465 127.108 142.708 125.703 145.442 122.97L147.742 120.669L148.708 120.928L148.525 120.245L152.572 119.16L151.946 116.824L153.129 116.507Z" fill="white"/>
<path d="M209.794 74.1142L111.11 47.6721C106.843 46.5286 100.85 48.1342 97.726 51.2584L95.6047 53.3797L88.7036 60.2808C85.5794 63.405 86.5064 66.8647 90.7742 68.0082L189.458 94.4504C193.725 95.5939 199.718 93.9883 202.842 90.8641L205.143 88.5633L209.563 84.1424L211.864 81.8416C214.988 78.7175 214.061 75.2578 209.794 74.1142Z" fill="#3980FF"/>
<path d="M113.324 57.5536C113.984 57.7305 114.37 58.0276 114.482 58.445C114.594 58.8624 114.407 59.3139 113.921 59.7995C113.436 60.2851 112.829 60.6255 112.1 60.8208C111.371 61.016 110.677 61.0252 110.017 60.8483L108.255 60.3762L106.425 62.206L105.552 61.972L110.679 56.8448L113.324 57.5536ZM108.824 59.8077L110.367 60.2213C110.865 60.3548 111.348 60.3625 111.815 60.2443C112.279 60.1285 112.682 59.9 113.023 59.5589C113.365 59.2178 113.493 58.9173 113.408 58.6573C113.323 58.3941 113.029 58.1954 112.527 58.061L110.984 57.6474L108.824 59.8077ZM116.64 60.7306C116.229 60.6205 115.789 60.629 115.322 60.756C114.851 60.8821 114.439 61.1036 114.085 61.4203L116.964 62.1915C117.278 61.8644 117.406 61.5666 117.346 61.2983C117.289 61.0308 117.054 60.8416 116.64 60.7306ZM116.635 63.5541C116.234 63.8643 115.725 64.0701 115.106 64.1717C114.485 64.2757 113.895 64.2526 113.335 64.1026C112.601 63.9058 112.191 63.5752 112.105 63.1108C112.023 62.6473 112.28 62.1183 112.874 61.5237C113.469 60.9292 114.16 60.5107 114.948 60.2683C115.736 60.026 116.486 60.0002 117.198 60.1909C117.897 60.3782 118.282 60.6946 118.353 61.1402C118.422 61.5882 118.168 62.1012 117.59 62.6792L117.348 62.9208L113.591 61.9142L113.556 61.9497C113.191 62.3145 113.04 62.6436 113.104 62.9369C113.168 63.2303 113.432 63.4394 113.898 63.5642C114.225 63.6518 114.562 63.6744 114.908 63.6319C115.248 63.591 115.546 63.4905 115.8 63.3304L116.635 63.5541ZM120.419 61.0991L121.254 61.3228L117.935 64.6414L119.916 65.172L123.234 61.8534L124.069 62.0771L120.75 65.3957L122.731 65.9263L126.049 62.6077L126.884 62.8314L123.054 66.6617L116.589 64.9294L120.419 61.0991ZM129.706 64.2317C129.295 64.1216 128.856 64.13 128.388 64.257C127.917 64.3832 127.505 64.6046 127.151 64.9213L130.03 65.6925C130.344 65.3654 130.472 65.0677 130.412 64.7993C130.355 64.5319 130.12 64.3426 129.706 64.2317ZM129.701 67.0551C129.3 67.3653 128.791 67.5712 128.172 67.6728C127.552 67.7767 126.961 67.7537 126.401 67.6037C125.667 67.4069 125.257 67.0763 125.172 66.6119C125.089 66.1484 125.346 65.6193 125.94 65.0248C126.535 64.4302 127.226 64.0117 128.014 63.7694C128.802 63.527 129.552 63.5012 130.264 63.6919C130.963 63.8792 131.348 64.1957 131.419 64.6413C131.488 65.0892 131.234 65.6022 130.656 66.1802L130.414 66.4218L126.657 65.4152L126.622 65.4507C126.257 65.8155 126.107 66.1446 126.17 66.4379C126.234 66.7313 126.498 66.9404 126.964 67.0652C127.291 67.1528 127.628 67.1754 127.974 67.133C128.314 67.092 128.612 66.9915 128.866 66.8314L129.701 67.0551ZM134.883 67.6329L132.224 66.9202L130.49 68.6541L129.655 68.4304L133.485 64.6001L134.32 64.8238L132.735 66.4085L135.395 67.1212L136.98 65.5365L137.815 65.7602L133.984 69.5905L133.15 69.3668L134.883 67.6329ZM135.227 69.9234L139.057 66.0931L139.892 66.3168L137.017 69.1913L137.056 69.2017L142.625 67.049L143.459 67.2727L139.629 71.103L138.794 70.8793L141.669 68.0048L141.63 67.9944L136.062 70.1471L135.227 69.9234ZM146.286 68.6743C145.875 68.5642 145.436 68.5726 144.968 68.6996C144.497 68.8258 144.085 69.0472 143.731 69.3639L146.61 70.1351C146.924 69.808 147.052 69.5103 146.992 69.242C146.935 68.9745 146.7 68.7853 146.286 68.6743ZM146.281 71.4977C145.88 71.8079 145.371 72.0138 144.752 72.1154C144.132 72.2193 143.541 72.1963 142.981 72.0463C142.247 71.8495 141.837 71.5189 141.752 71.0545C141.669 70.591 141.926 70.0619 142.52 69.4674C143.115 68.8728 143.806 68.4544 144.594 68.212C145.382 67.9696 146.132 67.9438 146.844 68.1346C147.543 68.3218 147.928 68.6383 147.999 69.0839C148.068 69.5319 147.814 70.0448 147.236 70.6228L146.994 70.8644L143.238 69.8578L143.202 69.8933C142.837 70.2581 142.687 70.5872 142.75 70.8806C142.814 71.1739 143.079 71.383 143.544 71.5079C143.871 71.5954 144.208 71.618 144.554 71.5756C144.894 71.5346 145.192 71.4341 145.446 71.274L146.281 71.4977Z" fill="white"/>
<path d="M145.794 143.114L47.1103 116.672C42.8426 115.529 36.8502 117.134 33.726 120.258L31.6047 122.38L24.7036 129.281C21.5794 132.405 22.5064 135.865 26.7742 137.008L125.458 163.45C129.725 164.594 135.718 162.988 138.842 159.864L141.143 157.563L145.563 153.142L147.864 150.842C150.988 147.717 150.061 144.258 145.794 143.114Z" fill="#3980FF"/>
<path d="M49.324 126.554C49.9841 126.73 50.3701 127.028 50.482 127.445C50.5938 127.862 50.4069 128.314 49.9213 128.8C49.4357 129.285 48.8287 129.626 48.1001 129.821C47.3715 130.016 46.6771 130.025 46.017 129.848L44.2552 129.376L42.4253 131.206L41.5516 130.972L46.6788 125.845L49.324 126.554ZM44.8237 128.808L46.3671 129.221C46.8654 129.355 47.348 129.362 47.8149 129.244C48.2795 129.128 48.6823 128.9 49.0234 128.559C49.3645 128.218 49.4927 127.917 49.408 127.657C49.3225 127.394 49.029 127.195 48.5274 127.061L46.984 126.647L44.8237 128.808ZM52.6397 129.731C52.2287 129.621 51.7895 129.629 51.3219 129.756C50.8512 129.882 50.4389 130.104 50.0853 130.42L52.9635 131.191C53.2783 130.864 53.4058 130.567 53.3459 130.298C53.2893 130.031 53.0538 129.842 52.6397 129.731ZM52.6348 132.554C52.2344 132.864 51.7249 133.07 51.1064 133.172C50.4855 133.276 49.8951 133.253 49.3354 133.103C48.6008 132.906 48.1909 132.575 48.1055 132.111C48.0233 131.647 48.2795 131.118 48.8741 130.524C49.4687 129.929 50.1599 129.511 50.948 129.268C51.736 129.026 52.486 129 53.1978 129.191C53.8968 129.378 54.2819 129.695 54.3533 130.14C54.4222 130.588 54.1677 131.101 53.5898 131.679L53.3481 131.921L49.5914 130.914L49.5559 130.95C49.1911 131.314 49.0405 131.644 49.1041 131.937C49.1677 132.23 49.4324 132.439 49.8984 132.564C50.2252 132.652 50.5616 132.674 50.9077 132.632C51.2481 132.591 51.5455 132.49 51.8 132.33L52.6348 132.554ZM56.4191 130.099L57.2539 130.323L53.9353 133.641L55.9156 134.172L59.2342 130.853L60.0691 131.077L56.7504 134.396L58.7307 134.926L62.0494 131.608L62.8842 131.831L59.0539 135.662L52.5889 133.929L56.4191 130.099ZM65.7057 133.232C65.2947 133.122 64.8555 133.13 64.388 133.257C63.9172 133.383 63.505 133.605 63.1513 133.921L66.0295 134.693C66.3444 134.365 66.4718 134.068 66.4119 133.799C66.3553 133.532 66.1199 133.343 65.7057 133.232ZM65.7009 136.055C65.3004 136.365 64.7909 136.571 64.1724 136.673C63.5515 136.777 62.9612 136.754 62.4014 136.604C61.6669 136.407 61.2569 136.076 61.1715 135.612C61.0894 135.148 61.3456 134.619 61.9401 134.025C62.5347 133.43 63.226 133.012 64.014 132.769C64.8021 132.527 65.552 132.501 66.2639 132.692C66.9628 132.879 67.3479 133.196 67.4193 133.641C67.4883 134.089 67.2338 134.602 66.6558 135.18L66.4142 135.422L62.6574 134.415L62.6219 134.451C62.2571 134.816 62.1065 135.145 62.1701 135.438C62.2337 135.731 62.4985 135.94 62.9644 136.065C63.2912 136.153 63.6277 136.175 63.9737 136.133C64.3141 136.092 64.6116 135.992 64.866 135.831L65.7009 136.055ZM70.8834 136.633L68.2236 135.92L66.4897 137.654L65.6549 137.43L69.4851 133.6L70.32 133.824L68.7353 135.409L71.3951 136.121L72.9798 134.537L73.8146 134.76L69.9843 138.59L69.1495 138.367L70.8834 136.633ZM71.2269 138.923L75.0571 135.093L75.892 135.317L73.0175 138.191L73.0563 138.202L78.6246 136.049L79.4594 136.273L75.6291 140.103L74.7943 139.879L77.6688 137.005L77.63 136.994L72.0617 139.147L71.2269 138.923ZM82.2858 137.674C81.8748 137.564 81.4356 137.573 80.968 137.7C80.4973 137.826 80.085 138.047 79.7314 138.364L82.6096 139.135C82.9244 138.808 83.0519 138.51 82.992 138.242C82.9354 137.974 82.6999 137.785 82.2858 137.674ZM82.2809 140.498C81.8805 140.808 81.371 141.014 80.7525 141.115C80.1316 141.219 79.5412 141.196 78.9815 141.046C78.2469 140.849 77.837 140.519 77.7516 140.054C77.6694 139.591 77.9256 139.062 78.5202 138.467C79.1148 137.873 79.8061 137.454 80.5941 137.212C81.3821 136.97 82.1321 136.944 82.844 137.135C83.5429 137.322 83.928 137.638 83.9994 138.084C84.0683 138.532 83.8138 139.045 83.2359 139.623L82.9942 139.864L79.2375 138.858L79.202 138.893C78.8372 139.258 78.6866 139.587 78.7502 139.881C78.8138 140.174 79.0785 140.383 79.5445 140.508C79.8713 140.595 80.2077 140.618 80.5538 140.576C80.8942 140.535 81.1917 140.434 81.4461 140.274L82.2809 140.498Z" fill="white"/>
</g>
<defs>
<filter id="filter0_bd_2754_1041" x="-97.7383" y="-119.619" width="524.703" height="416.702" filterUnits="userSpaceOnUse" color-interpolation-filters="sRGB">
<feFlood flood-opacity="0" result="BackgroundImageFix"/>
<feGaussianBlur in="BackgroundImageFix" stdDeviation="39"/>
<feComposite in2="SourceAlpha" operator="in" result="effect1_backgroundBlur_2754_1041"/>
<feColorMatrix in="SourceAlpha" type="matrix" values="0 0 0 0 0 0 0 0 0 0 0 0 0 0 0 0 0 0 127 0" result="hardAlpha"/>
<feOffset dy="33.8057"/>
<feGaussianBlur stdDeviation="4.89186"/>
<feComposite in2="hardAlpha" operator="out"/>
<feColorMatrix type="matrix" values="0 0 0 0 0.122778 0 0 0 0 0.389526 0 0 0 0 0.866667 0 0 0 0.18 0"/>
<feBlend mode="normal" in2="effect1_backgroundBlur_2754_1041" result="effect2_dropShadow_2754_1041"/>
<feBlend mode="normal" in="SourceGraphic" in2="effect2_dropShadow_2754_1041" result="shape"/>
</filter>
<filter id="filter1_b_2754_1041" x="-53.3837" y="-111.997" width="426.264" height="318.263" filterUnits="userSpaceOnUse" color-interpolation-filters="sRGB">
<feFlood flood-opacity="0" result="BackgroundImageFix"/>
<feGaussianBlur in="BackgroundImageFix" stdDeviation="11.9579"/>
<feComposite in2="SourceAlpha" operator="in" result="effect1_backgroundBlur_2754_1041"/>
<feBlend mode="normal" in="SourceGraphic" in2="effect1_backgroundBlur_2754_1041" result="shape"/>
</filter>
<linearGradient id="paint0_linear_2754_1041" x1="-85.4162" y1="157.229" x2="178.391" y2="300.544" gradientUnits="userSpaceOnUse">
<stop stop-color="white"/>
<stop offset="1" stop-color="#FEFEFE"/>
</linearGradient>
<linearGradient id="paint1_linear_2754_1041" x1="-85.4162" y1="164.108" x2="183.419" y2="304.034" gradientUnits="userSpaceOnUse">
<stop stop-color="white"/>
<stop offset="1" stop-color="#FEFEFE"/>
</linearGradient>
<clipPath id="clip0_2754_1041">
<rect x="1" y="1" width="300" height="129" rx="15" fill="white"/>
</clipPath>
</defs>
</svg>
