<svg width="302" height="131" viewBox="0 0 302 131" fill="none" xmlns="http://www.w3.org/2000/svg">
<rect x="1" y="1" width="300" height="129" rx="15" fill="#FEF4FF" fill-opacity="0.07"/>
<rect x="0.5" y="0.5" width="301" height="130" rx="15.5" stroke="white" stroke-opacity="0.28"/>
<g clip-path="url(#clip0_2754_700)">
<g filter="url(#filter0_bd_2754_700)">
<rect width="170.832" height="314.457" rx="21.7416" transform="matrix(0.962455 0.27144 -0.707107 0.707107 193.582 -45.6309)" fill="url(#paint0_linear_2754_700)" fill-opacity="0.06" shape-rendering="crispEdges"/>
<rect x="-0.138792" y="-0.531879" width="171.919" height="315.544" rx="22.2851" transform="matrix(0.962455 0.27144 -0.707107 0.707107 193.2 -45.749)" stroke="white" stroke-opacity="0.52" stroke-width="1.08708" shape-rendering="crispEdges"/>
</g>
<g filter="url(#filter1_b_2754_700)">
<rect width="170.832" height="328.217" rx="21.7416" transform="matrix(0.962455 0.27144 -0.707107 0.707107 193.582 -92.0928)" fill="#80AAFF"/>
<rect x="-0.138792" y="-0.531879" width="171.919" height="329.304" rx="22.2851" transform="matrix(0.962455 0.27144 -0.707107 0.707107 193.2 -92.2109)" stroke="white" stroke-opacity="0.52" stroke-width="1.08708"/>
</g>
<path d="M21.2607 102.209C21.6896 102.33 22.0009 102.494 22.1943 102.701C22.3943 102.906 22.4678 103.141 22.415 103.407C22.3659 103.673 22.1935 103.954 21.8977 104.25C21.6019 104.545 21.2601 104.779 20.8724 104.949C20.4912 105.118 20.0845 105.216 19.6523 105.243C19.2266 105.268 18.7993 105.22 18.3703 105.099L17.1454 104.754L20.0358 101.864L21.2607 102.209ZM18.6813 104.788C19.1893 104.932 19.675 104.943 20.1385 104.822C20.6047 104.698 21.0161 104.458 21.3728 104.101C21.7322 103.742 21.8773 103.423 21.8082 103.145C21.7428 102.868 21.458 102.658 20.9538 102.516L20.2426 102.315L17.9701 104.588L18.6813 104.788ZM24.2783 103.379C24.1804 103.352 24.1225 103.303 24.1046 103.234C24.0866 103.166 24.1135 103.095 24.1854 103.023C24.2573 102.951 24.352 102.9 24.4695 102.87C24.587 102.839 24.6946 102.837 24.7925 102.865C24.8866 102.891 24.9407 102.939 24.9549 103.006C24.9729 103.075 24.9459 103.146 24.874 103.218C24.8022 103.289 24.7075 103.341 24.59 103.371C24.4762 103.403 24.3723 103.406 24.2783 103.379ZM24.1575 103.818L21.885 106.091L21.3714 105.946L23.6439 103.673L24.1575 103.818ZM24.0533 106.75C23.8163 106.683 23.6327 106.594 23.5026 106.483C23.3753 106.369 23.3096 106.244 23.3055 106.109C23.3042 105.97 23.367 105.83 23.494 105.689L24.0245 105.838C23.9262 105.956 23.9051 106.069 23.9612 106.177C24.021 106.286 24.1563 106.37 24.367 106.429C24.5627 106.484 24.7487 106.496 24.9252 106.464C25.1017 106.433 25.2383 106.368 25.3351 106.272C25.4346 106.172 25.4477 106.082 25.3742 106.001C25.3036 105.917 25.1657 105.816 24.9606 105.698C24.7753 105.589 24.6314 105.492 24.5288 105.406C24.4328 105.319 24.3764 105.216 24.3595 105.098C24.3491 104.978 24.4172 104.845 24.5637 104.698C24.6799 104.582 24.8333 104.489 25.0242 104.419C25.215 104.349 25.4246 104.31 25.653 104.304C25.8841 104.295 26.1107 104.321 26.3327 104.384C26.6752 104.48 26.8882 104.622 26.9717 104.809C27.0553 104.995 26.994 105.201 26.7879 105.427L26.2742 105.282C26.3818 105.16 26.4113 105.046 26.3628 104.94C26.318 104.835 26.1959 104.755 25.9965 104.698C25.8121 104.646 25.6363 104.634 25.4692 104.661C25.302 104.689 25.1714 104.749 25.0774 104.843C25.0027 104.918 24.9725 104.989 24.9867 105.057C25.0075 105.123 25.0515 105.185 25.119 105.243C25.1929 105.299 25.3004 105.37 25.4413 105.456C25.6191 105.563 25.7554 105.658 25.8504 105.742C25.9482 105.823 26.0031 105.92 26.0153 106.033C26.0312 106.147 25.9719 106.274 25.8374 106.413C25.713 106.538 25.554 106.636 25.3604 106.709C25.1668 106.782 24.9544 106.823 24.7233 106.833C24.4987 106.84 24.2753 106.813 24.0533 106.75ZM27.1324 106.103C27.3647 105.871 27.6318 105.686 27.9339 105.548C28.2388 105.407 28.5506 105.32 28.8694 105.285C29.192 105.252 29.4906 105.274 29.7653 105.352C30.0362 105.428 30.2285 105.538 30.3423 105.679C30.456 105.821 30.4968 105.971 30.4647 106.129L30.8794 105.714L31.3987 105.86L29.1262 108.133L28.6069 107.987L29.0299 107.564C28.7956 107.668 28.5326 107.735 28.2409 107.766C27.9558 107.796 27.6796 107.773 27.4125 107.697C27.1378 107.62 26.9392 107.5 26.8167 107.338C26.6942 107.176 26.6589 106.987 26.7106 106.771C26.7624 106.555 26.903 106.333 27.1324 106.103ZM29.7473 106.846C29.9187 106.675 30.021 106.512 30.0541 106.358C30.0872 106.205 30.056 106.072 29.9605 105.96C29.8716 105.846 29.7312 105.762 29.5393 105.708C29.3474 105.654 29.1392 105.638 28.9148 105.66C28.6904 105.681 28.4676 105.743 28.2463 105.843C28.0251 105.944 27.8288 106.08 27.6574 106.251C27.4832 106.426 27.3782 106.591 27.3423 106.747C27.3092 106.901 27.3371 107.035 27.4261 107.148C27.5178 107.259 27.6596 107.342 27.8515 107.396C28.0434 107.45 28.2515 107.466 28.4759 107.445C28.7069 107.421 28.9329 107.359 29.1542 107.258C29.3782 107.155 29.5759 107.018 29.7473 106.846ZM32.5925 106.739C32.8334 106.634 33.0982 106.567 33.3871 106.538C33.676 106.51 33.9503 106.532 34.21 106.605C34.4884 106.684 34.6903 106.803 34.8155 106.962C34.9408 107.122 34.9789 107.308 34.9299 107.521C34.8837 107.731 34.7444 107.952 34.5122 108.185C34.2828 108.414 34.0142 108.601 33.7066 108.744C33.3989 108.888 33.0825 108.978 32.7572 109.013C32.4356 109.05 32.1375 109.03 31.8628 108.953C31.5956 108.877 31.4033 108.768 31.2858 108.625C31.1721 108.483 31.1308 108.331 31.1619 108.17L30.743 108.589L30.2294 108.444L33.2981 105.375L33.8117 105.52L32.5925 106.739ZM33.9873 108.037C34.1587 107.865 34.2609 107.703 34.294 107.549C34.3271 107.395 34.296 107.262 34.2005 107.15C34.1088 107.039 33.967 106.957 33.7751 106.903C33.587 106.85 33.3774 106.835 33.1465 106.858C32.9221 106.88 32.696 106.942 32.4682 107.045C32.247 107.145 32.0521 107.28 31.8834 107.449C31.712 107.62 31.6084 107.784 31.5725 107.94C31.5432 108.095 31.573 108.229 31.6619 108.343C31.7574 108.455 31.8992 108.538 32.0873 108.591C32.2792 108.645 32.4874 108.661 32.7118 108.639C32.9427 108.616 33.1688 108.554 33.39 108.453C33.614 108.35 33.8131 108.211 33.9873 108.037ZM37.8613 106.662L34.7926 109.731L34.279 109.586L37.3477 106.517L37.8613 106.662ZM39.9487 109.617C39.8769 109.689 39.7952 109.763 39.7037 109.84L37.2315 109.143C37.0264 109.372 36.9543 109.577 37.0153 109.757C37.0828 109.936 37.252 110.063 37.5229 110.14C37.7449 110.202 37.9666 110.217 38.188 110.184C38.416 110.149 38.6236 110.076 38.811 109.966L39.3641 110.122C39.0629 110.317 38.7191 110.449 38.3325 110.517C37.9487 110.582 37.5724 110.563 37.2036 110.459C36.9101 110.376 36.6951 110.253 36.5585 110.091C36.4257 109.929 36.382 109.742 36.4272 109.528C36.4752 109.311 36.6167 109.085 36.8517 108.85C37.0867 108.615 37.3566 108.427 37.6615 108.286C37.9664 108.145 38.2806 108.06 38.6041 108.031C38.9342 108 39.2497 108.027 39.5507 108.112C39.8443 108.195 40.0569 108.315 40.1887 108.472C40.3205 108.63 40.3636 108.809 40.3182 109.009C40.2792 109.207 40.1561 109.41 39.9487 109.617ZM39.497 109.388C39.6407 109.245 39.7205 109.109 39.7362 108.983C39.7547 108.853 39.715 108.741 39.617 108.646C39.5255 108.549 39.3895 108.476 39.2089 108.425C38.9492 108.351 38.6664 108.35 38.3603 108.419C38.0581 108.49 37.786 108.629 37.544 108.838L39.497 109.388ZM40.5912 109.899C40.8234 109.667 41.0906 109.482 41.3927 109.344C41.6976 109.203 42.0094 109.115 42.3282 109.081C42.6507 109.048 42.9512 109.071 43.2297 109.149C43.4705 109.217 43.6529 109.322 43.777 109.463C43.9037 109.602 43.9554 109.753 43.9318 109.916L45.1344 108.714L45.6537 108.86L42.585 111.929L42.0657 111.782L42.4928 111.355C42.2557 111.462 41.9933 111.531 41.7054 111.564C41.4202 111.593 41.1441 111.57 40.8769 111.495C40.6022 111.417 40.4017 111.297 40.2755 111.134C40.153 110.972 40.1176 110.783 40.1694 110.567C40.2211 110.351 40.3617 110.129 40.5912 109.899ZM43.2061 110.642C43.3775 110.47 43.4797 110.308 43.5128 110.154C43.5459 110.001 43.5147 109.868 43.4193 109.756C43.3304 109.642 43.1899 109.558 42.998 109.504C42.8061 109.45 42.598 109.434 42.3736 109.455C42.1492 109.477 41.9264 109.538 41.7051 109.639C41.4839 109.74 41.2875 109.876 41.1161 110.047C40.942 110.221 40.837 110.387 40.8011 110.543C40.768 110.697 40.7959 110.83 40.8848 110.944C40.9765 111.055 41.1183 111.138 41.3102 111.192C41.5022 111.246 41.7103 111.262 41.9347 111.24C42.1656 111.217 42.3917 111.155 42.6129 111.054C42.837 110.951 43.0347 110.813 43.2061 110.642Z" fill="#6E7191"/>
<path d="M45.6119 76.9455L46.9892 77.334L46.6823 77.6408L44.7914 77.1076L47.6818 74.2172L48.1955 74.362L45.6119 76.9455ZM48.7747 78.2788C48.4849 78.1971 48.2699 78.0744 48.1296 77.9108C47.9931 77.7482 47.9455 77.5594 47.987 77.3442C48.035 77.1274 48.1765 76.9015 48.4115 76.6665C48.6437 76.4343 48.916 76.2488 49.2284 76.1101C49.5473 75.9696 49.8723 75.8858 50.2034 75.8587C50.5372 75.8288 50.8509 75.8552 51.1444 75.938C51.4379 76.0208 51.6548 76.144 51.7951 76.3076C51.9382 76.4685 51.989 76.6565 51.9475 76.8716C51.9098 77.0878 51.7735 77.3134 51.5385 77.5484C51.3035 77.7834 51.0246 77.9706 50.7019 78.1099C50.3858 78.2476 50.0589 78.3309 49.7213 78.3597C49.3837 78.3885 49.0682 78.3616 48.7747 78.2788ZM49.1064 77.947C49.2908 77.999 49.4957 78.0161 49.7211 77.9981C49.9465 77.9802 50.1717 77.9214 50.3967 77.8218C50.6255 77.7233 50.8311 77.5828 51.0135 77.4003C51.196 77.2179 51.3019 77.0493 51.3312 76.8945C51.3606 76.7397 51.3266 76.6097 51.2294 76.5043C51.1349 76.3961 50.9955 76.316 50.8111 76.264C50.623 76.211 50.4181 76.1939 50.1965 76.213C49.9814 76.2303 49.7632 76.2892 49.542 76.3899C49.3207 76.4905 49.1189 76.6321 48.9364 76.8145C48.7512 76.9998 48.6401 77.1687 48.6033 77.3213C48.5702 77.475 48.599 77.6054 48.6897 77.7125C48.7831 77.8169 48.922 77.895 49.1064 77.947ZM52.2612 77.7469C52.4935 77.5147 52.7606 77.3295 53.0627 77.1914C53.3676 77.0506 53.6794 76.9631 53.9982 76.929C54.3208 76.8959 54.6194 76.9181 54.8941 76.9955C55.165 77.0719 55.3573 77.1811 55.4711 77.3231C55.5848 77.465 55.6256 77.6148 55.5935 77.7723L56.0082 77.3576L56.5275 77.5041L54.255 79.7766L53.7357 79.6301L54.1587 79.2071C53.9244 79.3112 53.6614 79.3788 53.3697 79.4099C53.0846 79.4394 52.8084 79.4164 52.5413 79.3411C52.2666 79.2636 52.068 79.1438 51.9455 78.9817C51.823 78.8195 51.7876 78.6306 51.8394 78.4148C51.8912 78.199 52.0318 77.9764 52.2612 77.7469ZM54.8761 78.4897C55.0475 78.3183 55.1498 78.1557 55.1829 78.002C55.216 77.8483 55.1848 77.7155 55.0893 77.6035C55.0004 77.4898 54.86 77.4059 54.6681 77.3518C54.4761 77.2977 54.268 77.2815 54.0436 77.3033C53.8192 77.325 53.5964 77.3863 53.3751 77.4869C53.1539 77.5875 52.9576 77.7236 52.7862 77.895C52.612 78.0691 52.507 78.2345 52.4711 78.3909C52.438 78.5446 52.4659 78.6783 52.5549 78.792C52.6466 78.9029 52.7884 78.9855 52.9803 79.0396C53.1722 79.0937 53.3803 79.1099 53.6047 79.0881C53.8356 79.0646 54.0617 79.0026 54.283 78.9019C54.507 78.7985 54.7047 78.6611 54.8761 78.4897ZM56.3108 78.889C56.543 78.6568 56.8102 78.4716 57.1123 78.3335C57.4172 78.1927 57.729 78.1052 58.0478 78.071C58.3703 78.038 58.6708 78.0607 58.9493 78.1392C59.1901 78.2071 59.3725 78.3118 59.4966 78.4531C59.6233 78.5916 59.675 78.7426 59.6514 78.9061L60.854 77.7035L61.3733 77.8499L58.3046 80.9186L57.7853 80.7722L58.2124 80.3451C57.9753 80.4519 57.7129 80.5214 57.425 80.5536C57.1398 80.5831 56.8637 80.5601 56.5965 80.4848C56.3218 80.4073 56.1213 80.287 55.9951 80.1238C55.8726 79.9616 55.8372 79.7727 55.889 79.5569C55.9407 79.3411 56.0813 79.1185 56.3108 78.889ZM58.9257 79.6318C59.0971 79.4604 59.1993 79.2978 59.2324 79.1441C59.2655 78.9904 59.2343 78.8576 59.1389 78.7456C59.05 78.6319 58.9095 78.548 58.7176 78.4939C58.5257 78.4398 58.3176 78.4236 58.0932 78.4454C57.8688 78.4671 57.646 78.5284 57.4247 78.629C57.2035 78.7296 57.0071 78.8657 56.8357 79.0371C56.6616 79.2112 56.5566 79.3765 56.5207 79.533C56.4876 79.6867 56.5155 79.8204 56.6044 79.9341C56.6961 80.045 56.8379 80.1276 57.0298 80.1817C57.2218 80.2358 57.4299 80.252 57.6543 80.2302C57.8852 80.2067 58.1113 80.1447 58.3325 80.044C58.5566 79.9406 58.7543 79.8032 58.9257 79.6318ZM62.3146 78.663C62.2168 78.6354 62.1589 78.5872 62.1409 78.5183C62.1229 78.4495 62.1499 78.3791 62.2218 78.3072C62.2936 78.2353 62.3883 78.1841 62.5058 78.1534C62.6233 78.1228 62.731 78.1212 62.8288 78.1488C62.9229 78.1753 62.977 78.2225 62.9912 78.2903C63.0092 78.3592 62.9823 78.4296 62.9104 78.5014C62.8385 78.5733 62.7438 78.6246 62.6263 78.6552C62.5126 78.687 62.4087 78.6896 62.3146 78.663ZM62.1939 79.1021L59.9214 81.3746L59.4077 81.2298L61.6802 78.9573L62.1939 79.1021ZM64.853 79.7989C65.2293 79.9051 65.4498 80.0753 65.5144 80.3098C65.5819 80.5415 65.458 80.8149 65.1428 81.13L63.8034 82.4695L63.2954 82.3262L64.5809 81.0407C64.8076 80.814 64.9033 80.6194 64.8679 80.457C64.8352 80.2919 64.6853 80.1716 64.4182 80.0963C64.1472 80.0199 63.8687 80.0211 63.5824 80.0998C63.3 80.1797 63.0399 80.3385 62.8021 80.5762L61.5456 81.8327L61.032 81.6879L63.3045 79.4154L63.8181 79.5602L63.4947 79.8837C63.7124 79.7962 63.9396 79.7451 64.1763 79.7303C64.4167 79.7166 64.6423 79.7395 64.853 79.7989ZM68.4631 80.8224C68.7302 80.8977 68.9207 81.0064 69.0344 81.1483C69.1519 81.2913 69.1946 81.4416 69.1625 81.5991L69.5772 81.1845L70.0965 81.3309L67.7742 83.6532C67.5669 83.8605 67.3228 84.0274 67.0421 84.1538C66.7585 84.2829 66.4583 84.3613 66.1413 84.3888C65.828 84.4174 65.5228 84.3898 65.2255 84.306C64.8191 84.1914 64.5509 84.0254 64.421 83.808C64.2911 83.5906 64.3233 83.3533 64.5176 83.0962L65.0256 83.2395C64.9438 83.3937 64.9499 83.5371 65.0438 83.67C65.135 83.8055 65.3047 83.9083 65.5531 83.9784C65.8353 84.058 66.1298 84.0578 66.4366 83.9777C66.7472 83.8987 67.02 83.7417 67.2549 83.5067L67.7318 83.0298C67.4975 83.1339 67.2364 83.202 66.9485 83.2342C66.6606 83.2664 66.3831 83.2449 66.1159 83.1695C65.8412 83.0921 65.6408 82.9717 65.5145 82.8085C65.392 82.6464 65.3567 82.4574 65.4084 82.2416C65.4602 82.0259 65.6008 81.8032 65.8302 81.5738C66.0625 81.3415 66.3296 81.1564 66.6317 81.0183C66.9366 80.8775 67.2484 80.79 67.5672 80.7558C67.8898 80.7227 68.1884 80.7449 68.4631 80.8224ZM68.4451 82.3166C68.6165 82.1452 68.7188 81.9826 68.7519 81.8289C68.785 81.6752 68.7538 81.5423 68.6583 81.4304C68.5694 81.3167 68.429 81.2328 68.2371 81.1786C68.0452 81.1245 67.837 81.1083 67.6126 81.1301C67.3882 81.1519 67.1654 81.2131 66.9441 81.3138C66.7229 81.4144 66.5266 81.5504 66.3552 81.7218C66.181 81.896 66.076 82.0613 66.0401 82.2178C66.007 82.3715 66.0349 82.5052 66.1239 82.6189C66.2156 82.7298 66.3574 82.8123 66.5493 82.8664C66.7412 82.9206 66.9493 82.9367 67.1737 82.915C67.4047 82.8915 67.6307 82.8294 67.852 82.7288C68.076 82.6254 68.2737 82.488 68.4451 82.3166Z" fill="#6E7191"/>
<path d="M74.2538 50.6265L72.5379 50.1426L71.579 50.6962L71.0372 50.5434L75.3334 48.0707L75.926 48.2379L74.469 51.5112L73.9271 51.3584L74.2538 50.6265ZM74.4139 50.2782L75.1624 48.618L72.9915 49.8771L74.4139 50.2782ZM76.2726 50.5579C76.5075 50.3229 76.7761 50.1364 77.0782 49.9983C77.3831 49.8574 77.6968 49.7704 78.0193 49.7374C78.3456 49.7053 78.6555 49.7307 78.949 49.8135C79.3291 49.9207 79.5737 50.0765 79.6828 50.2809C79.7957 50.4865 79.7714 50.7206 79.6099 50.9834L79.0567 50.8274C79.1423 50.6743 79.148 50.5359 79.0739 50.4123C79.0036 50.2896 78.8555 50.1965 78.6297 50.1328C78.3362 50.05 78.0245 50.0578 77.6946 50.1562C77.3675 50.2517 77.0684 50.435 76.7975 50.7059C76.5238 50.9796 76.4026 51.2166 76.4339 51.4168C76.4653 51.617 76.6277 51.7585 76.9212 51.8413C77.147 51.905 77.3738 51.9194 77.6018 51.8844C77.8297 51.8494 78.0437 51.768 78.244 51.6402L78.7971 51.7962C78.4821 52.0051 78.1299 52.145 77.7406 52.216C77.354 52.2841 76.9744 52.2657 76.6019 52.1606C76.3084 52.0779 76.0952 51.9557 75.9625 51.7942C75.8334 51.6338 75.7934 51.4471 75.8424 51.234C75.8914 51.021 76.0348 50.7956 76.2726 50.5579ZM81.5758 51.0009L80.2364 52.3403C80.1258 52.4509 80.079 52.5387 80.0959 52.6038C80.1157 52.6661 80.2046 52.7195 80.3626 52.7641L80.7408 52.8707L80.4215 53.19L79.9586 53.0595C79.6726 52.9788 79.5065 52.87 79.4603 52.7329C79.4141 52.5958 79.5015 52.4167 79.7227 52.1955L81.0622 50.856L80.6614 50.743L80.9724 50.432L81.3732 50.545L81.9454 49.9727L82.4591 50.1176L81.8868 50.6899L82.694 50.9175L82.383 51.2285L81.5758 51.0009ZM84.1859 50.8651C84.088 50.8375 84.0301 50.7893 84.0121 50.7204C83.9942 50.6516 84.0211 50.5812 84.093 50.5093C84.1649 50.4374 84.2596 50.3862 84.3771 50.3555C84.4946 50.3248 84.6022 50.3233 84.7001 50.3509C84.7941 50.3774 84.8483 50.4246 84.8625 50.4924C84.8805 50.5613 84.8535 50.6316 84.7816 50.7035C84.7097 50.7754 84.6151 50.8267 84.4976 50.8573C84.3838 50.889 84.2799 50.8916 84.1859 50.8651ZM84.0651 51.3042L81.7926 53.5767L81.279 53.4319L83.5515 51.1594L84.0651 51.3042ZM84.403 53.8664L87.2867 52.2128L87.8343 52.3672L84.3482 54.2975L83.7499 54.1287L84.8088 51.514L85.362 51.67L84.403 53.8664ZM90.3479 54.4212C90.276 54.4931 90.1944 54.5675 90.1029 54.6445L87.6307 53.9473C87.4255 54.1765 87.3535 54.3812 87.4144 54.5615C87.4819 54.74 87.6512 54.8675 87.9221 54.9439C88.1441 55.0065 88.3658 55.0212 88.5872 54.9879C88.8151 54.953 89.0228 54.8804 89.2102 54.7702L89.7633 54.9262C89.4621 55.1213 89.1182 55.2529 88.7317 55.3211C88.3478 55.3865 87.9715 55.3672 87.6028 55.2632C87.3093 55.1804 87.0942 55.0578 86.9577 54.8952C86.8249 54.7337 86.7812 54.5459 86.8264 54.3318C86.8744 54.115 87.0159 53.8891 87.2509 53.6541C87.4859 53.4191 87.7558 53.2312 88.0607 53.0903C88.3655 52.9495 88.6797 52.8644 89.0033 52.8352C89.3333 52.8042 89.6489 52.8312 89.9499 52.9161C90.2434 52.9988 90.4561 53.1191 90.5879 53.2767C90.7196 53.4344 90.7628 53.6132 90.7173 53.813C90.6784 54.0111 90.5553 54.2139 90.3479 54.4212ZM89.8961 54.1928C90.0399 54.049 90.1196 53.9138 90.1354 53.7871C90.1539 53.6576 90.1142 53.5454 90.0162 53.4504C89.9247 53.3538 89.7887 53.2799 89.608 53.229C89.3484 53.1558 89.0656 53.154 88.7595 53.2236C88.4573 53.2943 88.1851 53.4338 87.9432 53.642L89.8961 54.1928Z" fill="#6E7191"/>
<path d="M102.894 21.8561L102.587 22.163L100.877 21.6806L99.9022 22.6551L101.291 23.0467L100.984 23.3536L99.5954 22.962L98.2932 24.2641L97.7796 24.1193L100.67 21.2289L102.894 21.8561ZM102.171 25.4055C101.881 25.3238 101.666 25.2012 101.526 25.0375C101.389 24.875 101.342 24.6861 101.383 24.471C101.431 24.2542 101.573 24.0282 101.808 23.7932C102.04 23.561 102.312 23.3755 102.624 23.2368C102.943 23.0964 103.268 23.0126 103.599 22.9855C103.933 22.9556 104.247 22.982 104.54 23.0648C104.834 23.1476 105.051 23.2708 105.191 23.4344C105.334 23.5952 105.385 23.7832 105.344 23.9984C105.306 24.2146 105.17 24.4402 104.935 24.6752C104.7 24.9101 104.421 25.0973 104.098 25.2367C103.782 25.3744 103.455 25.4576 103.117 25.4865C102.78 25.5153 102.464 25.4883 102.171 25.4055ZM102.502 25.0738C102.687 25.1258 102.892 25.1428 103.117 25.1249C103.343 25.1069 103.568 25.0482 103.793 24.9486C104.022 24.8501 104.227 24.7096 104.41 24.5271C104.592 24.3446 104.698 24.176 104.727 24.0213C104.757 23.8665 104.723 23.7364 104.625 23.631C104.531 23.5229 104.392 23.4428 104.207 23.3908C104.019 23.3377 103.814 23.3207 103.593 23.3397C103.377 23.357 103.159 23.416 102.938 23.5166C102.717 23.6173 102.515 23.7588 102.332 23.9413C102.147 24.1265 102.036 24.2955 101.999 24.4481C101.966 24.6018 101.995 24.7322 102.086 24.8393C102.179 24.9436 102.318 25.0218 102.502 25.0738ZM105.653 24.8778C105.888 24.6428 106.157 24.4563 106.459 24.3182C106.764 24.1774 107.077 24.0904 107.4 24.0573C107.726 24.0253 108.036 24.0507 108.33 24.1334C108.71 24.2406 108.954 24.3964 109.063 24.6009C109.176 24.8064 109.152 25.0405 108.99 25.3034L108.437 25.1474C108.523 24.9943 108.529 24.8559 108.454 24.7322C108.384 24.6096 108.236 24.5164 108.01 24.4527C107.717 24.37 107.405 24.3777 107.075 24.4761C106.748 24.5717 106.449 24.7549 106.178 25.0259C105.904 25.2996 105.783 25.5365 105.815 25.7368C105.846 25.937 106.008 26.0785 106.302 26.1613C106.528 26.2249 106.754 26.2393 106.982 26.2043C107.21 26.1694 107.424 26.088 107.625 25.9601L108.178 26.1161C107.863 26.325 107.511 26.4649 107.121 26.5359C106.735 26.6041 106.355 26.5856 105.982 26.4806C105.689 26.3978 105.476 26.2757 105.343 26.1142C105.214 25.9537 105.174 25.767 105.223 25.554C105.272 25.341 105.415 25.1156 105.653 24.8778ZM113.384 25.6068L111.112 27.8793L110.598 27.7344L110.934 27.3985C110.72 27.487 110.491 27.5395 110.248 27.556C110.011 27.5708 109.788 27.5484 109.577 27.489C109.336 27.4211 109.156 27.3241 109.036 27.1981C108.918 27.0694 108.877 26.9158 108.91 26.7374C108.948 26.5601 109.071 26.3664 109.282 26.1563L110.613 24.8252L111.121 24.9684L109.839 26.2498C109.615 26.4738 109.52 26.6683 109.552 26.8335C109.588 26.9958 109.739 27.1147 110.006 27.1901C110.281 27.2675 110.559 27.2664 110.842 27.1865C111.124 27.1067 111.384 26.9479 111.622 26.7101L112.87 25.4619L113.384 25.6068ZM113.272 28.5363C113.035 28.4695 112.851 28.3805 112.721 28.2694C112.594 28.1555 112.528 28.0306 112.524 27.8948C112.523 27.7562 112.585 27.6162 112.712 27.4748L113.243 27.6244C113.145 27.742 113.123 27.8548 113.18 27.9628C113.239 28.0718 113.375 28.156 113.585 28.2154C113.781 28.2706 113.967 28.2823 114.144 28.2506C114.32 28.2189 114.457 28.1546 114.553 28.0578C114.653 27.9583 114.666 27.8681 114.593 27.7871C114.522 27.7034 114.384 27.6025 114.179 27.4844C113.994 27.3754 113.85 27.2781 113.747 27.1925C113.651 27.1052 113.595 27.0024 113.578 26.8842C113.568 26.7643 113.636 26.6311 113.782 26.4846C113.898 26.3685 114.052 26.2753 114.243 26.2051C114.433 26.1349 114.643 26.0965 114.871 26.09C115.103 26.0808 115.329 26.1075 115.551 26.1701C115.894 26.2667 116.107 26.4083 116.19 26.5949C116.274 26.7815 116.212 26.9875 116.006 27.2129L115.493 27.068C115.6 26.946 115.63 26.832 115.581 26.7262C115.536 26.6214 115.414 26.5409 115.215 26.4846C115.03 26.4326 114.855 26.4203 114.688 26.4476C114.52 26.4748 114.39 26.5355 114.296 26.6295C114.221 26.7041 114.191 26.7753 114.205 26.8431C114.226 26.9092 114.27 26.9713 114.337 27.0293C114.411 27.0856 114.519 27.1567 114.66 27.2425C114.837 27.3493 114.974 27.4445 115.069 27.528C115.167 27.6087 115.222 27.7057 115.234 27.819C115.25 27.9334 115.19 28.0602 115.056 28.1995C114.931 28.3239 114.772 28.4226 114.579 28.4956C114.385 28.5686 114.173 28.6097 113.942 28.619C113.717 28.6265 113.494 28.599 113.272 28.5363Z" fill="#6E7191"/>
<path d="M130.656 -4.87037L127.765 -1.97998L127.252 -2.12485L128.562 -3.43527L126.558 -4.00039L125.248 -2.68997L124.734 -2.83483L127.625 -5.72522L128.138 -5.58035L126.87 -4.3114L128.873 -3.74628L130.142 -5.01523L130.656 -4.87037ZM130.189 -1.24852C129.9 -1.33024 129.685 -1.4529 129.544 -1.61653C129.408 -1.77908 129.36 -1.96793 129.402 -2.18307C129.45 -2.39992 129.591 -2.62583 129.826 -2.86082C130.058 -3.09305 130.331 -3.27853 130.643 -3.41726C130.962 -3.55769 131.287 -3.64147 131.618 -3.66861C131.952 -3.69851 132.266 -3.67207 132.559 -3.5893C132.853 -3.50652 133.07 -3.38332 133.21 -3.2197C133.353 -3.05884 133.404 -2.87084 133.362 -2.6557C133.325 -2.4395 133.188 -2.21391 132.953 -1.97892C132.718 -1.74393 132.439 -1.55675 132.117 -1.41737C131.801 -1.27971 131.474 -1.19645 131.136 -1.16761C130.798 -1.13877 130.483 -1.16574 130.189 -1.24852ZM130.521 -1.58027C130.706 -1.52827 130.91 -1.51124 131.136 -1.5292C131.361 -1.54715 131.586 -1.60591 131.811 -1.70549C132.04 -1.80401 132.246 -1.9445 132.428 -2.12696C132.611 -2.30943 132.717 -2.47804 132.746 -2.6328C132.775 -2.78757 132.741 -2.91765 132.644 -3.02304C132.55 -3.1312 132.41 -3.21128 132.226 -3.26328C132.038 -3.31635 131.833 -3.33337 131.611 -3.31436C131.396 -3.29705 131.178 -3.23807 130.957 -3.13743C130.735 -3.03679 130.534 -2.89524 130.351 -2.71278C130.166 -2.52755 130.055 -2.35861 130.018 -2.20597C129.985 -2.05227 130.014 -1.92187 130.104 -1.81477C130.198 -1.71044 130.337 -1.63227 130.521 -1.58027ZM134.223 -0.605319L137.107 -2.25886L137.654 -2.10444L134.168 -0.174201L133.57 -0.342941L134.629 -2.9577L135.182 -2.80169L134.223 -0.605319ZM140.168 -0.0504574C140.096 0.0214222 140.014 0.0958567 139.923 0.172846L137.451 -0.524401C137.246 -0.295162 137.174 -0.0904259 137.235 0.0898086C137.302 0.26834 137.471 0.395811 137.742 0.472221C137.964 0.534836 138.186 0.549515 138.407 0.51626C138.635 0.481302 138.843 0.408727 139.03 0.298536L139.583 0.454541C139.282 0.649596 138.938 0.781218 138.552 0.849404C138.168 0.914827 137.792 0.895536 137.423 0.791532C137.129 0.708754 136.914 0.586086 136.778 0.423527C136.645 0.262029 136.601 0.0742407 136.646 -0.139838C136.694 -0.356681 136.836 -0.582597 137.071 -0.817588C137.306 -1.05258 137.576 -1.2405 137.881 -1.38135C138.186 -1.5222 138.5 -1.60726 138.823 -1.63652C139.153 -1.66748 139.469 -1.64051 139.77 -1.55561C140.064 -1.47283 140.276 -1.35261 140.408 -1.19494C140.54 -1.03726 140.583 -0.85851 140.537 -0.658674C140.499 -0.460541 140.375 -0.257802 140.168 -0.0504574ZM139.716 -0.278886C139.86 -0.422645 139.94 -0.557874 139.955 -0.684573C139.974 -0.814037 139.934 -0.926258 139.836 -1.02124C139.745 -1.11792 139.609 -1.19173 139.428 -1.24267C139.168 -1.31589 138.886 -1.31769 138.58 -1.24805C138.277 -1.17735 138.005 -1.03789 137.763 -0.82968L139.716 -0.278886ZM142.275 -0.328144C142.495 -0.43261 142.724 -0.497435 142.961 -0.522619C143.203 -0.546742 143.444 -0.524843 143.685 -0.456923L143.295 -0.0671144L143.159 -0.10532C142.584 -0.267693 142.066 -0.119417 141.607 0.339506L140.371 1.57528L139.858 1.43042L142.13 -0.84208L142.644 -0.697218L142.275 -0.328144Z" fill="#6E7191"/>
<g opacity="0.5">
<path d="M86.4783 120.896C90.5499 116.824 98.3432 114.79 103.885 116.353L146.532 128.381C152.074 129.944 153.266 134.512 149.194 138.583C145.122 142.655 137.329 144.689 131.787 143.126L89.1406 131.098C83.5987 129.535 82.4067 124.967 86.4783 120.896Z" fill="#5F2EEA"/>
<path d="M111.314 127.636C111.484 127.718 111.574 127.836 111.583 127.99C111.592 128.144 111.521 128.297 111.368 128.45C111.231 128.587 111.062 128.696 110.863 128.775C110.669 128.853 110.456 128.896 110.223 128.906C109.99 128.916 109.755 128.888 109.518 128.821L108.007 128.395L110.58 125.822L112.025 126.229C112.263 126.296 112.439 126.382 112.553 126.487C112.67 126.592 112.722 126.708 112.708 126.833C112.698 126.959 112.629 127.086 112.501 127.214C112.351 127.364 112.17 127.474 111.959 127.543C111.751 127.614 111.536 127.645 111.314 127.636ZM110.221 127.082L110.863 127.263C111.031 127.31 111.186 127.319 111.331 127.291C111.478 127.26 111.603 127.192 111.706 127.089C111.809 126.986 111.844 126.893 111.81 126.811C111.776 126.729 111.676 126.665 111.508 126.618L110.866 126.437L110.221 127.082ZM109.838 128.372C110.008 128.42 110.17 128.428 110.322 128.396C110.478 128.364 110.61 128.294 110.718 128.186C110.829 128.075 110.865 127.975 110.826 127.885C110.79 127.793 110.686 127.723 110.515 127.675L109.823 127.48L109.13 128.173L109.838 128.372ZM116.133 128.068L114.091 130.11L113.383 129.911L113.641 129.653C113.462 129.716 113.274 129.752 113.075 129.763C112.882 129.771 112.7 129.751 112.53 129.703C112.312 129.642 112.153 129.555 112.052 129.441C111.954 129.325 111.921 129.188 111.954 129.031C111.993 128.872 112.104 128.701 112.286 128.519L113.484 127.321L114.186 127.519L113.062 128.644C112.9 128.806 112.829 128.947 112.851 129.066C112.876 129.183 112.983 129.269 113.174 129.323C113.368 129.377 113.563 129.377 113.759 129.322C113.958 129.265 114.139 129.155 114.301 128.993L115.425 127.869L116.133 128.068ZM117.455 128.985L116.467 129.973C116.398 130.041 116.37 130.098 116.381 130.142C116.398 130.185 116.461 130.221 116.568 130.251L116.894 130.343L116.459 130.778L116.017 130.654C115.425 130.487 115.341 130.192 115.763 129.769L116.747 128.785L116.416 128.692L116.84 128.268L117.171 128.361L117.676 127.856L118.384 128.056L117.879 128.561L118.501 128.736L118.077 129.16L117.455 128.985ZM119.635 129.6L118.647 130.588C118.579 130.656 118.55 130.713 118.561 130.757C118.579 130.8 118.641 130.836 118.748 130.866L119.074 130.958L118.639 131.393L118.198 131.269C117.606 131.102 117.521 130.807 117.944 130.384L118.928 129.4L118.597 129.307L119.021 128.883L119.352 128.976L119.857 128.471L120.564 128.671L120.059 129.176L120.681 129.351L120.257 129.775L119.635 129.6ZM120.581 131.983C120.313 131.908 120.115 131.797 119.987 131.651C119.862 131.502 119.817 131.33 119.853 131.135C119.892 130.942 120.016 130.74 120.225 130.532C120.434 130.323 120.68 130.156 120.964 130.031C121.25 129.907 121.546 129.833 121.849 129.808C122.155 129.781 122.442 129.805 122.709 129.881C122.977 129.956 123.175 130.069 123.304 130.218C123.435 130.366 123.483 130.537 123.447 130.731C123.414 130.927 123.294 131.129 123.085 131.338C122.876 131.547 122.626 131.713 122.336 131.836C122.049 131.96 121.751 132.035 121.442 132.061C121.139 132.086 120.852 132.06 120.581 131.983ZM121.03 131.534C121.157 131.57 121.298 131.581 121.453 131.568C121.613 131.553 121.772 131.51 121.93 131.438C122.088 131.366 122.232 131.265 122.362 131.134C122.556 130.94 122.635 130.772 122.598 130.629C122.566 130.485 122.45 130.384 122.249 130.327C122.049 130.271 121.827 130.276 121.584 130.343C121.347 130.409 121.132 130.538 120.937 130.732C120.743 130.927 120.659 131.095 120.683 131.237C120.714 131.378 120.83 131.477 121.03 131.534ZM126.426 130.934C126.757 131.027 126.947 131.18 126.997 131.392C127.048 131.602 126.937 131.845 126.661 132.12L125.463 133.318L124.761 133.12L125.889 131.992C126.051 131.83 126.12 131.69 126.096 131.573C126.074 131.453 125.967 131.367 125.777 131.313C125.583 131.258 125.385 131.259 125.182 131.315C124.986 131.37 124.807 131.479 124.645 131.641L123.517 132.769L122.814 132.571L124.856 130.529L125.559 130.727L125.304 130.981C125.487 130.919 125.674 130.884 125.867 130.875C126.066 130.865 126.252 130.885 126.426 130.934Z" fill="#F7F7FC"/>
</g>
<path d="M114.125 93.2492C118.196 89.1776 125.989 87.144 131.531 88.707L174.178 100.735C179.72 102.298 180.912 106.865 176.84 110.937C172.769 115.008 164.975 117.042 159.433 115.479L116.787 103.452C111.245 101.889 110.053 97.3208 114.125 93.2492Z" fill="#5F2EEA"/>
<path d="M147.402 100.173C146.885 100.028 146.268 99.9976 145.627 100.087C144.986 100.177 144.351 100.383 143.803 100.678C143.254 100.973 142.816 101.344 142.545 101.745C142.273 102.146 142.18 102.558 142.277 102.93C142.374 103.301 142.657 103.615 143.09 103.832C143.522 104.049 144.086 104.16 144.709 104.149C145.331 104.138 145.986 104.007 146.589 103.773C147.191 103.538 147.716 103.21 148.096 102.83" stroke="#FCFCFC" stroke-width="0.977433" stroke-linecap="round" stroke-linejoin="round"/>
<path d="M140.619 66.7551C144.691 62.6835 152.484 60.6499 158.026 62.2128L200.672 74.2404C206.214 75.8034 207.406 80.3711 203.335 84.4427C199.263 88.5143 191.47 90.5479 185.928 88.985L143.281 76.9574C137.739 75.3944 136.547 70.8267 140.619 66.7551Z" fill="#5F2EEA"/>
<path d="M165.455 73.4949C165.625 73.5776 165.715 73.6959 165.724 73.8497C165.733 74.0035 165.661 74.1565 165.509 74.3089C165.371 74.4465 165.203 74.555 165.003 74.6342C164.81 74.712 164.597 74.7558 164.364 74.7657C164.131 74.7756 163.896 74.7471 163.658 74.6801L162.148 74.2542L164.721 71.6813L166.166 72.0888C166.403 72.1558 166.579 72.2416 166.693 72.3462C166.811 72.4518 166.862 72.5672 166.849 72.6925C166.838 72.8187 166.769 72.9457 166.641 73.0735C166.491 73.2234 166.311 73.3332 166.1 73.4028C165.892 73.4734 165.677 73.5041 165.455 73.4949ZM164.362 72.941L165.004 73.1221C165.171 73.1693 165.327 73.1786 165.471 73.15C165.618 73.1189 165.743 73.0518 165.846 72.9486C165.95 72.8454 165.984 72.7528 165.951 72.6708C165.917 72.5888 165.816 72.5242 165.649 72.4771L165.007 72.2959L164.362 72.941ZM163.978 74.2316C164.149 74.2797 164.31 74.2875 164.463 74.2549C164.619 74.2233 164.751 74.1534 164.859 74.0453C164.97 73.9347 165.006 73.8346 164.967 73.7448C164.93 73.6526 164.827 73.5825 164.656 73.5344L163.964 73.3391L163.271 74.0321L163.978 74.2316ZM170.273 73.9277L168.231 75.9699L167.524 75.7703L167.782 75.5123C167.603 75.5753 167.414 75.6118 167.216 75.6219C167.023 75.6305 166.841 75.6108 166.67 75.5627C166.453 75.5013 166.294 75.4139 166.193 75.3004C166.094 75.1844 166.062 75.0476 166.095 74.89C166.134 74.7309 166.244 74.5604 166.426 74.3786L167.624 73.1806L168.327 73.3787L167.202 74.503C167.04 74.6652 166.97 74.8061 166.992 74.9257C167.016 75.0428 167.124 75.1283 167.315 75.182C167.509 75.2367 167.704 75.2367 167.9 75.1818C168.099 75.1244 168.279 75.0147 168.442 74.8525L169.566 73.7282L170.273 73.9277ZM171.596 74.8441L170.608 75.832C170.539 75.9008 170.51 75.9573 170.522 76.0015C170.539 76.0442 170.601 76.0806 170.708 76.1108L171.034 76.2028L170.599 76.6377L170.158 76.5132C169.566 76.3463 169.481 76.0514 169.904 75.6288L170.888 74.6446L170.557 74.5512L170.981 74.1273L171.312 74.2207L171.817 73.7157L172.524 73.9152L172.019 74.4202L172.642 74.5956L172.218 75.0195L171.596 74.8441ZM173.776 75.459L172.788 76.4469C172.719 76.5157 172.691 76.5722 172.702 76.6164C172.719 76.6591 172.782 76.6955 172.889 76.7257L173.215 76.8177L172.78 77.2527L172.338 77.1281C171.746 76.9612 171.662 76.6664 172.084 76.2437L173.068 75.2595L172.737 75.1661L173.161 74.7422L173.492 74.8356L173.997 74.3306L174.705 74.5301L174.2 75.0351L174.822 75.2106L174.398 75.6345L173.776 75.459ZM174.721 77.8428C174.454 77.7673 174.256 77.6564 174.128 77.51C174.002 77.3611 173.957 77.1894 173.993 76.9948C174.033 76.8011 174.157 76.5998 174.366 76.3909C174.575 76.182 174.821 76.0152 175.104 75.8903C175.391 75.7665 175.686 75.6922 175.99 75.6675C176.295 75.6403 176.582 75.6645 176.85 75.7399C177.117 75.8154 177.316 75.928 177.445 76.0778C177.576 76.2251 177.624 76.3961 177.588 76.5908C177.555 76.7863 177.434 76.9886 177.225 77.1975C177.017 77.4063 176.767 77.5722 176.477 77.6952C176.19 77.8191 175.892 77.8941 175.583 77.9203C175.279 77.945 174.992 77.9192 174.721 77.8428ZM175.171 77.393C175.298 77.4289 175.439 77.4403 175.594 77.4272C175.754 77.4125 175.913 77.3692 176.071 77.2971C176.229 77.2251 176.373 77.1239 176.503 76.9937C176.697 76.7996 176.776 76.6311 176.738 76.4882C176.707 76.3439 176.591 76.2434 176.39 76.1868C176.189 76.1302 175.968 76.1354 175.725 76.2024C175.488 76.2679 175.272 76.3977 175.078 76.5918C174.884 76.786 174.799 76.9543 174.824 77.0967C174.855 77.2377 174.97 77.3364 175.171 77.393ZM180.567 76.793C180.898 76.8864 181.088 77.0392 181.137 77.2516C181.189 77.4615 181.077 77.7041 180.802 77.9793L179.604 79.1773L178.902 78.9792L180.029 77.8512C180.192 77.689 180.261 77.5494 180.236 77.4322C180.214 77.3126 180.108 77.226 179.917 77.1722C179.723 77.1175 179.525 77.1183 179.323 77.1747C179.127 77.2296 178.947 77.3381 178.785 77.5003L177.657 78.6283L176.955 78.4302L178.997 76.388L179.699 76.5861L179.445 76.8405C179.627 76.7784 179.815 76.7431 180.008 76.7345C180.206 76.7244 180.393 76.7439 180.567 76.793Z" fill="#F7F7FC"/>
<path opacity="0.8" d="M185.441 34.7972C179.206 33.0388 170.439 35.3266 165.858 39.9072C161.278 44.4877 162.619 49.6264 168.853 51.3848L211.5 63.4124C217.735 65.1707 226.502 62.8829 231.083 58.3023C235.663 53.7218 234.322 48.5831 228.088 46.8248L185.441 34.7972Z" fill="#5F2EEA" stroke="#DED3FF" stroke-width="2.60649"/>
<path d="M167.113 40.2609C171.184 36.1893 178.978 34.1557 184.519 35.7187L227.166 47.7463C232.708 49.3093 233.9 53.877 229.828 57.9486C225.757 62.0202 217.964 64.0538 212.422 62.4908L169.775 50.4632C164.233 48.9002 163.041 44.3325 167.113 40.2609Z" fill="#5F2EEA"/>
<path d="M191.948 46.9998C192.118 47.0825 192.208 47.2007 192.217 47.3545C192.227 47.5083 192.155 47.6614 192.003 47.8138C191.865 47.9514 191.696 48.0598 191.497 48.1391C191.304 48.2168 191.09 48.2607 190.857 48.2706C190.625 48.2805 190.389 48.252 190.152 48.185L188.642 47.7591L191.215 45.1862L192.66 45.5937C192.897 45.6607 193.073 45.7465 193.187 45.8511C193.304 45.9567 193.356 46.0721 193.342 46.1974C193.332 46.3236 193.263 46.4506 193.135 46.5784C192.985 46.7283 192.805 46.8381 192.593 46.9077C192.386 46.9783 192.171 47.009 191.948 46.9998ZM190.855 46.4459L191.498 46.627C191.665 46.6742 191.821 46.6835 191.965 46.6549C192.112 46.6238 192.237 46.5567 192.34 46.4535C192.443 46.3503 192.478 46.2577 192.444 46.1757C192.41 46.0937 192.31 46.0291 192.143 45.9819L191.501 45.8008L190.855 46.4459ZM190.472 47.7365C190.642 47.7846 190.804 47.7924 190.957 47.7598C191.113 47.7282 191.245 47.6583 191.353 47.5502C191.463 47.4396 191.499 47.3394 191.46 47.2497C191.424 47.1575 191.32 47.0874 191.15 47.0393L190.457 46.844L189.764 47.537L190.472 47.7365ZM196.767 47.4326L194.725 49.4747L194.017 49.2752L194.275 49.0172C194.097 49.0802 193.908 49.1167 193.709 49.1268C193.516 49.1354 193.334 49.1157 193.164 49.0675C192.946 49.0062 192.787 48.9188 192.686 48.8053C192.588 48.6893 192.555 48.5525 192.589 48.3949C192.628 48.2358 192.738 48.0653 192.92 47.8835L194.118 46.6855L194.82 46.8836L193.696 48.0079C193.534 48.1701 193.464 48.3109 193.486 48.4305C193.51 48.5477 193.618 48.6331 193.808 48.6869C194.002 48.7416 194.197 48.7415 194.394 48.6867C194.593 48.6293 194.773 48.5196 194.935 48.3574L196.06 47.2331L196.767 47.4326ZM198.089 48.349L197.101 49.3368C197.032 49.4056 197.004 49.4622 197.015 49.5064C197.033 49.5491 197.095 49.5855 197.202 49.6157L197.528 49.7077L197.093 50.1426L196.652 50.0181C196.06 49.8511 195.975 49.5563 196.398 49.1336L197.382 48.1494L197.051 48.056L197.474 47.6321L197.806 47.7255L198.311 47.2205L199.018 47.4201L198.513 47.9251L199.135 48.1005L198.711 48.5244L198.089 48.349ZM200.27 48.9639L199.282 49.9518C199.213 50.0206 199.184 50.0771 199.196 50.1213C199.213 50.164 199.275 50.2004 199.382 50.2306L199.708 50.3226L199.273 50.7576L198.832 50.633C198.24 50.4661 198.155 50.1712 198.578 49.7486L199.562 48.7644L199.231 48.671L199.655 48.2471L199.986 48.3405L200.491 47.8355L201.198 48.035L200.693 48.54L201.316 48.7154L200.892 49.1393L200.27 48.9639ZM201.215 51.3476C200.947 51.2722 200.749 51.1612 200.621 51.0149C200.496 50.866 200.451 50.6943 200.487 50.4996C200.526 50.3059 200.65 50.1047 200.859 49.8958C201.068 49.6869 201.314 49.52 201.598 49.3952C201.885 49.2713 202.18 49.197 202.483 49.1724C202.789 49.1452 203.076 49.1694 203.343 49.2448C203.611 49.3203 203.809 49.4329 203.938 49.5827C204.07 49.73 204.117 49.901 204.081 50.0956C204.049 50.2912 203.928 50.4935 203.719 50.7023C203.51 50.9112 203.261 51.0771 202.971 51.2001C202.684 51.324 202.386 51.399 202.076 51.4252C201.773 51.4499 201.486 51.424 201.215 51.3476ZM201.665 50.8979C201.792 50.9338 201.933 50.9451 202.087 50.932C202.248 50.9174 202.407 50.8741 202.565 50.802C202.722 50.73 202.866 50.6288 202.997 50.4986C203.191 50.3044 203.269 50.136 203.232 49.9931C203.2 49.8488 203.084 49.7483 202.884 49.6917C202.683 49.6351 202.461 49.6403 202.218 49.7073C201.981 49.7728 201.766 49.9026 201.572 50.0967C201.378 50.2909 201.293 50.4591 201.318 50.6016C201.348 50.7426 201.464 50.8413 201.665 50.8979ZM207.06 50.2978C207.392 50.3912 207.582 50.5441 207.631 50.7565C207.683 50.9664 207.571 51.2089 207.296 51.4842L206.098 52.6822L205.395 52.4841L206.523 51.3561C206.685 51.1939 206.754 51.0543 206.73 50.9371C206.708 50.8175 206.602 50.7308 206.411 50.6771C206.217 50.6224 206.019 50.6232 205.817 50.6796C205.62 50.7345 205.441 50.843 205.279 51.0052L204.151 52.1331L203.448 51.935L205.491 49.8929L206.193 50.091L205.939 50.3454C206.121 50.2833 206.308 50.248 206.501 50.2394C206.7 50.2293 206.886 50.2488 207.06 50.2978Z" fill="#F7F7FC"/>
<g filter="url(#filter2_d_2754_700)">
<path d="M194.067 13.3059C198.139 9.23427 205.932 7.20064 211.474 8.76362L254.121 20.7912C259.663 22.3542 260.855 26.9219 256.783 30.9935C252.712 35.0651 244.918 37.0987 239.376 35.5357L196.73 23.5081C191.188 21.9452 189.996 17.3774 194.067 13.3059Z" fill="#007AFE"/>
<path d="M218.903 20.0457C219.073 20.1284 219.163 20.2466 219.172 20.4004C219.181 20.5542 219.11 20.7073 218.957 20.8597C218.82 20.9973 218.651 21.1057 218.452 21.185C218.259 21.2627 218.045 21.3066 217.812 21.3165C217.579 21.3264 217.344 21.2979 217.107 21.2309L215.597 20.805L218.17 18.2321L219.614 18.6396C219.852 18.7066 220.028 18.7924 220.142 18.897C220.259 19.0026 220.311 19.118 220.297 19.2433C220.287 19.3695 220.218 19.4965 220.09 19.6243C219.94 19.7742 219.759 19.884 219.548 19.9536C219.341 20.0242 219.125 20.0549 218.903 20.0457ZM217.81 19.4918L218.453 19.6729C218.62 19.7201 218.776 19.7294 218.92 19.7008C219.067 19.6697 219.192 19.6026 219.295 19.4994C219.398 19.3962 219.433 19.3036 219.399 19.2216C219.365 19.1396 219.265 19.075 219.098 19.0278L218.455 18.8467L217.81 19.4918ZM217.427 20.7824C217.597 20.8305 217.759 20.8383 217.912 20.8057C218.067 20.7741 218.2 20.7042 218.308 20.5961C218.418 20.4855 218.454 20.3853 218.415 20.2956C218.379 20.2034 218.275 20.1333 218.105 20.0852L217.412 19.8899L216.719 20.5829L217.427 20.7824ZM223.722 20.4785L221.68 22.5206L220.972 22.3211L221.23 22.0631C221.052 22.1261 220.863 22.1626 220.664 22.1727C220.471 22.1813 220.289 22.1616 220.119 22.1134C219.901 22.0521 219.742 21.9647 219.641 21.8512C219.543 21.7352 219.51 21.5984 219.543 21.4408C219.583 21.2817 219.693 21.1112 219.875 20.9294L221.073 19.7314L221.775 19.9295L220.651 21.0538C220.489 21.2159 220.419 21.3568 220.441 21.4764C220.465 21.5936 220.572 21.679 220.763 21.7328C220.957 21.7875 221.152 21.7874 221.349 21.7326C221.548 21.6752 221.728 21.5655 221.89 21.4033L223.014 20.279L223.722 20.4785ZM225.044 21.3949L224.056 22.3827C223.987 22.4515 223.959 22.5081 223.97 22.5523C223.988 22.595 224.05 22.6314 224.157 22.6616L224.483 22.7536L224.048 23.1885L223.606 23.064C223.014 22.897 222.93 22.6022 223.352 22.1795L224.337 21.1953L224.005 21.1019L224.429 20.678L224.761 20.7714L225.266 20.2664L225.973 20.466L225.468 20.971L226.09 21.1464L225.666 21.5703L225.044 21.3949ZM227.224 22.0098L226.237 22.9977C226.168 23.0665 226.139 23.123 226.151 23.1672C226.168 23.2099 226.23 23.2463 226.337 23.2765L226.663 23.3685L226.228 23.8035L225.787 23.6789C225.195 23.512 225.11 23.2171 225.533 22.7945L226.517 21.8103L226.186 21.7169L226.61 21.293L226.941 21.3864L227.446 20.8814L228.153 21.0809L227.648 21.5859L228.27 21.7613L227.847 22.1852L227.224 22.0098ZM228.17 24.3935C227.902 24.3181 227.704 24.2071 227.576 24.0608C227.451 23.9119 227.406 23.7402 227.442 23.5455C227.481 23.3518 227.605 23.1506 227.814 22.9417C228.023 22.7328 228.269 22.5659 228.553 22.4411C228.84 22.3172 229.135 22.2429 229.438 22.2182C229.744 22.1911 230.031 22.2153 230.298 22.2907C230.566 22.3662 230.764 22.4788 230.893 22.6286C231.025 22.7759 231.072 22.9469 231.036 23.1415C231.004 23.3371 230.883 23.5394 230.674 23.7482C230.465 23.9571 230.216 24.123 229.925 24.246C229.639 24.3699 229.341 24.4449 229.031 24.4711C228.728 24.4958 228.441 24.4699 228.17 24.3935ZM228.62 23.9438C228.747 23.9797 228.887 23.991 229.042 23.9779C229.202 23.9633 229.362 23.92 229.519 23.8479C229.677 23.7759 229.821 23.6747 229.952 23.5445C230.146 23.3503 230.224 23.1819 230.187 23.039C230.155 22.8947 230.039 22.7942 229.839 22.7376C229.638 22.681 229.416 22.6862 229.173 22.7532C228.936 22.8187 228.721 22.9485 228.527 23.1426C228.332 23.3367 228.248 23.505 228.273 23.6475C228.303 23.7885 228.419 23.8872 228.62 23.9438ZM234.015 23.3437C234.346 23.4371 234.537 23.59 234.586 23.8024C234.638 24.0123 234.526 24.2548 234.25 24.5301L233.053 25.7281L232.35 25.53L233.478 24.402C233.64 24.2398 233.709 24.1002 233.685 23.983C233.663 23.8634 233.557 23.7767 233.366 23.723C233.172 23.6682 232.974 23.6691 232.772 23.7255C232.575 23.7804 232.396 23.8889 232.234 24.0511L231.106 25.179L230.403 24.9809L232.446 22.9388L233.148 23.1369L232.894 23.3913C233.076 23.3292 233.263 23.2939 233.456 23.2853C233.655 23.2752 233.841 23.2947 234.015 23.3437Z" fill="#F7F7FC"/>
</g>
<path d="M220.561 -13.1873C224.633 -17.2589 232.426 -19.2925 237.968 -17.7295L280.615 -5.70194C286.157 -4.13896 287.349 0.428762 283.277 4.50035C279.206 8.57194 271.412 10.6056 265.87 9.04259L223.224 -2.98502C217.682 -4.548 216.49 -9.11572 220.561 -13.1873Z" fill="white"/>
</g>
<defs>
<filter id="filter0_bd_2754_700" x="-97.7383" y="-119.619" width="524.703" height="416.702" filterUnits="userSpaceOnUse" color-interpolation-filters="sRGB">
<feFlood flood-opacity="0" result="BackgroundImageFix"/>
<feGaussianBlur in="BackgroundImageFix" stdDeviation="39"/>
<feComposite in2="SourceAlpha" operator="in" result="effect1_backgroundBlur_2754_700"/>
<feColorMatrix in="SourceAlpha" type="matrix" values="0 0 0 0 0 0 0 0 0 0 0 0 0 0 0 0 0 0 127 0" result="hardAlpha"/>
<feOffset dy="33.8057"/>
<feGaussianBlur stdDeviation="4.89186"/>
<feComposite in2="hardAlpha" operator="out"/>
<feColorMatrix type="matrix" values="0 0 0 0 0.122778 0 0 0 0 0.389526 0 0 0 0 0.866667 0 0 0 0.18 0"/>
<feBlend mode="normal" in2="effect1_backgroundBlur_2754_700" result="effect2_dropShadow_2754_700"/>
<feBlend mode="normal" in="SourceGraphic" in2="effect2_dropShadow_2754_700" result="shape"/>
</filter>
<filter id="filter1_b_2754_700" x="-53.3836" y="-111.997" width="426.264" height="318.263" filterUnits="userSpaceOnUse" color-interpolation-filters="sRGB">
<feFlood flood-opacity="0" result="BackgroundImageFix"/>
<feGaussianBlur in="BackgroundImageFix" stdDeviation="11.9579"/>
<feComposite in2="SourceAlpha" operator="in" result="effect1_backgroundBlur_2754_700"/>
<feBlend mode="normal" in="SourceGraphic" in2="effect1_backgroundBlur_2754_700" result="shape"/>
</filter>
<filter id="filter2_d_2754_700" x="162.695" y="-6.06641" width="125.46" height="80.4326" filterUnits="userSpaceOnUse" color-interpolation-filters="sRGB">
<feFlood flood-opacity="0" result="BackgroundImageFix"/>
<feColorMatrix in="SourceAlpha" type="matrix" values="0 0 0 0 0 0 0 0 0 0 0 0 0 0 0 0 0 0 127 0" result="hardAlpha"/>
<feOffset dy="12"/>
<feGaussianBlur stdDeviation="12"/>
<feColorMatrix type="matrix" values="0 0 0 0 0 0 0 0 0 0 0 0 0 0 0 0 0 0 0.06 0"/>
<feBlend mode="normal" in2="BackgroundImageFix" result="effect1_dropShadow_2754_700"/>
<feBlend mode="normal" in="SourceGraphic" in2="effect1_dropShadow_2754_700" result="shape"/>
</filter>
<linearGradient id="paint0_linear_2754_700" x1="-85.4162" y1="157.229" x2="178.391" y2="300.544" gradientUnits="userSpaceOnUse">
<stop stop-color="white"/>
<stop offset="1" stop-color="#FEFEFE"/>
</linearGradient>
<clipPath id="clip0_2754_700">
<rect x="1" y="1" width="300" height="129" rx="15" fill="white"/>
</clipPath>
</defs>
</svg>
