<svg width="302" height="131" viewBox="0 0 302 131" fill="none" xmlns="http://www.w3.org/2000/svg">
<rect x="1" y="1" width="300" height="129" rx="15" fill="#FEF4FF" fill-opacity="0.07"/>
<rect x="0.5" y="0.5" width="301" height="130" rx="15.5" stroke="white" stroke-opacity="0.28"/>
<g clip-path="url(#clip0_2754_737)">
<path d="M107.067 -56.2407C107.067 -62.5815 111.549 -65.1376 117.081 -61.9537L255.221 17.8674C260.717 21.0154 265.2 28.7285 265.2 35.0693L264.931 130.056C264.931 136.397 260.448 138.944 254.916 135.761L116.767 55.9394C111.253 52.7555 106.807 45.0514 106.824 38.7106L107.067 -56.2407Z" stroke="white" stroke-width="0.471269" stroke-miterlimit="10"/>
<g filter="url(#filter0_bd_2754_737)">
<path d="M107.712 -74.537C103.794 -76.8061 100.611 -74.9855 100.593 -70.4832L100.235 45.4727C100.235 49.957 103.382 55.4548 107.3 57.7239L264.195 148.352C268.104 150.612 271.296 148.801 271.305 144.298L271.637 28.3426C271.637 23.8582 268.481 18.3515 264.563 16.0914L107.712 -74.537Z" fill="url(#paint0_linear_2754_737)" fill-opacity="0.25" shape-rendering="crispEdges"/>
<path d="M100.05 -70.4853V-70.4849L99.6912 45.471L99.6912 45.4727C99.6912 47.8325 100.515 50.4209 101.827 52.7001C103.138 54.9794 104.966 57.0006 107.027 58.1943L107.028 58.1946L263.923 148.823C265.977 150.01 267.967 150.196 269.482 149.334C270.997 148.471 271.844 146.667 271.848 144.3L271.848 144.3L271.305 144.298L271.848 144.3L272.18 28.3441L272.18 28.3426C272.18 25.9826 271.354 23.3918 270.04 21.1116C268.726 18.8314 266.896 16.81 264.835 15.6207C264.835 15.6206 264.835 15.6206 264.834 15.6205L107.984 -75.0074L100.05 -70.4853ZM100.05 -70.4853C100.059 -72.8519 100.905 -74.6573 102.421 -75.5215M100.05 -70.4853L102.421 -75.5215M102.421 -75.5215C103.936 -76.3853 105.926 -76.1991 107.984 -75.0076L102.421 -75.5215Z" stroke="white" stroke-opacity="0.52" stroke-width="1.08708" shape-rendering="crispEdges"/>
</g>
<path d="M102.662 -75.0392C102.664 -75.0392 102.665 -75.0395 102.666 -75.0401L108.662 -78.519C109.953 -79.2724 111.737 -79.1648 113.71 -78.0257L270.579 12.6026C274.497 14.8627 277.661 20.3516 277.652 24.8538L277.321 140.81C277.321 143.043 276.523 144.621 275.25 145.357L269.261 148.846C270.534 148.101 271.323 146.532 271.323 144.299L271.655 28.3426C271.655 23.8583 268.499 18.3516 264.581 16.0914L107.685 -74.5369C106.668 -75.1841 105.484 -75.5207 104.278 -75.5055C103.71 -75.4847 103.155 -75.329 102.659 -75.0515C102.653 -75.0482 102.656 -75.0392 102.662 -75.0392Z" fill="url(#paint1_linear_2754_737)" fill-opacity="0.25"/>
<path d="M269.535 149.315L269.534 149.315L268.986 148.376C270.036 147.763 270.779 146.415 270.779 144.299L270.779 144.297L271.111 28.3426C271.111 28.3424 271.111 28.3422 271.111 28.3419C271.111 26.2178 270.36 23.8133 269.116 21.6543C267.872 19.4951 266.165 17.6331 264.309 16.5623L264.309 16.5621L107.413 -74.0663L107.403 -74.0721L107.393 -74.0783C106.467 -74.6676 105.389 -74.9746 104.292 -74.9621C103.892 -74.9466 103.501 -74.8525 103.139 -74.6862L102.94 -74.5705L269.535 149.315ZM269.535 149.315L275.522 145.827C275.522 145.827 275.523 145.827 275.523 145.827C277.021 144.961 277.864 143.16 277.864 140.811C277.864 140.81 277.864 140.81 277.864 140.81L278.196 24.8554L278.196 24.8549C278.201 22.4854 277.374 19.8941 276.059 17.6157C274.744 15.3374 272.912 13.321 270.851 12.132L269.535 149.315ZM102.635 -75.6504L108.388 -78.9885L108.389 -78.9892V-78.9892C109.909 -79.8751 111.911 -79.6921 113.982 -78.4964L113.982 -78.4964L270.85 12.1318L102.635 -75.6504ZM102.635 -75.6504C102.553 -75.6116 102.473 -75.5701 102.394 -75.5259C101.897 -75.248 102.098 -74.4956 102.662 -74.4956C102.758 -74.4956 102.853 -74.5205 102.939 -74.5699L102.635 -75.6504ZM102.393 -75.5102L102.4 -75.5143C102.398 -75.513 102.395 -75.5116 102.393 -75.5102ZM102.925 -74.5772L102.666 -75.0401L102.925 -74.5772Z" stroke="white" stroke-opacity="0.52" stroke-width="1.08708"/>
<g filter="url(#filter1_bd_2754_737)">
<path d="M106.287 57.177C102.369 54.9169 96.039 54.9079 92.148 57.177L-8.06805 115.473C-11.968 117.733 -11.9411 121.411 -8.02322 123.671L148.873 214.254C152.79 216.514 159.129 216.514 163.02 214.254L263.236 155.958C267.136 153.689 267.109 150.021 263.236 147.76L106.287 57.177Z" fill="url(#paint2_linear_2754_737)" fill-opacity="0.25" shape-rendering="crispEdges"/>
<path d="M106.558 56.7062L106.558 56.7061C104.498 55.5175 101.837 54.9361 99.2074 54.935C96.5785 54.9338 93.9227 55.5128 91.8742 56.7074L-8.34058 115.003L106.558 56.7062ZM106.558 56.7062L263.508 147.29L263.51 147.291C265.546 148.479 266.691 150.112 266.695 151.855C266.699 153.599 265.56 155.235 263.509 156.428L263.236 155.958L263.509 156.428L163.293 214.724L163.293 214.724C161.245 215.914 158.587 216.493 155.956 216.493C153.325 216.493 150.662 215.914 148.601 214.725L148.601 214.725M106.558 56.7062L148.601 214.725M148.601 214.725L-8.29483 124.141C-10.3527 122.954 -11.5103 121.32 -11.5209 119.575M148.601 214.725L-11.5209 119.575M-11.5209 119.575C-11.5314 117.829 -10.3917 116.192 -8.34137 115.003L-11.5209 119.575Z" stroke="white" stroke-opacity="0.52" stroke-width="1.08708" shape-rendering="crispEdges"/>
</g>
<path d="M41.2419 101.948L103.104 65.975C104.2 65.4138 105.414 65.1211 106.645 65.1211C107.876 65.1211 109.09 65.4138 110.186 65.975L248.022 145.563C249.976 146.693 249.985 148.532 248.022 149.662L186.16 185.644C185.062 186.201 183.849 186.491 182.618 186.491C181.388 186.491 180.175 186.201 179.077 185.644L41.2778 106.056C39.3143 104.917 39.2964 103.087 41.2778 101.948" stroke="white" stroke-width="0.5" stroke-linejoin="round"/>
<path d="M51.7314 165.097L-8.05038 130.567C-10.0138 129.428 -11 127.939 -11 126.442V119.509C-11 120.998 -10.0228 122.495 -8.05038 123.634L148.845 214.218C152.763 216.478 159.102 216.478 162.993 214.218L263.209 155.922C264.063 155.452 264.806 154.803 265.388 154.02C265.847 153.389 266.101 152.631 266.114 151.85V158.792C266.114 160.262 265.146 161.733 263.209 162.854L162.993 221.151C159.102 223.42 152.763 223.42 148.845 221.151L78.7175 180.675" fill="url(#paint3_linear_2754_737)"/>
<path d="M51.7314 165.097L-8.05038 130.567C-10.0138 129.428 -11 127.939 -11 126.442V119.509C-11 120.998 -10.0228 122.495 -8.05038 123.634L148.845 214.218C152.763 216.478 159.102 216.478 162.993 214.218L263.209 155.922C264.063 155.452 264.806 154.803 265.388 154.02C265.847 153.389 266.101 152.631 266.114 151.85V151.85V158.792C266.114 160.262 265.146 161.733 263.209 162.854L162.993 221.151C159.102 223.42 152.763 223.42 148.845 221.151L78.7175 180.675" stroke="white" stroke-width="0.942538" stroke-linejoin="round"/>
<path d="M48.1363 103.132L54.968 107.079C55.1416 107.167 55.3336 107.213 55.5284 107.213C55.7231 107.213 55.9151 107.167 56.0887 107.079L62.8755 103.132C62.9421 103.107 62.9994 103.063 63.0399 103.004C63.0804 102.946 63.102 102.876 63.102 102.805C63.102 102.734 63.0804 102.664 63.0399 102.606C62.9994 102.547 62.9421 102.503 62.8755 102.478L56.0439 98.5315C55.8681 98.4452 55.6748 98.4003 55.479 98.4003C55.2832 98.4003 55.09 98.4452 54.9142 98.5315L48.1274 102.478C48.0608 102.503 48.0035 102.547 47.963 102.606C47.9225 102.664 47.9009 102.734 47.9009 102.805C47.9009 102.876 47.9225 102.946 47.963 103.004C48.0035 103.063 48.0608 103.107 48.1274 103.132M64.2921 93.1592L57.5052 97.1055C57.1914 97.2848 57.2004 97.5718 57.5052 97.7512L76.1355 108.514C76.3103 108.598 76.5018 108.642 76.6958 108.642C76.8898 108.642 77.0814 108.598 77.2562 108.514L84.043 104.567C84.3568 104.379 84.3568 104.092 84.043 103.913L65.4128 93.1503C65.2376 93.062 65.0441 93.016 64.848 93.016C64.6518 93.016 64.4583 93.062 64.2831 93.1503L64.2921 93.1592ZM137.047 101.437C137.001 101.376 136.943 101.324 136.877 101.285L130.045 97.3386C129.87 97.2503 129.676 97.2043 129.48 97.2043C129.284 97.2043 129.09 97.2503 128.915 97.3386L122.119 101.285C121.815 101.464 121.815 101.76 122.119 101.94L128.951 105.886C129.031 105.935 129.119 105.968 129.211 105.984C129.498 106.056 129.8 106.021 130.063 105.886L136.859 101.94C136.914 101.911 136.962 101.87 136.999 101.821C137.036 101.771 137.062 101.714 137.074 101.653C137.074 101.653 137.074 101.653 137.074 101.608C137.073 101.545 137.051 101.485 137.011 101.437H137.047ZM116.086 108.899C116.019 108.924 115.962 108.969 115.921 109.028C115.881 109.086 115.859 109.155 115.859 109.227C115.859 109.298 115.881 109.367 115.921 109.426C115.962 109.484 116.019 109.529 116.086 109.554L122.917 113.5C123.093 113.586 123.286 113.631 123.482 113.631C123.678 113.631 123.871 113.586 124.047 113.5L130.834 109.554C130.9 109.529 130.958 109.484 130.998 109.426C131.039 109.367 131.06 109.298 131.06 109.227C131.06 109.155 131.039 109.086 130.998 109.028C130.958 108.969 130.9 108.924 130.834 108.899L124.002 104.953C123.829 104.865 123.637 104.819 123.442 104.819C123.247 104.819 123.055 104.865 122.881 104.953L116.095 108.899H116.086ZM121.321 103.401L114.49 99.4553C114.315 99.3669 114.121 99.3209 113.925 99.3209C113.729 99.3209 113.535 99.3669 113.36 99.4553L106.573 103.401C106.259 103.581 106.268 103.877 106.573 104.056L113.405 108.002C113.578 108.093 113.77 108.14 113.965 108.14C114.16 108.14 114.353 108.093 114.526 108.002L121.313 104.056C121.38 104.033 121.439 103.99 121.48 103.932C121.522 103.874 121.544 103.805 121.544 103.733C121.544 103.662 121.522 103.593 121.48 103.535C121.439 103.477 121.38 103.433 121.313 103.41L121.321 103.401ZM125.598 114.406C125.284 114.585 125.293 114.872 125.598 115.052L132.43 118.998C132.604 119.091 132.798 119.139 132.995 119.139C133.192 119.139 133.385 119.091 133.559 118.998L140.346 115.052C140.66 114.872 140.651 114.585 140.346 114.406L133.515 110.46C133.341 110.372 133.149 110.326 132.954 110.326C132.759 110.326 132.567 110.372 132.394 110.46L125.607 114.406H125.598ZM135.2 119.895C134.886 120.083 134.886 120.37 135.2 120.55L142.032 124.496C142.205 124.584 142.397 124.63 142.592 124.63C142.787 124.63 142.979 124.584 143.152 124.496L149.948 120.55C150.253 120.37 150.253 120.083 149.948 119.904L143.117 115.958C142.944 115.867 142.751 115.82 142.556 115.82C142.361 115.82 142.169 115.867 141.996 115.958L135.209 119.904L135.2 119.895ZM144.721 125.402C144.655 125.427 144.597 125.471 144.557 125.53C144.517 125.588 144.495 125.658 144.495 125.729C144.495 125.8 144.517 125.87 144.557 125.928C144.597 125.986 144.655 126.031 144.721 126.056L151.553 130.003C151.728 130.091 151.922 130.137 152.118 130.137C152.314 130.137 152.508 130.091 152.683 130.003L159.407 126.02C159.473 125.995 159.531 125.951 159.571 125.892C159.612 125.834 159.633 125.764 159.633 125.693C159.633 125.622 159.612 125.553 159.571 125.494C159.531 125.436 159.473 125.391 159.407 125.366L152.575 121.42C152.402 121.335 152.212 121.292 152.019 121.292C151.827 121.292 151.637 121.335 151.463 121.42L144.668 125.366L144.721 125.402ZM154.189 130.864C154.122 130.889 154.065 130.933 154.025 130.992C153.984 131.05 153.962 131.12 153.962 131.191C153.962 131.262 153.984 131.331 154.025 131.39C154.065 131.448 154.122 131.493 154.189 131.518L161.03 135.464C161.205 135.553 161.398 135.599 161.594 135.599C161.791 135.599 161.984 135.553 162.159 135.464L168.946 131.518C169.013 131.493 169.07 131.448 169.11 131.39C169.151 131.331 169.173 131.262 169.173 131.191C169.173 131.12 169.151 131.05 169.11 130.992C169.07 130.933 169.013 130.889 168.946 130.864L162.096 126.917C161.923 126.829 161.731 126.783 161.536 126.783C161.341 126.783 161.149 126.829 160.976 126.917L154.189 130.864V130.864ZM163.701 136.361C163.635 136.386 163.577 136.431 163.537 136.49C163.496 136.548 163.475 136.618 163.475 136.689C163.475 136.76 163.496 136.829 163.537 136.888C163.577 136.946 163.635 136.991 163.701 137.016L170.533 140.962C170.708 141.053 170.901 141.1 171.098 141.1C171.294 141.1 171.488 141.053 171.663 140.962L178.449 137.016C178.517 136.993 178.576 136.95 178.617 136.892C178.659 136.834 178.681 136.764 178.681 136.693C178.681 136.622 178.659 136.552 178.617 136.494C178.576 136.437 178.517 136.393 178.449 136.37L171.609 132.424C171.435 132.336 171.243 132.29 171.048 132.29C170.854 132.29 170.662 132.336 170.488 132.424L163.701 136.37V136.361ZM173.214 141.868C172.9 142.047 172.909 142.343 173.214 142.523L180.045 146.469C180.22 146.555 180.411 146.6 180.606 146.6C180.8 146.6 180.992 146.555 181.166 146.469L187.953 142.523C188.02 142.5 188.079 142.457 188.121 142.399C188.162 142.341 188.184 142.271 188.184 142.2C188.184 142.129 188.162 142.059 188.121 142.001C188.079 141.943 188.02 141.9 187.953 141.877L181.121 137.931C180.945 137.845 180.752 137.8 180.556 137.8C180.361 137.8 180.167 137.845 179.992 137.931L173.205 141.886L173.214 141.868ZM182.717 147.384C182.403 147.563 182.403 147.85 182.717 148.03L189.549 151.976C189.724 152.064 189.917 152.11 190.114 152.11C190.31 152.11 190.503 152.064 190.678 151.976L197.465 148.03C197.77 147.85 197.77 147.563 197.465 147.384L190.634 143.438C190.46 143.349 190.268 143.303 190.073 143.303C189.878 143.303 189.686 143.349 189.513 143.438L182.726 147.384H182.717ZM185.577 151.536L178.736 147.59C178.561 147.502 178.368 147.456 178.172 147.456C177.975 147.456 177.782 147.502 177.607 147.59L170.82 151.536C170.515 151.716 170.515 152.003 170.82 152.191L177.652 156.137C177.825 156.225 178.017 156.271 178.212 156.271C178.407 156.271 178.599 156.225 178.772 156.137L185.559 152.191C185.873 152.003 185.873 151.716 185.559 151.536H185.577ZM175.984 146.648C176.051 146.623 176.108 146.579 176.148 146.52C176.189 146.462 176.21 146.392 176.21 146.321C176.21 146.25 176.189 146.18 176.148 146.122C176.108 146.063 176.051 146.019 175.984 145.994L169.152 142.047C168.978 141.957 168.784 141.91 168.587 141.91C168.391 141.91 168.197 141.957 168.023 142.047L161.236 145.994C161.168 146.016 161.11 146.06 161.068 146.118C161.026 146.176 161.004 146.245 161.004 146.317C161.004 146.388 161.026 146.457 161.068 146.515C161.11 146.573 161.168 146.617 161.236 146.639L168.076 150.586C168.25 150.674 168.442 150.72 168.637 150.72C168.831 150.72 169.023 150.674 169.197 150.586L175.984 146.639V146.648ZM166.373 141.088C166.687 140.908 166.687 140.621 166.373 140.442L159.541 136.496C159.366 136.408 159.173 136.362 158.976 136.362C158.78 136.362 158.587 136.408 158.412 136.496L151.625 140.442C151.32 140.621 151.32 140.908 151.625 141.088L158.456 145.034C158.63 145.122 158.822 145.168 159.017 145.168C159.212 145.168 159.404 145.122 159.577 145.034L166.364 141.088H166.373ZM156.762 135.545C156.829 135.52 156.886 135.475 156.926 135.417C156.967 135.358 156.988 135.289 156.988 135.218C156.988 135.147 156.967 135.077 156.926 135.019C156.886 134.96 156.829 134.915 156.762 134.89L149.921 130.944C149.748 130.856 149.556 130.81 149.361 130.81C149.166 130.81 148.974 130.856 148.801 130.944L142.014 134.89C141.947 134.915 141.89 134.96 141.849 135.019C141.809 135.077 141.787 135.147 141.787 135.218C141.787 135.289 141.809 135.358 141.849 135.417C141.89 135.475 141.947 135.52 142.014 135.545L148.845 139.491C149.021 139.578 149.214 139.623 149.41 139.623C149.606 139.623 149.799 139.578 149.975 139.491L156.762 135.545ZM147.151 129.994C147.218 129.968 147.275 129.924 147.315 129.865C147.356 129.807 147.377 129.737 147.377 129.666C147.377 129.595 147.356 129.526 147.315 129.467C147.275 129.409 147.218 129.364 147.151 129.339L140.319 125.393C140.144 125.304 139.951 125.258 139.754 125.258C139.558 125.258 139.365 125.304 139.19 125.393L132.403 129.339C132.336 129.364 132.279 129.409 132.238 129.467C132.198 129.526 132.176 129.595 132.176 129.666C132.176 129.737 132.198 129.807 132.238 129.865C132.279 129.924 132.336 129.968 132.403 129.994L139.243 133.94C139.417 134.028 139.609 134.074 139.804 134.074C139.999 134.074 140.191 134.028 140.364 133.94L147.151 129.994V129.994ZM137.54 124.442C137.854 124.263 137.854 123.967 137.54 123.796L130.708 119.85C130.534 119.76 130.34 119.712 130.143 119.712C129.947 119.712 129.753 119.76 129.579 119.85L122.792 123.796C122.487 123.967 122.496 124.263 122.792 124.442L129.624 128.388C129.797 128.476 129.989 128.522 130.184 128.522C130.379 128.522 130.571 128.476 130.744 128.388L137.531 124.442H137.54ZM127.929 118.899C128.243 118.711 128.243 118.424 127.929 118.245L121.088 114.298C120.915 114.21 120.723 114.164 120.528 114.164C120.333 114.164 120.141 114.21 119.968 114.298L113.181 118.245C113.113 118.267 113.055 118.311 113.013 118.369C112.972 118.427 112.949 118.496 112.949 118.567C112.949 118.639 112.972 118.708 113.013 118.766C113.055 118.824 113.113 118.868 113.181 118.89L120.013 122.837C120.187 122.927 120.381 122.974 120.577 122.974C120.774 122.974 120.968 122.927 121.142 122.837L127.929 118.89V118.899ZM118.318 113.339C118.385 113.314 118.442 113.269 118.482 113.21C118.523 113.152 118.545 113.083 118.545 113.011C118.545 112.94 118.523 112.871 118.482 112.812C118.442 112.754 118.385 112.709 118.318 112.684L111.486 108.738C111.311 108.649 111.118 108.604 110.922 108.604C110.725 108.604 110.532 108.649 110.357 108.738L103.57 112.684C103.503 112.709 103.446 112.754 103.406 112.812C103.365 112.871 103.343 112.94 103.343 113.011C103.343 113.083 103.365 113.152 103.406 113.21C103.446 113.269 103.503 113.314 103.57 113.339L110.402 117.285C110.575 117.373 110.767 117.419 110.962 117.419C111.157 117.419 111.349 117.373 111.522 117.285L118.309 113.339H118.318ZM108.707 107.787C109.021 107.608 109.012 107.312 108.707 107.132L101.875 103.186C101.702 103.096 101.51 103.049 101.315 103.049C101.12 103.049 100.928 103.096 100.755 103.186L93.9588 107.186C93.8913 107.209 93.8327 107.252 93.7911 107.31C93.7496 107.368 93.7272 107.438 93.7272 107.509C93.7272 107.58 93.7496 107.65 93.7911 107.708C93.8327 107.766 93.8913 107.809 93.9588 107.832L100.791 111.778C100.966 111.867 101.159 111.913 101.355 111.913C101.552 111.913 101.745 111.867 101.92 111.778L108.707 107.832V107.787ZM99.0961 102.28C99.4099 102.101 99.4099 101.814 99.0961 101.635L92.2554 97.6884C92.0818 97.6002 91.8898 97.5542 91.6951 97.5542C91.5003 97.5542 91.3083 97.6002 91.1347 97.6884L84.3479 101.635C84.2803 101.657 84.2217 101.701 84.1801 101.759C84.1386 101.817 84.1163 101.886 84.1163 101.958C84.1163 102.029 84.1386 102.098 84.1801 102.156C84.2217 102.214 84.2803 102.258 84.3479 102.28L91.1885 106.236C91.3633 106.32 91.5548 106.364 91.7489 106.364C91.9429 106.364 92.1344 106.32 92.3092 106.236L99.0961 102.28ZM89.4761 96.7019C89.5402 96.6713 89.5954 96.6247 89.6363 96.5666C89.6771 96.5084 89.7022 96.4407 89.7092 96.37C89.7016 96.3006 89.6761 96.2344 89.6352 96.1778C89.5944 96.1212 89.5396 96.0762 89.4761 96.0472L84.3837 93.1054L83.4872 92.6032L83.2182 92.4507L82.6086 92.1009C82.4334 92.0126 82.2399 91.9666 82.0437 91.9666C81.8475 91.9666 81.6541 92.0126 81.4789 92.1009L74.6921 96.0472C74.459 96.1817 74.4052 96.379 74.5217 96.5494C74.5712 96.6112 74.632 96.663 74.701 96.7019L75.3107 97.0516L75.8755 97.3745L76.4403 97.7063L81.5327 100.648C81.7063 100.736 81.8983 100.782 82.0931 100.782C82.2878 100.782 82.4798 100.736 82.6534 100.648L89.4402 96.7019H89.4761ZM87.5037 93.0696L94.3444 97.0158C94.5196 97.1041 94.713 97.1501 94.9092 97.1501C95.1054 97.1501 95.2988 97.1041 95.474 97.0158L102.261 93.0696C102.327 93.0445 102.385 92.9997 102.425 92.9413C102.466 92.8828 102.487 92.8133 102.487 92.7422C102.487 92.6711 102.466 92.6016 102.425 92.5431C102.385 92.4847 102.327 92.4399 102.261 92.4148L95.4292 88.4686C95.2544 88.3844 95.0629 88.3406 94.8689 88.3406C94.6748 88.3406 94.4833 88.3844 94.3085 88.4686L87.5216 92.4148C87.2079 92.6032 87.2079 92.8902 87.5216 93.0696H87.5037ZM97.043 97.9126C96.9764 97.9377 96.9191 97.9824 96.8786 98.0409C96.8382 98.0994 96.8165 98.1689 96.8165 98.24C96.8165 98.3111 96.8382 98.3806 96.8786 98.439C96.9191 98.4975 96.9764 98.5423 97.043 98.5673L103.875 102.514C104.05 102.602 104.243 102.648 104.439 102.648C104.636 102.648 104.829 102.602 105.004 102.514L111.791 98.5673C111.858 98.5423 111.915 98.4975 111.956 98.439C111.996 98.3806 112.018 98.3111 112.018 98.24C112.018 98.1689 111.996 98.0994 111.956 98.0409C111.915 97.9824 111.858 97.9377 111.791 97.9126L104.951 93.9664C104.777 93.8782 104.585 93.8322 104.39 93.8322C104.195 93.8322 104.003 93.8782 103.83 93.9664L97.043 97.9126ZM103.319 91.0606C103.366 91.1244 103.427 91.1766 103.498 91.213L110.33 95.1593C110.503 95.2475 110.695 95.2935 110.89 95.2935C111.085 95.2935 111.277 95.2475 111.45 95.1593L118.237 91.213C118.301 91.1825 118.357 91.1359 118.397 91.0778C118.438 91.0196 118.463 90.9519 118.47 90.8812C118.463 90.8118 118.437 90.7456 118.396 90.689C118.356 90.6324 118.301 90.5874 118.237 90.5583L111.406 86.6121C111.232 86.5203 111.037 86.4741 110.841 86.4776C110.644 86.4733 110.45 86.5196 110.276 86.6121L103.489 90.5583C103.421 90.5945 103.362 90.6469 103.319 90.7108C103.28 90.761 103.259 90.8224 103.259 90.8857C103.259 90.9489 103.28 91.0104 103.319 91.0606V91.0606ZM112.786 95.9306C112.473 96.1099 112.482 96.3969 112.786 96.5763L119.618 100.523C119.792 100.611 119.984 100.657 120.178 100.657C120.373 100.657 120.565 100.611 120.739 100.523L127.526 96.5763C127.839 96.3969 127.83 96.1099 127.526 95.9306L120.694 91.9844C120.52 91.8917 120.326 91.8432 120.129 91.8432C119.932 91.8432 119.738 91.8917 119.564 91.9844L112.777 95.9306H112.786ZM131.363 106.693C131.058 106.872 131.058 107.159 131.363 107.339L138.203 111.294C138.377 111.378 138.567 111.422 138.759 111.422C138.952 111.422 139.142 111.378 139.315 111.294L146.102 107.339C146.416 107.159 146.416 106.872 146.102 106.693L139.27 102.747C139.095 102.658 138.902 102.612 138.706 102.612C138.509 102.612 138.316 102.658 138.141 102.747L131.345 106.693H131.363ZM140.642 112.074C140.337 112.245 140.346 112.541 140.642 112.72L147.474 116.666C147.647 116.754 147.839 116.8 148.034 116.8C148.229 116.8 148.421 116.754 148.594 116.666L155.381 112.72C155.695 112.541 155.695 112.245 155.381 112.074L148.648 108.083C148.472 107.997 148.279 107.952 148.083 107.952C147.888 107.952 147.694 107.997 147.519 108.083L140.732 112.038L140.642 112.074ZM150.029 117.419C149.796 117.554 149.742 117.751 149.868 117.922C149.911 117.986 149.97 118.038 150.038 118.074L156.87 122.02C156.952 122.062 157.04 122.096 157.13 122.119C157.327 122.167 157.533 122.167 157.73 122.119C157.82 122.096 157.907 122.062 157.99 122.02L164.777 118.074C164.844 118.049 164.901 118.004 164.941 117.946C164.982 117.887 165.004 117.818 165.004 117.747C165.004 117.676 164.982 117.606 164.941 117.548C164.901 117.489 164.844 117.445 164.777 117.419L157.945 113.473C157.77 113.385 157.577 113.339 157.381 113.339C157.184 113.339 156.991 113.385 156.816 113.473L150.029 117.419V117.419ZM159.326 122.801C159.021 122.98 159.021 123.267 159.326 123.446L166.158 127.393C166.331 127.481 166.523 127.527 166.718 127.527C166.913 127.527 167.105 127.481 167.278 127.393L174.065 123.446C174.379 123.267 174.379 122.98 174.065 122.801L167.234 118.854C167.058 118.766 166.865 118.72 166.669 118.72C166.473 118.72 166.279 118.766 166.104 118.854L159.317 122.801H159.326ZM168.614 128.182C168.301 128.361 168.31 128.657 168.614 128.837L175.446 132.783C175.62 132.871 175.812 132.917 176.006 132.917C176.201 132.917 176.393 132.871 176.567 132.783L183.354 128.837C183.42 128.812 183.477 128.767 183.518 128.708C183.558 128.65 183.58 128.58 183.58 128.509C183.58 128.438 183.558 128.369 183.518 128.31C183.477 128.252 183.42 128.207 183.354 128.182L176.522 124.236C176.347 124.147 176.153 124.101 175.957 124.101C175.761 124.101 175.567 124.147 175.392 124.236L168.605 128.182H168.614ZM177.903 133.563C177.589 133.742 177.598 134.038 177.903 134.218L184.734 138.164C184.906 138.252 185.097 138.298 185.29 138.298C185.483 138.298 185.674 138.252 185.846 138.164L192.642 134.218C192.708 134.193 192.766 134.148 192.806 134.089C192.847 134.031 192.868 133.962 192.868 133.89C192.868 133.819 192.847 133.75 192.806 133.691C192.766 133.633 192.708 133.588 192.642 133.563L185.81 129.617C185.635 129.529 185.441 129.483 185.245 129.483C185.049 129.483 184.856 129.529 184.68 129.617L177.894 133.563H177.903ZM187.182 138.944C186.877 139.124 186.886 139.411 187.182 139.59L194.023 143.536C194.195 143.624 194.385 143.67 194.578 143.67C194.772 143.67 194.962 143.624 195.134 143.536L201.921 139.59C202.235 139.411 202.235 139.115 201.921 138.944L195.089 134.998C194.915 134.908 194.721 134.86 194.525 134.86C194.328 134.86 194.134 134.908 193.96 134.998L187.164 138.944H187.182ZM196.461 144.325C196.395 144.351 196.337 144.395 196.297 144.454C196.256 144.512 196.235 144.582 196.235 144.653C196.235 144.724 196.256 144.793 196.297 144.852C196.337 144.91 196.395 144.955 196.461 144.98L203.293 148.926C203.466 149.015 203.658 149.061 203.853 149.061C204.048 149.061 204.24 149.015 204.413 148.926L211.2 144.98C211.267 144.955 211.324 144.91 211.365 144.852C211.405 144.793 211.427 144.724 211.427 144.653C211.427 144.582 211.405 144.512 211.365 144.454C211.324 144.395 211.267 144.351 211.2 144.325L204.36 140.379C204.184 140.291 203.991 140.245 203.795 140.245C203.599 140.245 203.405 140.291 203.23 140.379L196.443 144.325H196.461ZM205.749 149.707C205.682 149.73 205.623 149.773 205.582 149.831C205.54 149.889 205.518 149.958 205.518 150.03C205.518 150.101 205.54 150.17 205.582 150.228C205.623 150.286 205.682 150.33 205.749 150.352L212.581 154.308C212.756 154.392 212.947 154.436 213.141 154.436C213.335 154.436 213.527 154.392 213.702 154.308L220.542 150.236C220.856 150.056 220.856 149.769 220.542 149.59L213.711 145.644C213.537 145.556 213.345 145.51 213.15 145.51C212.956 145.51 212.764 145.556 212.59 145.644L205.803 149.59L205.749 149.707ZM207.005 152.926L200.164 148.971C199.99 148.883 199.798 148.837 199.604 148.837C199.409 148.837 199.217 148.883 199.043 148.971L192.256 152.917C192.19 152.943 192.132 152.987 192.092 153.046C192.051 153.104 192.03 153.174 192.03 153.245C192.03 153.316 192.051 153.385 192.092 153.444C192.132 153.502 192.19 153.547 192.256 153.572L199.097 157.518C199.271 157.607 199.463 157.653 199.657 157.653C199.852 157.653 200.044 157.607 200.218 157.518L207.005 153.572C207.318 153.393 207.309 153.106 207.005 152.926V152.926ZM195.197 157.133L188.365 153.187C188.19 153.098 187.997 153.052 187.8 153.052C187.604 153.052 187.411 153.098 187.236 153.187L180.449 157.133C180.144 157.312 180.144 157.599 180.449 157.778L187.28 161.725C187.455 161.811 187.646 161.856 187.841 161.856C188.035 161.856 188.227 161.811 188.401 161.725L195.188 157.778C195.502 157.59 195.502 157.303 195.188 157.124L195.197 157.133ZM180.763 159.814L173.931 155.868C173.756 155.78 173.562 155.734 173.366 155.734C173.17 155.734 172.976 155.78 172.801 155.868L166.014 159.814C165.948 159.839 165.89 159.884 165.85 159.943C165.81 160.001 165.788 160.071 165.788 160.142C165.788 160.213 165.81 160.282 165.85 160.341C165.89 160.399 165.948 160.444 166.014 160.469L172.846 164.415C173.02 164.504 173.212 164.55 173.406 164.55C173.601 164.55 173.793 164.504 173.967 164.415L180.754 160.469C180.82 160.444 180.877 160.399 180.918 160.341C180.958 160.282 180.98 160.213 180.98 160.142C180.98 160.071 180.958 160.001 180.918 159.943C180.877 159.884 180.82 159.839 180.754 159.814H180.763ZM171.08 154.882C171.146 154.857 171.204 154.812 171.244 154.753C171.285 154.695 171.306 154.625 171.306 154.554C171.306 154.483 171.285 154.414 171.244 154.355C171.204 154.297 171.146 154.252 171.08 154.227L164.248 150.281C164.073 150.192 163.88 150.146 163.683 150.146C163.487 150.146 163.294 150.192 163.119 150.281L156.332 154.227C156.265 154.252 156.208 154.297 156.167 154.355C156.127 154.414 156.105 154.483 156.105 154.554C156.105 154.625 156.127 154.695 156.167 154.753C156.208 154.812 156.265 154.857 156.332 154.882L163.163 158.828C163.337 158.916 163.529 158.962 163.724 158.962C163.918 158.962 164.11 158.916 164.284 158.828L171.071 154.882H171.08ZM161.397 149.294C161.711 149.115 161.711 148.819 161.397 148.648L154.556 144.702C154.383 144.61 154.189 144.561 153.992 144.561C153.795 144.561 153.601 144.61 153.427 144.702L146.64 148.648C146.335 148.819 146.335 149.115 146.64 149.294L153.472 153.24C153.645 153.329 153.837 153.375 154.032 153.375C154.227 153.375 154.419 153.329 154.592 153.24L161.379 149.294H161.397ZM151.714 143.707C151.782 143.684 151.841 143.64 151.882 143.582C151.924 143.525 151.946 143.455 151.946 143.384C151.946 143.312 151.924 143.243 151.882 143.185C151.841 143.127 151.782 143.084 151.714 143.061L144.883 139.115C144.709 139.022 144.515 138.974 144.318 138.974C144.121 138.974 143.927 139.022 143.753 139.115L136.993 143.061C136.679 143.24 136.688 143.527 136.993 143.707L143.825 147.653C143.997 147.741 144.187 147.787 144.381 147.787C144.574 147.787 144.764 147.741 144.937 147.653L151.732 143.707H151.714ZM142.059 138.119C142.372 137.94 142.372 137.653 142.059 137.473L135.227 133.527C135.052 133.439 134.858 133.393 134.662 133.393C134.466 133.393 134.272 133.439 134.097 133.527L127.31 137.473C127.006 137.653 127.006 137.94 127.31 138.119L134.142 142.074C134.317 142.159 134.508 142.202 134.702 142.202C134.896 142.202 135.088 142.159 135.263 142.074L142.05 138.119H142.059ZM132.376 132.541C132.69 132.352 132.69 132.065 132.376 131.886L125.544 127.94C125.369 127.851 125.176 127.805 124.979 127.805C124.783 127.805 124.59 127.851 124.415 127.94L117.628 131.886C117.323 132.065 117.323 132.352 117.628 132.541L124.459 136.487C124.633 136.575 124.825 136.621 125.02 136.621C125.214 136.621 125.406 136.575 125.58 136.487L132.367 132.541H132.376ZM122.738 126.917C122.809 126.881 122.87 126.829 122.917 126.765C123.034 126.594 122.971 126.397 122.747 126.263L115.906 122.316C115.733 122.224 115.538 122.178 115.342 122.182C115.145 122.179 114.951 122.226 114.777 122.316L107.99 126.263C107.923 126.288 107.866 126.332 107.825 126.391C107.785 126.449 107.763 126.519 107.763 126.59C107.763 126.661 107.785 126.731 107.825 126.789C107.866 126.847 107.923 126.892 107.99 126.917L114.821 130.864C114.905 130.911 114.996 130.944 115.09 130.962C115.189 130.976 115.288 130.976 115.386 130.962C115.58 130.966 115.771 130.919 115.942 130.828L122.738 126.917ZM113.073 121.33C113.14 121.305 113.197 121.26 113.238 121.202C113.278 121.143 113.3 121.074 113.3 121.002C113.3 120.931 113.278 120.862 113.238 120.803C113.197 120.745 113.14 120.7 113.073 120.675L106.242 116.729C106.066 116.641 105.873 116.595 105.677 116.595C105.481 116.595 105.287 116.641 105.112 116.729L98.3161 120.675C98.0112 120.854 98.0112 121.15 98.3161 121.33L105.148 125.276C105.32 125.364 105.51 125.41 105.704 125.41C105.897 125.41 106.087 125.364 106.259 125.276L113.055 121.33H113.073ZM103.382 115.742C103.449 115.72 103.508 115.676 103.549 115.618C103.591 115.56 103.613 115.491 103.613 115.419C103.613 115.348 103.591 115.279 103.549 115.221C103.508 115.163 103.449 115.119 103.382 115.097L96.5499 111.15C96.3753 111.06 96.1816 111.013 95.9851 111.013C95.7885 111.013 95.5948 111.06 95.4202 111.15L88.6334 115.097C88.3285 115.267 88.3285 115.563 88.6334 115.742L95.465 119.689C95.6387 119.777 95.8306 119.823 96.0254 119.823C96.2201 119.823 96.4121 119.777 96.5857 119.689L103.373 115.742H103.382ZM93.6988 110.155C94.0126 109.975 94.0126 109.688 93.6988 109.509L86.8672 105.563C86.6926 105.472 86.4989 105.425 86.3023 105.425C86.1058 105.425 85.9121 105.472 85.7375 105.563L78.9507 109.509C78.6458 109.688 78.6548 109.975 78.9507 110.155L85.7823 114.101C85.956 114.189 86.1479 114.235 86.3427 114.235C86.5374 114.235 86.7294 114.189 86.903 114.101L93.6899 110.155H93.6988ZM83.8279 81.9574C83.6341 81.9538 83.4427 82.0001 83.272 82.0919L66.9638 91.5718C66.9004 91.6008 66.8455 91.6459 66.8047 91.7025C66.7638 91.759 66.7383 91.8253 66.7307 91.8947C66.7377 91.9666 66.7638 92.0353 66.8064 92.0937C66.849 92.1521 66.9064 92.1979 66.9728 92.2265L72.0114 95.1323C72.182 95.2241 72.3735 95.2705 72.5672 95.2669C72.7611 95.2713 72.9527 95.2249 73.1231 95.1323L81.5237 90.2534C81.6974 90.1652 81.8893 90.1192 82.0841 90.1192C82.2788 90.1192 82.4708 90.1652 82.6444 90.2534L84.841 91.518C85.0161 91.6063 85.2096 91.6523 85.4058 91.6523C85.602 91.6523 85.7954 91.6063 85.9706 91.518L92.7575 87.5718C92.825 87.5489 92.8836 87.5055 92.9252 87.4476C92.9667 87.3897 92.9891 87.3202 92.9891 87.2489C92.9891 87.1776 92.9667 87.1081 92.9252 87.0502C92.8836 86.9923 92.825 86.9488 92.7575 86.926L84.3927 82.0919C84.219 81.9994 84.0246 81.953 83.8279 81.9574V81.9574ZM93.394 76.3968C93.1973 76.3925 93.0028 76.4388 92.8292 76.5313L86.0423 80.4776C85.9782 80.5081 85.923 80.5547 85.8822 80.6128C85.8414 80.671 85.8162 80.7387 85.8092 80.8094C85.8168 80.88 85.8433 80.9473 85.8859 81.0041C85.9285 81.061 85.9856 81.1052 86.0513 81.1323L101.033 89.787C101.206 89.8753 101.398 89.9212 101.593 89.9212C101.788 89.9212 101.98 89.8753 102.153 89.787L108.94 85.8408C109.007 85.8158 109.064 85.771 109.105 85.7125C109.145 85.654 109.167 85.5846 109.167 85.5135C109.167 85.4423 109.145 85.3729 109.105 85.3144C109.064 85.2559 109.007 85.2112 108.94 85.1861L93.9588 76.5313C93.7849 76.4396 93.5906 76.3933 93.394 76.3968ZM112.786 73.5448L105.955 69.5986C105.78 69.5081 105.586 69.4609 105.39 69.4609C105.193 69.4609 105 69.5081 104.825 69.5986L98.0381 73.5448C97.7243 73.7331 97.7243 74.0201 98.0381 74.1995L104.879 78.1457C105.052 78.2339 105.244 78.2799 105.439 78.2799C105.634 78.2799 105.826 78.2339 105.999 78.1457L112.786 74.1995C112.854 74.1767 112.913 74.1332 112.954 74.0753C112.996 74.0174 113.018 73.9479 113.018 73.8766C113.018 73.8053 112.996 73.7358 112.954 73.6779C112.913 73.62 112.854 73.5766 112.786 73.5537V73.5448ZM123.124 79.5179L116.292 75.5717C116.117 75.4874 115.926 75.4437 115.732 75.4437C115.537 75.4437 115.346 75.4874 115.171 75.5717L108.384 79.5179C108.071 79.7062 108.071 79.9932 108.384 80.1726L115.216 84.1188C115.391 84.2071 115.585 84.2531 115.781 84.2531C115.977 84.2531 116.17 84.2071 116.346 84.1188L123.133 80.1726C123.199 80.1476 123.256 80.1028 123.297 80.0443C123.337 79.9858 123.359 79.9164 123.359 79.8453C123.359 79.7741 123.337 79.7047 123.297 79.6462C123.256 79.5877 123.199 79.543 123.133 79.5179H123.124ZM133.479 85.5L126.647 81.5538C126.472 81.4634 126.279 81.4162 126.082 81.4162C125.886 81.4162 125.692 81.4634 125.517 81.5538L118.73 85.5C118.417 85.6884 118.417 85.9753 118.73 86.1547L125.571 90.1009C125.745 90.1892 125.937 90.2351 126.131 90.2351C126.326 90.2351 126.518 90.1892 126.692 90.1009L133.479 86.1547C133.546 86.1319 133.605 86.0885 133.646 86.0306C133.688 85.9726 133.71 85.9031 133.71 85.8318C133.71 85.7606 133.688 85.6911 133.646 85.6331C133.605 85.5752 133.546 85.5318 133.479 85.509V85.5ZM143.816 91.4731L136.984 87.5269C136.809 87.4427 136.618 87.3989 136.424 87.3989C136.23 87.3989 136.038 87.4427 135.863 87.5269L129.077 91.4731C128.763 91.6615 128.763 91.9485 129.077 92.1279L135.908 96.0741C136.082 96.1623 136.274 96.2083 136.469 96.2083C136.663 96.2083 136.855 96.1623 137.029 96.0741L143.816 92.1279C143.882 92.1028 143.94 92.058 143.98 91.9995C144.021 91.9411 144.042 91.8716 144.042 91.8005C144.042 91.7294 144.021 91.6599 143.98 91.6014C143.94 91.543 143.882 91.4982 143.816 91.4731V91.4731ZM154.359 97.5718L147.528 93.6256C147.354 93.5374 147.162 93.4914 146.967 93.4914C146.772 93.4914 146.58 93.5374 146.407 93.6256L139.62 97.5718C139.553 97.5969 139.496 97.6416 139.456 97.7001C139.415 97.7586 139.394 97.8281 139.394 97.8992C139.394 97.9703 139.415 98.0397 139.456 98.0982C139.496 98.1567 139.553 98.2015 139.62 98.2265L146.452 102.173C146.627 102.261 146.82 102.307 147.017 102.307C147.213 102.307 147.406 102.261 147.581 102.173L154.368 98.2265C154.673 98.0472 154.673 97.7602 154.368 97.5808L154.359 97.5718ZM164.714 103.545L157.874 99.5987C157.7 99.5146 157.51 99.4709 157.318 99.4709C157.125 99.4709 156.935 99.5146 156.762 99.5987L149.975 103.545C149.661 103.733 149.661 104.02 149.975 104.2L156.816 108.146C156.989 108.234 157.181 108.28 157.376 108.28C157.571 108.28 157.763 108.234 157.936 108.146L164.732 104.2C165.037 104.02 165.037 103.733 164.732 103.545H164.714ZM175.069 109.527L168.238 105.581C168.065 105.49 167.873 105.443 167.677 105.443C167.482 105.443 167.29 105.49 167.117 105.581L160.33 109.527C160.016 109.715 160.016 110.002 160.33 110.182L167.162 114.128C167.337 114.216 167.531 114.262 167.727 114.262C167.923 114.262 168.116 114.216 168.292 114.128L175.078 110.182C175.383 110.002 175.383 109.715 175.078 109.536L175.069 109.527ZM185.407 115.464L178.575 111.518C178.4 111.434 178.209 111.39 178.015 111.39C177.821 111.39 177.629 111.434 177.454 111.518L170.667 115.464C170.354 115.653 170.354 115.94 170.667 116.119L177.508 120.065C177.683 120.154 177.877 120.2 178.073 120.2C178.269 120.2 178.463 120.154 178.638 120.065L185.407 116.155C185.473 116.13 185.531 116.085 185.571 116.027C185.611 115.968 185.633 115.899 185.633 115.828C185.633 115.756 185.611 115.687 185.571 115.628C185.531 115.57 185.473 115.525 185.407 115.5V115.464ZM195.923 121.536L189.091 117.59C188.918 117.502 188.726 117.456 188.531 117.456C188.336 117.456 188.144 117.502 187.971 117.59L181.175 121.536C181.108 121.561 181.051 121.606 181.011 121.664C180.97 121.723 180.949 121.792 180.949 121.863C180.949 121.935 180.97 122.004 181.011 122.063C181.051 122.121 181.108 122.166 181.175 122.191L188.007 126.137C188.18 126.225 188.372 126.271 188.567 126.271C188.762 126.271 188.954 126.225 189.127 126.137L195.923 122.191C195.991 122.168 196.049 122.125 196.091 122.067C196.132 122.009 196.155 121.939 196.155 121.868C196.155 121.797 196.132 121.727 196.091 121.669C196.049 121.611 195.991 121.568 195.923 121.545V121.536ZM206.26 127.509L199.429 123.563C199.254 123.479 199.062 123.435 198.868 123.435C198.674 123.435 198.483 123.479 198.308 123.563L191.521 127.509C191.455 127.534 191.397 127.579 191.357 127.638C191.316 127.696 191.295 127.765 191.295 127.837C191.295 127.908 191.316 127.977 191.357 128.036C191.397 128.094 191.455 128.139 191.521 128.164L198.353 132.11C198.528 132.198 198.721 132.244 198.918 132.244C199.114 132.244 199.307 132.198 199.482 132.11L206.269 128.164C206.583 127.985 206.574 127.698 206.269 127.509H206.26ZM216.615 133.491L209.784 129.545C209.611 129.455 209.419 129.408 209.223 129.408C209.028 129.408 208.836 129.455 208.663 129.545L201.867 133.491C201.801 133.516 201.743 133.561 201.703 133.62C201.662 133.678 201.641 133.748 201.641 133.819C201.641 133.89 201.662 133.959 201.703 134.018C201.743 134.076 201.801 134.121 201.867 134.146L208.699 138.092C208.873 138.18 209.065 138.226 209.259 138.226C209.454 138.226 209.646 138.18 209.82 138.092L216.615 134.146C216.683 134.123 216.742 134.08 216.783 134.022C216.825 133.964 216.847 133.894 216.847 133.823C216.847 133.752 216.825 133.682 216.783 133.624C216.742 133.567 216.683 133.523 216.615 133.5V133.491ZM226.944 139.473L220.112 135.527C219.939 135.443 219.749 135.399 219.556 135.399C219.364 135.399 219.174 135.443 219 135.527L212.204 139.473C212.138 139.498 212.081 139.543 212.04 139.602C212 139.66 211.978 139.73 211.978 139.801C211.978 139.872 212 139.941 212.04 140C212.081 140.058 212.138 140.103 212.204 140.128L219.036 144.074C219.211 144.163 219.405 144.209 219.601 144.209C219.797 144.209 219.991 144.163 220.166 144.074L226.953 140.128C227.266 139.949 227.258 139.653 226.953 139.473H226.944ZM235.022 152.639L241.808 148.693C241.876 148.67 241.935 148.627 241.976 148.569C242.018 148.511 242.04 148.442 242.04 148.37C242.04 148.299 242.018 148.23 241.976 148.172C241.935 148.114 241.876 148.07 241.808 148.047L234.977 144.101C234.803 144.013 234.611 143.967 234.416 143.967C234.222 143.967 234.03 144.013 233.856 144.101L227.069 148.047C226.755 148.227 226.755 148.514 227.069 148.693L233.901 152.639C234.075 152.73 234.269 152.777 234.466 152.777C234.662 152.777 234.856 152.73 235.031 152.639H235.022ZM223.062 159.581L229.858 155.635C229.924 155.61 229.981 155.565 230.022 155.507C230.062 155.448 230.084 155.379 230.084 155.308C230.084 155.236 230.062 155.167 230.022 155.109C229.981 155.05 229.924 155.005 229.858 154.98L223.026 151.034C222.852 150.948 222.66 150.903 222.465 150.903C222.271 150.903 222.079 150.948 221.905 151.034L215.118 154.98C214.804 155.16 214.813 155.447 215.118 155.626L221.95 159.572C222.124 159.66 222.316 159.706 222.51 159.706C222.705 159.706 222.897 159.66 223.071 159.572L223.062 159.581ZM213.513 165.133L220.309 161.187C220.614 161.007 220.605 160.711 220.309 160.532L209.775 154.451C209.6 154.361 209.407 154.313 209.21 154.313C209.013 154.313 208.82 154.361 208.645 154.451L201.858 158.397C201.545 158.577 201.554 158.873 201.858 159.052L212.393 165.142C212.568 165.23 212.761 165.276 212.958 165.276C213.154 165.276 213.347 165.23 213.522 165.142L213.513 165.133ZM204.001 170.675L210.797 166.729C211.111 166.55 211.102 166.254 210.797 166.074L197.86 158.604C197.685 158.515 197.491 158.469 197.295 158.469C197.099 158.469 196.905 158.515 196.73 158.604L189.943 162.55C189.877 162.575 189.819 162.62 189.779 162.678C189.738 162.737 189.717 162.806 189.717 162.877C189.717 162.948 189.738 163.018 189.779 163.076C189.819 163.135 189.877 163.179 189.943 163.205L202.88 170.675C203.054 170.764 203.246 170.81 203.441 170.81C203.635 170.81 203.827 170.764 204.001 170.675V170.675ZM194.462 176.245L201.249 172.299C201.315 172.274 201.373 172.229 201.413 172.17C201.453 172.112 201.475 172.043 201.475 171.971C201.475 171.9 201.453 171.831 201.413 171.772C201.373 171.714 201.315 171.669 201.249 171.644L183.569 161.429C183.394 161.34 183.2 161.294 183.004 161.294C182.808 161.294 182.614 161.34 182.439 161.429L175.652 165.375C175.338 165.554 175.347 165.85 175.652 166.03L193.341 176.245C193.515 176.333 193.707 176.379 193.901 176.379C194.096 176.379 194.288 176.333 194.462 176.245V176.245ZM173.07 175.402L183.963 181.68C184.138 181.768 184.332 181.814 184.528 181.814C184.724 181.814 184.918 181.768 185.093 181.68L191.88 177.734C191.946 177.709 192.004 177.664 192.044 177.605C192.085 177.547 192.106 177.478 192.106 177.406C192.106 177.335 192.085 177.266 192.044 177.207C192.004 177.149 191.946 177.104 191.88 177.079L180.987 170.801C180.812 170.713 180.618 170.667 180.422 170.667C180.226 170.667 180.032 170.713 179.857 170.801L173.07 174.747C173.004 174.772 172.946 174.817 172.906 174.875C172.865 174.934 172.844 175.003 172.844 175.075C172.844 175.146 172.865 175.215 172.906 175.274C172.946 175.332 173.004 175.377 173.07 175.402V175.402ZM163.594 169.922L170.425 173.868C170.601 173.957 170.794 174.003 170.99 174.003C171.186 174.003 171.38 173.957 171.555 173.868L178.342 169.922C178.408 169.897 178.466 169.852 178.506 169.794C178.547 169.735 178.568 169.666 178.568 169.595C178.568 169.524 178.547 169.454 178.506 169.396C178.466 169.337 178.408 169.292 178.342 169.267L171.501 165.321C171.328 165.233 171.136 165.187 170.941 165.187C170.746 165.187 170.554 165.233 170.381 165.321L163.594 169.267C163.526 169.29 163.468 169.334 163.426 169.392C163.384 169.449 163.362 169.519 163.362 169.59C163.362 169.661 163.384 169.731 163.426 169.789C163.468 169.847 163.526 169.89 163.594 169.913V169.922ZM154.028 164.344L160.859 168.29C161.033 168.378 161.225 168.424 161.42 168.424C161.614 168.424 161.806 168.378 161.98 168.29L168.767 164.344C168.833 164.318 168.891 164.274 168.931 164.215C168.972 164.157 168.993 164.087 168.993 164.016C168.993 163.945 168.972 163.876 168.931 163.817C168.891 163.759 168.833 163.714 168.767 163.689L161.935 159.743C161.76 159.654 161.566 159.608 161.37 159.608C161.174 159.608 160.981 159.654 160.805 159.743L154.019 163.689C153.952 163.714 153.895 163.759 153.854 163.817C153.814 163.876 153.792 163.945 153.792 164.016C153.792 164.087 153.814 164.157 153.854 164.215C153.895 164.274 153.952 164.318 154.019 164.344H154.028ZM144.497 158.846L151.338 162.792C151.512 162.88 151.703 162.926 151.898 162.926C152.093 162.926 152.285 162.88 152.459 162.792L159.245 158.846C159.312 158.821 159.369 158.776 159.41 158.717C159.45 158.659 159.472 158.59 159.472 158.518C159.472 158.447 159.45 158.378 159.41 158.319C159.369 158.261 159.312 158.216 159.245 158.191L152.414 154.245C152.24 154.157 152.048 154.111 151.853 154.111C151.659 154.111 151.467 154.157 151.293 154.245L144.506 158.191C144.439 158.214 144.38 158.257 144.338 158.315C144.297 158.373 144.275 158.443 144.275 158.514C144.275 158.585 144.297 158.655 144.338 158.713C144.38 158.771 144.439 158.814 144.506 158.837L144.497 158.846ZM87.2796 125.787L141.897 157.33C142.071 157.418 142.263 157.464 142.458 157.464C142.652 157.464 142.844 157.418 143.018 157.33L149.805 153.384C149.871 153.359 149.929 153.314 149.969 153.256C150.01 153.197 150.031 153.128 150.031 153.056C150.031 152.985 150.01 152.916 149.969 152.857C149.929 152.799 149.871 152.754 149.805 152.729L95.1871 121.186C95.0119 121.098 94.8185 121.052 94.6223 121.052C94.4261 121.052 94.2327 121.098 94.0575 121.186L87.2706 125.133C86.9658 125.312 86.9658 125.599 87.2706 125.787H87.2796ZM77.2203 119.976L84.052 123.922C84.2256 124.01 84.4176 124.056 84.6124 124.056C84.8071 124.056 84.9991 124.01 85.1727 123.922L91.9595 119.976C92.0261 119.95 92.0834 119.906 92.1239 119.847C92.1644 119.789 92.186 119.719 92.186 119.648C92.186 119.577 92.1644 119.508 92.1239 119.449C92.0834 119.391 92.0261 119.346 91.9595 119.321L85.1279 115.375C84.9521 115.288 84.7588 115.243 84.563 115.243C84.3672 115.243 84.174 115.288 83.9982 115.375L77.2114 119.321C76.9065 119.5 76.9065 119.787 77.2114 119.967L77.2203 119.976ZM67.5107 114.361L74.3424 118.307C74.5172 118.392 74.7087 118.435 74.9027 118.435C75.0968 118.435 75.2883 118.392 75.4631 118.307L82.2499 114.361C82.3165 114.336 82.3738 114.291 82.4143 114.233C82.4547 114.174 82.4764 114.105 82.4764 114.034C82.4764 113.963 82.4547 113.893 82.4143 113.835C82.3738 113.776 82.3165 113.732 82.2499 113.706L75.4183 109.76C75.2431 109.672 75.0496 109.626 74.8534 109.626C74.6572 109.626 74.4638 109.672 74.2886 109.76L67.5017 113.706C67.1879 113.886 67.1969 114.173 67.5017 114.361H67.5107ZM57.8101 108.765L64.6417 112.711C64.7246 112.753 64.8118 112.786 64.9017 112.81C65.0032 112.818 65.1051 112.818 65.2066 112.81C65.4032 112.813 65.5975 112.767 65.7714 112.675L72.5583 108.729C72.6248 108.704 72.6821 108.659 72.7226 108.601C72.7631 108.542 72.7847 108.473 72.7847 108.401C72.7847 108.33 72.7631 108.261 72.7226 108.202C72.6821 108.144 72.6248 108.099 72.5583 108.074L65.7266 104.128C65.553 104.04 65.361 103.994 65.1662 103.994C64.9715 103.994 64.7795 104.04 64.6059 104.128L57.819 108.074C57.7501 108.113 57.6892 108.165 57.6397 108.227C57.5321 108.397 57.5859 108.594 57.819 108.729L57.8101 108.765Z" stroke="white" stroke-width="0.5" stroke-linejoin="bevel"/>
<path d="M270.695 12.4414L264.742 15.8495" stroke="white" stroke-width="0.471269" stroke-linejoin="round"/>
<path d="M277.5 25.2041L271.547 28.6122" stroke="white" stroke-width="0.471269" stroke-linejoin="round"/>
<path d="M248.676 69.6886V55.8858L236.662 48.944V62.7558L248.676 69.6886ZM236.384 48.0382L249.062 55.3387C249.153 55.3994 249.228 55.4804 249.283 55.5754C249.337 55.6703 249.369 55.7765 249.375 55.8858V70.424C249.375 70.6213 249.223 70.702 249.053 70.6034L236.402 63.3029C236.312 63.2411 236.237 63.1599 236.183 63.0652C236.129 62.9704 236.096 62.8647 236.089 62.7558V48.2086C236.089 48.0113 236.232 47.9306 236.411 48.0382" fill="white"/>
<path d="M190.436 22.9706L227.455 44.3519C227.547 44.4135 227.623 44.496 227.678 44.5926C227.732 44.6891 227.764 44.7972 227.769 44.9079C227.769 45.1053 227.625 45.186 227.446 45.0784L190.427 23.706C190.336 23.6458 190.26 23.5649 190.205 23.4699C190.151 23.3748 190.12 23.2683 190.114 23.1589C190.114 22.9527 190.266 22.8719 190.436 22.9706Z" fill="white"/>
<path d="M190.418 28.7645L227.437 50.1458C227.53 50.2038 227.608 50.2842 227.663 50.3797C227.718 50.4752 227.748 50.5828 227.751 50.6929C227.751 50.8992 227.607 50.9799 227.437 50.8813L190.418 29.5C190.327 29.4392 190.252 29.3582 190.197 29.2633C190.143 29.1684 190.111 29.0621 190.105 28.9529C190.105 28.7466 190.248 28.6659 190.418 28.7645Z" fill="white"/>
<path d="M190.401 34.5408L227.419 55.9221C227.513 55.9802 227.592 56.0604 227.648 56.1558C227.704 56.2511 227.736 56.3587 227.742 56.4692C227.742 56.6755 227.598 56.7562 227.419 56.6486L190.401 35.2763C190.309 35.2136 190.234 35.1309 190.179 35.0346C190.125 34.9382 190.093 34.8307 190.087 34.7202C190.087 34.5139 190.23 34.4422 190.401 34.5408Z" fill="white"/>
<path d="M248.613 92.469V78.6663L236.6 71.7245V85.5273L248.622 92.469H248.613ZM236.331 70.8097L248.972 78.1102C249.066 78.1709 249.144 78.2529 249.2 78.3495C249.256 78.4461 249.289 78.5547 249.295 78.6663L249.25 93.1955C249.25 93.4018 249.106 93.4825 248.927 93.3838L236.286 86.0834C236.192 86.0227 236.114 85.9407 236.058 85.8441C236.002 85.7474 235.969 85.6389 235.963 85.5273L236.008 70.9891C236.008 70.7918 236.151 70.7021 236.331 70.8097Z" fill="white"/>
<path d="M190.374 45.7518L227.383 67.1332C227.477 67.1933 227.556 67.2751 227.612 67.3719C227.668 67.4687 227.7 67.5775 227.706 67.6892C227.706 67.8865 227.562 67.9672 227.383 67.8596L190.365 46.4783C190.274 46.4195 190.198 46.3401 190.144 46.2467C190.089 46.1532 190.057 46.0482 190.051 45.9402C190.051 45.7339 190.194 45.6532 190.374 45.7518Z" fill="white"/>
<path d="M190.356 51.5811L227.374 72.9534C227.465 73.0161 227.541 73.0987 227.595 73.1951C227.65 73.2915 227.681 73.399 227.688 73.5095C227.688 73.7068 227.545 73.7875 227.365 73.6888L190.347 52.3075C190.256 52.2468 190.18 52.1658 190.126 52.0709C190.071 51.9759 190.04 51.8697 190.033 51.7604C190.027 51.7207 190.033 51.6802 190.051 51.6442C190.069 51.6082 190.097 51.5785 190.132 51.559C190.167 51.5395 190.208 51.5312 190.247 51.5351C190.287 51.5391 190.325 51.5551 190.356 51.5811Z" fill="white"/>
<path d="M190.338 57.33L227.356 78.7113C227.45 78.7713 227.527 78.8533 227.582 78.9503C227.637 79.0472 227.667 79.1561 227.67 79.2673C227.67 79.4646 227.526 79.5454 227.356 79.4467L190.338 58.0654C190.246 58.0057 190.169 57.9249 190.115 57.8298C190.06 57.7347 190.029 57.6279 190.024 57.5183C190.024 57.312 190.167 57.2313 190.338 57.33Z" fill="white"/>
<path d="M248.542 115.259L248.586 101.456L236.573 94.5142V108.326L248.542 115.259ZM236.259 93.6084L248.9 100.909C248.994 100.969 249.073 101.051 249.129 101.148C249.185 101.244 249.217 101.353 249.223 101.465L249.178 115.994C249.178 116.2 249.035 116.272 248.855 116.174L236.214 108.873C236.121 108.814 236.043 108.733 235.987 108.638C235.931 108.543 235.898 108.436 235.891 108.326L235.936 93.7339C235.936 93.5276 236.08 93.4469 236.259 93.5545" fill="white"/>
<path d="M190.302 68.5323L227.32 89.9137C227.413 89.9729 227.491 90.0534 227.547 90.1484C227.603 90.2435 227.636 90.3505 227.643 90.4608C227.643 90.6581 227.499 90.7477 227.32 90.6401L190.302 69.2588C190.21 69.1986 190.134 69.1177 190.08 69.0226C190.025 68.9276 189.994 68.8211 189.988 68.7117C189.988 68.5144 190.131 68.4337 190.302 68.5323Z" fill="white"/>
<path d="M190.284 74.3263L227.302 95.6986C227.395 95.7584 227.472 95.839 227.529 95.934C227.585 96.0289 227.618 96.1357 227.625 96.2457C227.625 96.452 227.482 96.5327 227.302 96.4341L190.284 75.0528C190.193 74.992 190.117 74.911 190.063 74.8161C190.008 74.7212 189.977 74.6149 189.97 74.5057C189.97 74.3084 190.114 74.2187 190.284 74.3263Z" fill="white"/>
<path d="M190.275 80.1105L227.293 101.492C227.384 101.553 227.46 101.634 227.514 101.728C227.569 101.823 227.601 101.93 227.607 102.039C227.607 102.245 227.464 102.326 227.284 102.218L190.266 80.8459C190.175 80.7832 190.099 80.7006 190.045 80.6042C189.99 80.5078 189.959 80.4003 189.952 80.2898C189.952 80.0925 190.104 80.0118 190.275 80.1105Z" fill="white"/>
<path d="M256.512 127.42L256.198 127.24L256.512 127.42ZM256.234 126.918L256.449 53.1772L183.524 11.0244L183.318 84.7648L256.234 126.918ZM183.21 10.1455L256.727 52.6211C256.819 52.6838 256.896 52.7666 256.951 52.8633C257.011 52.9543 257.045 53.0596 257.05 53.1682L256.835 127.653C256.84 127.691 256.834 127.73 256.818 127.764C256.802 127.799 256.777 127.829 256.745 127.85C256.71 127.872 256.67 127.883 256.629 127.883C256.587 127.883 256.547 127.872 256.512 127.85L182.995 85.3747C182.901 85.3144 182.824 85.2311 182.771 85.1325C182.717 85.0397 182.686 84.935 182.681 84.8276L182.888 10.3877C182.884 10.3476 182.891 10.3073 182.909 10.271C182.926 10.2347 182.953 10.2037 182.986 10.1814C183.021 10.1625 183.059 10.1527 183.098 10.1527C183.137 10.1527 183.176 10.1625 183.21 10.1814" fill="white"/>
<path d="M256.754 41.5632L256.44 41.3838L256.754 41.5632ZM256.44 41.0161V28.747L117.081 -51.7648V-39.4956L256.44 41.0161ZM116.776 -52.6796L256.799 28.1999C256.891 28.259 256.967 28.3389 257.023 28.4331C257.08 28.5278 257.111 28.6362 257.113 28.747V41.7515C257.115 41.7906 257.109 41.8298 257.093 41.8657C257.078 41.9017 257.053 41.9333 257.023 41.9578C256.988 41.9792 256.947 41.9905 256.906 41.9905C256.865 41.9905 256.825 41.9792 256.79 41.9578L116.731 -38.9396C116.637 -38.9998 116.56 -39.0832 116.507 -39.1817C116.449 -39.2727 116.417 -39.3785 116.417 -39.4867V-52.4912C116.414 -52.5313 116.421 -52.5716 116.438 -52.6079C116.456 -52.6442 116.483 -52.6751 116.516 -52.6975C116.55 -52.7172 116.589 -52.7275 116.628 -52.7275C116.667 -52.7275 116.706 -52.7172 116.74 -52.6975" fill="white"/>
<path d="M176.513 81.1783L176.19 80.99L176.513 81.1783ZM176.19 80.6223L176.441 6.91777L136.688 -16.033L136.482 57.7073L176.226 80.6581L176.19 80.6223ZM136.339 -16.9479L176.728 6.37068C176.82 6.42982 176.897 6.50969 176.952 6.60387C177.011 6.69822 177.042 6.80686 177.042 6.91777L176.836 81.3577C176.841 81.3967 176.834 81.4363 176.817 81.4714C176.799 81.5066 176.771 81.5357 176.737 81.555C176.703 81.5756 176.665 81.5865 176.625 81.5865C176.586 81.5865 176.547 81.5756 176.513 81.555L136.124 58.2365C136.03 58.1797 135.952 58.0993 135.899 58.0033C135.845 57.9104 135.815 57.8058 135.81 57.6984L136.025 -16.7416C136.019 -16.7809 136.025 -16.821 136.041 -16.8574C136.057 -16.8938 136.082 -16.9251 136.115 -16.9479C136.149 -16.9667 136.187 -16.9766 136.227 -16.9766C136.266 -16.9766 136.304 -16.9667 136.339 -16.9479Z" fill="white"/>
<path d="M130.054 54.3791L129.731 54.1908L130.054 54.3791ZM129.731 53.8231L129.937 -19.9173L114.696 -28.7156L114.49 45.0248L129.731 53.8231ZM114.391 -29.5856L130.26 -20.4106C130.354 -20.3538 130.431 -20.2734 130.484 -20.1774C130.541 -20.0859 130.572 -19.9804 130.574 -19.8725L130.368 54.5675C130.371 54.6065 130.364 54.6457 130.348 54.6816C130.333 54.7176 130.309 54.7492 130.278 54.7737C130.245 54.7953 130.206 54.8069 130.166 54.8069C130.126 54.8069 130.087 54.7953 130.054 54.7737L114.176 45.6077C114.082 45.5509 114.005 45.4706 113.952 45.3746C113.898 45.2817 113.867 45.177 113.862 45.0696L114.077 -29.3703C114.074 -29.4081 114.081 -29.446 114.097 -29.4805C114.113 -29.515 114.137 -29.545 114.167 -29.5676C114.201 -29.5873 114.24 -29.5977 114.279 -29.5977C114.319 -29.5977 114.357 -29.5873 114.391 -29.5676" fill="white"/>
<path d="M145.761 -2.83116L171.501 12.0389C171.595 12.0996 171.673 12.1815 171.729 12.2782C171.785 12.3748 171.818 12.4834 171.824 12.595C171.824 12.8012 171.681 12.873 171.501 12.7743L145.761 -2.09573C145.668 -2.15497 145.59 -2.23542 145.534 -2.33051C145.478 -2.42559 145.445 -2.53262 145.439 -2.64282C145.439 -2.84909 145.582 -2.92981 145.761 -2.83116Z" fill="white"/>
<path d="M141.476 0.504781L171.465 17.8322C171.559 17.8915 171.636 17.9719 171.692 18.067C171.749 18.1621 171.781 18.2691 171.788 18.3793C171.788 18.5856 171.645 18.6663 171.465 18.5677L141.476 1.24021C141.384 1.17997 141.308 1.09907 141.254 1.00405C141.199 0.909022 141.168 0.802523 141.162 0.693122C141.162 0.486843 141.306 0.406125 141.476 0.504781Z" fill="white"/>
<path d="M145.726 9.52746L171.465 24.3975C171.559 24.4567 171.636 24.5372 171.692 24.6323C171.749 24.7274 171.781 24.8344 171.788 24.9446C171.788 25.1509 171.645 25.2316 171.465 25.124L145.726 10.2629C145.632 10.2022 145.554 10.1202 145.497 10.0236C145.441 9.92696 145.409 9.81841 145.403 9.70683C145.403 9.50952 145.546 9.4288 145.726 9.52746Z" fill="white"/>
<path d="M141.476 12.8634L171.474 30.1909C171.566 30.2511 171.642 30.332 171.696 30.427C171.751 30.522 171.782 30.6285 171.788 30.7379C171.788 30.9353 171.645 31.016 171.465 30.9173L141.476 13.5899C141.384 13.5296 141.308 13.4487 141.254 13.3537C141.199 13.2587 141.168 13.1522 141.162 13.0428C141.162 12.8455 141.306 12.7647 141.476 12.8634Z" fill="white"/>
<path d="M117.682 -0.867876L126.817 4.4057C126.91 4.46286 126.987 4.54182 127.041 4.63564C127.096 4.72946 127.127 4.83529 127.131 4.94382C127.131 5.1501 126.988 5.23082 126.817 5.13216L117.682 -0.15038C117.589 -0.208966 117.511 -0.289469 117.457 -0.384846C117.402 -0.480224 117.371 -0.587567 117.368 -0.697469C117.368 -0.894779 117.511 -0.975495 117.682 -0.876839" fill="white"/>
<path d="M145.618 48.137L171.358 62.9981C171.451 63.0588 171.53 63.1408 171.586 63.2374C171.642 63.334 171.674 63.4426 171.68 63.5542C171.68 63.7515 171.537 63.8322 171.358 63.7335L145.618 48.8904C145.525 48.8311 145.447 48.7507 145.391 48.6556C145.335 48.5605 145.302 48.4535 145.295 48.3433C145.295 48.137 145.438 48.0563 145.618 48.1639" fill="white"/>
<path d="M141.35 51.4647L171.34 68.7922C171.434 68.8523 171.513 68.9342 171.569 69.031C171.625 69.1277 171.657 69.2365 171.663 69.3483C171.663 69.5456 171.519 69.6263 171.34 69.5187L141.35 52.2002C141.258 52.1405 141.182 52.0597 141.127 51.9646C141.073 51.8694 141.042 51.7627 141.037 51.6531C141.037 51.4468 141.18 51.3661 141.35 51.4647Z" fill="white"/>
</g>
<defs>
<filter id="filter0_bd_2754_737" x="75.2319" y="-100.517" width="221.408" height="294.52" filterUnits="userSpaceOnUse" color-interpolation-filters="sRGB">
<feFlood flood-opacity="0" result="BackgroundImageFix"/>
<feGaussianBlur in="BackgroundImageFix" stdDeviation="11.9579"/>
<feComposite in2="SourceAlpha" operator="in" result="effect1_backgroundBlur_2754_737"/>
<feColorMatrix in="SourceAlpha" type="matrix" values="0 0 0 0 0 0 0 0 0 0 0 0 0 0 0 0 0 0 127 0" result="hardAlpha"/>
<feOffset dy="33.8057"/>
<feGaussianBlur stdDeviation="4.89186"/>
<feComposite in2="hardAlpha" operator="out"/>
<feColorMatrix type="matrix" values="0 0 0 0 0.122778 0 0 0 0 0.389526 0 0 0 0 0.866667 0 0 0 0.18 0"/>
<feBlend mode="normal" in2="effect1_backgroundBlur_2754_737" result="effect2_dropShadow_2754_737"/>
<feBlend mode="normal" in="SourceGraphic" in2="effect2_dropShadow_2754_737" result="shape"/>
</filter>
<filter id="filter1_bd_2754_737" x="-35.9802" y="30.4759" width="327.134" height="230.15" filterUnits="userSpaceOnUse" color-interpolation-filters="sRGB">
<feFlood flood-opacity="0" result="BackgroundImageFix"/>
<feGaussianBlur in="BackgroundImageFix" stdDeviation="11.9579"/>
<feComposite in2="SourceAlpha" operator="in" result="effect1_backgroundBlur_2754_737"/>
<feColorMatrix in="SourceAlpha" type="matrix" values="0 0 0 0 0 0 0 0 0 0 0 0 0 0 0 0 0 0 127 0" result="hardAlpha"/>
<feOffset dy="33.8057"/>
<feGaussianBlur stdDeviation="4.89186"/>
<feComposite in2="hardAlpha" operator="out"/>
<feColorMatrix type="matrix" values="0 0 0 0 0.122778 0 0 0 0 0.389526 0 0 0 0 0.866667 0 0 0 0.18 0"/>
<feBlend mode="normal" in2="effect1_backgroundBlur_2754_737" result="effect2_dropShadow_2754_737"/>
<feBlend mode="normal" in="SourceGraphic" in2="effect2_dropShadow_2754_737" result="shape"/>
</filter>
<linearGradient id="paint0_linear_2754_737" x1="357.338" y1="36.9057" x2="140.531" y2="202.184" gradientUnits="userSpaceOnUse">
<stop stop-color="white"/>
<stop offset="1" stop-color="#FEFEFE"/>
</linearGradient>
<linearGradient id="paint1_linear_2754_737" x1="365.16" y1="34.9228" x2="145.019" y2="204.02" gradientUnits="userSpaceOnUse">
<stop stop-color="white"/>
<stop offset="1" stop-color="#FEFEFE"/>
</linearGradient>
<linearGradient id="paint2_linear_2754_737" x1="404.715" y1="135.714" x2="265.54" y2="376.066" gradientUnits="userSpaceOnUse">
<stop stop-color="white"/>
<stop offset="1" stop-color="#FEFEFE"/>
</linearGradient>
<linearGradient id="paint3_linear_2754_737" x1="267.437" y1="134.389" x2="48.9873" y2="261.903" gradientUnits="userSpaceOnUse">
<stop stop-color="#DADAF9"/>
<stop offset="1" stop-color="#FFF0F9" stop-opacity="0.56"/>
</linearGradient>
<clipPath id="clip0_2754_737">
<rect x="1" y="1" width="300" height="129" rx="15" fill="white"/>
</clipPath>
</defs>
</svg>
