<svg width="52" height="92" fill="none" xmlns="http://www.w3.org/2000/svg"><path d="M43.637 1H8.39A7.39 7.39 0 001 8.39v75.042a7.39 7.39 0 007.39 7.39h35.247a7.39 7.39 0 007.39-7.39V8.39A7.39 7.39 0 0043.638 1z" stroke="#14161D"/><path fill-rule="evenodd" clip-rule="evenodd" d="M15 39.944c0-.521.448-.944 1-.944h30c.552 0 1 .423 1 .944 0 .522-.448.945-1 .945H16c-.552 0-1-.423-1-.945zm2 3.778c0-.521.448-.944 1-.944h16c.552 0 1 .423 1 .944 0 .522-.448.945-1 .945H18c-.552 0-1-.423-1-.945zm-1 2.834c-.552 0-1 .422-1 .944s.448.944 1 .944h28c.552 0 1-.422 1-.944s-.448-.944-1-.944H16zm1 4.722c0-.522.448-.945 1-.945h12c.552 0 1 .423 1 .945 0 .521-.448.944-1 .944H18c-.552 0-1-.423-1-.944zm1 2.833c-.552 0-1 .423-1 .945 0 .521.448.944 1 .944h12c.552 0 1-.423 1-.944 0-.522-.448-.945-1-.945H18z" fill="#E4E8F4"/><path d="M6.872 47.428c-.334 0-.605.255-.605.571 0 .316.27.572.605.572.704 0 1.259.214 1.696.654 1.277 1.289 1.106 3.993 1.103 4.06v7.285c0 1.835.54 3.25 1.602 4.204C12.55 65.919 14.16 66 14.588 66c.06 0 .096-.002.106-.002.333-.016.59-.285.572-.6-.017-.317-.307-.56-.635-.542-.016.007-1.443.06-2.525-.91-.814-.73-1.225-1.866-1.225-3.376l-.002-7.247c.01-.13.211-3.225-1.425-4.876A3.364 3.364 0 008.909 48c.194-.128.376-.277.545-.448 1.636-1.653 1.435-4.746 1.427-4.838V35.43c0-1.504.409-2.636 1.216-3.367 1.069-.968 2.515-.922 2.537-.92a.59.59 0 00.633-.54c.016-.316-.24-.584-.573-.601-.084 0-1.967-.08-3.42 1.224-1.064.954-1.602 2.37-1.602 4.204l.001 7.323c.054.753-.039 2.944-1.102 4.019-.439.442-.994.657-1.699.657z" fill="#3980FF"/><path d="M12.41 1h27.208a3.98 3.98 0 01-3.94 3.411H16.35A3.98 3.98 0 0112.41 1z" fill="#14161D" stroke="#14161D"/></svg>