<svg width="49" height="59" fill="none" xmlns="http://www.w3.org/2000/svg"><path fill-rule="evenodd" clip-rule="evenodd" d="M15.281 36.705c0-.3.258-.544.577-.544h17.285c.318 0 .576.244.576.544 0 .301-.258.545-.576.545H15.858c-.319 0-.577-.244-.577-.545zm1.153 2.178c0-.301.258-.545.576-.545h9.219c.318 0 .576.244.576.544 0 .3-.258.544-.576.544H17.01c-.318 0-.576-.243-.576-.544zm-.576 1.632c-.319 0-.577.244-.577.544 0 .3.258.544.577.544H31.99c.318 0 .576-.243.576-.544 0-.3-.258-.544-.576-.544H15.858zm.576 2.72c0-.3.258-.543.576-.543h6.914c.318 0 .576.243.576.543 0 .301-.258.544-.576.544H17.01c-.318 0-.576-.243-.576-.544zm.576 1.633c-.318 0-.576.243-.576.544 0 .3.258.545.576.545h6.914c.318 0 .576-.245.576-.545 0-.3-.258-.544-.576-.544H17.01z" fill="#E4E8F4"/><path d="M6.411 41.017a.339.339 0 00-.348.33c0 .181.156.328.348.328.406 0 .725.124.977.378.736.742.637 2.3.636 2.338v4.198c0 1.058.31 1.873.923 2.422.735.66 1.663.707 1.91.707.034 0 .055-.002.06-.002a.336.336 0 00.33-.346.343.343 0 00-.365-.312c-.01.005-.832.035-1.455-.524-.47-.42-.706-1.075-.706-1.945v-4.176c.005-.075.12-1.857-.822-2.809a1.94 1.94 0 00-.314-.258 1.94 1.94 0 00.314-.258c.942-.952.827-2.734.822-2.787v-4.198c0-.866.236-1.518.7-1.94.617-.557 1.45-.53 1.462-.53a.339.339 0 00.365-.311.337.337 0 00-.33-.346c-.048 0-1.133-.046-1.97.705-.613.55-.924 1.365-.924 2.422l.001 4.22c.031.434-.022 1.696-.635 2.315-.253.255-.572.38-.979.38zm36.179 0c.192 0 .348.147.348.33a.339.339 0 01-.349.328c-.405 0-.725.124-.977.378-.736.742-.637 2.3-.635 2.338v4.198c0 1.058-.311 1.873-.923 2.422-.736.66-1.664.707-1.91.707-.035 0-.056-.002-.061-.002a.336.336 0 01-.33-.346.343.343 0 01.366-.312c.01.005.831.035 1.454-.524.47-.42.707-1.075.707-1.945v-4.176c-.005-.075-.12-1.857.822-2.809.097-.098.202-.185.314-.258a1.944 1.944 0 01-.314-.258c-.943-.952-.827-2.734-.822-2.787v-4.198c0-.866-.236-1.518-.701-1.94-.616-.557-1.45-.53-1.462-.53a.339.339 0 01-.364-.311.337.337 0 01.33-.346c.048 0 1.133-.046 1.97.705.613.55.923 1.365.923 2.422v4.22c-.032.434.022 1.696.634 2.315.253.255.573.38.98.38z" fill="#3980FF"/><path d="M39.786 10.769c.029.177.18.31.36.31h3.81a4.129 4.129 0 014.129 4.128v38.928a4.128 4.128 0 01-4.129 4.128H5.03A4.128 4.128 0 01.9 54.135V15.207a4.129 4.129 0 014.129-4.129h3.826c.18 0 .33-.132.36-.31a.367.367 0 00-.36-.427H5.029a4.866 4.866 0 00-4.866 4.866v38.928A4.866 4.866 0 005.029 59h38.927a4.866 4.866 0 004.866-4.866V15.207a4.866 4.866 0 00-4.866-4.866h-3.81a.367.367 0 00-.36.428z" fill="#14161D"/><path d="M24.689 26.337c7.272 0 13.168-5.896 13.168-13.168C37.857 5.896 31.961 0 24.69 0c-7.274 0-13.17 5.896-13.17 13.169 0 7.272 5.896 13.168 13.169 13.168z" fill="#FEF4FF"/><path d="M22.081 11.466v-.5a.5.5 0 00-.5.5h.5zm0 .904l.354.354.146-.146v-.208h-.5zm-1.544.265l-.354.354.354-.354zm3.353 5.616h.5v-.207l-.146-.147-.354.354zm-.904-.905h-.5v.207l.146.147.354-.354zm0-1.357h.5v-.207l-.147-.146-.353.353zm-.905-.905h-.5v.207l.146.147.354-.354zm0-.904v-.5a.5.5 0 00-.5.5h.5zm4.023-7.238v1.81h1v-1.81h-1zM25.7 9.156h-.905v1h.905v-1zm-2.714 1.81h-.905v1h.905v-1zm-1.405.5v.904h1v-.904h-1zm.146.55l-.265.266.708.707.265-.265-.707-.707zm-.837.266l-1.622-1.622-.707.707 1.622 1.622.707-.707zm2.5-1.721a.405.405 0 01-.404.405v1c.776 0 1.404-.63 1.404-1.405h-1zm1.405-1.405c-.776 0-1.405.63-1.405 1.405h1c0-.223.181-.405.405-.405v-1zm-3.333 3.126a.405.405 0 01-.572 0l-.707.707a1.405 1.405 0 001.987 0l-.708-.707zm4.642-3.53a.405.405 0 01-.404.404v1c.776 0 1.404-.629 1.404-1.404h-1zM24.39 19.608V18.25h-1v1.357h1zm-.146-1.71l-.905-.905-.707.707.905.904.707-.707zm-.758-.552V15.99h-1v1.357h1zm-.147-1.71l-.904-.905-.707.707.904.905.707-.707zm-.758-.552v-.904h-1v.904h1zm-.5-.404H25.7v-1h-3.62v1zm4.023.404v.604h1v-.604h-1zm1.707 2.31h2.412v-1h-2.412v1zm-.802-.802c0 .443.359.802.802.802v-1c.11 0 .198.089.198.198h-1zm-.103-.103c.057 0 .103.046.103.103h1c0-.61-.494-1.103-1.103-1.103v1zm-.802-.802c0 .443.36.802.802.802v-1c.11 0 .198.089.198.198h-1zM25.7 14.68c.223 0 .404.18.404.404h1c0-.775-.628-1.404-1.404-1.404v1zm-.905 4.428a5.833 5.833 0 01-5.833-5.833h-1a6.833 6.833 0 006.833 6.833v-1zm5.833-5.833a5.833 5.833 0 01-5.833 5.833v1a6.833 6.833 0 006.833-6.833h-1zm-5.833-5.833a5.833 5.833 0 015.833 5.833h1a6.833 6.833 0 00-6.833-6.833v1zm0-1a6.833 6.833 0 00-6.833 6.833h1a5.833 5.833 0 015.833-5.833v-1z" fill="#000"/></svg>