<svg width="158" height="93" fill="none" xmlns="http://www.w3.org/2000/svg"><path d="M154.555 70.82c0-10.18-8.252-18.431-18.43-18.431-10.179 0-18.431 8.251-18.431 18.43s8.252 18.43 18.431 18.43c10.178 0 18.43-8.251 18.43-18.43z" fill="#FEF4FF"/><path d="M132.147 75.398h.5v-.5h-.5v.5zm0 3.21h-.5a.5.5 0 00.8.4l-.3-.4zm4.282-3.21v-.5h-.166l-.133.1.299.4zm-3.211-7.99h-.5v1h.5v-1zm6.423 1h.5v-1h-.5v1zm-6.423 2.21h-.5v1h.5v-1zm4.282 1h.5v-1h-.5v1zm-5.853 3.78v3.21h1v-3.21h-1zm.8 3.61l4.282-3.21-.599-.8-4.283 3.21.6.8zm3.982-3.11h6.424v-1h-6.424v1zm6.424 0a1.57 1.57 0 001.571-1.57h-1a.57.57 0 01-.571.57v1zm1.571-1.57v-9.63h-1v9.63h1zm0-9.63a1.57 1.57 0 00-1.571-1.57v1a.57.57 0 01.571.57h1zm-1.571-1.57h-12.847v1h12.847v-1zm-12.847 0a1.57 1.57 0 00-1.571 1.57h1a.57.57 0 01.571-.57v-1zm-1.571 1.57v9.63h1v-9.63h-1zm0 9.63c0 .868.703 1.57 1.571 1.57v-1a.57.57 0 01-.571-.57h-1zm1.571 1.57h2.141v-1h-2.141v1zm3.212-7.49h6.423v-1h-6.423v1zm0 3.21h4.282v-1h-4.282v1z" fill="#000"/><path d="M157.306 70.689c0-11.77-9.541-21.31-21.31-21.31-11.769 0-21.31 9.54-21.31 21.31s9.541 21.31 21.31 21.31c11.769 0 21.31-9.54 21.31-21.31zM104.434 1H69.646a3.34 3.34 0 00-3.34 3.34v34.788a3.34 3.34 0 003.34 3.34h34.788a3.34 3.34 0 003.34-3.34V4.34a3.34 3.34 0 00-3.34-3.34zM39.128 25.623H4.34A3.34 3.34 0 001 28.963v34.788a3.34 3.34 0 003.34 3.34h34.788a3.34 3.34 0 003.34-3.34V28.964a3.34 3.34 0 00-3.34-3.341z" stroke="#14161D"/><path d="M36.695 28.835H7.058a2.846 2.846 0 00-2.846 2.846v29.637a2.846 2.846 0 002.846 2.846h29.637a2.846 2.846 0 002.846-2.846V31.681a2.846 2.846 0 00-2.846-2.846zM69.992 8.948a4.262 4.262 0 014.262-4.262h25.572a4.262 4.262 0 014.262 4.262v14.917a4.262 4.262 0 01-4.262 4.262H74.254a4.262 4.262 0 01-4.262-4.262V8.948z" fill="#FEF4FF"/><path d="M17.808 40.397v-2.034c0-.749.607-1.356 1.356-1.356h2.034m6.78 0h2.035c.749 0 1.356.607 1.356 1.356v2.034m-8.814-3.39h4.068m1.356 13.56h2.034c.749 0 1.356-.606 1.356-1.355v-2.035m0-5.424v4.068m-15.595-3.39H13.74c-.749 0-1.356.607-1.356 1.356v2.034m0 6.78v2.035c0 .749.607 1.356 1.356 1.356h2.034m-3.39-8.815v4.069m10.17 4.746h2.035c.749 0 1.356-.607 1.356-1.356v-2.034m-8.815 3.39h4.068m-3.39-13.56v8.136h8.137V42.43h-8.137z" stroke="#000"/><path fill-rule="evenodd" clip-rule="evenodd" d="M83.577 36.12a.799.799 0 10.001-1.598.799.799 0 00-.001 1.597zm3.197 0a.799.799 0 100-1.598.799.799 0 000 1.597zm3.995-.8a.798.798 0 11-1.597 0 .798.798 0 011.597 0z" fill="#7F7ADA"/><path d="M94.499 11.08l5.327 5.458-5.327 5.197M79.582 11.08l-5.328 5.458 5.328 5.197" stroke="#3980FF" stroke-linecap="round" stroke-linejoin="round"/><path d="M86.464 49.955c.133 11.615-2.016 28.429 20.804 28.688" stroke="#7F7ADA" stroke-linecap="round" stroke-dasharray="2 3"/><path d="M23.486 20.27c.13-5.2-1.97-12.73 20.338-12.847H57.74" stroke="#3980FF" stroke-linecap="round" stroke-dasharray="2 3"/></svg>